<?xml version="1.0" encoding="UTF-8" standalone="no"?>
<!-- Generator: Adobe Illustrator 19.2.1, SVG Export Plug-In . SVG Version: 6.00 Build 0)  -->

<svg
   xmlns:dc="http://purl.org/dc/elements/1.1/"
   xmlns:cc="http://creativecommons.org/ns#"
   xmlns:rdf="http://www.w3.org/1999/02/22-rdf-syntax-ns#"
   xmlns:svg="http://www.w3.org/2000/svg"
   xmlns="http://www.w3.org/2000/svg"
   xmlns:sodipodi="http://sodipodi.sourceforge.net/DTD/sodipodi-0.dtd"
   xmlns:inkscape="http://www.inkscape.org/namespaces/inkscape"
   version="1.1"
   x="0px"
   y="0px"
   viewBox="0 0 128 128"
   style="enable-background:new 0 0 128 128;"
   xml:space="preserve"
   id="svg31554"
   inkscape:version="0.91 r13725"
   sodipodi:docname="1f35e.svg"><metadata
     id="metadata31700"><rdf:RDF><cc:Work
         rdf:about=""><dc:format>image/svg+xml</dc:format><dc:type
           rdf:resource="http://purl.org/dc/dcmitype/StillImage" /><dc:title></dc:title></cc:Work></rdf:RDF></metadata><defs
     id="defs31698" /><sodipodi:namedview
     pagecolor="#ffffff"
     bordercolor="#666666"
     borderopacity="1"
     objecttolerance="10"
     gridtolerance="10"
     guidetolerance="10"
     inkscape:pageopacity="0"
     inkscape:pageshadow="2"
     inkscape:window-width="640"
     inkscape:window-height="480"
     id="namedview31696"
     showgrid="false"
     inkscape:zoom="1.3037281"
     inkscape:cx="64"
     inkscape:cy="64"
     inkscape:window-x="0"
     inkscape:window-y="0"
     inkscape:window-maximized="0"
     inkscape:current-layer="图层_1" /><g
     id="Layer_2" /><g
     id="图层_1"><g
       id="g31658"><path
         style="fill:#C19048;"
         d="M122.74,94c-0.81-6.56-1.39-13.13-2-19.7c-0.41-4.44-0.23-8.96-1.35-13.35    c-1.11-4.32-4.53-8.19-4.83-12.65c-0.18-2.61,3.09-4.56,4.65-5.96c2.49-2.22,3.46-5.05,3.29-8.49    c-0.37-7.22-5.82-13.35-11.61-17.41c-4.66-3.27-10.1-5.47-15.82-6.8c-6.92-1.61-14.51-2.56-21.43-1.87    c-1.08,0.11-2.16,0.26-3.23,0.44l-0.01,0c-8.56,1.17-17.52,2.94-23.85,4.79c-9.44,2.75-17.17,4.98-27.18,9.79l31.58,52.95    c-0.54,6.33-0.88,12.7-0.88,19.09c0,3.42-0.85,8.55,4.01,8.84c4.71,0.29,9.42,0.64,14.13,1.02l9.08,15.21l41.62-12.16    c0.92-0.11,1.78-0.32,2.52-0.73l0.01,0l0,0c0.74-0.41,1.36-1,1.78-1.86C124.76,102,123.16,97.34,122.74,94z"
         id="path31660" /><path
         style="fill:#C19048;"
         d="M77.29,123.18c-1.13,0-2.23-0.59-2.83-1.61l-8.19-13.75c-4.13-0.32-8.25-0.62-12.38-0.88    c-7.43-0.45-7.22-7.76-7.13-10.88c0.02-0.43,0.03-0.86,0.03-1.25c0-5.71,0.26-11.71,0.79-18.31L16.54,24.46    c-0.47-0.8-0.59-1.76-0.33-2.64c0.27-0.89,0.9-1.62,1.73-2.02c10.15-4.88,18.14-7.2,27.38-9.89l0.31-0.09    c6.32-1.84,15.42-3.67,24.33-4.89c0.04,0,0.08-0.01,0.12-0.02c1.08-0.18,2.15-0.32,3.23-0.43c6.54-0.66,14.22,0.01,22.51,1.94    c6.51,1.51,12.22,3.97,16.96,7.31c4.65,3.27,12.51,10.2,13.01,19.94c0.23,4.58-1.24,8.32-4.38,11.12    c-0.33,0.3-0.74,0.63-1.19,0.98c-0.67,0.53-2.24,1.78-2.38,2.37c0.13,1.82,1.16,3.83,2.23,5.96c0.95,1.89,1.95,3.83,2.51,6.02    c0.87,3.35,1.03,6.65,1.2,9.85c0.06,1.34,0.13,2.69,0.25,4.02l0.19,2.02c0.54,5.77,1.08,11.74,1.79,17.57    c0.1,0.76,0.26,1.6,0.43,2.47c0.61,3.2,1.38,7.17-0.26,10.51c-0.7,1.42-1.76,2.53-3.16,3.3c-0.03,0.02-0.06,0.03-0.09,0.05    c-0.96,0.52-2.06,0.86-3.34,1.04l-41.38,12.1C77.91,123.14,77.6,123.18,77.29,123.18z M53.69,100.25c0,0,0.15,0.09,0.6,0.11    c4.72,0.29,9.46,0.65,14.18,1.02c1.07,0.08,2.03,0.68,2.57,1.6L78.81,116l39.18-11.45c0.18-0.05,0.36-0.09,0.54-0.11    c0.71-0.09,1.11-0.24,1.31-0.35c0.02-0.01,0.04-0.02,0.06-0.03c0.18-0.11,0.28-0.22,0.37-0.4c0.67-1.35,0.13-4.13-0.3-6.35    c-0.19-1.03-0.38-2.02-0.48-2.91c-0.74-5.94-1.29-11.96-1.83-17.78l-0.18-2.02c-0.14-1.43-0.21-2.86-0.28-4.3    c-0.15-2.99-0.29-5.83-0.99-8.53c-0.38-1.49-1.16-3.04-2-4.69c-1.27-2.5-2.71-5.33-2.92-8.57c-0.26-3.83,2.94-6.38,4.84-7.9    c0.33-0.27,0.64-0.51,0.9-0.74c1.64-1.47,2.32-3.28,2.19-5.87c-0.36-7.21-7.26-12.81-10.21-14.88c-4.06-2.85-8.99-4.97-14.67-6.28    c-7.58-1.77-14.54-2.38-20.36-1.8c-1,0.1-2.01,0.24-3.01,0.41c-0.1,0.02-0.21,0.03-0.31,0.04c-8.55,1.18-17.19,2.91-23.17,4.66    l-0.32,0.09c-8.25,2.4-14.97,4.36-23.08,7.99l29.71,49.81c0.35,0.59,0.51,1.28,0.45,1.97c-0.59,6.82-0.87,12.98-0.87,18.81    c0,0.46-0.01,0.94-0.03,1.45C53.32,97.31,53.25,99.78,53.69,100.25L53.69,100.25z"
         id="path31662" /></g><g
       id="g31664"><path
         style="fill:#F9F4D9;"
         d="M51.43,22.28c-6.93-1.61-14.51-2.56-21.44-1.87c-6.99,0.7-14.21,2.81-19.36,7.52    c-3.51,3.21-6.26,7.9-6.48,12.87c-0.11,2.46,0.35,4.98,1.69,7.17c1.53,2.49,4.49,3.81,6.02,6.12c2.56,3.88,0.17,8.47-1.13,12.09    c-2.19,6.09-2.6,13-3.23,19.5c-0.7,7.22-1.07,14.49-1.07,21.79c0,3.42-0.84,8.55,4,8.84c19.88,1.23,39.73,3.48,59.6,4.04    c3.22,0.09,7.88,0.8,9.54-2.58c1.53-3.12-0.07-7.77-0.48-11.12c-0.81-6.56-1.39-13.13-2-19.7c-0.41-4.44-0.23-8.96-1.36-13.34    c-1.11-4.32-4.54-8.21-4.83-12.66c-0.17-2.61,3.09-4.57,4.65-5.96c2.48-2.22,3.46-5.05,3.28-8.5    c-0.37-7.22-5.82-13.34-11.61-17.41C62.59,25.81,57.15,23.61,51.43,22.28z"
         id="path31666" /><path
         style="fill:#F9F4D9;"
         d="M73.44,123.77L73.44,123.77c-0.78,0-1.57-0.04-2.32-0.08l-1.18-0.05    c-12.46-0.35-25.07-1.38-37.27-2.37c-7.36-0.6-14.97-1.22-22.44-1.68c-7.43-0.46-7.22-7.76-7.13-10.88    c0.01-0.43,0.03-0.86,0.03-1.25c0-7.16,0.37-14.59,1.08-22.1l0.22-2.31c0.55-6.01,1.12-12.23,3.2-18    c0.17-0.49,0.38-1.02,0.59-1.55c1.32-3.41,2.09-5.79,0.89-7.6c-0.46-0.7-1.32-1.41-2.22-2.15c-1.31-1.07-2.78-2.29-3.87-4.06    c-1.57-2.57-2.33-5.7-2.17-9.05c0.25-5.47,3-11,7.55-15.16c5.08-4.64,12.24-7.46,21.26-8.36c6.54-0.65,14.22,0,22.51,1.94    c6.52,1.52,12.24,3.98,16.97,7.31c4.65,3.27,12.51,10.2,13.01,19.94c0.23,4.58-1.25,8.32-4.38,11.12    c-0.34,0.3-0.75,0.63-1.19,0.98c-0.67,0.54-2.24,1.79-2.38,2.37c0.13,1.82,1.14,3.83,2.22,5.96c0.96,1.89,1.95,3.84,2.51,6.03    c0.86,3.35,1.03,6.65,1.19,9.84c0.07,1.35,0.14,2.69,0.26,4.03l0.19,2c0.54,5.78,1.09,11.76,1.81,17.59    c0.09,0.76,0.26,1.6,0.42,2.47c0.62,3.2,1.38,7.17-0.26,10.51C80.3,123.77,75.14,123.77,73.44,123.77z M10.05,112.9    c0,0,0.15,0.09,0.59,0.12c7.53,0.47,15.18,1.09,22.57,1.69c12.11,0.98,24.63,2,36.92,2.35c0.41,0.01,0.85,0.03,1.31,0.05    c0.65,0.03,1.33,0.07,2,0.07c2.75,0,3.06-0.62,3.17-0.86c0.67-1.35,0.13-4.12-0.3-6.35c-0.2-1.03-0.38-2.01-0.5-2.91    c-0.73-5.94-1.29-11.97-1.82-17.8l-0.19-2c-0.13-1.43-0.21-2.86-0.28-4.3c-0.15-2.99-0.3-5.83-0.99-8.53    c-0.38-1.49-1.17-3.05-2.01-4.69c-1.26-2.5-2.7-5.34-2.92-8.57c-0.26-3.83,2.94-6.38,4.84-7.91c0.33-0.26,0.65-0.51,0.9-0.74    c1.64-1.47,2.32-3.28,2.19-5.87c-0.36-7.21-7.26-12.81-10.21-14.88c-4.04-2.84-8.98-4.96-14.67-6.29    c-7.58-1.76-14.53-2.38-20.36-1.79c-5.21,0.52-12.47,2.1-17.47,6.67c-3.22,2.95-5.25,6.9-5.41,10.59    c-0.06,1.41,0.09,3.48,1.21,5.3c0.5,0.82,1.44,1.6,2.43,2.42c1.18,0.98,2.53,2.08,3.53,3.6c3.17,4.79,1.2,9.89-0.24,13.62    c-0.19,0.48-0.37,0.95-0.54,1.41c-1.79,4.97-2.32,10.76-2.83,16.36l-0.22,2.33c-0.7,7.3-1.06,14.53-1.06,21.48    c0,0.46-0.02,0.94-0.03,1.45C9.67,109.97,9.6,112.44,10.05,112.9L10.05,112.9z"
         id="path31668" /></g><g
       id="g31670"><path
         style="fill:#FFCC80;"
         d="M82.04,29.6c0.65,1.05,1.26,2.13,2.12,3.05c1.62,1.73,4.63,1.83,5.3-0.5    c0.97-3.37-5.7-10.01-8.71-6.77c-1.15,1.24-0.17,2.13,0.62,3.21C81.61,28.92,81.83,29.26,82.04,29.6z"
         id="path31672" /><path
         style="fill:#FFCC80;"
         d="M94.32,27.17c0.66,1.05,1.26,2.14,2.11,3.05c1.62,1.73,4.64,1.83,5.31-0.49    c0.97-3.38-5.71-10.02-8.71-6.77c-1.14,1.24-0.17,2.13,0.62,3.21C93.88,26.49,94.11,26.83,94.32,27.17z"
         id="path31674" /><path
         style="fill:#FFCC80;"
         d="M104.51,24.79c0.67,1.05,1.26,2.14,2.12,3.05c1.62,1.74,4.63,1.84,5.3-0.49    c0.97-3.37-5.69-10.01-8.7-6.77c-1.15,1.24-0.16,2.13,0.63,3.21C104.08,24.12,104.29,24.46,104.51,24.79z"
         id="path31676" /></g><g
       id="g31678"><path
         style="fill:#E2D9C3;"
         d="M37.59,43.02c-0.29,0.9-0.63,1.79-0.75,2.74c-0.22,1.8,1.2,3.62,2.9,2.87    c2.46-1.08,3.08-8.26-0.3-8.43c-1.29-0.07-1.34,0.95-1.58,1.94C37.77,42.43,37.68,42.73,37.59,43.02z"
         id="path31680" /><path
         style="fill:#E2D9C3;"
         d="M27.71,78.99c0.92,0.28,1.83,0.61,2.8,0.71c1.85,0.18,3.72-1.3,2.96-3.02    c-1.11-2.48-8.46-2.96-8.65,0.5c-0.07,1.32,0.97,1.34,1.98,1.57C27.1,78.82,27.41,78.9,27.71,78.99z"
         id="path31682" /><path
         style="fill:#E2D9C3;"
         d="M56.18,47.27c0.92,0.28,1.83,0.61,2.8,0.71c1.85,0.18,3.72-1.3,2.96-3.02    c-1.11-2.48-8.46-2.96-8.65,0.5c-0.07,1.32,0.97,1.34,1.98,1.57C55.58,47.1,55.89,47.17,56.18,47.27z"
         id="path31684" /><path
         style="fill:#E2D9C3;"
         d="M57.17,83.24c0.41,0.82,0.77,1.65,1.33,2.38c1.06,1.38,3.26,1.67,3.92,0.02    c0.95-2.4-3.45-7.73-5.89-5.57c-0.92,0.82-0.27,1.54,0.23,2.39C56.9,82.72,57.05,82.98,57.17,83.24z"
         id="path31686" /><path
         style="fill:#E2D9C3;"
         d="M14.72,106.06c0.42,0.84,0.79,1.7,1.36,2.45c1.09,1.42,3.35,1.72,4.03,0.02    c0.98-2.47-3.55-7.96-6.06-5.73c-0.95,0.85-0.28,1.59,0.23,2.46C14.44,105.52,14.59,105.79,14.72,106.06z"
         id="path31688" /><path
         style="fill:#E2D9C3;"
         d="M49.19,109.77c0.42,0.84,0.79,1.7,1.36,2.45c1.09,1.42,3.35,1.72,4.03,0.02    c0.98-2.47-3.55-7.96-6.06-5.73c-0.95,0.85-0.28,1.59,0.23,2.46C48.91,109.23,49.06,109.5,49.19,109.77z"
         id="path31690" /><path
         style="fill:#E2D9C3;"
         d="M61.7,100.38c-0.62,0.7-1.29,1.35-1.77,2.16c-0.92,1.53-0.39,3.72,1.44,3.73    c2.64,0.02,6.08-6.16,3.12-7.68c-1.13-0.58-1.58,0.32-2.19,1.11C62.1,99.93,61.9,100.16,61.7,100.38z"
         id="path31692" /><path
         style="fill:#E2D9C3;"
         d="M28.38,31.1c-0.62,0.7-1.29,1.35-1.77,2.16c-0.92,1.53-0.39,3.72,1.44,3.73    c2.64,0.02,6.08-6.16,3.12-7.68c-1.13-0.58-1.58,0.32-2.19,1.11C28.78,30.65,28.57,30.88,28.38,31.1z"
         id="path31694" /></g></g></svg>