<?xml version="1.0" encoding="UTF-8" standalone="no"?>
<!-- Generator: Adobe Illustrator 19.2.1, SVG Export Plug-In . SVG Version: 6.00 Build 0)  -->

<svg
   xmlns:dc="http://purl.org/dc/elements/1.1/"
   xmlns:cc="http://creativecommons.org/ns#"
   xmlns:rdf="http://www.w3.org/1999/02/22-rdf-syntax-ns#"
   xmlns:svg="http://www.w3.org/2000/svg"
   xmlns="http://www.w3.org/2000/svg"
   xmlns:xlink="http://www.w3.org/1999/xlink"
   xmlns:sodipodi="http://sodipodi.sourceforge.net/DTD/sodipodi-0.dtd"
   xmlns:inkscape="http://www.inkscape.org/namespaces/inkscape"
   version="1.1"
   x="0px"
   y="0px"
   viewBox="0 0 128 128"
   style="enable-background:new 0 0 128 128;"
   xml:space="preserve"
   id="svg32823"
   inkscape:version="0.91 r13725"
   sodipodi:docname="1f378.svg"><metadata
     id="metadata32937"><rdf:RDF><cc:Work
         rdf:about=""><dc:format>image/svg+xml</dc:format><dc:type
           rdf:resource="http://purl.org/dc/dcmitype/StillImage" /><dc:title></dc:title></cc:Work></rdf:RDF></metadata><defs
     id="defs32935" /><sodipodi:namedview
     pagecolor="#ffffff"
     bordercolor="#666666"
     borderopacity="1"
     objecttolerance="10"
     gridtolerance="10"
     guidetolerance="10"
     inkscape:pageopacity="0"
     inkscape:pageshadow="2"
     inkscape:window-width="640"
     inkscape:window-height="480"
     id="namedview32933"
     showgrid="false"
     inkscape:zoom="0.23046875"
     inkscape:cx="64"
     inkscape:cy="64"
     inkscape:window-x="0"
     inkscape:window-y="0"
     inkscape:window-maximized="0"
     inkscape:current-layer="图层_1" /><g
     id="Layer_2" /><g
     id="图层_1"><g
       id="g32891"><path
         style="fill:#D1EBED;"
         d="M61.06,39.68C27.07,38.33,9.28,27.88,9.42,28.37c2.43,8.36,45.06,40.07,45.57,44.07    c1.97,15.43,1.29,27.05,0.47,31.38c-0.75,3.97-2.27,6.47-3.22,7.23c-2.61,2.06-5.21,2.9-9.11,3.9c-2.63,0.67-8.72,1.94-8.72,5.54    c0,4.53,14.78,6.84,26.66,6.84V39.68L61.06,39.68z"
         id="path32893" /><path
         style="fill:#D1EBED;"
         d="M61.06,39.68c33.99-1.35,51.78-11.81,51.64-11.32c-2.43,8.36-45.06,40.07-45.57,44.07    c-1.97,15.43-1.29,27.05-0.47,31.38c0.75,3.97,2.27,6.47,3.22,7.23c2.61,2.06,5.21,2.9,9.11,3.9c2.63,0.67,8.72,1.94,8.72,5.54    c0,4.53-14.78,6.84-26.66,6.84V39.68L61.06,39.68z"
         id="path32895" /><path
         style="fill:#FFFFFF;"
         d="M45.37,118.48c-0.82-0.12-1.82,0.23-1.75,0.92c0.06,0.57,0.78,0.89,1.41,1.08    c2.51,0.79,6.47,1.17,10.65,1.41c0.57,0.03,1.66-0.08,2.01-0.46c0.38-0.41,0.11-0.87-0.38-1.2c-0.5-0.34-1.15-0.44-1.77-0.5    C50.36,119.29,49.48,119.17,45.37,118.48z"
         id="path32897" /><path
         style="fill:#F1F8E9;"
         d="M61.06,38.33H28.25l25.97,23c3.83,3.39,9.84,3.39,13.67,0l25.97-23H61.06z"
         id="path32899" /><g
         id="g32901"><path
           style="fill:#AECECE;"
           d="M113.11,26.13c0,9.95-23.3,15.5-52.05,15.5c-28.76,0-52.05-5.54-52.05-15.5     c0-9.94,23.29-15.5,52.05-15.5C89.81,10.62,113.11,16.18,113.11,26.13z"
           id="path32903" /><g
           id="g32905"><defs
             id="defs32907"><path
               id="SVGID_7_"
               d="M107.97,26.13c0,7.83-21,12.19-46.91,12.19c-25.92,0-46.91-4.36-46.91-12.19       c0-7.82,20.99-12.2,46.91-12.2C86.97,13.93,107.97,18.3,107.97,26.13z" /></defs><use
             xlink:href="#SVGID_7_"
             style="overflow:visible;fill:#D1EBED;"
             id="use32910" /><clipPath
             id="SVGID_8_"><use
               xlink:href="#SVGID_7_"
               style="overflow:visible;"
               id="use32913" /></clipPath><path
             style="clip-path:url(#SVGID_8_);fill:#E6EE9C;"
             d="M99.92,38.33c0,7.83-17.39,12.19-38.86,12.19      c-21.47,0-38.86-4.36-38.86-12.19c0-7.82,17.39-12.2,38.86-12.2C82.53,26.13,99.92,30.51,99.92,38.33z"
             id="path32915"
             clip-path="url(#SVGID_8_)" /></g></g><polygon
         style="fill:#FBB817;"
         points="59.35,48.52 63.25,52.41 75.52,40.09 67.55,40.29   "
         id="polygon32917" /><g
         id="g32919"><defs
           id="defs32921"><path
             id="SVGID_9_"
             d="M67.7,52.1c0,4.42-3.79,8.01-8.48,8.01c-4.68,0-8.47-3.59-8.47-8.01c0-4.43,3.79-8.01,8.47-8.01      C63.9,44.09,67.7,47.67,67.7,52.1z" /></defs><use
           xlink:href="#SVGID_9_"
           style="overflow:visible;fill:#626E30;"
           id="use32924" /><clipPath
           id="SVGID_10_"><use
             xlink:href="#SVGID_9_"
             style="overflow:visible;"
             id="use32927" /></clipPath></g><path
         style="fill:#AECECE;"
         d="M61.06,10.62c-28.76,0-52.05,5.56-52.05,15.5c0,9.95,23.29,15.5,52.05,15.5    c28.75,0,52.05-5.54,52.05-15.5C113.11,16.18,89.81,10.62,61.06,10.62z M61.06,38.32c-25.92,0-46.91-4.36-46.91-12.19    c0-7.82,20.99-12.2,46.91-12.2c25.92,0,46.91,4.37,46.91,12.2C107.97,33.96,86.97,38.32,61.06,38.32z"
         id="path32929" /><path
         style="fill:#FBB817;"
         d="M117.85,1.81c-1.08-1.07-2.45-1.45-3.05-0.84L78.3,37.61c3.11-0.28,6.08-0.62,8.82-1.06L118.7,4.86    C119.31,4.25,118.93,2.88,117.85,1.81z"
         id="path32931" /></g></g></svg>