<?xml version="1.0" encoding="UTF-8" standalone="no"?>
<!-- Generator: Adobe Illustrator 19.2.1, SVG Export Plug-In . SVG Version: 6.00 Build 0)  -->

<svg
   xmlns:dc="http://purl.org/dc/elements/1.1/"
   xmlns:cc="http://creativecommons.org/ns#"
   xmlns:rdf="http://www.w3.org/1999/02/22-rdf-syntax-ns#"
   xmlns:svg="http://www.w3.org/2000/svg"
   xmlns="http://www.w3.org/2000/svg"
   xmlns:sodipodi="http://sodipodi.sourceforge.net/DTD/sodipodi-0.dtd"
   xmlns:inkscape="http://www.inkscape.org/namespaces/inkscape"
   version="1.1"
   id="Layer_1"
   x="0px"
   y="0px"
   viewBox="0 0 128 128"
   style="enable-background:new 0 0 128 128;"
   xml:space="preserve"
   inkscape:version="0.91 r13725"
   sodipodi:docname="1f440.svg"><metadata
     id="metadata23"><rdf:RDF><cc:Work
         rdf:about=""><dc:format>image/svg+xml</dc:format><dc:type
           rdf:resource="http://purl.org/dc/dcmitype/StillImage" /></cc:Work></rdf:RDF></metadata><defs
     id="defs21" /><sodipodi:namedview
     pagecolor="#ffffff"
     bordercolor="#666666"
     borderopacity="1"
     objecttolerance="10"
     gridtolerance="10"
     guidetolerance="10"
     inkscape:pageopacity="0"
     inkscape:pageshadow="2"
     inkscape:window-width="771"
     inkscape:window-height="480"
     id="namedview19"
     showgrid="false"
     inkscape:zoom="1.84375"
     inkscape:cx="-3.2566082"
     inkscape:cy="64"
     inkscape:window-x="0"
     inkscape:window-y="0"
     inkscape:window-maximized="0"
     inkscape:current-layer="Layer_1" /><g
     id="g5"><g
       id="g7"><ellipse
         style="fill:#FFFFFF;"
         cx="36"
         cy="64.28"
         rx="20.09"
         ry="16.13"
         id="ellipse9" /><path
         style="fill:#2F2F2F;"
         d="M35.98,47.59c-18.83,0-24.97,21.2-22.32,21.2c0.77,0,1.39-1.27,2.34-3.07    c0.15,1.38,0.52,2.71,1.08,3.97c2.45,4.77,7.42,8.03,13.15,8.03c8.17,0,14.79-6.62,14.79-14.79c0-3.18-1.01-6.13-2.72-8.54    c12.72,2.91,13.57,14.4,16,14.4C61.09,68.79,54.81,47.59,35.98,47.59z M41.06,60.31c-0.33,1.66-2.19,2.7-4.15,2.31    c-1.97-0.39-3.29-2.05-2.96-3.71s2.19-2.7,4.15-2.31C40.06,56.99,41.39,58.65,41.06,60.31z"
         id="path11" /></g><g
       id="g13"><ellipse
         style="fill:#FFFFFF;"
         cx="92"
         cy="64.28"
         rx="20.09"
         ry="16.13"
         id="ellipse15" /><path
         style="fill:#2F2F2F;"
         d="M91.98,47.59c-18.83,0-24.97,21.2-22.32,21.2c0.77,0,1.39-1.27,2.34-3.07    c0.15,1.38,0.52,2.71,1.08,3.97c2.45,4.77,7.42,8.03,13.15,8.03c8.17,0,14.79-6.62,14.79-14.79c0-3.18-1.01-6.13-2.72-8.54    c12.72,2.91,13.57,14.4,16,14.4C117.09,68.79,110.81,47.59,91.98,47.59z M97.06,60.31c-0.33,1.66-2.19,2.7-4.15,2.31    c-1.97-0.39-3.29-2.05-2.96-3.71s2.19-2.7,4.15-2.31C96.06,56.99,97.39,58.65,97.06,60.31z"
         id="path17" /></g></g></svg>