<?xml version="1.0" encoding="UTF-8" standalone="no"?>
<!-- Generator: Adobe Illustrator 19.2.1, SVG Export Plug-In . SVG Version: 6.00 Build 0)  -->

<svg
   xmlns:dc="http://purl.org/dc/elements/1.1/"
   xmlns:cc="http://creativecommons.org/ns#"
   xmlns:rdf="http://www.w3.org/1999/02/22-rdf-syntax-ns#"
   xmlns:svg="http://www.w3.org/2000/svg"
   xmlns="http://www.w3.org/2000/svg"
   xmlns:sodipodi="http://sodipodi.sourceforge.net/DTD/sodipodi-0.dtd"
   xmlns:inkscape="http://www.inkscape.org/namespaces/inkscape"
   version="1.1"
   id="Layer_1"
   x="0px"
   y="0px"
   viewBox="0 0 128 128"
   style="enable-background:new 0 0 128 128;"
   xml:space="preserve"
   inkscape:version="0.91 r13725"
   sodipodi:docname="1f46c.svg"><metadata
     id="metadata127"><rdf:RDF><cc:Work
         rdf:about=""><dc:format>image/svg+xml</dc:format><dc:type
           rdf:resource="http://purl.org/dc/dcmitype/StillImage" /><dc:title></dc:title></cc:Work></rdf:RDF></metadata><defs
     id="defs125" /><sodipodi:namedview
     pagecolor="#ffffff"
     bordercolor="#666666"
     borderopacity="1"
     objecttolerance="10"
     gridtolerance="10"
     guidetolerance="10"
     inkscape:pageopacity="0"
     inkscape:pageshadow="2"
     inkscape:window-width="1024"
     inkscape:window-height="768"
     id="namedview123"
     showgrid="false"
     inkscape:zoom="3.6875"
     inkscape:cx="72.33309"
     inkscape:cy="60.164844"
     inkscape:window-x="0"
     inkscape:window-y="0"
     inkscape:window-maximized="1"
     inkscape:current-layer="Layer_1" /><g
     id="XMLID_58_"><g
       id="XMLID_61_"><g
         id="XMLID_117_"><path
           id="XMLID_57_"
           style="fill:#FCC21B;"
           d="M15.18,61.24l-0.66,1.76c-1.29,3.47-2.94,6.8-4.93,9.93l-6.48,10     c-0.93,1.42-0.64,3.52,0.68,4.59l0,0c1.51,1.22,4.05,0.88,5.13-0.74l15.75-23.61l0.32-4.08L15.18,61.24z" /></g><g
         id="XMLID_114_" /><g
         inkscape:groupmode="layer"
         id="layer3"
         inkscape:label="Layer 3"
         style="display:inline"><path
           id="XMLID_55_"
           style="display:inline;fill:#fcc21b"
           d="M 57.29,61.24 57.95,63 c 1.29,3.47 2.94,6.8 4.93,9.93 l 6.48,10 c 0.93,1.42 0.64,3.52 -0.68,4.59 l 0,0 c -1.51,1.22 -4.05,0.88 -5.13,-0.74 l -15.77,-23.6 -0.32,-4.08 9.83,2.14 z"
           inkscape:connector-curvature="0" /><path
           id="XMLID_86_"
           style="fill:#fcc21b"
           d="m 113.38,61.24 0.66,1.76 c 1.29,3.47 2.94,6.8 4.93,9.93 l 6.48,10 c 0.93,1.42 0.64,3.52 -0.68,4.59 l 0,0 c -1.51,1.22 -4.05,0.88 -5.13,-0.74 l -15.75,-23.61 -0.32,-4.08 9.81,2.15 z"
           inkscape:connector-curvature="0" /></g><g
         inkscape:groupmode="layer"
         id="layer2"
         inkscape:label="Layer 2"
         style="display:inline"><path
           id="XMLID_89_"
           style="fill:#fcc21b"
           d="M 71.28,61.24 70.62,63 c -1.29,3.47 -2.94,6.8 -4.93,9.93 l -6.48,10 c -0.93,1.42 -0.64,3.52 0.68,4.59 l 0,0 c 1.51,1.22 4.05,0.88 5.13,-0.74 l 15.75,-23.61 0.32,-4.08 -9.81,2.15 z"
           inkscape:connector-curvature="0" /><path
           style="fill:#007689"
           d="m 92.330078,49.820312 c -3.62,-0.01 -8.169844,0.420547 -10.589844,1.060547 -7.55,2.01 -9.40039,5.558438 -11.65039,11.648438 l 8.40039,3.199219 0,16.162109 13.835938,0 0,0.0098 13.769528,0 0,-16.142579 8.47461,-3.228515 c -2.25,-6.09 -4.10039,-9.638438 -11.65039,-11.648438 -2.42,-0.64 -6.969842,-1.070545 -10.589842,-1.060547 z"
           id="XMLID_88_"
           inkscape:connector-curvature="0" /><path
           style="fill:#00bfa5"
           d="m 36.230469,49.820312 c -3.62,-0.01 -8.169844,0.420547 -10.589844,1.060547 -7.55,2.01 -9.400391,5.558438 -11.650391,11.648438 l 8.410157,3.203125 0,16.158203 13.835937,0 0,0.0098 13.771484,0 0,-16.148438 8.462891,-3.222656 c -2.25,-6.09 -4.100391,-9.638438 -11.650391,-11.648438 -2.419999,-0.64 -6.969843,-1.070545 -10.589843,-1.060547 z"
           id="XMLID_56_"
           inkscape:connector-curvature="0" /></g><g
         inkscape:groupmode="layer"
         id="layer1"
         inkscape:label="Layer 1"
         style="display:inline"><path
           id="XMLID_12_"
           style="fill:#fcc21b"
           d="m 36.23,57.47 0,0 c -2.92,0 -5.29,-2.37 -5.29,-5.29 l 0,-4.52 10.58,0 0,4.52 c 0,2.92 -2.36,5.29 -5.29,5.29 z"
           inkscape:connector-curvature="0" /><path
           id="XMLID_11_"
           style="fill:#e8a23d"
           d="m 41.53,51.74 c 0,0 -2.02,0.82 -5.29,0.82 -3.27,0 -5.3,-0.72 -5.3,-0.72 l 0,-5.19 c 0,-1.39 0.92,-2.89 2.31,-2.89 l 5.98,0 c 1.39,0 2.3,1.41 2.3,2.8 l 0,5.18 z"
           inkscape:connector-curvature="0" /><path
           id="XMLID_77_"
           style="fill:#fcc21b"
           d="m 92.33,57.47 0,0 c -2.92,0 -5.29,-2.37 -5.29,-5.29 l 0,-4.52 10.58,0 0,4.52 c 0,2.92 -2.37,5.29 -5.29,5.29 z"
           inkscape:connector-curvature="0" /><path
           id="XMLID_76_"
           style="fill:#e8a23d"
           d="m 97.62,51.74 c 0,0 -2.02,0.82 -5.29,0.82 -3.27,0 -5.3,-0.72 -5.3,-0.72 l 0,-5.19 c 0,-1.39 0.92,-2.89 2.31,-2.89 l 5.98,0 c 1.39,0 2.3,1.41 2.3,2.8 l 0,5.18 z"
           inkscape:connector-curvature="0" /><g
           id="XMLID_1_"><g
             id="XMLID_8_"><path
               id="XMLID_10_"
               style="fill:#e59600"
               d="m 52.15,29.71 c 0,0 2.92,0.51 2.92,3.65 0,2.77 -2.13,3.87 -4.26,3.87 l 0,-7.51 1.34,0 z"
               inkscape:connector-curvature="0" /><path
               id="XMLID_9_"
               style="fill:#e59600"
               d="m 20.32,29.71 c 0,0 -2.92,0.51 -2.92,3.65 0,2.77 2.13,3.87 4.26,3.87 l 0,-7.51 -1.34,0 z"
               inkscape:connector-curvature="0" /></g><path
             id="XMLID_7_"
             style="fill:#fcc21b"
             d="m 36.23,9.13 c -12.57,0 -15.86,9.75 -15.86,23.44 0,14.2 9.13,17.87 15.86,17.87 6.64,0 15.86,-3.57 15.86,-17.87 C 52.1,18.88 48.81,9.13 36.23,9.13 Z"
             inkscape:connector-curvature="0" /><path
             id="XMLID_6_"
             style="fill:#444444"
             d="m 31.01,33.84 c 0,1.41 -0.95,2.56 -2.12,2.56 -1.17,0 -2.12,-1.15 -2.12,-2.56 0,-1.42 0.95,-2.56 2.12,-2.56 1.17,0 2.12,1.15 2.12,2.56"
             inkscape:connector-curvature="0" /><path
             id="XMLID_5_"
             style="fill:#444444"
             d="m 41.46,33.84 c 0,1.41 0.95,2.56 2.12,2.56 1.17,0 2.12,-1.15 2.12,-2.56 0,-1.42 -0.95,-2.56 -2.12,-2.56 -1.18,0 -2.12,1.15 -2.12,2.56"
             inkscape:connector-curvature="0" /><path
             id="XMLID_4_"
             style="fill:#513f35"
             d="m 40.83,42.49 c -0.64,0 -4.59,0 -4.59,0 0,0 -3.95,0 -4.59,0 -0.53,0 -0.75,0.35 -0.4,0.88 0.49,0.74 2.3,2.17 5,2.17 2.7,0 4.51,-1.43 5,-2.17 0.33,-0.52 0.1,-0.88 -0.42,-0.88 z"
             inkscape:connector-curvature="0" /><path
             id="XMLID_3_"
             style="fill:#e59600"
             d="m 38.45,38.59 c -0.78,0.22 -1.59,0.33 -2.22,0.33 -0.63,0 -1.44,-0.11 -2.22,-0.33 -0.33,-0.09 -0.47,0.22 -0.35,0.43 0.25,0.44 1.25,1.32 2.56,1.32 1.32,0 2.32,-0.88 2.56,-1.32 0.14,-0.21 0.01,-0.52 -0.33,-0.43 z"
             inkscape:connector-curvature="0" /><path
             id="XMLID_2_"
             style="fill:#6d4c41"
             d="m 36.61,7.34 c 0,0 -0.25,-0.01 -0.35,-0.01 -0.11,0 -0.35,0.01 -0.35,0.01 -13.57,0.26 -17.66,8.42 -17.66,14.09 0,5.5 0.01,9.54 0.01,9.54 0,0 0.22,-0.22 0.61,-0.53 0.42,-0.33 0.9,-0.52 0.9,-0.52 l 0.69,4.6 4.52,-9.45 c 0.03,-0.06 0.09,-0.09 0.15,-0.09 l 2.68,0.3 c 2.69,0.3 5.4,0.44 8.1,0.45 l 0,0.01 c 0.12,0 0.23,0 0.35,0 0.12,0 0.23,0 0.35,0 l 0,-0.01 c 2.71,-0.01 5.41,-0.15 8.1,-0.45 l 2.68,-0.3 c 0.06,-0.01 0.13,0.03 0.15,0.09 l 4.52,9.45 0.69,-4.6 c 0,0 0.47,0.19 0.9,0.52 0.4,0.31 0.61,0.53 0.61,0.53 0,0 0.01,-4.04 0.01,-9.54 0,-5.66 -4.09,-13.82 -17.66,-14.09 z"
             inkscape:connector-curvature="0" /></g><g
           id="XMLID_66_"><g
             id="XMLID_73_"><path
               id="XMLID_75_"
               style="fill:#e59600"
               d="m 108.24,29.71 c 0,0 2.92,0.51 2.92,3.65 0,2.77 -2.13,3.87 -4.26,3.87 l 0,-7.51 1.34,0 z"
               inkscape:connector-curvature="0" /><path
               id="XMLID_74_"
               style="fill:#e59600"
               d="m 76.42,29.71 c 0,0 -2.92,0.51 -2.92,3.65 0,2.77 2.13,3.87 4.26,3.87 l 0,-7.51 -1.34,0 z"
               inkscape:connector-curvature="0" /></g><path
             id="XMLID_72_"
             style="fill:#fcc21b"
             d="m 92.33,9.13 c -12.57,0 -15.86,9.75 -15.86,23.44 0,14.2 9.13,17.87 15.86,17.87 6.64,0 15.86,-3.57 15.86,-17.87 0,-13.69 -3.29,-23.44 -15.86,-23.44 z"
             inkscape:connector-curvature="0" /><path
             id="XMLID_71_"
             style="fill:#444444"
             d="m 87.11,33.84 c 0,1.41 -0.95,2.56 -2.12,2.56 -1.17,0 -2.12,-1.15 -2.12,-2.56 0,-1.42 0.95,-2.56 2.12,-2.56 1.17,0 2.12,1.15 2.12,2.56"
             inkscape:connector-curvature="0" /><path
             id="XMLID_70_"
             style="fill:#444444"
             d="m 97.55,33.84 c 0,1.41 0.95,2.56 2.12,2.56 1.17,0 2.12,-1.15 2.12,-2.56 0,-1.42 -0.95,-2.56 -2.12,-2.56 -1.17,0 -2.12,1.15 -2.12,2.56"
             inkscape:connector-curvature="0" /><path
             id="XMLID_69_"
             style="fill:#513f35"
             d="m 96.92,42.49 c -0.64,0 -4.59,0 -4.59,0 0,0 -3.95,0 -4.59,0 -0.53,0 -0.75,0.35 -0.4,0.88 0.49,0.74 2.3,2.17 5,2.17 2.7,0 4.51,-1.43 5,-2.17 0.33,-0.52 0.11,-0.88 -0.42,-0.88 z"
             inkscape:connector-curvature="0" /><path
             id="XMLID_68_"
             style="fill:#e59600"
             d="m 94.55,38.59 c -0.78,0.22 -1.59,0.33 -2.22,0.33 -0.63,0 -1.44,-0.11 -2.22,-0.33 -0.33,-0.09 -0.47,0.22 -0.35,0.43 0.25,0.44 1.25,1.32 2.56,1.32 1.32,0 2.32,-0.88 2.56,-1.32 0.13,-0.21 0,-0.52 -0.33,-0.43 z"
             inkscape:connector-curvature="0" /><path
             id="XMLID_67_"
             style="fill:#6d4c41"
             d="m 92.71,7.34 c 0,0 -0.25,-0.01 -0.35,-0.01 -0.11,0 -0.35,0.01 -0.35,0.01 -13.57,0.26 -17.66,8.42 -17.66,14.09 0,5.5 0.01,9.54 0.01,9.54 0,0 0.22,-0.22 0.61,-0.53 0.42,-0.33 0.9,-0.52 0.9,-0.52 l 0.69,4.6 4.52,-9.45 c 0.03,-0.06 0.09,-0.09 0.15,-0.09 l 2.68,0.3 c 2.69,0.3 5.4,0.44 8.1,0.45 l 0,0.01 c 0.12,0 0.23,0 0.35,0 0.12,0 0.23,0 0.35,0 l 0,-0.01 c 2.71,-0.01 5.41,-0.15 8.1,-0.45 l 2.68,-0.3 c 0.06,-0.01 0.13,0.03 0.15,0.09 l 4.52,9.45 0.69,-4.6 c 0,0 0.47,0.19 0.9,0.52 0.4,0.31 0.61,0.53 0.61,0.53 0,0 0.01,-4.04 0.01,-9.54 0,-5.66 -4.09,-13.82 -17.66,-14.09 z"
             inkscape:connector-curvature="0" /></g></g><rect
         id="XMLID_52_"
         x="22.4"
         y="81.9"
         style="fill:#616161;"
         width="10.71"
         height="45.72" /><path
         id="XMLID_51_"
         style="fill:#444444;"
         d="M34.51,128H21v-3.5c0-2.21,1.79-4,4-4h5.5c2.21,0,4,1.79,4,4V128z" /><rect
         id="XMLID_49_"
         x="39.29"
         y="81.9"
         transform="matrix(-1 -1.224647e-16 1.224647e-16 -1 89.2916 209.509)"
         style="fill:#616161;"
         width="10.71"
         height="45.72" /><path
         id="XMLID_48_"
         style="fill:#444444;"
         d="M37.89,128h13.5v-3.5c0-2.21-1.79-4-4-4h-5.5c-2.21,0-4,1.79-4,4V128z" /><path
         style="fill:#616161;"
         d="M50,81.9H22.4v15.54h10.71v-0.9c0-1.32,1.07-2.39,2.39-2.39h1.4c1.32,0,2.39,1.07,2.39,2.39v0.9H50    V81.9z"
         id="path94" /><path
         style="fill:#616161;"
         d="M106.1,81.9h-27.6v15.54h10.71v-0.9c0-1.32,1.07-2.39,2.39-2.39H93c1.32,0,2.39,1.07,2.39,2.39v0.9    h10.71V81.9z"
         id="path96" /></g><g
       id="XMLID_63_"><g
         id="XMLID_87_" /><g
         id="XMLID_84_" /><rect
         id="XMLID_82_"
         x="78.49"
         y="81.9"
         style="fill:#616161;"
         width="10.71"
         height="45.72" /><path
         id="XMLID_81_"
         style="fill:#444444;"
         d="M90.6,128H77.1v-3.5c0-2.21,1.79-4,4-4h5.5c2.21,0,4,1.79,4,4V128z" /><rect
         id="XMLID_79_"
         x="95.38"
         y="81.9"
         transform="matrix(-1 -1.224647e-16 1.224647e-16 -1 201.4801 209.509)"
         style="fill:#616161;"
         width="10.71"
         height="45.72" /><path
         id="XMLID_78_"
         style="fill:#444444;"
         d="M93.99,128h13.5v-3.5c0-2.21-1.79-4-4-4h-5.5c-2.21,0-4,1.79-4,4V128z" /></g></g></svg>