<?xml version="1.0" encoding="UTF-8" standalone="no"?>
<!-- Generator: Adobe Illustrator 19.2.1, SVG Export Plug-In . SVG Version: 6.00 Build 0)  -->

<svg
   xmlns:dc="http://purl.org/dc/elements/1.1/"
   xmlns:cc="http://creativecommons.org/ns#"
   xmlns:rdf="http://www.w3.org/1999/02/22-rdf-syntax-ns#"
   xmlns:svg="http://www.w3.org/2000/svg"
   xmlns="http://www.w3.org/2000/svg"
   xmlns:sodipodi="http://sodipodi.sourceforge.net/DTD/sodipodi-0.dtd"
   xmlns:inkscape="http://www.inkscape.org/namespaces/inkscape"
   version="1.1"
   x="0px"
   y="0px"
   viewBox="0 0 128 128"
   style="enable-background:new 0 0 128 128;"
   xml:space="preserve"
   id="svg2"
   inkscape:version="0.91 r13725"
   sodipodi:docname="1f4f0.svg"><metadata
     id="metadata260"><rdf:RDF><cc:Work
         rdf:about=""><dc:format>image/svg+xml</dc:format><dc:type
           rdf:resource="http://purl.org/dc/dcmitype/StillImage" /><dc:title></dc:title></cc:Work></rdf:RDF></metadata><defs
     id="defs258" /><sodipodi:namedview
     pagecolor="#ffffff"
     bordercolor="#666666"
     borderopacity="1"
     objecttolerance="10"
     gridtolerance="10"
     guidetolerance="10"
     inkscape:pageopacity="0"
     inkscape:pageshadow="2"
     inkscape:window-width="717"
     inkscape:window-height="480"
     id="namedview256"
     showgrid="false"
     inkscape:zoom="1.84375"
     inkscape:cx="64"
     inkscape:cy="64"
     inkscape:window-x="0"
     inkscape:window-y="0"
     inkscape:window-maximized="0"
     inkscape:current-layer="g210" /><g
     id="Layer_2" /><g
     id="图层_1"><g
       id="g206"><path
         style="fill:#828282;fill-opacity:1"
         d="M16.62,124.27c0-36.74,0-73.49,0-110.23c30.52,2.2,61.18,2.27,91.71,0.21    c1.68-0.11,3.05,1.04,3.05,2.58c0,34.88,0,69.77,0,104.65c0,1.54-1.36,2.89-3.05,3C77.8,126.54,47.14,126.47,16.62,124.27z"
         id="path208" /><g
         id="g210"><path
           style="fill:#bebebe;fill-opacity:1"
           d="M16.62,124.25c0-36.74,0-73.49,0-110.23C44.36,7.91,72.21,3.9,99.95,2.03     c1.53-0.1,2.77,1.07,2.77,2.61c0,34.88,0,69.77,0,104.65c0,1.54-1.24,2.87-2.77,2.97C72.21,114.13,44.36,118.14,16.62,124.25z"
           id="path212" /><path
           style="fill:none;stroke:#1e1e1e;stroke-width:5;stroke-linecap:round;stroke-linejoin:round;stroke-miterlimit:10;stroke-opacity:1"
           d="     M28.75,49.34c20.6-4.08,41.25-7,61.84-8.74"
           id="path214" /><path
           style="fill:none;stroke:#1e1e1e;stroke-width:5;stroke-linecap:round;stroke-linejoin:round;stroke-miterlimit:10;stroke-opacity:1"
           d="     M28.75,63.23c8.81-1.75,17.63-3.28,26.45-4.6"
           id="path216" /><path
           style="fill:none;stroke:#1e1e1e;stroke-width:5;stroke-linecap:round;stroke-linejoin:round;stroke-miterlimit:10;stroke-opacity:1"
           d="     M28.75,77.11c8.81-1.75,17.63-3.28,26.45-4.6"
           id="path218" /><path
           style="fill:none;stroke:#1e1e1e;stroke-width:5;stroke-linecap:round;stroke-linejoin:round;stroke-miterlimit:10;stroke-opacity:1"
           d="     M28.75,105.57c20.6-4.08,41.25-7,61.84-8.74"
           id="path220" /><path
           style="fill:none;stroke:#1e1e1e;stroke-width:5;stroke-linecap:round;stroke-linejoin:round;stroke-miterlimit:10;stroke-opacity:1"
           d="     M28.75,91c8.81-1.75,17.63-3.28,26.45-4.6"
           id="path222" /><path
           style="fill:#1e1e1e;fill-opacity:1"
           d="M64.86,87.55c8.23-1.08,16.45-1.98,24.67-2.69c1.49-0.13,2.69-1.44,2.69-2.94     c0-9.13,0-18.25,0-27.38c0-1.5-1.21-2.61-2.69-2.48c-8.22,0.71-16.44,1.61-24.67,2.69c-1.49,0.2-2.7,1.58-2.7,3.07     c0,9.13,0,18.25,0,27.38C62.17,86.7,63.37,87.75,64.86,87.55z"
           id="path224" /><path
           style="fill:#1e1e1e;fill-opacity:1"
           d="M30.46,35.41c2.03-0.4,4.05-0.78,6.08-1.15c1.49-0.27,2.69-1.7,2.69-3.2c0-2.34,0-4.68,0-7.02     c0-1.5-1.21-2.49-2.69-2.22c-2.03,0.37-4.05,0.76-6.08,1.15c-1.49,0.29-2.69,1.75-2.69,3.24c0,2.34,0,4.68,0,7.02     C27.76,34.73,28.97,35.7,30.46,35.41z"
           id="path226" /><path
           style="fill:#1e1e1e;fill-opacity:1"
           d="M46.42,32.53c2.03-0.34,4.05-0.66,6.08-0.97c1.49-0.23,2.7-1.62,2.7-3.12c0-2.34,0-4.68,0-7.02     c0-1.5-1.21-2.53-2.7-2.3c-2.03,0.31-4.06,0.64-6.08,0.97c-1.49,0.25-2.69,1.67-2.69,3.16c0,2.34,0,4.68,0,7.02     C43.73,31.77,44.93,32.78,46.42,32.53z"
           id="path228" /><path
           style="fill:#1e1e1e;fill-opacity:1"
           d="M62.39,30.12c2.03-0.28,4.06-0.54,6.08-0.8c1.49-0.19,2.7-1.54,2.7-3.04c0-2.34,0-4.68,0-7.02     c0-1.5-1.21-2.57-2.7-2.38c-2.03,0.25-4.06,0.52-6.08,0.8c-1.49,0.2-2.7,1.59-2.7,3.08c0,2.34,0,4.68,0,7.02     C59.7,29.28,60.91,30.32,62.39,30.12z"
           id="path230" /></g></g></g></svg>