<?xml version="1.0" encoding="UTF-8" standalone="no"?>
<!-- Generator: Adobe Illustrator 19.2.1, SVG Export Plug-In . SVG Version: 6.00 Build 0)  -->

<svg
   xmlns:dc="http://purl.org/dc/elements/1.1/"
   xmlns:cc="http://creativecommons.org/ns#"
   xmlns:rdf="http://www.w3.org/1999/02/22-rdf-syntax-ns#"
   xmlns:svg="http://www.w3.org/2000/svg"
   xmlns="http://www.w3.org/2000/svg"
   xmlns:sodipodi="http://sodipodi.sourceforge.net/DTD/sodipodi-0.dtd"
   xmlns:inkscape="http://www.inkscape.org/namespaces/inkscape"
   version="1.1"
   x="0px"
   y="0px"
   viewBox="0 0 128 128"
   style="enable-background:new 0 0 128 128;"
   xml:space="preserve"
   id="svg2"
   inkscape:version="0.91 r13725"
   sodipodi:docname="1f579.svg"><metadata
     id="metadata52"><rdf:RDF><cc:Work
         rdf:about=""><dc:format>image/svg+xml</dc:format><dc:type
           rdf:resource="http://purl.org/dc/dcmitype/StillImage" /><dc:title></dc:title></cc:Work></rdf:RDF></metadata><defs
     id="defs50" /><sodipodi:namedview
     pagecolor="#ffffff"
     bordercolor="#666666"
     borderopacity="1"
     objecttolerance="10"
     gridtolerance="10"
     guidetolerance="10"
     inkscape:pageopacity="0"
     inkscape:pageshadow="2"
     inkscape:window-width="640"
     inkscape:window-height="480"
     id="namedview48"
     showgrid="false"
     inkscape:zoom="0.4609375"
     inkscape:cx="64"
     inkscape:cy="64"
     inkscape:window-x="0"
     inkscape:window-y="0"
     inkscape:window-maximized="0"
     inkscape:current-layer="svg2" /><g
     id="Layer_2"><g
       id="g5"><path
         style="fill:#006CA2;"
         d="M71.34,55.18c-4.04-1.75-10.64-1.75-14.68,0L11.34,74.82C7.3,76.57,4,81.6,4,86v8    c0,4.4,3.3,9.43,7.34,11.18l45.32,19.64c4.04,1.75,10.64,1.75,14.68,0l45.32-19.64C120.7,103.43,124,98.4,124,94v-8    c0-4.4-3.3-9.43-7.34-11.18L71.34,55.18z"
         id="path7" /></g><g
       id="g9"><path
         style="fill:#40C0E7;"
         d="M71.34,100.82c-4.04,1.75-10.64,1.75-14.68,0L11.34,81.18c-4.04-1.75-4.04-4.61,0-6.36l45.32-19.64    c4.04-1.75,10.64-1.75,14.68,0l45.32,19.64c4.04,1.75,4.04,4.61,0,6.36L71.34,100.82z"
         id="path11" /></g></g><g
     id="Layer_3"><path
       style="fill:#2F2F2F;"
       d="M64,59.4c-9.94,0-18,8.06-18,18c0,3.98,8.06,7.2,18,7.2c9.94,0,18-3.22,18-7.2   C82,67.46,73.94,59.4,64,59.4z"
       id="path14" /></g><g
     id="Layer_4"><path
       style="fill:#78A3AD;"
       d="M58,30v34c0,1.1,2.69,2,6,2s6-0.9,6-2V30H58z"
       id="path17" /><path
       style="fill:#2F2F2F;"
       d="M58,44.83c1.85,0.75,3.88,1.17,6,1.17s4.15-0.42,6-1.17V30H58V44.83z"
       id="path19" /></g><g
     id="Layer_5"><circle
       style="fill:#ED6C30;"
       cx="64"
       cy="23"
       r="19"
       id="circle22" /><path
       style="fill:#FFFFFF;"
       d="M52.63,13.75c-1.78,0.87-2.48,3.22-2,5.04c1.08,4.04,8.08,1.42,5.78-3.11   C55.34,13.54,53.85,13.16,52.63,13.75z"
       id="path24" /></g><g
     id="Layer_6"><ellipse
       style="fill:#006CA2;"
       cx="32"
       cy="79"
       rx="10"
       ry="5"
       id="ellipse27" /></g></svg>