<?xml version="1.0" encoding="UTF-8" standalone="no"?>
<!-- Generator: Adobe Illustrator 19.2.1, SVG Export Plug-In . SVG Version: 6.00 Build 0)  -->

<svg
   xmlns:dc="http://purl.org/dc/elements/1.1/"
   xmlns:cc="http://creativecommons.org/ns#"
   xmlns:rdf="http://www.w3.org/1999/02/22-rdf-syntax-ns#"
   xmlns:svg="http://www.w3.org/2000/svg"
   xmlns="http://www.w3.org/2000/svg"
   xmlns:sodipodi="http://sodipodi.sourceforge.net/DTD/sodipodi-0.dtd"
   xmlns:inkscape="http://www.inkscape.org/namespaces/inkscape"
   version="1.1"
   x="0px"
   y="0px"
   viewBox="0 0 128 128"
   style="enable-background:new 0 0 128 128;"
   xml:space="preserve"
   id="svg2"
   inkscape:version="0.91 r13725"
   sodipodi:docname="1f58a.svg"><metadata
     id="metadata30"><rdf:RDF><cc:Work
         rdf:about=""><dc:format>image/svg+xml</dc:format><dc:type
           rdf:resource="http://purl.org/dc/dcmitype/StillImage" /><dc:title></dc:title></cc:Work></rdf:RDF></metadata><defs
     id="defs28" /><sodipodi:namedview
     pagecolor="#ffffff"
     bordercolor="#666666"
     borderopacity="1"
     objecttolerance="10"
     gridtolerance="10"
     guidetolerance="10"
     inkscape:pageopacity="0"
     inkscape:pageshadow="2"
     inkscape:window-width="1024"
     inkscape:window-height="717"
     id="namedview26"
     showgrid="false"
     inkscape:zoom="14.75"
     inkscape:cx="83.849689"
     inkscape:cy="72.135593"
     inkscape:window-x="0"
     inkscape:window-y="0"
     inkscape:window-maximized="1"
     inkscape:current-layer="svg2" /><g
     id="レイヤー_1" /><g
     id="Layer_2"><path
       style="fill:#BCAAA4;"
       d="M64.83,46.3L27.29,92.55c-0.23,0.28-0.41,0.6-0.54,0.94l-4.88,12.81c-1.08,2.84,1.62,5.65,4.2,4.34   l12.02-6.11c0.34-0.17,0.66-0.42,0.92-0.71l41.08-46.2c0.71-0.79,1.01-1.91,0.81-2.99c-0.73-3.96-3.62-12.77-14.65-9.33   C65.7,45.47,65.21,45.83,64.83,46.3z"
       id="path6" /><path
       style="fill:#BDBDBD;"
       d="M38.09,104.54l-12.02,6.11c-2.57,1.31-5.28-1.5-4.2-4.34l4.88-12.81L38.09,104.54z"
       id="path8" /><path
       d="M64,46.33c5.14-5.64,24.93-26.62,36.73-31.78c4.47-1.96,10.09,1.47,8.66,7.04c-1.98,7.67-29.63,39.24-29.63,39.24   c-0.57,0.73-2.73,1.24-3.38,0.97c-0.22-0.09,0.6-0.56,0.44-0.82l-0.12-0.49c-0.1-0.4-0.26-0.79-0.48-1.14   c-2.76-4.35-6.61-7.27-11.7-9.6c-0.56-0.26-2.44-0.25-2.44-0.25C62.08,48.08,63.2,47.21,64,46.33z"
       id="path10"
       style="fill:#010101;fill-opacity:1" /><path
       style="fill:#212121;"
       d="M22.77,104.24l-1.34,3.32c-0.94,2.32,1.41,4.61,3.63,3.54l3.48-1.66L22.77,104.24z"
       id="path12" /><path
       style="fill:#FAFAFA;"
       d="M52.09,82.05l-0.51-0.47c-0.35-0.32-0.38-0.87-0.07-1.22l19.41-22.13c0.31-0.35,0.85-0.38,1.19-0.07   l0.51,0.47c0.35,0.32,0.38,0.87,0.07,1.22L53.28,81.99C52.97,82.34,52.44,82.37,52.09,82.05z"
       id="path14" /><path
       style="fill:#795548;"
       d="M64.34,45.76c5.14-5.56,25.57-27.55,37.37-32.65c4.47-1.93,10.09,1.43,8.66,6.91   c-1.98,7.55-29.31,39.18-29.31,39.18c-0.76,0.96-2.3,0.88-2.93-0.16l0,0c-2.8-4.63-7.12-8.23-12.29-10.26l-0.85-0.33   C63.86,48,63.53,46.63,64.34,45.76z"
       id="path16" /><g
       id="g18"><path
         d="M90.71,49.78c6.71-8.09,12.17-13.75,18.36-23.41c0.56-0.88,1.94,0.4,1.4,1.33c-4.53,8-15.33,20.27-18.1,23.43    C91.67,51.92,90.12,50.49,90.71,49.78z"
         id="path20"
         style="fill:#010101;fill-opacity:1" /><path
         d="M110.21,28.27L110.21,28.27c-0.5,0.69-1.48,0.84-2.17,0.34l-1.5-1.09c-0.69-0.5-0.84-1.48-0.34-2.17v0    c0.5-0.69,1.48-0.84,2.17-0.34l1.5,1.09C110.57,26.6,110.72,27.58,110.21,28.27z"
         id="path22"
         style="fill:#010101;fill-opacity:1" /></g><path
       style="fill:#FFFFFF;"
       d="M26.75,93.49c0,0,0.17-0.39,0.25-0.51c0.06-0.11,0.29-0.43,0.29-0.43l11.72,11.27   c0,0-0.32,0.32-0.46,0.42c-0.13,0.1-0.46,0.29-0.46,0.29L26.75,93.49z"
       id="path24" /></g></svg>