<?xml version="1.0" encoding="UTF-8" standalone="no"?>
<!-- Generator: Adobe Illustrator 19.2.1, SVG Export Plug-In . SVG Version: 6.00 Build 0)  -->

<svg
   xmlns:dc="http://purl.org/dc/elements/1.1/"
   xmlns:cc="http://creativecommons.org/ns#"
   xmlns:rdf="http://www.w3.org/1999/02/22-rdf-syntax-ns#"
   xmlns:svg="http://www.w3.org/2000/svg"
   xmlns="http://www.w3.org/2000/svg"
   xmlns:sodipodi="http://sodipodi.sourceforge.net/DTD/sodipodi-0.dtd"
   xmlns:inkscape="http://www.inkscape.org/namespaces/inkscape"
   version="1.1"
   id="图层_1"
   x="0px"
   y="0px"
   viewBox="0 0 128 128"
   style="enable-background:new 0 0 128 128;"
   xml:space="preserve"
   inkscape:version="0.91 r13725"
   sodipodi:docname="1f5b1.svg"><metadata
     id="metadata29"><rdf:RDF><cc:Work
         rdf:about=""><dc:format>image/svg+xml</dc:format><dc:type
           rdf:resource="http://purl.org/dc/dcmitype/StillImage" /><dc:title></dc:title></cc:Work></rdf:RDF></metadata><defs
     id="defs27" /><sodipodi:namedview
     pagecolor="#ffffff"
     bordercolor="#666666"
     borderopacity="1"
     objecttolerance="10"
     gridtolerance="10"
     guidetolerance="10"
     inkscape:pageopacity="0"
     inkscape:pageshadow="2"
     inkscape:window-width="769"
     inkscape:window-height="480"
     id="namedview25"
     showgrid="false"
     inkscape:zoom="0.16296602"
     inkscape:cx="157.55932"
     inkscape:cy="64"
     inkscape:window-x="0"
     inkscape:window-y="0"
     inkscape:window-maximized="0"
     inkscape:current-layer="图层_1" /><path
     style="fill:#2F2F2F;"
     d="M58.03,2.19c-8.95-3.78-22.07-1.31-27.32,8.41c-3.6,6.67-3.76,13.16-3.89,18.89  c-0.15,6.28-0.27,11.71-4.43,16.91c-3.78,4.73-9.87,7.16-18.11,7.22c-0.06,0-0.11,0-0.17,0c-0.37,0-0.74-0.01-1.11-0.02  c-1.47-0.07-2.68,1.14-2.68,2.61v0.01c0,1.37,1.06,2.54,2.43,2.61c0.45,0.02,0.9,0.04,1.36,0.03c0.07,0,0.14,0,0.21,0  c9.9-0.07,17.36-3.16,22.17-9.19c5.25-6.58,5.41-13.43,5.57-20.06c0.13-5.64,0.25-10.96,3.26-16.52C39.16,5.98,49.3,4.19,56,7.02  c8.33,3.52,12.75,14.74,12.12,30.78L73.34,38C74.07,19.66,68.49,6.61,58.03,2.19z"
     id="path3" /><path
     style="fill:#40C0E7;"
     d="M71.14,127.75L71.14,127.75c-19.83,0-35.9-16.07-35.9-35.9V40.96C35.24,31.04,43.28,23,53.2,23h35.88  c9.92,0,17.96,8.04,17.96,17.96v50.89C107.04,111.68,90.97,127.75,71.14,127.75z"
     id="path5" /><path
     style="fill:#40C0E7;"
     d="M88.13,18.96"
     id="path9" /><path
     style="fill:#006BA7;"
     d="M100.01,57.23H42.69c-1.94,0-3.51-1.57-3.51-3.51V41.09c0-7.74,6.28-14.02,14.02-14.02h36.28  c7.74,0,14.02,6.28,14.02,14.02v12.64C103.52,55.66,101.95,57.23,100.01,57.23z"
     id="path15" /><g
     id="g17"><rect
       x="57.55"
       y="25.08"
       style="fill:#40C0E7;"
       width="4.97"
       height="49.41"
       id="rect19" /><rect
       x="79.8"
       y="25.08"
       style="fill:#40C0E7;"
       width="4.97"
       height="49.41"
       id="rect21" /></g><path
     style="fill:#FFFFFF;"
     d="M59.5,112.84c-0.35,0-0.7-0.06-1.05-0.18c-12.66-4.54-16-14.64-15.48-20.23  c0.16-1.71,0.84-2.5,2.07-2.48c1.71,0.03,1.5,1.23,2.07,2.87c1.06,3.04,2.24,9.97,13.43,13.98c1.62,0.58,2.46,2.36,1.88,3.98  C61.97,112.05,60.77,112.84,59.5,112.84z"
     id="path23" /></svg>