<?xml version="1.0" encoding="UTF-8" standalone="no"?>
<!-- Generator: Adobe Illustrator 19.2.1, SVG Export Plug-In . SVG Version: 6.00 Build 0)  -->

<svg
   xmlns:dc="http://purl.org/dc/elements/1.1/"
   xmlns:cc="http://creativecommons.org/ns#"
   xmlns:rdf="http://www.w3.org/1999/02/22-rdf-syntax-ns#"
   xmlns:svg="http://www.w3.org/2000/svg"
   xmlns="http://www.w3.org/2000/svg"
   xmlns:sodipodi="http://sodipodi.sourceforge.net/DTD/sodipodi-0.dtd"
   xmlns:inkscape="http://www.inkscape.org/namespaces/inkscape"
   version="1.1"
   id="レイヤー_1"
   x="0px"
   y="0px"
   viewBox="0 0 128 128"
   style="enable-background:new 0 0 128 128;"
   xml:space="preserve"
   inkscape:version="0.91 r13725"
   sodipodi:docname="1f5ef.svg"><metadata
     id="metadata27"><rdf:RDF><cc:Work
         rdf:about=""><dc:format>image/svg+xml</dc:format><dc:type
           rdf:resource="http://purl.org/dc/dcmitype/StillImage" /><dc:title></dc:title></cc:Work></rdf:RDF></metadata><defs
     id="defs25" /><sodipodi:namedview
     pagecolor="#ffffff"
     bordercolor="#666666"
     borderopacity="1"
     objecttolerance="10"
     gridtolerance="10"
     guidetolerance="10"
     inkscape:pageopacity="0"
     inkscape:pageshadow="2"
     inkscape:window-width="640"
     inkscape:window-height="480"
     id="namedview23"
     showgrid="false"
     inkscape:zoom="0.23046875"
     inkscape:cx="-378.50429"
     inkscape:cy="71.126936"
     inkscape:window-x="0"
     inkscape:window-y="0"
     inkscape:window-maximized="0"
     inkscape:current-layer="レイヤー_1" /><g
     id="g17"><path
       style="fill:#FFFFFF;"
       d="M109.31,53.24l6.62-10.37l-9.14-4.03c-1.31-0.37-2.41-1.25-3.05-2.48   c-0.68-1.31-0.74-2.82-0.17-4.17l5.21-14.47l-15.7,8.39c-1.29,0.56-2.76,0.55-4.04-0.05c-1.17-0.54-2.08-1.53-2.54-2.73l-4.01-7.79   L75.8,21.8c-1.86,1.56-4.54,1.54-6.38-0.05L54.53,9.58l-7.21,12.15c-1.23,2.29-4.1,3.24-6.46,2.11l-18.29-8.72l4.12,14.54   c0.38,1.34,0.17,2.78-0.56,3.96c-0.74,1.18-1.94,1.99-3.31,2.23l-6.93,1.19l3.07,5.57c0.76,1.03,1.09,2.31,0.92,3.59   c-0.19,1.4-0.98,2.66-2.16,3.44L8.38,55.6l12.36,6.06c1.45,0.65,2.51,1.95,2.83,3.52c0.31,1.5-0.1,3.04-1.09,4.19l-5.41,7.82   l7.83,1.31c1.61,0.19,3.02,1.15,3.78,2.59c0.78,1.48,0.76,3.24-0.05,4.71l-16.71,29.89l30.93-21.51c1.23-0.86,2.77-1.11,4.21-0.68   c1.44,0.43,2.59,1.47,3.16,2.86l0.1,0.27l1.92,6.39l14.79-9.04c1.64-1.11,3.8-1.13,5.45-0.05l11.69,7.11l1.56-6.67   c0.24-1.42,1.07-2.66,2.32-3.41c1.3-0.78,2.86-0.92,4.28-0.39l16.88,6.35l-5.45-15.79c-0.55-1.3-0.52-2.77,0.1-4.05   c0.63-1.31,1.79-2.27,3.2-2.63l13.11-3.9l-10.74-10.89C107.93,57.88,107.91,55.07,109.31,53.24z"
       id="path19" /><path
       style="fill:#2F2F2F;"
       d="M125.97,67.91l-11.48-11.63l7.31-11.46l0.07-0.11c0.78-1.34,0.85-2.99,0.21-4.4   c-0.59-1.28-1.71-2.24-3.05-2.62l-9.54-4.2l5.81-16.13c0.77-1.84,0.37-3.93-1.04-5.36c-1.44-1.46-3.59-1.88-5.48-1.06l-17.19,9.19   l-4.4-8.56c-0.5-1.35-1.52-2.34-2.85-2.73c-1.53-0.46-3.26-0.04-4.63,1.11l-7.11,6.65L57.46,4.23c-1.16-1-2.68-1.4-4.18-1.1   c-1.46,0.29-2.68,1.2-3.38,2.5l-7.34,12.39L23.01,8.69c-1.77-0.84-3.8-0.58-5.3,0.68c-1.5,1.26-2.1,3.22-1.56,5.11l4.44,15.68   l-7.29,1.25c-1.74,0.31-3.19,1.54-3.78,3.2c-0.55,1.54-0.29,3.26,0.68,4.57l3.32,6.03L3.47,51.62c-1.52,1.01-2.36,2.76-2.18,4.57   c0.17,1.78,1.28,3.31,2.9,4.03l12.93,6.34l-6.1,8.81c-1.13,1.29-1.48,2.93-0.92,4.43c0.61,1.64,2.2,2.78,4.16,3l8.37,1.4   L4.4,116.82c-1.13,2.01-0.72,4.5,0.99,6.05c0.94,0.85,2.12,1.28,3.31,1.28c0.98,0,1.96-0.29,2.81-0.89l33.54-23.32l1.89,6.32   l0.1,0.27c0.57,1.41,1.74,2.45,3.2,2.87c1.42,0.41,2.91,0.17,4.12-0.66l15.43-9.43l12.4,7.54c1.41,0.93,3.17,1.06,4.71,0.37   c1.52-0.68,2.56-2.05,2.83-3.68l1.62-6.93l17.88,6.73c1.89,0.71,3.99,0.21,5.35-1.27c1.32-1.43,1.67-3.48,0.92-5.26l-5.83-16.9   l13.75-4.09c1.62-0.42,2.9-1.62,3.43-3.21C127.4,70.99,127.07,69.23,125.97,67.91z M107.05,74.45c-1.4,0.37-2.57,1.32-3.2,2.63   c-0.62,1.28-0.65,2.75-0.1,4.05l5.45,15.79l-16.88-6.35c-1.42-0.53-2.98-0.39-4.28,0.39c-1.24,0.75-2.08,1.98-2.32,3.41l-1.56,6.67   l-11.69-7.11c-1.66-1.08-3.82-1.06-5.45,0.05l-14.79,9.04l-1.92-6.39l-0.1-0.27c-0.57-1.39-1.72-2.43-3.16-2.86   c-1.44-0.43-2.97-0.18-4.21,0.68l-30.93,21.51l16.71-29.89c0.82-1.46,0.84-3.22,0.05-4.71c-0.76-1.44-2.17-2.4-3.78-2.59   l-7.83-1.31l5.41-7.82c0.99-1.15,1.4-2.7,1.09-4.19c-0.32-1.56-1.37-2.87-2.83-3.52L8.38,55.6l9.33-5.95   c1.18-0.78,1.97-2.04,2.16-3.44c0.17-1.27-0.16-2.56-0.92-3.59l-3.07-5.57l6.93-1.19c1.37-0.24,2.58-1.06,3.31-2.23   c0.74-1.18,0.94-2.62,0.56-3.96l-4.12-14.54l18.29,8.72c2.36,1.12,5.23,0.18,6.46-2.11l7.21-12.15l14.89,12.17   c1.84,1.58,4.52,1.6,6.38,0.05l6.68-6.25l4.01,7.79c0.45,1.2,1.36,2.19,2.54,2.73c1.28,0.59,2.75,0.61,4.04,0.05l15.7-8.39   l-5.21,14.47c-0.57,1.35-0.51,2.86,0.17,4.17c0.64,1.23,1.73,2.11,3.05,2.48l9.14,4.03l-6.62,10.37c-1.41,1.82-1.38,4.64,0.1,6.41   l10.74,10.89L107.05,74.45z"
       id="path21" /></g></svg>