<?xml version="1.0" encoding="UTF-8" standalone="no"?>
<!-- Generator: Adobe Illustrator 19.2.1, SVG Export Plug-In . SVG Version: 6.00 Build 0)  -->

<svg
   xmlns:dc="http://purl.org/dc/elements/1.1/"
   xmlns:cc="http://creativecommons.org/ns#"
   xmlns:rdf="http://www.w3.org/1999/02/22-rdf-syntax-ns#"
   xmlns:svg="http://www.w3.org/2000/svg"
   xmlns="http://www.w3.org/2000/svg"
   xmlns:sodipodi="http://sodipodi.sourceforge.net/DTD/sodipodi-0.dtd"
   xmlns:inkscape="http://www.inkscape.org/namespaces/inkscape"
   version="1.1"
   id="Layer1"
   x="0px"
   y="0px"
   viewBox="0 0 128 128"
   style="enable-background:new 0 0 128 128;"
   xml:space="preserve"
   inkscape:version="0.91 r13725"
   sodipodi:docname="1f5f3.svg"><metadata
     id="metadata55"><rdf:RDF><cc:Work
         rdf:about=""><dc:format>image/svg+xml</dc:format><dc:type
           rdf:resource="http://purl.org/dc/dcmitype/StillImage" /><dc:title></dc:title></cc:Work></rdf:RDF></metadata><defs
     id="defs53" /><sodipodi:namedview
     pagecolor="#ffffff"
     bordercolor="#666666"
     borderopacity="1"
     objecttolerance="10"
     gridtolerance="10"
     guidetolerance="10"
     inkscape:pageopacity="0"
     inkscape:pageshadow="2"
     inkscape:window-width="1024"
     inkscape:window-height="717"
     id="namedview51"
     showgrid="false"
     inkscape:zoom="1.84375"
     inkscape:cx="49.81242"
     inkscape:cy="49.803076"
     inkscape:window-x="0"
     inkscape:window-y="0"
     inkscape:window-maximized="1"
     inkscape:current-layer="Layer1" /><g
     id="g23"
     transform="translate(-146.87,0.185)"
     sodipodi:insensitive="true"><g
       id="g25"><path
         style="fill:#006ca2"
         d="m 163.15,98.32 c -4.01,-1.82 -7.28,-6.91 -7.28,-11.31 l 0,-34 c 0,-4.4 3.28,-9.49 7.28,-11.31 l 40.43,-18.38 c 4.01,-1.82 10.56,-1.82 14.57,0 l 40.43,18.38 c 4.01,1.82 7.28,6.91 7.28,11.31 l 0,34 c 0,4.4 -3.28,9.49 -7.28,11.31 l -40.43,18.38 c -4.01,1.82 -10.56,1.82 -14.57,0 L 163.15,98.32 Z"
         id="path27"
         inkscape:connector-curvature="0" /></g><g
       id="g29"><path
         style="fill:#40c0e7"
         d="m 218.15,66.7 c -4.01,1.82 -10.56,1.82 -14.57,0 L 163.15,48.32 c -4.01,-1.82 -4.01,-4.8 0,-6.62 l 40.43,-18.38 c 4.01,-1.82 10.56,-1.82 14.57,0 l 40.43,18.38 c 4.01,1.82 4.01,4.8 0,6.62 L 218.15,66.7 Z"
         id="path31"
         inkscape:connector-curvature="0" /></g><g
       id="g33"><path
         style="fill:#006ca2"
         d="m 228.82,55.19 c -1,0.46 -2.64,0.46 -3.64,0 L 188.49,38.51 c -1,-0.46 -1,-1.2 0,-1.66 l 4.43,-2.01 c 1,-0.46 2.64,-0.46 3.64,0 l 36.69,16.68 c 1,0.46 1,1.2 0,1.66 l -4.43,2.01 z"
         id="path35"
         inkscape:connector-curvature="0" /></g><g
       id="g37"><path
         style="fill:#006ca2"
         d="m 229.55,55.69 c -1,0.46 -2.64,0.46 -3.64,0 L 187.38,38.18 c -1,-0.46 -1,-1.2 0,-1.66 l 4.79,-2.18 c 1,-0.46 2.64,-0.46 3.64,0 l 38.53,17.51 c 1,0.46 1,1.2 0,1.66 l -4.79,2.18 z"
         id="path39"
         inkscape:connector-curvature="0" /></g><path
       style="fill:#fbc21a"
       d="m 239.93,23.14 c 0,0 0,0 -9.08,13.03 -4.97,7.13 -4.66,17.33 -4.66,17.33 L 192.87,38.35 c 0,0 -0.32,-10.2 4.66,-17.33 9.08,-13.03 9.08,-13.03 9.08,-13.03 l 33.32,15.15 z"
       id="path41"
       inkscape:connector-curvature="0" /><path
       style="fill:none;stroke:#875a3b;stroke-width:2;stroke-miterlimit:10"
       d="m 239.93,23.14 c 0,0 0,0 -9.08,13.03 -4.97,7.13 -4.66,17.33 -4.66,17.33"
       id="path43"
       inkscape:connector-curvature="0" /><g
       id="g45"><path
         style="fill:none;stroke:#875a3b;stroke-width:4;stroke-linecap:round;stroke-linejoin:round;stroke-miterlimit:10"
         d="m 203,34.54 c 2.99,-2.98 20.09,-7.79 23.53,-7.6"
         id="path47"
         inkscape:connector-curvature="0" /><path
         style="fill:none;stroke:#875a3b;stroke-width:4;stroke-linecap:round;stroke-linejoin:round;stroke-miterlimit:10"
         d="m 209.87,19.36 c 0.07,2.81 5.37,16.89 9.79,22.76"
         id="path49"
         inkscape:connector-curvature="0" /></g></g></svg>