<?xml version="1.0" encoding="UTF-8" standalone="no"?>
<!-- Generator: Adobe Illustrator 19.2.1, SVG Export Plug-In . SVG Version: 6.00 Build 0)  -->

<svg
   xmlns:dc="http://purl.org/dc/elements/1.1/"
   xmlns:cc="http://creativecommons.org/ns#"
   xmlns:rdf="http://www.w3.org/1999/02/22-rdf-syntax-ns#"
   xmlns:svg="http://www.w3.org/2000/svg"
   xmlns="http://www.w3.org/2000/svg"
   xmlns:sodipodi="http://sodipodi.sourceforge.net/DTD/sodipodi-0.dtd"
   xmlns:inkscape="http://www.inkscape.org/namespaces/inkscape"
   version="1.1"
   id="图层_1"
   x="0px"
   y="0px"
   viewBox="0 0 128 128"
   style="enable-background:new 0 0 128 128;"
   xml:space="preserve"
   inkscape:version="0.91 r13725"
   sodipodi:docname="1f615.svg"><metadata
     id="metadata139"><rdf:RDF><cc:Work
         rdf:about=""><dc:format>image/svg+xml</dc:format><dc:type
           rdf:resource="http://purl.org/dc/dcmitype/StillImage" /><dc:title></dc:title></cc:Work></rdf:RDF></metadata><defs
     id="defs137" /><sodipodi:namedview
     pagecolor="#ffffff"
     bordercolor="#666666"
     borderopacity="1"
     objecttolerance="10"
     gridtolerance="10"
     guidetolerance="10"
     inkscape:pageopacity="0"
     inkscape:pageshadow="2"
     inkscape:window-width="640"
     inkscape:window-height="480"
     id="namedview135"
     showgrid="false"
     inkscape:zoom="0.32593203"
     inkscape:cx="64"
     inkscape:cy="64"
     inkscape:window-x="0"
     inkscape:window-y="0"
     inkscape:window-maximized="0"
     inkscape:current-layer="g109" /><g
     id="g85"><g
       id="g87"><g
         id="g89"><g
           id="g91"><path
             style="fill:#FCC21B;"
             d="M64,9.56c-62.41,0-63.88,69.96-63.88,83.8c0,13.86,28.59,25.08,63.88,25.08      c35.28,0,63.88-11.22,63.88-25.08C127.88,79.52,126.4,9.56,64,9.56z"
             id="path93" /></g></g></g><g
       id="g95"><path
         style="fill:none;stroke:#2F2F2F;stroke-width:3;stroke-linecap:round;stroke-miterlimit:10;"
         d="M98.1,32.85    c0,0,4.31,2.64,5.2,8.43"
         id="path97" /><path
         style="fill:none;stroke:#2F2F2F;stroke-width:3;stroke-linecap:round;stroke-miterlimit:10;"
         d="M29.9,32.85    c0,0-4.31,2.64-5.2,8.43"
         id="path99" /></g><g
       id="g101"><path
         style="fill:#2F2F2F;"
         d="M41.99,61.9c-4.49,0.04-8.17-4.27-8.22-9.62c-0.05-5.37,3.55-9.75,8.04-9.79    c4.48-0.04,8.17,4.27,8.22,9.64C50.08,57.49,46.47,61.86,41.99,61.9z"
         id="path103" /><path
         style="fill:#2F2F2F;"
         d="M86.1,61.9c4.48-0.01,8.11-4.36,8.1-9.71c-0.01-5.37-3.66-9.7-8.14-9.69    c-4.49,0.01-8.13,4.36-8.12,9.73C77.95,57.58,81.61,61.91,86.1,61.9z"
         id="path105" /></g></g><g
     id="g109" /><path
     style="fill:none;stroke:#2F2F2F;stroke-width:6;stroke-linecap:round;stroke-linejoin:round;stroke-miterlimit:10;"
     d="  M38.86,92.49C51.41,76.61,82,67.33,93.85,81.64"
     id="path133" /></svg>