<?xml version="1.0" encoding="UTF-8" standalone="no"?>
<!-- Generator: Adobe Illustrator 19.2.1, SVG Export Plug-In . SVG Version: 6.00 Build 0)  -->

<svg
   xmlns:dc="http://purl.org/dc/elements/1.1/"
   xmlns:cc="http://creativecommons.org/ns#"
   xmlns:rdf="http://www.w3.org/1999/02/22-rdf-syntax-ns#"
   xmlns:svg="http://www.w3.org/2000/svg"
   xmlns="http://www.w3.org/2000/svg"
   xmlns:xlink="http://www.w3.org/1999/xlink"
   xmlns:sodipodi="http://sodipodi.sourceforge.net/DTD/sodipodi-0.dtd"
   xmlns:inkscape="http://www.inkscape.org/namespaces/inkscape"
   version="1.1"
   x="0px"
   y="0px"
   viewBox="0 0 128 128"
   style="enable-background:new 0 0 128 128;"
   xml:space="preserve"
   id="svg2"
   inkscape:version="0.91 r13725"
   sodipodi:docname="1f64c.svg"><metadata
     id="metadata214"><rdf:RDF><cc:Work
         rdf:about=""><dc:format>image/svg+xml</dc:format><dc:type
           rdf:resource="http://purl.org/dc/dcmitype/StillImage" /><dc:title></dc:title></cc:Work></rdf:RDF></metadata><defs
     id="defs212" /><sodipodi:namedview
     pagecolor="#ffffff"
     bordercolor="#666666"
     borderopacity="1"
     objecttolerance="10"
     gridtolerance="10"
     guidetolerance="10"
     inkscape:pageopacity="0"
     inkscape:pageshadow="2"
     inkscape:window-width="640"
     inkscape:window-height="480"
     id="namedview210"
     showgrid="false"
     inkscape:zoom="0.4609375"
     inkscape:cx="64"
     inkscape:cy="64"
     inkscape:window-x="0"
     inkscape:window-y="0"
     inkscape:window-maximized="0"
     inkscape:current-layer="svg2" /><g
     id="Layer_2"><line
       style="fill:none;stroke:#444444;stroke-width:4;stroke-linecap:round;stroke-miterlimit:10;"
       x1="52.61"
       y1="21.5"
       x2="48.47"
       y2="6.04"
       id="line166" /><line
       style="fill:none;stroke:#444444;stroke-width:4;stroke-linecap:round;stroke-miterlimit:10;"
       x1="32.89"
       y1="32.89"
       x2="21.57"
       y2="21.57"
       id="line168" /><line
       style="fill:none;stroke:#444444;stroke-width:4;stroke-linecap:round;stroke-miterlimit:10;"
       x1="95.11"
       y1="32.89"
       x2="106.43"
       y2="21.57"
       id="line170" /><line
       style="fill:none;stroke:#444444;stroke-width:4;stroke-linecap:round;stroke-miterlimit:10;"
       x1="75.39"
       y1="21.5"
       x2="79.53"
       y2="6.04"
       id="line172" /><g
       id="g174"><path
         style="fill:#FAC036;"
         d="M37.65,113.45c6.6-0.24,11.89-7.84,12.39-9.38c0.52-1.18,0.98-2.25,1.39-3.2    c0.78-1.77,1.64-3.77,2.51-5.83c0.37-0.87,0.54-1.27,0.54-1.27l-0.01,0.01c3.18-7.53,6.37-15.38,6.37-15.38    c0.62-1.33-0.29-2.84-1.81-3.04c-4.4-0.57-7.78,1.43-9.61,5.24l-3.72,8.74c-0.35,1.04-1.96,1-2.21-0.07    C42.56,85.28,43,77.6,43,77.6c-0.19-3.5,1.09-24.29,1.28-25.59c0.37-2.47-0.74-4.92-3.01-5.19c-2.32-0.28-4.24,0.95-4.61,3.71    c-0.11,0.8-2.35,22.28-2.35,22.28c0.01,1.22-1.3,1.45-1.39,0.2c-0.2-2.79-0.86-26.11-0.82-27.31c0.08-2.5-1.3-4.82-3.59-4.86    c-2.34-0.04-4.11,1.37-4.16,4.15c-0.01,0.88-0.29,19.84-0.33,27.29c0,0.5-0.41,0.9-0.94,0.94c-0.01,0-0.01,0-0.02,0    c-0.5,0.03-0.94-0.31-0.99-0.78c-0.85-6.89-2.02-21.82-2.05-22.91c-0.07-2.5-1.58-4.74-3.87-4.66c-2.34,0.08-4.02,1.59-3.9,4.36    c0.04,0.84,0.8,16.52,1.22,24.13c0.03,0.57-0.38,1.06-0.97,1.19c-0.01,0-0.02,0-0.02,0.01c-0.69,0.16-1.38-0.25-1.54-0.9    c-1.39-5.59-2.93-12.56-3.08-13.41c-0.41-2.47-2.22-4.51-4.48-4.15c-2.31,0.37-3.77,2.07-3.27,4.8    c0.16,0.89,2.19,13.72,3.68,19.95c0.32,1.33,0.54,2.69,0.67,4.05c0.54,5.76,0.92,8.43,0.92,8.43c1.06,15.4,8.58,19.74,19.77,20.26    L37.65,113.45z"
         id="path176" /><path
         style="fill:#FAC036;"
         d="M40.92,128c0,0-0.54-11.65,2.76-16.74c-1.12,0-30.51-2.45-31.83-2.45    c2.24,0.64,1.01,19.18,1.01,19.18H40.92z"
         id="path178" /></g><path
       style="fill:#FAC036;stroke:#D9578B;stroke-width:4;stroke-miterlimit:10;"
       d="M6.93,115.41"
       id="path180" /><g
       id="g182"><defs
         id="defs184"><path
           id="SVGID_13_"
           d="M59.03,75.35c-4.4-0.57-7.78,1.43-9.61,5.24l-3.72,8.74c-0.35,1.04-1.96,1-2.21-0.07     C42.56,85.28,43,77.6,43,77.6c-0.19-3.5,1.09-24.29,1.28-25.59c0.37-2.47-0.74-4.92-3.01-5.19c-2.32-0.28-4.24,0.95-4.61,3.71     c-0.11,0.8-2.35,22.28-2.35,22.28c0.01,1.22-1.3,1.45-1.39,0.2c-0.2-2.79-0.86-26.11-0.82-27.31c0.08-2.5-1.3-4.82-3.59-4.86     c-2.34-0.04-4.11,1.37-4.16,4.15c-0.01,0.88-0.29,19.84-0.33,27.29c0,0.5-0.41,0.9-0.94,0.94c-0.01,0-0.01,0-0.02,0     c-0.5,0.03-0.94-0.31-0.99-0.78c-0.85-6.89-2.02-21.82-2.05-22.91c-0.07-2.5-1.58-4.74-3.87-4.66c-2.34,0.08-4.02,1.59-3.9,4.36     c0.04,0.84,0.8,16.52,1.22,24.13c0.03,0.57-0.38,1.06-0.97,1.19c-0.01,0-0.02,0-0.02,0.01c-0.69,0.16-1.38-0.25-1.54-0.9     c-1.39-5.59-2.93-12.56-3.08-13.41c-0.41-2.47-2.22-4.51-4.48-4.15c-2.31,0.37-3.77,2.07-3.27,4.8     c0.16,0.89,2.19,13.72,3.68,19.95c0.32,1.33,0.54,2.69,0.67,4.05c0.54,5.76,0.92,8.43,0.92,8.43c0.58,8.5,3.14,13.62,7.19,16.6     c1.22,4.11,0.29,18.07,0.29,18.07h28.06c0,0-0.54-11.65,2.76-16.74c0,0-0.01,0-0.02,0c3.57-2.44,6.05-6.16,6.38-7.19     c0.52-1.18,0.98-2.25,1.39-3.2c0.78-1.77,1.64-3.77,2.51-5.83c0.37-0.87,0.54-1.27,0.54-1.27l-0.01,0.01     c3.18-7.53,6.37-15.38,6.37-15.38C61.46,77.07,60.56,75.55,59.03,75.35z" /></defs><clipPath
         id="SVGID_14_"><use
           xlink:href="#SVGID_13_"
           style="overflow:visible;"
           id="use188" /></clipPath><path
         style="clip-path:url(#SVGID_14_);fill:#FAC036;stroke:#E39E49;stroke-width:4;stroke-miterlimit:10;"
         d="M11.16,111.37    c3.38,2.83,8.6,3.96,13.98,4.21l12.51-0.13c2.47-0.09,5.44-1.29,7.36-2.74 M12.49,76.55"
         id="path190"
         clip-path="url(#SVGID_14_)" /></g><g
       id="g192"><path
         style="fill:#FAC036;"
         d="M102.86,113.58c11.19-0.51,18.72-4.86,19.77-20.26c0,0,0.38-2.67,0.92-8.43    c0.13-1.36,0.35-2.72,0.67-4.05c1.49-6.23,3.52-19.06,3.68-19.95c0.5-2.74-0.96-4.44-3.27-4.8c-2.26-0.36-4.07,1.68-4.48,4.15    c-0.14,0.85-1.68,7.82-3.08,13.41c-0.16,0.65-0.85,1.06-1.54,0.9c-0.01,0-0.02,0-0.02-0.01c-0.59-0.13-1-0.63-0.97-1.19    c0.42-7.61,1.18-23.29,1.22-24.13c0.12-2.78-1.56-4.28-3.9-4.36c-2.29-0.08-3.81,2.16-3.87,4.66c-0.03,1.09-1.2,16.02-2.05,22.91    c-0.06,0.47-0.49,0.81-0.99,0.78c-0.01,0-0.01,0-0.02,0c-0.53-0.03-0.94-0.44-0.94-0.94c-0.04-7.45-0.31-26.4-0.33-27.29    c-0.05-2.78-1.81-4.19-4.16-4.15c-2.29,0.04-3.67,2.36-3.59,4.86c0.04,1.19-0.61,24.51-0.82,27.31c-0.09,1.25-1.41,1.02-1.39-0.2    c0,0-2.25-21.48-2.35-22.28c-0.36-2.76-2.28-3.98-4.61-3.71c-2.28,0.27-3.38,2.72-3.01,5.19C83.91,53.3,85.19,74.1,85,77.6    c0,0,0.44,7.68-0.49,11.67c-0.25,1.07-1.86,1.11-2.21,0.07l-3.72-8.74c-1.83-3.81-5.21-5.81-9.61-5.24    c-1.53,0.2-2.43,1.71-1.81,3.04c0,0,3.19,7.85,6.37,15.38l-0.01-0.01c0,0,0.17,0.4,0.54,1.27c0.87,2.06,1.73,4.06,2.51,5.83    c0.41,0.96,0.88,2.02,1.39,3.2c0.5,1.55,5.79,9.14,12.39,9.38L102.86,113.58z"
         id="path194" /><path
         style="fill:#FAC036;"
         d="M87.08,128c0,0,0.54-11.65-2.76-16.74c1.12,0,30.51-2.45,31.83-2.45    c-2.24,0.64-1.01,19.18-1.01,19.18H87.08z"
         id="path196" /></g><path
       style="fill:#FAC036;stroke:#D9578B;stroke-width:4;stroke-miterlimit:10;"
       d="M121.07,115.41"
       id="path198" /><g
       id="g200"><defs
         id="defs202"><path
           id="SVGID_15_"
           d="M68.97,75.35c4.4-0.57,7.78,1.43,9.61,5.24l3.72,8.74c0.35,1.04,1.96,1,2.21-0.07     C85.44,85.28,85,77.6,85,77.6c0.19-3.5-1.09-24.29-1.28-25.59c-0.37-2.47,0.74-4.92,3.01-5.19c2.32-0.28,4.24,0.95,4.61,3.71     c0.11,0.8,2.35,22.28,2.35,22.28c-0.01,1.22,1.3,1.45,1.39,0.2c0.2-2.79,0.86-26.11,0.82-27.31c-0.08-2.5,1.3-4.82,3.59-4.86     c2.34-0.04,4.11,1.37,4.16,4.15c0.01,0.88,0.29,19.84,0.33,27.29c0,0.5,0.41,0.9,0.94,0.94c0.01,0,0.01,0,0.02,0     c0.5,0.03,0.94-0.31,0.99-0.78c0.85-6.89,2.02-21.82,2.05-22.91c0.07-2.5,1.58-4.74,3.87-4.66c2.34,0.08,4.02,1.59,3.9,4.36     c-0.04,0.84-0.8,16.52-1.22,24.13c-0.03,0.57,0.38,1.06,0.97,1.19c0.01,0,0.02,0,0.02,0.01c0.69,0.16,1.38-0.25,1.54-0.9     c1.39-5.59,2.93-12.56,3.08-13.41c0.41-2.47,2.22-4.51,4.48-4.15c2.31,0.37,3.77,2.07,3.27,4.8c-0.16,0.89-2.19,13.72-3.68,19.95     c-0.32,1.33-0.54,2.69-0.67,4.05c-0.54,5.76-0.92,8.43-0.92,8.43c-0.58,8.5-3.14,13.62-7.19,16.6     c-1.22,4.11-0.29,18.07-0.29,18.07H87.08c0,0,0.54-11.65-2.76-16.74c0,0,0.01,0,0.02,0c-3.57-2.44-6.05-6.16-6.38-7.19     c-0.52-1.18-0.98-2.25-1.39-3.2c-0.78-1.77-1.64-3.77-2.51-5.83c-0.37-0.87-0.54-1.27-0.54-1.27l0.01,0.01     c-3.18-7.53-6.37-15.38-6.37-15.38C66.54,77.07,67.44,75.55,68.97,75.35z" /></defs><clipPath
         id="SVGID_16_"><use
           xlink:href="#SVGID_15_"
           style="overflow:visible;"
           id="use206" /></clipPath><path
         style="clip-path:url(#SVGID_16_);fill:#FAC036;stroke:#E39E49;stroke-width:4;stroke-miterlimit:10;"
         d="M82.99,112.71    c1.92,1.45,4.89,2.65,7.36,2.74l12.51,0.13c5.39-0.25,10.61-1.38,13.98-4.21 M115.51,76.55"
         id="path208"
         clip-path="url(#SVGID_16_)" /></g></g></svg>