<?xml version="1.0" encoding="UTF-8" standalone="no"?>
<!-- Generator: Adobe Illustrator 19.2.1, SVG Export Plug-In . SVG Version: 6.00 Build 0)  -->

<svg
   xmlns:dc="http://purl.org/dc/elements/1.1/"
   xmlns:cc="http://creativecommons.org/ns#"
   xmlns:rdf="http://www.w3.org/1999/02/22-rdf-syntax-ns#"
   xmlns:svg="http://www.w3.org/2000/svg"
   xmlns="http://www.w3.org/2000/svg"
   xmlns:xlink="http://www.w3.org/1999/xlink"
   xmlns:sodipodi="http://sodipodi.sourceforge.net/DTD/sodipodi-0.dtd"
   xmlns:inkscape="http://www.inkscape.org/namespaces/inkscape"
   version="1.1"
   x="0px"
   y="0px"
   viewBox="0 0 128 128"
   style="enable-background:new 0 0 128 128;"
   xml:space="preserve"
   id="svg2"
   inkscape:version="0.91 r13725"
   sodipodi:docname="1f691.svg"><metadata
     id="metadata168"><rdf:RDF><cc:Work
         rdf:about=""><dc:format>image/svg+xml</dc:format><dc:type
           rdf:resource="http://purl.org/dc/dcmitype/StillImage" /><dc:title></dc:title></cc:Work></rdf:RDF></metadata><defs
     id="defs166" /><sodipodi:namedview
     pagecolor="#ffffff"
     bordercolor="#666666"
     borderopacity="1"
     objecttolerance="10"
     gridtolerance="10"
     guidetolerance="10"
     inkscape:pageopacity="0"
     inkscape:pageshadow="2"
     inkscape:window-width="640"
     inkscape:window-height="480"
     id="namedview164"
     showgrid="false"
     inkscape:zoom="0.65186406"
     inkscape:cx="64"
     inkscape:cy="64"
     inkscape:window-x="0"
     inkscape:window-y="0"
     inkscape:window-maximized="0"
     inkscape:current-layer="图层_1" /><g
     id="Layer_2" /><g
     id="图层_1"><g
       id="g6"><defs
         id="defs8"><path
           id="SVGID_1_"
           d="M108.04,112.87H20.75c-8.97,0-19.45-4.73-19.45-18.04c0-4.79,1.42-11.77,5.44-15.66     c1.15-1.12,2.69-2.21,4.33-3.37c1.97-1.39,4.01-2.84,4.98-4.09c2.31-2.99,2.96-4.08,4.55-6.7l1.11-1.82     c4.46-7.29,9.4-15.36,17.33-17.93c3.94-1.27,11.64-1.53,22.8-1.53c2.11,0,4.29,0.01,6.51,0.02c5.56,0.02,11.41,0.04,17.15-0.06     c0.7-0.01,27-0.02,27.71-0.02c10.43,0,12,19.46,12.27,25.9c0.27,6.25,1.35,30.72-5.18,37.7     C116.98,110.82,113.04,112.87,108.04,112.87z" /></defs><use
         xlink:href="#SVGID_1_"
         style="overflow:visible;fill:#E0E0E0;"
         id="use11" /><clipPath
         id="SVGID_2_"><use
           xlink:href="#SVGID_1_"
           style="overflow:visible;"
           id="use14" /></clipPath><rect
         x="-3.62"
         y="81.66"
         style="clip-path:url(#SVGID_2_);fill:#ED6C30;"
         width="134.78"
         height="6.08"
         id="rect16"
         clip-path="url(#SVGID_2_)" /></g><path
       style="fill:#E0E0E0;"
       d="M62.72,38.87H47.76c-1.56,0-2.82,1.27-2.82,2.83v5.35c0,1.56,1.26,2.83,2.82,2.83h14.96   c1.56,0,2.83-1.26,2.83-2.83v-5.35C65.55,40.14,64.28,38.87,62.72,38.87z"
       id="path18" /><path
       style="fill:#ED6C30;"
       d="M46.98,36.27c0-6.64,1.98-12.02,8.27-12.02c6.27,0,8.27,5.38,8.27,12.02H46.98z"
       id="path56" /><g
       id="g58"><g
         id="g60"><g
           id="g62"><path
             style="fill:#ED6C30;"
             d="M41.47,31.05l-12.72-5.83c-0.41-0.19-0.9-0.18-1.31,0.04c-0.4,0.23-0.68,0.62-0.74,1.08      l-1.11,7.99c-0.06,0.46,0.1,0.92,0.43,1.25c0.28,0.27,0.64,0.42,1.02,0.42c0.07,0,0.15-0.01,0.22-0.02l13.83-2.16      c0.64-0.1,1.13-0.61,1.22-1.24C42.4,31.94,42.06,31.32,41.47,31.05z"
             id="path64" /></g><g
           id="g66"><path
             style="fill:#ED6C30;"
             d="M83.79,26.34c-0.06-0.46-0.34-0.85-0.75-1.08c-0.4-0.22-0.89-0.24-1.31-0.04l-12.73,5.83      c-0.59,0.27-0.92,0.89-0.84,1.53c0.09,0.63,0.58,1.14,1.22,1.24l13.83,2.16C83.3,35.99,83.38,36,83.45,36      c0.38,0,0.75-0.15,1.03-0.42c0.33-0.32,0.48-0.79,0.42-1.25L83.79,26.34z"
             id="path68" /></g></g></g><path
       style="fill:#ED6C30;"
       d="M71.61,64.33h-3.52V60.8c0-0.71-0.58-1.28-1.29-1.28h-5.6c-0.7,0-1.28,0.57-1.28,1.28v3.53H56.4   c-0.71,0-1.29,0.58-1.29,1.28v5.6c0,0.71,0.58,1.28,1.29,1.28h3.52v3.53c0,0.7,0.58,1.28,1.28,1.28h5.6c0.7,0,1.29-0.58,1.29-1.28   v-3.53h3.52c0.71,0,1.28-0.58,1.28-1.28v-5.6C72.9,64.9,72.32,64.33,71.61,64.33z"
       id="path70" /><circle
       style="fill:#FFFFFF;"
       cx="98.94"
       cy="52.45"
       r="0"
       id="circle72" /><circle
       style="fill:#FFFFFF;"
       cx="98.94"
       cy="52.45"
       r="0"
       id="circle74" /><g
       id="g76"><g
         id="g78"><path
           style="fill:#2F2F2F;"
           d="M46.36,110.62c0,5.71-4.63,10.34-10.35,10.34c-5.72,0-10.35-4.62-10.35-10.34     c0-5.72,4.63-10.34,10.35-10.34C41.73,100.28,46.36,104.9,46.36,110.62z"
           id="path80" /></g></g><g
       id="g82"><g
         id="g84"><path
           style="fill:#2F2F2F;"
           d="M104.27,110.62c0,5.71-4.63,10.34-10.35,10.34c-5.72,0-10.35-4.62-10.35-10.34     c0-5.72,4.63-10.34,10.35-10.34C99.64,100.28,104.27,104.9,104.27,110.62z"
           id="path86" /></g></g><g
       id="g88"><path
         style="fill:#40C0E7;"
         d="M45.96,72.02c0,1.75-1.43,3.19-3.19,3.19H30.32c-1.75,0-2.76-1.37-2.24-3.04    c0.17-0.55,0.37-1.09,0.58-1.63c0.52-1.37,1.11-2.71,1.76-4.02c0.87-1.74,1.84-3.43,2.95-5.01c1.2-1.7,2.57-3.29,4.17-4.63    c1.58-1.31,3.39-2.36,5.39-2.87c0.64-0.16,1.59-0.46,2.24-0.17c1.29,0.58,0.78,3.4,0.78,4.47c0,2.33,0,4.67,0,7.01    c0,1.88,0,3.76,0,5.63C45.96,71.31,45.96,71.66,45.96,72.02z M109.46,52.45c-3.25,0-19.38,0-23.51,0c-1.83,0-4.16,0.12-4.42,2.39    c-0.22,1.9,0,3.95,0,5.85c0,2.72,0,6.66,0,9.38c0,1.78-0.39,3.9,1.53,4.75c1.67,0.74,3.86,0.38,5.65,0.38c3.33,0,6.66,0,10,0    c0.08,0,0.15,0,0.23,0c2.4,0,4.79,0,7.18,0c1.94,0,2.68,0,4.62,0c4.02,0,5.6-0.24,5.61-4.6C116.36,66.7,114.46,52.45,109.46,52.45    z"
         id="path90" /></g><circle
       style="fill:#616161;"
       cx="36.01"
       cy="110.62"
       r="4.71"
       id="circle160" /><circle
       style="fill:#616161;"
       cx="93.92"
       cy="110.62"
       r="4.71"
       id="circle162" /></g></svg>