<?xml version="1.0" encoding="UTF-8" standalone="no"?>
<!-- Generator: Adobe Illustrator 19.2.1, SVG Export Plug-In . SVG Version: 6.00 Build 0)  -->

<svg
   xmlns:dc="http://purl.org/dc/elements/1.1/"
   xmlns:cc="http://creativecommons.org/ns#"
   xmlns:rdf="http://www.w3.org/1999/02/22-rdf-syntax-ns#"
   xmlns:svg="http://www.w3.org/2000/svg"
   xmlns="http://www.w3.org/2000/svg"
   xmlns:sodipodi="http://sodipodi.sourceforge.net/DTD/sodipodi-0.dtd"
   xmlns:inkscape="http://www.inkscape.org/namespaces/inkscape"
   version="1.1"
   id="图层_1"
   x="0px"
   y="0px"
   viewBox="0 0 128 128"
   style="enable-background:new 0 0 128 128;"
   xml:space="preserve"
   inkscape:version="0.91 r13725"
   sodipodi:docname="1f6bc.svg"><metadata
     id="metadata69"><rdf:RDF><cc:Work
         rdf:about=""><dc:format>image/svg+xml</dc:format><dc:type
           rdf:resource="http://purl.org/dc/dcmitype/StillImage" /><dc:title></dc:title></cc:Work></rdf:RDF></metadata><defs
     id="defs67" /><sodipodi:namedview
     pagecolor="#ffffff"
     bordercolor="#666666"
     borderopacity="1"
     objecttolerance="10"
     gridtolerance="10"
     guidetolerance="10"
     inkscape:pageopacity="0"
     inkscape:pageshadow="2"
     inkscape:window-width="769"
     inkscape:window-height="480"
     id="namedview65"
     showgrid="false"
     inkscape:zoom="0.081483008"
     inkscape:cx="55.280076"
     inkscape:cy="64"
     inkscape:window-x="0"
     inkscape:window-y="0"
     inkscape:window-maximized="0"
     inkscape:current-layer="图层_1" /><g
     id="g3"><g
       id="g5"><g
         id="g7"><path
           style="fill:#F79329;"
           d="M121.03,0H7.02C3.24,0,0.14,3.09,0.14,6.88v114.01c0,3.79,3.1,6.88,6.88,6.88h114.01     c3.78,0,6.88-3.09,6.88-6.88V6.88C127.91,3.09,124.81,0,121.03,0z"
           id="path9" /></g></g></g><path
     style="fill:#FFFFFF;"
     d="M64.09,42.46c8.45-0.03,15.26-6.91,15.23-15.35s-6.91-15.26-15.35-15.23  c-8.45,0.03-15.26,6.91-15.23,15.35S55.64,42.49,64.09,42.46z M98.24,73.37L84.8,54.17l0,0c-2.83-4.16-8.7-7.05-13.58-7.05H56.84  c-4.88,0-10.76,2.9-13.58,7.06l-0.02-0.01l-13.43,19.2c-1.45,2.08-0.95,4.94,1.13,6.39c2.08,1.45,4.94,0.95,6.39-1.13l11.5-16.42  c0,0,0.91-1.09,2.07-0.6c1.2,0.51,1.2,2.07,1.2,2.07v8.13h11.93h0h11.93v-8.13c0,0,0-1.56,1.2-2.07c1.16-0.49,2.07,0.6,2.07,0.6  l11.5,16.42c1.45,2.08,4.31,2.58,6.39,1.13C99.19,78.31,99.7,75.45,98.24,73.37z M86.23,90.06l-8.52-10.18l-10.67,8.96l7.31,8.74  l-7.06,9.99c-1.68,2.38-1.12,5.68,1.26,7.36s5.68,1.12,7.36-1.26l10.72-15.18l-0.01,0C88.36,95.96,88.29,92.51,86.23,90.06z   M53.71,97.57l7.31-8.74l-10.67-8.96l-8.52,10.18c-2.06,2.45-2.13,5.9-0.4,8.42l-0.01,0l10.72,15.18c1.68,2.38,4.98,2.95,7.36,1.26  s2.95-4.98,1.26-7.36L53.71,97.57z"
     id="path63" /></svg>