<?xml version="1.0" encoding="UTF-8" standalone="no"?>
<!-- Generator: Adobe Illustrator 19.2.1, SVG Export Plug-In . SVG Version: 6.00 Build 0)  -->

<svg
   xmlns:dc="http://purl.org/dc/elements/1.1/"
   xmlns:cc="http://creativecommons.org/ns#"
   xmlns:rdf="http://www.w3.org/1999/02/22-rdf-syntax-ns#"
   xmlns:svg="http://www.w3.org/2000/svg"
   xmlns="http://www.w3.org/2000/svg"
   xmlns:sodipodi="http://sodipodi.sourceforge.net/DTD/sodipodi-0.dtd"
   xmlns:inkscape="http://www.inkscape.org/namespaces/inkscape"
   version="1.1"
   id="レイヤー_1"
   x="0px"
   y="0px"
   viewBox="0 0 128 128"
   style="enable-background:new 0 0 128 128;"
   xml:space="preserve"
   inkscape:version="0.91 r13725"
   sodipodi:docname="1f910.svg"><metadata
     id="metadata51"><rdf:RDF><cc:Work
         rdf:about=""><dc:format>image/svg+xml</dc:format><dc:type
           rdf:resource="http://purl.org/dc/dcmitype/StillImage" /><dc:title></dc:title></cc:Work></rdf:RDF></metadata><defs
     id="defs49" /><sodipodi:namedview
     pagecolor="#ffffff"
     bordercolor="#666666"
     borderopacity="1"
     objecttolerance="10"
     gridtolerance="10"
     guidetolerance="10"
     inkscape:pageopacity="0"
     inkscape:pageshadow="2"
     inkscape:window-width="640"
     inkscape:window-height="480"
     id="namedview47"
     showgrid="false"
     inkscape:zoom="0.23046875"
     inkscape:cx="64"
     inkscape:cy="64"
     inkscape:window-x="0"
     inkscape:window-y="0"
     inkscape:window-maximized="0"
     inkscape:current-layer="レイヤー_1" /><g
     id="g3"><path
       style="fill:#FCC21B;"
       d="M64.01,9.47c-62.52,0-64,70.08-64,83.95c0,13.88,28.65,25.11,64,25.11S128,107.3,128,93.42   C128,79.55,126.53,9.47,64.01,9.47z"
       id="path5" /></g><g
     id="g7" /><path
     style="fill:#2F2F2F;"
     d="M92.32,84.53l-2.8,2.72c-1.25,1.23-0.79,3.9,1.04,5.99l15.95,18.17c1.91,2.18,5.25,2.27,7.45,0.2  l4.91-4.62c2.22-2.1,2.09-5.23-0.3-7L98.71,85.34C96.43,83.66,93.58,83.3,92.32,84.53z M116.15,105.83l-3.46,3.27  c-1.12,1.06-2.89,1.02-3.95-0.08c-1.05-1.11-1.06-2.8-0.02-3.79l3.21-3.05c1.05-0.99,2.87-1.01,4.07-0.05  C117.21,103.11,117.27,104.77,116.15,105.83z"
     id="path27" /><line
     style="fill:none;stroke:#2F2F2F;stroke-width:5;stroke-linecap:round;stroke-linejoin:round;stroke-miterlimit:10;"
     x1="92.5"
     y1="87.75"
     x2="36.25"
     y2="87.75"
     id="line29" /><line
     style="fill:none;stroke:#2F2F2F;stroke-width:5;stroke-linecap:round;stroke-linejoin:round;stroke-miterlimit:10;"
     x1="50.41"
     y1="81.33"
     x2="50.41"
     y2="94"
     id="line31" /><line
     style="fill:none;stroke:#2F2F2F;stroke-width:5;stroke-linecap:round;stroke-linejoin:round;stroke-miterlimit:10;"
     x1="64.58"
     y1="81.33"
     x2="64.58"
     y2="94"
     id="line33" /><line
     style="fill:none;stroke:#2F2F2F;stroke-width:5;stroke-linecap:round;stroke-linejoin:round;stroke-miterlimit:10;"
     x1="36.25"
     y1="81.33"
     x2="36.25"
     y2="94"
     id="line35" /><line
     style="fill:none;stroke:#2F2F2F;stroke-width:5;stroke-linecap:round;stroke-linejoin:round;stroke-miterlimit:10;"
     x1="78.74"
     y1="81.33"
     x2="78.74"
     y2="94"
     id="line37" /><line
     style="fill:none;stroke:#2F2F2F;stroke-width:5;stroke-linecap:round;stroke-linejoin:round;stroke-miterlimit:10;"
     x1="92.9"
     y1="81.33"
     x2="92.9"
     y2="89.92"
     id="line39" /><g
     id="g41"><path
       style="fill:#2F2F2F;"
       d="M42,68c-4.49,0.04-8.17-4.27-8.22-9.62c-0.05-5.37,3.55-9.75,8.04-9.79   c4.48-0.04,8.17,4.27,8.22,9.64C50.09,63.59,46.49,67.96,42,68z"
       id="path43" /><path
       style="fill:#2F2F2F;"
       d="M86.11,68c4.48-0.01,8.11-4.36,8.1-9.71c-0.01-5.37-3.66-9.7-8.14-9.69   c-4.49,0.01-8.13,4.36-8.12,9.73C77.97,63.68,81.62,68.01,86.11,68z"
       id="path45" /></g></svg>