<?xml version="1.0" encoding="UTF-8" standalone="no"?>
<!-- Generator: Adobe Illustrator 19.2.1, SVG Export Plug-In . SVG Version: 6.00 Build 0)  -->

<svg
   xmlns:dc="http://purl.org/dc/elements/1.1/"
   xmlns:cc="http://creativecommons.org/ns#"
   xmlns:rdf="http://www.w3.org/1999/02/22-rdf-syntax-ns#"
   xmlns:svg="http://www.w3.org/2000/svg"
   xmlns="http://www.w3.org/2000/svg"
   xmlns:sodipodi="http://sodipodi.sourceforge.net/DTD/sodipodi-0.dtd"
   xmlns:inkscape="http://www.inkscape.org/namespaces/inkscape"
   version="1.1"
   id="レイヤー_1"
   x="0px"
   y="0px"
   viewBox="0 0 128 128"
   style="enable-background:new 0 0 128 128;"
   xml:space="preserve"
   inkscape:version="0.91 r13725"
   sodipodi:docname="2622.svg"><metadata
     id="metadata17"><rdf:RDF><cc:Work
         rdf:about=""><dc:format>image/svg+xml</dc:format><dc:type
           rdf:resource="http://purl.org/dc/dcmitype/StillImage" /><dc:title></dc:title></cc:Work></rdf:RDF></metadata><defs
     id="defs15" /><sodipodi:namedview
     pagecolor="#ffffff"
     bordercolor="#666666"
     borderopacity="1"
     objecttolerance="10"
     gridtolerance="10"
     guidetolerance="10"
     inkscape:pageopacity="0"
     inkscape:pageshadow="2"
     inkscape:window-width="771"
     inkscape:window-height="480"
     id="namedview13"
     showgrid="false"
     inkscape:zoom="1.84375"
     inkscape:cx="64"
     inkscape:cy="64"
     inkscape:window-x="0"
     inkscape:window-y="0"
     inkscape:window-maximized="0"
     inkscape:current-layer="レイヤー_1" /><circle
     style="fill:#FBC21A;"
     cx="64"
     cy="64"
     r="64"
     id="circle3" /><path
     d="M35.7,18.56c-15.5,9.73-24.38,26.22-25.01,43.4c-0.04,1.06,0.84,1.94,1.9,1.94l48.3,0c1.46,0,2.38-1.58,1.65-2.85  L38.38,19.21C37.83,18.27,36.62,17.99,35.7,18.56z"
     id="path5"
     style="fill:#010101;fill-opacity:1" /><path
     d="M39.16,111.22c15.18,8.01,33.88,8.56,50.04,0.01c0.96-0.51,1.32-1.7,0.78-2.64L65.82,66.75c-0.73-1.27-2.56-1.27-3.29,0  l-24.15,41.83C37.84,109.52,38.2,110.71,39.16,111.22z"
     id="path7"
     style="fill:#010101;fill-opacity:1" /><path
     d="M89.98,19.22L65.82,61.05c-0.73,1.27,0.18,2.85,1.65,2.85l48.3,0c1.06,0,1.94-0.87,1.9-1.93c-0.3-8.47-2.6-16.99-7.13-24.84  c-4.52-7.83-10.73-14.08-17.89-18.57C91.73,17.99,90.52,18.28,89.98,19.22z"
     id="path9"
     style="fill:#010101;fill-opacity:1" /><circle
     style="stroke:#FBC21A;stroke-width:8;stroke-miterlimit:10;fill:#010101;fill-opacity:1"
     cx="64"
     cy="64"
     r="15.1"
     id="circle11" /></svg>