<?xml version="1.0" encoding="UTF-8" standalone="no"?>
<!-- Generator: Adobe Illustrator 19.2.1, SVG Export Plug-In . SVG Version: 6.00 Build 0)  -->

<svg
   xmlns:dc="http://purl.org/dc/elements/1.1/"
   xmlns:cc="http://creativecommons.org/ns#"
   xmlns:rdf="http://www.w3.org/1999/02/22-rdf-syntax-ns#"
   xmlns:svg="http://www.w3.org/2000/svg"
   xmlns="http://www.w3.org/2000/svg"
   xmlns:sodipodi="http://sodipodi.sourceforge.net/DTD/sodipodi-0.dtd"
   xmlns:inkscape="http://www.inkscape.org/namespaces/inkscape"
   version="1.1"
   id="レイヤー_1"
   x="0px"
   y="0px"
   viewBox="0 0 128 128"
   style="enable-background:new 0 0 128 128;"
   xml:space="preserve"
   inkscape:version="0.91 r13725"
   sodipodi:docname="26e9.svg"><metadata
     id="metadata28900"><rdf:RDF><cc:Work
         rdf:about=""><dc:format>image/svg+xml</dc:format><dc:type
           rdf:resource="http://purl.org/dc/dcmitype/StillImage" /><dc:title></dc:title></cc:Work></rdf:RDF></metadata><defs
     id="defs28898" /><sodipodi:namedview
     pagecolor="#ffffff"
     bordercolor="#666666"
     borderopacity="1"
     objecttolerance="10"
     gridtolerance="10"
     guidetolerance="10"
     inkscape:pageopacity="0"
     inkscape:pageshadow="2"
     inkscape:window-width="640"
     inkscape:window-height="480"
     id="namedview28896"
     showgrid="false"
     inkscape:zoom="0.65186406"
     inkscape:cx="64"
     inkscape:cy="64"
     inkscape:window-x="0"
     inkscape:window-y="0"
     inkscape:window-maximized="0"
     inkscape:current-layer="レイヤー_1" /><path
     style="fill:#DD5322;"
     d="M124,44h-16.57L107,26.86c4-0.62,8.53-1.54,11.88-2.05c0.87-0.13,1.57-0.76,1.73-1.63l1.09-4.86  c0.25-1.33-0.86-2.5-2.2-2.34c-36.7,4.42-73.86,4.42-110.56,0C7.61,15.83,6.5,17,6.74,18.33l1.09,4.86  c0.16,0.86,0.86,1.52,1.73,1.63c3.29,0.39,8.25,1.5,11.88,2.05L21.03,44H4c-1.1,0-2,0.9-2,2v6c0,1.1,0.9,2,2,2h16.78l-1.46,59h10.55  l1.46-59h65.79l1.46,59h10.55l-1.46-59H124c1.1,0,2-0.9,2-2v-6C126,44.9,125.1,44,124,44z M69,44V29c9.83-0.1,17.66-0.51,27.47-1.23  L96.87,44H69z M58,44H31.58l0.4-16.23c9.33,0.69,16.67,1.1,26.02,1.22V44z"
     id="path28868" /><g
     id="g28870"><path
       style="fill:#2F2F2F;"
       d="M18.77,123h11c1.1,0,2-0.9,2-2v-10c0-1.1-0.9-2-2-2h-11c-1.1,0-2,0.9-2,2v10   C16.77,122.1,17.67,123,18.77,123z"
       id="path28872" /><path
       style="fill:#2F2F2F;"
       d="M97.77,123h11c1.1,0,2-0.9,2-2v-10c0-1.1-0.9-2-2-2h-11c-1.1,0-2,0.9-2,2v10   C95.77,122.1,96.67,123,97.77,123z"
       id="path28874" /></g><path
     style="fill:#2F2F2F;stroke:#2F2F2F;stroke-width:2;stroke-miterlimit:10;"
     d="M123.9,16.92c-39.79,4.84-80.02,4.84-119.8,0  L1.85,7.91c41.27,5.21,83.03,5.21,124.3,0L123.9,16.92z"
     id="path28890" /></svg>