<?xml version="1.0" encoding="UTF-8" standalone="no"?>
<!-- Generator: Adobe Illustrator 19.2.1, SVG Export Plug-In . SVG Version: 6.00 Build 0)  -->

<svg
   xmlns:dc="http://purl.org/dc/elements/1.1/"
   xmlns:cc="http://creativecommons.org/ns#"
   xmlns:rdf="http://www.w3.org/1999/02/22-rdf-syntax-ns#"
   xmlns:svg="http://www.w3.org/2000/svg"
   xmlns="http://www.w3.org/2000/svg"
   xmlns:xlink="http://www.w3.org/1999/xlink"
   xmlns:sodipodi="http://sodipodi.sourceforge.net/DTD/sodipodi-0.dtd"
   xmlns:inkscape="http://www.inkscape.org/namespaces/inkscape"
   version="1.1"
   id="图层_1"
   x="0px"
   y="0px"
   viewBox="0 0 128 128"
   style="enable-background:new 0 0 128 128;"
   xml:space="preserve"
   inkscape:version="0.91 r13725"
   sodipodi:docname="26f7.svg"><metadata
     id="metadata143"><rdf:RDF><cc:Work
         rdf:about=""><dc:format>image/svg+xml</dc:format><dc:type
           rdf:resource="http://purl.org/dc/dcmitype/StillImage" /><dc:title></dc:title></cc:Work></rdf:RDF></metadata><defs
     id="defs141" /><sodipodi:namedview
     pagecolor="#ffffff"
     bordercolor="#666666"
     borderopacity="1"
     objecttolerance="10"
     gridtolerance="10"
     guidetolerance="10"
     inkscape:pageopacity="0"
     inkscape:pageshadow="2"
     inkscape:window-width="1024"
     inkscape:window-height="717"
     id="namedview139"
     showgrid="false"
     inkscape:zoom="4"
     inkscape:cx="45.221777"
     inkscape:cy="62.281469"
     inkscape:window-x="0"
     inkscape:window-y="0"
     inkscape:window-maximized="1"
     inkscape:current-layer="图层_1" /><g
     id="g3"><defs
       id="defs5"><path
         id="SVGID_1_"
         d="M128,128H0l0-27.35c54.56-20.16,102.17-45.24,128-85.7L128,128z" /></defs><use
       xlink:href="#SVGID_1_"
       style="overflow:visible;fill:#E1F5FE;"
       id="use8" /><clipPath
       id="SVGID_2_"><use
         xlink:href="#SVGID_1_"
         style="overflow:visible;"
         id="use11" /></clipPath><path
       style="clip-path:url(#SVGID_2_);fill:#B3E5FC;"
       d="M90.38,86.56c12.71-7.89,32.79-24.79,40.62-34.79   c0.02,3-0.62,11.11-0.83,11.35C125,68.85,108,83.04,94.79,91.51C92.35,88.47,91.78,89.42,90.38,86.56z"
       id="path13"
       clip-path="url(#SVGID_2_)" /><path
       style="clip-path:url(#SVGID_2_);fill:#B3E5FC;"
       d="M68.22,86.32c15.28-9.07,52.12-36.83,63.45-61.31   c0.02,3-0.69,12.5-0.83,12.79C125.67,48.59,105,71.47,72.11,91.46C69.67,88.43,69.62,89.18,68.22,86.32z"
       id="path15"
       clip-path="url(#SVGID_2_)" /></g><g
     id="g17"><path
       style="fill:#FFFFFF;"
       d="M95.2,78.78c0.01-0.01,0.02-0.01,0.03-0.03c1.23-1.08,0.39-3.2-1.31-2.93   c-0.05,0-0.09,0.01-0.13,0.02c-0.98,0.24-1.63,1.08-1.91,2.01c-0.14,0.48-0.26,0.96-0.36,1.45c-0.05,0.24-0.11,0.49-0.13,0.73   c-0.01,0.14,0.06,0.39,0.22,0.42c0.23,0.05,0.65-0.14,0.87-0.22C93.45,79.92,94.41,79.47,95.2,78.78z"
       id="path19" /><path
       style="fill:#FFFFFF;"
       d="M107.22,66.87c0.01-0.01,0.01-0.02,0.03-0.03c1.1-1.22,3.21-0.35,2.91,1.35   c0,0.04-0.02,0.09-0.03,0.13c-0.25,0.98-1.1,1.62-2.04,1.89c-0.48,0.14-0.97,0.25-1.46,0.34c-0.24,0.05-0.49,0.1-0.73,0.12   c-0.14,0.01-0.39-0.07-0.42-0.23c-0.05-0.23,0.15-0.65,0.23-0.86C106.06,68.61,106.52,67.65,107.22,66.87z"
       id="path21" /><path
       style="fill:#FFFFFF;"
       d="M89.25,66.12c0.01-0.01,0.01-0.02,0.01-0.04c0.68-1.69-1.22-3.38-2.77-2.25   c-0.04,0.03-0.08,0.06-0.12,0.09c-0.85,0.72-1.09,1.89-0.9,2.96c0.1,0.55,0.22,1.09,0.37,1.62c0.08,0.26,0.14,0.54,0.24,0.79   c0.06,0.14,0.26,0.35,0.43,0.31c0.26-0.06,0.57-0.46,0.75-0.65C88.09,68.13,88.82,67.2,89.25,66.12z"
       id="path23" /><path
       style="fill:#FFFFFF;"
       d="M102.6,56.83c0.01-0.01,0.01-0.02,0.02-0.03c1.1-1.16,0.1-3.14-1.53-2.73   c-0.04,0.01-0.09,0.02-0.13,0.04c-0.93,0.31-1.49,1.19-1.68,2.11c-0.1,0.48-0.17,0.96-0.23,1.44c-0.02,0.24-0.06,0.48-0.06,0.72   c0,0.13,0.1,0.37,0.25,0.39c0.23,0.03,0.61-0.19,0.82-0.28C101,58.08,101.9,57.56,102.6,56.83z"
       id="path25" /><path
       style="fill:#FFFFFF;"
       d="M101.34,65.96c0.01-0.01,0.02-0.02,0.03-0.03c1.37-1.48,0.07-3.96-1.97-3.41   c-0.05,0.01-0.11,0.03-0.16,0.05c-1.16,0.41-1.86,1.53-2.08,2.7c-0.11,0.6-0.2,1.21-0.25,1.82c-0.03,0.3-0.07,0.61-0.07,0.91   c0.01,0.16,0.13,0.46,0.32,0.48c0.29,0.04,0.78-0.25,1.03-0.37C99.35,67.57,100.47,66.9,101.34,65.96z"
       id="path27" /></g><g
     id="g29"><path
       style="fill:#076894;"
       d="M94.56,91.67l-50.98,33.5c0,0-2.4,1.53-5.16,1.51c-2.76-0.02-8.09-0.78-9.17-2.34   c-1.08-1.56,1.94-1.99,4.37-2.97c2.43-0.98,10.41-4.71,16.83-8.82c6.42-4.11,37.5-24.68,39.09-25.6c1.59-0.91,3.47-0.95,5-0.31   C96.07,87.28,97.41,89.77,94.56,91.67z"
       id="path31" /><path
       style="fill:#2CB6D3;"
       d="M94.61,89.88l-50.98,33.5c0,0-2.4,1.53-5.16,1.51c-2.76-0.02-8.09-0.78-9.17-2.34   c-1.08-1.56,1.94-1.99,4.37-2.97c2.43-0.98,10.41-4.71,16.83-8.82c6.42-4.11,37.5-24.68,39.09-25.6c1.59-0.91,3.47-0.95,5-0.31   C96.12,85.49,97.45,87.98,94.61,89.88z"
       id="path33" /><path
       style="fill:#076894;"
       d="M71.78,91.64l-55.05,26.32c0,0-2.58,1.17-5.31,0.77c-2.73-0.4-7.91-1.87-8.77-3.56   c-0.86-1.69,2.19-1.71,4.74-2.35c2.54-0.64,10.95-3.26,17.87-6.47c6.91-3.21,40.49-19.38,42.19-20.07c1.7-0.69,3.57-0.47,5,0.37   C73.88,87.49,74.86,90.14,71.78,91.64z"
       id="path35" /><path
       style="fill:#2CB6D3;"
       d="M71.98,89.86l-55.05,26.32c0,0-2.58,1.17-5.31,0.77c-2.73-0.4-7.91-1.87-8.77-3.56   c-0.86-1.69,2.19-1.71,4.74-2.35c2.54-0.64,10.95-3.26,17.87-6.47c6.91-3.21,40.49-19.38,42.19-20.07s3.57-0.47,5,0.37   C74.07,85.72,75.05,88.36,71.98,89.86z"
       id="path37" /></g><g
     id="g39"><g
       id="g41"><path
         id="XMLID_1747_"
         style="fill:#01497A;"
         d="M25.02,49.98l3.42,8.9c5.27-1.24,10.18-2.63,13.79-4.51l-3.95-10.27    C33.61,44.77,29.16,46.57,25.02,49.98z" /><path
         style="fill:#01497A;"
         d="M45.78,49.49l-10.99-0.55c-0.45-5.59-1.04-11.11,0.14-17.53l12.46,0.63L45.78,49.49z"
         id="path44" /><ellipse
         transform="matrix(0.0502 -0.9987 0.9987 0.0502 -10.8946 86.9738)"
         style="fill:#01497A;"
         cx="40.28"
         cy="49.22"
         rx="5.5"
         ry="5.5"
         id="ellipse46" /><path
         style="fill:#FBC11B;"
         d="M18.71,53.09l0.09-0.22c0.99-2.46,3.79-3.65,6.25-2.65l2.55,1.03c2.46,0.99,3.65,3.79,2.65,6.25    l-0.09,0.22c-0.99,2.46-3.79,3.65-6.25,2.65l-2.55-1.03C18.9,58.35,17.72,55.55,18.71,53.09z"
         id="path48" /><g
         id="g50"><line
           style="fill:none;stroke:#7C7D7D;stroke-width:2;stroke-linecap:round;stroke-linejoin:round;stroke-miterlimit:10;"
           x1="13.18"
           y1="50.33"
           x2="79.18"
           y2="80.47"
           id="line52" /><ellipse
           transform="matrix(0.4106 -0.9118 0.9118 0.4106 -27.8183 112.1725)"
           style="fill:#7CB342;stroke:#7CB342;stroke-width:2;stroke-miterlimit:10;"
           cx="72.86"
           cy="77.6"
           rx="5.14"
           ry="2.66"
           id="ellipse54" /><line
           style="fill:none;stroke:#7C7D7D;stroke-width:2;stroke-linecap:round;stroke-linejoin:round;stroke-miterlimit:10;"
           x1="72.58"
           y1="77.49"
           x2="68.22"
           y2="75.5"
           id="line56" /></g><ellipse
         transform="matrix(0.0502 -0.9987 0.9987 0.0502 7.4186 71.2366)"
         style="fill:#01497A;"
         cx="41.16"
         cy="31.72"
         rx="6.24"
         ry="6.24"
         id="ellipse58" /><circle
         style="fill:#FBC11B;"
         cx="25.7"
         cy="55.82"
         r="4.9"
         id="circle60" /></g><g
       id="g62"><path
         style="fill:#0277BD;"
         d="M36.02,77.6l-7.38-10.3c4.87-5.27,10.92-9.99,17.9-14.25l8.68,12.12    C49.3,70.54,42.91,74.73,36.02,77.6z"
         id="path64" /><path
         style="fill:#0277BD;"
         d="M46.38,91.76l-9.89,4.19c-4.08-6.91-7.83-13.85-9.88-20.89l11.65-4.93    C41.47,75.19,44.03,83.03,46.38,91.76z"
         id="path66" /><ellipse
         transform="matrix(0.8129 -0.5824 0.5824 0.8129 -36.1487 32.3899)"
         style="fill:#0277BD;"
         cx="32.34"
         cy="72.46"
         rx="6.33"
         ry="6.33"
         id="ellipse68" /><ellipse
         transform="matrix(0.8129 -0.5824 0.5824 0.8129 -24.9086 40.7015)"
         style="fill:#0277BD;"
         cx="50.89"
         cy="59.12"
         rx="7.46"
         ry="7.46"
         id="ellipse70" /><g
         id="g72"><path
           style="fill:#37474f"
           d="M 42.810547 78.179688 L 29.189453 83.929688 C 30.178517 88.924958 33.624015 93.668868 36.482422 95.941406 L 35.470703 96.369141 C 32.990703 97.419141 31.830859 100.27977 32.880859 102.75977 L 32.970703 102.9707 C 33.410703 104.0107 34.610391 104.50055 35.650391 104.06055 L 47.390625 99.089844 C 48.510625 98.609844 49.030781 97.330938 48.550781 96.210938 L 46.638672 91.662109 L 46.640625 91.660156 C 46.690625 87.280156 45.260547 82.769688 42.810547 78.179688 z "
           id="path74" /></g></g><g
       id="g78"><path
         style="fill:#0277BD;"
         d="M59.49,80.25l-11.64-5c-0.27-3.5,4.46-13.26,7.95-21.46l13.7,5.88    C67.68,67.01,64.07,73.79,59.49,80.25z"
         id="path80" /><path
         style="fill:#0277BD;"
         d="M70.66,94.44l-9.06,5.77c-5.13-6.35-10.32-12.71-13.2-18.97l10.67-6.79    C63,78.55,66.84,86.1,70.66,94.44z"
         id="path82" /><ellipse
         transform="matrix(0.3946 -0.9189 0.9189 0.3946 -38.9465 96.388)"
         style="fill:#0277BD;"
         cx="53.67"
         cy="77.75"
         rx="6.33"
         ry="6.33"
         id="ellipse84" /><ellipse
         transform="matrix(0.3946 -0.9189 0.9189 0.3946 -14.1996 91.9213)"
         style="fill:#0277BD;"
         cx="62.65"
         cy="56.74"
         rx="7.46"
         ry="7.46"
         id="ellipse86" /><g
         id="g88"><path
           style="fill:#37474f"
           d="M 64.810547 81.119141 L 52.109375 89.339844 C 55.10872 93.958835 58.208523 97.938734 61.597656 100.20898 L 60.669922 100.80078 C 58.399922 102.25078 57.729687 105.2593 59.179688 107.5293 C 59.849688 108.5793 61.250547 108.8907 62.310547 108.2207 L 72.849609 101.50977 C 73.889609 100.84977 74.189531 99.469453 73.519531 98.439453 L 70.892578 94.289062 L 70.886719 94.273438 C 70.104654 89.679204 68.036836 85.294339 64.810547 81.119141 z "
           id="path90" /></g></g><path
       style="fill:#01497A;"
       d="M55.68,20.66L45.6,22.67c-4.96,0.99-8.19,5.81-7.2,10.78l4.04,20.29c1.08,5.41,6.34,8.93,11.75,7.85   l12.7-2.53c3.07-0.61,5.06-3.59,4.45-6.66c-1.15-8.37-2.71-16.58-4.89-24.54C65.47,22.89,60.65,19.67,55.68,20.66z"
       id="path94" /><g
       id="g96"><path
         id="XMLID_1744_"
         style="fill:#01497A;"
         d="M70.47,47.15L80,47.38c1.09-4.88,1.47-9.7,1.08-14.47l-11-0.26L70.47,47.15z" /><path
         style="fill:#01497A;"
         d="M77.57,27.43L73.62,37.7l-16.62-5.6l4.48-11.65C67.69,21.88,73.5,23.73,77.57,27.43z"
         id="path99" /><ellipse
         transform="matrix(0.3587 -0.9335 0.9335 0.3587 18.0819 91.4539)"
         style="fill:#01497A;"
         cx="75.6"
         cy="32.57"
         rx="5.5"
         ry="5.5"
         id="ellipse101" /><g
         id="g103"><line
           style="fill:none;stroke:#7C7D7D;stroke-width:2;stroke-linecap:round;stroke-linejoin:round;stroke-miterlimit:10;"
           x1="59.5"
           y1="45.54"
           x2="124.65"
           y2="59.05"
           id="line105" /><ellipse
           transform="matrix(0.1975 -0.9803 0.9803 0.1975 38.0569 161.7995)"
           style="fill:#7CB342;stroke:#7CB342;stroke-width:2;stroke-miterlimit:10;"
           cx="117.86"
           cy="57.65"
           rx="5.14"
           ry="2.66"
           id="ellipse107" /><line
           style="fill:none;stroke:#7C7D7D;stroke-width:2;stroke-linecap:round;stroke-linejoin:round;stroke-miterlimit:10;"
           x1="117.56"
           y1="57.6"
           x2="112.86"
           y2="56.63"
           id="line109" /></g><ellipse
         transform="matrix(0.3587 -0.9335 0.9335 0.3587 13.462 72.1576)"
         style="fill:#01497A;"
         cx="59.24"
         cy="26.28"
         rx="6.24"
         ry="6.24"
         id="ellipse111" /><path
         style="fill:#FBC11B;"
         d="M69.07,47.92l0.05-0.23c0.53-2.6,3.07-4.27,5.67-3.74l2.69,0.55c2.6,0.53,4.27,3.07,3.74,5.67    l-0.05,0.23c-0.53,2.6-3.07,4.27-5.67,3.74l-2.69-0.55C70.21,53.06,68.54,50.52,69.07,47.92z"
         id="path113" /></g><path
       style="fill:#616161;"
       d="M57.77,11.88c1.59,6.44-2.04,12.87-8.09,14.36s-12.05,0.04-13.83-8.96   c-1.28-6.51-0.24-12.31,8.09-14.36C51.41,1.08,56.18,5.44,57.77,11.88z"
       id="path115" /><path
       style="fill:#01497A;"
       d="M56.06,7.56c1.71,3.47,0.85,9.53-4.25,13.6s-11.35,4.78-13.44,2.17c0,0-1.61,0.39-0.97,1.86   c0.53,1.22,0.8,4.52,6.07,4.52s9.08-1.71,11.15-2.15c2.07-0.44,2.06-8.81,10.86-5.36c0,0,1.81-11.07-6.99-14.64   C57.33,7.09,56.55,7.15,56.06,7.56z"
       id="path117" /><g
       id="g119"><defs
         id="defs121"><path
           id="SVGID_3_"
           d="M34.89,12c0,0,1.2,0.55,1.83,0.63c4.49,0.55,8.75,0.6,13.14-0.57c0.76-0.2,1.65-0.41,2.26,0.11     c0.78,0.66,0.3,1.9,0.09,2.93c-0.38,1.91-3.52,5.33-6.31,5.51c-1.38,0.09-2.76-0.12-3.93-0.77c-0.87-0.48-1.9-0.5-2.74,0.03     c-0.32,0.21-0.67,0.38-1.03,0.49c-0.91,0.29-2.13,0.32-2.68-0.49C34.23,17.96,33.84,14.02,34.89,12z" /></defs><use
         xlink:href="#SVGID_3_"
         style="overflow:visible;fill:#00E5FF;"
         id="use124" /><clipPath
         id="SVGID_4_"><use
           xlink:href="#SVGID_3_"
           style="overflow:visible;"
           id="use127" /></clipPath><polygon
         style="clip-path:url(#SVGID_4_);fill:#00ACC1;"
         points="40.78,21.81 38.41,21.81 40.03,10.51 42.41,10.51   "
         id="polygon129"
         clip-path="url(#SVGID_4_)" /><polygon
         style="clip-path:url(#SVGID_4_);fill:#2962FF;"
         points="48.45,21.81 44.15,21.81 47.09,10.51 51.39,10.51   "
         id="polygon131"
         clip-path="url(#SVGID_4_)" /></g><g
       id="g133"><path
         style="fill:#757575;"
         d="M35.66,10.91c-1.46,0.29-2.47,0.63-3.43,1.19c-0.53,0.31-1.08,0.68-1.16,1.15    c-0.1,0.62,0.6,0.92,1.18,0.88c3.76-0.21,6.84-0.42,10.81-0.29c2.75,0.06,6.71,0.45,9.06-0.13c0.29-0.07,0.57-0.28,0.62-0.6    c0.07-0.51-0.28-0.72-0.8-0.77C49.45,11.24,35.31,12.37,35.66,10.91z"
         id="path135" /><path
         style="fill:#BDBDBD;"
         d="M35.66,10.51c-1.46,0.29-2.47,0.63-3.43,1.19c-0.53,0.31-1.08,0.68-1.16,1.15    c-0.1,0.62,0.6,0.92,1.18,0.88c3.76-0.21,6.84-0.42,10.81-0.29c2.75,0.06,6.71,0.44,9.06-0.13c0.29-0.08,0.57-0.28,0.62-0.6    c0.07-0.51-0.28-0.72-0.8-0.77C49.45,10.84,35.31,11.96,35.66,10.51z"
         id="path137" /></g></g></svg>