<?xml version="1.0" encoding="UTF-8" standalone="no"?>
<!-- Generator: Adobe Illustrator 19.2.1, SVG Export Plug-In . SVG Version: 6.00 Build 0)  -->

<svg
   xmlns:dc="http://purl.org/dc/elements/1.1/"
   xmlns:cc="http://creativecommons.org/ns#"
   xmlns:rdf="http://www.w3.org/1999/02/22-rdf-syntax-ns#"
   xmlns:svg="http://www.w3.org/2000/svg"
   xmlns="http://www.w3.org/2000/svg"
   xmlns:sodipodi="http://sodipodi.sourceforge.net/DTD/sodipodi-0.dtd"
   xmlns:inkscape="http://www.inkscape.org/namespaces/inkscape"
   version="1.1"
   id="Layer_1"
   x="0px"
   y="0px"
   viewBox="0 0 128 128"
   style="enable-background:new 0 0 128 128;"
   xml:space="preserve"
   inkscape:version="0.91 r13725"
   sodipodi:docname="1f46c.svg"><metadata
     id="metadata127"><rdf:RDF><cc:Work
         rdf:about=""><dc:format>image/svg+xml</dc:format><dc:type
           rdf:resource="http://purl.org/dc/dcmitype/StillImage" /><dc:title></dc:title></cc:Work></rdf:RDF></metadata><defs
     id="defs125" /><sodipodi:namedview
     pagecolor="#ffffff"
     bordercolor="#666666"
     borderopacity="1"
     objecttolerance="10"
     gridtolerance="10"
     guidetolerance="10"
     inkscape:pageopacity="0"
     inkscape:pageshadow="2"
     inkscape:window-width="1024"
     inkscape:window-height="717"
     id="namedview123"
     showgrid="false"
     inkscape:zoom="5.2149125"
     inkscape:cx="64.644402"
     inkscape:cy="83.175777"
     inkscape:window-x="0"
     inkscape:window-y="0"
     inkscape:window-maximized="1"
     inkscape:current-layer="layer2" /><g
     id="g3"><path
       id="XMLID_1007_"
       style="fill:#FCC21B;"
       d="M-817.69,1352.93l-0.66,1.76c-1.29,3.47-2.94,6.8-4.93,9.93l-6.48,10   c-0.93,1.42-0.64,3.52,0.68,4.59l0,0c1.51,1.22,4.05,0.88,5.13-0.74l15.75-23.61l0.32-4.08L-817.69,1352.93z" /><path
       id="XMLID_1006_"
       style="fill:#00BFA5;"
       d="M-796.64,1341.5c-3.62-0.01-8.17,0.42-10.59,1.06c-7.55,2.01-9.4,5.56-11.65,11.65   l22.24,8.47V1341.5z" /></g><g
     id="g7"><path
       id="XMLID_1055_"
       style="fill:#FCC21B;"
       d="M-775.59,1352.93l0.66,1.76c1.29,3.47,2.94,6.8,4.93,9.93l6.48,10   c0.93,1.42,0.64,3.52-0.68,4.59l0,0c-1.51,1.22-4.05,0.88-5.13-0.74l-15.75-23.61l-0.32-4.08L-775.59,1352.93z" /><path
       id="XMLID_1051_"
       style="fill:#00BFA5;"
       d="M-796.64,1341.5c3.62-0.01,8.17,0.42,10.59,1.06c7.55,2.01,9.4,5.56,11.65,11.65   l-22.24,8.47V1341.5z" /></g><rect
     id="XMLID_1004_"
     x="-810.47"
     y="1354.08"
     style="fill:#00BFA5;"
     width="13.84"
     height="19.5" /><rect
     id="XMLID_1002_"
     x="-810.47"
     y="1373.58"
     style="fill:#616161;"
     width="10.71"
     height="45.72" /><path
     id="XMLID_1000_"
     style="fill:#444444;"
     d="M-798.36,1419.69h-13.5v-3.5c0-2.21,1.79-4,4-4h5.5c2.21,0,4,1.79,4,4V1419.69z" /><rect
     id="XMLID_998_"
     x="-796.64"
     y="1354.08"
     transform="matrix(-1 -1.224647e-16 1.224647e-16 -1 -1579.5067 2727.6631)"
     style="fill:#00BFA5;"
     width="13.77"
     height="19.5" /><rect
     id="XMLID_996_"
     x="-793.58"
     y="1373.58"
     transform="matrix(-1 -1.224647e-16 1.224647e-16 -1 -1576.4521 2792.8823)"
     style="fill:#616161;"
     width="10.71"
     height="45.72" /><path
     id="XMLID_994_"
     style="fill:#444444;"
     d="M-794.98,1419.69h13.5v-3.5c0-2.21-1.79-4-4-4h-5.5c-2.21,0-4,1.79-4,4V1419.69z" /><g
     id="XMLID_940_"><g
       id="XMLID_977_"><path
         id="XMLID_978_"
         style="fill:#6D4C41;"
         d="M-760.22,1316.36c0,0,0,23.19,2.99,33.97c1.47,5.31,3.31,8.66,7.72,5.35l17.1-0.17    c4.4,3.36,7.56,0.14,8.51-5.32c2.24-12.88,2.24-33.83,2.24-33.83H-760.22z" /></g><g
       id="XMLID_974_"><ellipse
         id="XMLID_975_"
         style="fill:#6D4C41;"
         cx="-740.95"
         cy="1316.35"
         rx="19.28"
         ry="17.33" /></g><path
       id="XMLID_973_"
       style="fill:#FCC21B;"
       d="M-720.16,1353.32l0.66,1.76c1.29,3.47,2.94,6.8,4.93,9.93l6.58,10   c0.93,1.42,0.64,3.32-0.68,4.39l0,0c-1.51,1.22-3.75,0.88-4.83-0.74l-15.75-23.61l-0.32-4.08L-720.16,1353.32z" /><path
       id="XMLID_972_"
       style="fill:#FCC21B;"
       d="M-761.6,1353.13l-0.66,1.76c-1.29,3.47-2.94,6.8-4.93,9.93l-6.58,10   c-0.93,1.42-0.64,3.32,0.68,4.39l0,0c1.51,1.22,3.75,0.88,4.83-0.74l15.75-23.61l0.32-4.08L-761.6,1353.13z" /><path
       id="XMLID_970_"
       style="fill:#AA00FF;"
       d="M-740.95,1341.5c-3.5-0.01-7.9,0.4-10.24,1.02c-7.29,1.94-9.08,5.37-11.26,11.26   l21.5,8.19V1341.5z" /><rect
       id="XMLID_968_"
       x="-744.21"
       y="1347.35"
       style="fill:#AA00FF;"
       width="5.31"
       height="15.77" /><rect
       id="XMLID_967_"
       x="-754.32"
       y="1353.66"
       style="fill:#AA00FF;"
       width="12.28"
       height="17.4" /><polygon
       id="XMLID_966_"
       style="fill:#AA00FF;"
       points="-754.25,1369.14 -762.44,1388.59 -740.95,1388.59 -740.95,1369.14  " /><rect
       id="XMLID_965_"
       x="-754.25"
       y="1390.64"
       style="fill:#FCC21B;"
       width="9.21"
       height="28.66" /><rect
       id="XMLID_964_"
       x="-754.25"
       y="1388.59"
       style="fill:#E8A23D;"
       width="9.21"
       height="3.07" /><path
       id="XMLID_963_"
       style="fill:#444444;"
       d="M-743.81,1419.69h-12v-2.5c0-2.21,1.79-4,4-4h4c2.21,0,4,1.79,4,4V1419.69z" /><path
       id="XMLID_962_"
       style="fill:#AA00FF;"
       d="M-740.95,1341.5c3.5-0.01,7.9,0.4,10.24,1.02c7.29,1.94,9.08,5.37,11.26,11.26   l-21.5,8.19V1341.5z" /><rect
       id="XMLID_961_"
       x="-740.95"
       y="1353.66"
       transform="matrix(-1 -1.224647e-16 1.224647e-16 -1 -1468.5833 2724.7209)"
       style="fill:#AA00FF;"
       width="13.31"
       height="17.4" /><polygon
       id="XMLID_959_"
       style="fill:#AA00FF;"
       points="-727.64,1369.14 -719.45,1388.59 -740.95,1388.59 -740.95,1369.14  " /><rect
       id="XMLID_958_"
       x="-736.85"
       y="1390.64"
       transform="matrix(-1 -1.224647e-16 1.224647e-16 -1 -1464.4886 2809.936)"
       style="fill:#FCC21B;"
       width="9.21"
       height="28.66" /><rect
       id="XMLID_957_"
       x="-736.85"
       y="1388.59"
       transform="matrix(-1 -1.224647e-16 1.224647e-16 -1 -1464.4886 2780.2505)"
       style="fill:#E8A23D;"
       width="9.21"
       height="3.07" /><path
       id="XMLID_956_"
       style="fill:#444444;"
       d="M-738.08,1419.69h12v-2.5c0-2.21-1.79-4-4-4h-4c-2.21,0-4,1.79-4,4V1419.69z" /><path
       id="XMLID_955_"
       style="fill:#FCC21B;"
       d="M-740.94,1348.46L-740.94,1348.46c-2.94,0-5.12-1.97-5.12-4.91v-5.12h10.24v5.12   C-735.83,1346.49-738,1348.46-740.94,1348.46z" /><path
       id="XMLID_954_"
       style="fill:#E8A23D;"
       d="M-735.83,1343.45c0,0-1.95,0.79-5.11,0.79s-5.12-0.7-5.12-0.7v-5.02   c0-1.34,0.89-2.8,2.23-2.8h5.79c1.34,0,2.22,1.36,2.22,2.7V1343.45z" /><rect
       id="XMLID_953_"
       x="-742.99"
       y="1368.12"
       style="fill:#AA00FF;"
       width="4.09"
       height="20.47" /><g
       id="XMLID_949_"><rect
         id="XMLID_952_"
         x="-754.25"
         y="1363.12"
         style="fill:#7B1FA2;"
         width="13.31"
         height="6.02" /><rect
         id="XMLID_951_"
         x="-740.95"
         y="1363.12"
         transform="matrix(-1 -1.224647e-16 1.224647e-16 -1 -1468.5833 2732.2642)"
         style="fill:#7B1FA2;"
         width="13.31"
         height="6.02" /><rect
         id="XMLID_950_"
         x="-742.99"
         y="1363.12"
         style="fill:#7B1FA2;"
         width="4.09"
         height="6.02" /></g><g
       id="XMLID_947_"><path
         id="XMLID_948_"
         style="fill:#FCC21B;"
         d="M-740.95,1303.2c-11.85,0-14.95,9.19-14.95,22.09s9.19,16.84,14.95,16.84    s14.95-3.94,14.95-16.84S-729.09,1303.2-740.95,1303.2z" /></g><g
       id="XMLID_945_"><path
         id="XMLID_946_"
         style="fill:#6D4C41;"
         d="M-736.42,1313.32c-1.58,1.51-9.4,8.57-20.19,10.41v-14.46    c0,0,4.66-9.24,15.83-9.24s15.83,9.47,15.83,9.47v14.23c0,0-7.32-2.81-11-10.32C-736.04,1313.23-736.28,1313.18-736.42,1313.32z" /></g><path
       id="XMLID_944_"
       style="fill:#444444;"
       d="M-745.98,1326.15c0,1.36-0.91,2.47-2.04,2.47c-1.13,0-2.04-1.1-2.04-2.47   c0-1.37,0.92-2.47,2.04-2.47C-746.89,1323.68-745.98,1324.79-745.98,1326.15" /><path
       id="XMLID_943_"
       style="fill:#444444;"
       d="M-735.92,1326.15c0,1.36,0.91,2.47,2.04,2.47c1.13,0,2.04-1.1,2.04-2.47   c0-1.37-0.92-2.47-2.04-2.47C-735,1323.68-735.92,1324.79-735.92,1326.15" /><path
       id="XMLID_942_"
       style="fill:#4C3734;"
       d="M-736.52,1334.48c-0.62,0-4.42,0-4.42,0s-3.8,0-4.42,0c-0.51,0-0.72,0.34-0.39,0.85   c0.47,0.71,2.21,2.09,4.81,2.09s4.34-1.37,4.81-2.09C-735.8,1334.82-736.02,1334.48-736.52,1334.48z" /><path
       id="XMLID_941_"
       style="fill:#E48C15;"
       d="M-738.81,1331c-0.75,0.21-1.53,0.32-2.14,0.32s-1.38-0.1-2.14-0.32   c-0.32-0.09-0.45,0.21-0.33,0.42c0.24,0.42,1.2,1.27,2.47,1.27s2.23-0.85,2.47-1.27C-738.36,1331.21-738.49,1330.91-738.81,1331z" /></g><path
     id="XMLID_4953_"
     style="fill:#FCC21B;"
     d="M-796.64,1349.15L-796.64,1349.15c-2.92,0-5.29-2.37-5.29-5.29v-4.52h10.58v4.52  C-791.35,1346.79-793.72,1349.15-796.64,1349.15z" /><path
     id="XMLID_979_"
     style="fill:#E8A23D;"
     d="M-791.34,1343.43c0,0-2.02,0.82-5.29,0.82s-5.3-0.72-5.3-0.72v-5.19  c0-1.39,0.92-2.89,2.31-2.89h5.98c1.39,0,2.3,1.41,2.3,2.8V1343.43z" /><g
     id="XMLID_1014_"><g
       id="XMLID_1021_"><path
         id="XMLID_1023_"
         style="fill:#E59600;"
         d="M-780.73,1321.4c0,0,2.92,0.51,2.92,3.65c0,2.77-2.13,3.87-4.26,3.87v-7.51    H-780.73z" /><path
         id="XMLID_1022_"
         style="fill:#E59600;"
         d="M-812.55,1321.4c0,0-2.92,0.51-2.92,3.65c0,2.77,2.13,3.87,4.26,3.87v-7.51    H-812.55z" /></g><path
       id="XMLID_1020_"
       style="fill:#FCC21B;"
       d="M-796.64,1300.82c-12.57,0-15.86,9.75-15.86,23.44c0,14.2,9.13,17.87,15.86,17.87   c6.64,0,15.86-3.57,15.86-17.87C-780.77,1310.57-784.06,1300.82-796.64,1300.82z" /><path
       id="XMLID_1019_"
       style="fill:#444444;"
       d="M-801.86,1325.53c0,1.41-0.95,2.56-2.12,2.56c-1.17,0-2.12-1.15-2.12-2.56   c0-1.42,0.95-2.56,2.12-2.56C-802.81,1322.97-801.86,1324.11-801.86,1325.53" /><path
       id="XMLID_1018_"
       style="fill:#444444;"
       d="M-791.42,1325.53c0,1.41,0.95,2.56,2.12,2.56c1.17,0,2.12-1.15,2.12-2.56   c0-1.42-0.95-2.56-2.12-2.56C-790.47,1322.97-791.42,1324.11-791.42,1325.53" /><path
       id="XMLID_1017_"
       style="fill:#513F35;"
       d="M-792.05,1334.18c-0.64,0-4.59,0-4.59,0s-3.95,0-4.59,0   c-0.53,0-0.75,0.35-0.4,0.88c0.49,0.74,2.3,2.17,5,2.17s4.51-1.43,5-2.17C-791.29,1334.53-791.52,1334.18-792.05,1334.18z" /><path
       id="XMLID_1016_"
       style="fill:#E59600;"
       d="M-794.42,1330.28c-0.78,0.22-1.59,0.33-2.22,0.33s-1.44-0.11-2.22-0.33   c-0.33-0.09-0.47,0.22-0.35,0.43c0.25,0.44,1.25,1.32,2.56,1.32s2.32-0.88,2.56-1.32C-793.95,1330.5-794.09,1330.18-794.42,1330.28   z" /><path
       id="XMLID_1015_"
       style="fill:#6D4C41;"
       d="M-796.26,1299.03c0,0-0.25-0.01-0.35-0.01c-0.11,0-0.35,0.01-0.35,0.01   c-13.57,0.26-17.66,8.42-17.66,14.09c0,5.5,0.01,9.54,0.01,9.54s0.22-0.22,0.61-0.53c0.42-0.33,0.9-0.52,0.9-0.52l0.69,4.6   l4.52-9.45c0.03-0.06,0.09-0.09,0.15-0.09l2.68,0.3c2.69,0.3,5.4,0.44,8.1,0.45v0.01c0.12,0,0.23,0,0.35,0c0.12,0,0.23,0,0.35,0   v-0.01c2.71-0.01,5.41-0.15,8.1-0.45l2.68-0.3c0.06-0.01,0.13,0.03,0.15,0.09l4.52,9.45l0.69-4.6c0,0,0.47,0.19,0.9,0.52   c0.4,0.31,0.61,0.53,0.61,0.53s0.01-4.04,0.01-9.54C-778.6,1307.46-782.69,1299.29-796.26,1299.03z" /></g><rect
     x="-810.47"
     y="1373.58"
     style="fill:#616161;"
     width="27.6"
     height="15.54"
     id="rect64" /><path
     style="fill:#FFFFFF;"
     d="M-795.97,1385.83h-1.4c-1.32,0-2.39,1.07-2.39,2.39v5.73c0,1.32,1.07,2.39,2.39,2.39h1.4  c1.32,0,2.39-1.07,2.39-2.39v-5.73C-793.58,1386.9-794.65,1385.83-795.97,1385.83z"
     id="path66" /><g
     id="XMLID_58_"><g
       id="XMLID_61_"><g
         id="XMLID_117_"><path
           id="XMLID_57_"
           style="fill:#FCC21B;"
           d="M15.18,61.24l-0.66,1.76c-1.29,3.47-2.94,6.8-4.93,9.93l-6.48,10     c-0.93,1.42-0.64,3.52,0.68,4.59l0,0c1.51,1.22,4.05,0.88,5.13-0.74l15.75-23.61l0.32-4.08L15.18,61.24z" /></g><g
         id="XMLID_114_" /><g
         inkscape:groupmode="layer"
         id="layer3"
         inkscape:label="Layer 3"><path
           id="XMLID_55_"
           style="enable-background:new 0 0 128 128;display:inline;fill:#fcc21b"
           d="M 57.29,61.24 57.95,63 c 1.29,3.47 2.94,6.8 4.93,9.93 l 6.48,10 c 0.93,1.42 0.64,3.52 -0.68,4.59 l 0,0 c -1.51,1.22 -4.05,0.88 -5.13,-0.74 l -15.77,-23.6 -0.32,-4.08 9.83,2.14 z"
           inkscape:connector-curvature="0" /><path
           id="XMLID_86_"
           style="enable-background:new 0 0 128 128;fill:#FCC21B"
           d="M113.38,61.24l0.66,1.76c1.29,3.47,2.94,6.8,4.93,9.93l6.48,10     c0.93,1.42,0.64,3.52-0.68,4.59l0,0c-1.51,1.22-4.05,0.88-5.13-0.74l-15.75-23.61l-0.32-4.08L113.38,61.24z" /></g><g
         inkscape:groupmode="layer"
         id="layer2"
         inkscape:label="Layer 2"
         style="display:inline"><path
           id="XMLID_89_"
           style="fill:#fcc21b"
           d="M 71.28,61.24 70.62,63 c -1.29,3.47 -2.94,6.8 -4.93,9.93 l -6.48,10 c -0.93,1.42 -0.64,3.52 0.68,4.59 l 0,0 c 1.51,1.22 4.05,0.88 5.13,-0.74 l 15.75,-23.61 0.32,-4.08 -9.81,2.15 z"
           inkscape:connector-curvature="0" /><path
           style="enable-background:new 0 0 128 128;fill:#007689"
           d="M 92.330078 49.820312 C 88.710078 49.810313 84.160234 50.240859 81.740234 50.880859 C 74.190234 52.890859 72.339844 56.439297 70.089844 62.529297 L 78.490234 65.728516 L 78.490234 81.890625 L 92.326172 81.890625 L 92.326172 81.900391 L 106.0957 81.900391 L 106.0957 65.757812 L 114.57031 62.529297 C 112.32031 56.439297 110.46992 52.890859 102.91992 50.880859 C 100.49992 50.240859 95.950078 49.810314 92.330078 49.820312 z "
           id="XMLID_88_" /><path
           style="enable-background:new 0 0 128 128;fill:#00BFA5"
           d="M 36.230469 49.820312 C 32.610469 49.810313 28.060625 50.240859 25.640625 50.880859 C 18.090625 52.890859 16.240234 56.439297 13.990234 62.529297 L 22.400391 65.732422 L 22.400391 81.890625 L 36.236328 81.890625 L 36.236328 81.900391 L 50.007812 81.900391 L 50.007812 65.751953 L 58.470703 62.529297 C 56.220703 56.439297 54.370312 52.890859 46.820312 50.880859 C 44.400313 50.240859 39.850469 49.810314 36.230469 49.820312 z "
           id="XMLID_56_" /></g><g
         inkscape:groupmode="layer"
         id="layer1"
         inkscape:label="Layer 1"
         style="display:inline"><path
           id="XMLID_12_"
           style="fill:#fcc21b"
           d="m 36.23,57.47 0,0 c -2.92,0 -5.29,-2.37 -5.29,-5.29 l 0,-4.52 10.58,0 0,4.52 c 0,2.92 -2.36,5.29 -5.29,5.29 z"
           inkscape:connector-curvature="0" /><path
           id="XMLID_11_"
           style="fill:#e8a23d"
           d="m 41.53,51.74 c 0,0 -2.02,0.82 -5.29,0.82 -3.27,0 -5.3,-0.72 -5.3,-0.72 l 0,-5.19 c 0,-1.39 0.92,-2.89 2.31,-2.89 l 5.98,0 c 1.39,0 2.3,1.41 2.3,2.8 l 0,5.18 z"
           inkscape:connector-curvature="0" /><path
           id="XMLID_77_"
           style="fill:#fcc21b"
           d="m 92.33,57.47 0,0 c -2.92,0 -5.29,-2.37 -5.29,-5.29 l 0,-4.52 10.58,0 0,4.52 c 0,2.92 -2.37,5.29 -5.29,5.29 z"
           inkscape:connector-curvature="0" /><path
           id="XMLID_76_"
           style="fill:#e8a23d"
           d="m 97.62,51.74 c 0,0 -2.02,0.82 -5.29,0.82 -3.27,0 -5.3,-0.72 -5.3,-0.72 l 0,-5.19 c 0,-1.39 0.92,-2.89 2.31,-2.89 l 5.98,0 c 1.39,0 2.3,1.41 2.3,2.8 l 0,5.18 z"
           inkscape:connector-curvature="0" /><g
           id="XMLID_1_"><g
             id="XMLID_8_"><path
               id="XMLID_10_"
               style="fill:#e59600"
               d="m 52.15,29.71 c 0,0 2.92,0.51 2.92,3.65 0,2.77 -2.13,3.87 -4.26,3.87 l 0,-7.51 1.34,0 z"
               inkscape:connector-curvature="0" /><path
               id="XMLID_9_"
               style="fill:#e59600"
               d="m 20.32,29.71 c 0,0 -2.92,0.51 -2.92,3.65 0,2.77 2.13,3.87 4.26,3.87 l 0,-7.51 -1.34,0 z"
               inkscape:connector-curvature="0" /></g><path
             id="XMLID_7_"
             style="fill:#fcc21b"
             d="m 36.23,9.13 c -12.57,0 -15.86,9.75 -15.86,23.44 0,14.2 9.13,17.87 15.86,17.87 6.64,0 15.86,-3.57 15.86,-17.87 C 52.1,18.88 48.81,9.13 36.23,9.13 Z"
             inkscape:connector-curvature="0" /><path
             id="XMLID_6_"
             style="fill:#444444"
             d="m 31.01,33.84 c 0,1.41 -0.95,2.56 -2.12,2.56 -1.17,0 -2.12,-1.15 -2.12,-2.56 0,-1.42 0.95,-2.56 2.12,-2.56 1.17,0 2.12,1.15 2.12,2.56"
             inkscape:connector-curvature="0" /><path
             id="XMLID_5_"
             style="fill:#444444"
             d="m 41.46,33.84 c 0,1.41 0.95,2.56 2.12,2.56 1.17,0 2.12,-1.15 2.12,-2.56 0,-1.42 -0.95,-2.56 -2.12,-2.56 -1.18,0 -2.12,1.15 -2.12,2.56"
             inkscape:connector-curvature="0" /><path
             id="XMLID_4_"
             style="fill:#513f35"
             d="m 40.83,42.49 c -0.64,0 -4.59,0 -4.59,0 0,0 -3.95,0 -4.59,0 -0.53,0 -0.75,0.35 -0.4,0.88 0.49,0.74 2.3,2.17 5,2.17 2.7,0 4.51,-1.43 5,-2.17 0.33,-0.52 0.1,-0.88 -0.42,-0.88 z"
             inkscape:connector-curvature="0" /><path
             id="XMLID_3_"
             style="fill:#e59600"
             d="m 38.45,38.59 c -0.78,0.22 -1.59,0.33 -2.22,0.33 -0.63,0 -1.44,-0.11 -2.22,-0.33 -0.33,-0.09 -0.47,0.22 -0.35,0.43 0.25,0.44 1.25,1.32 2.56,1.32 1.32,0 2.32,-0.88 2.56,-1.32 0.14,-0.21 0.01,-0.52 -0.33,-0.43 z"
             inkscape:connector-curvature="0" /><path
             id="XMLID_2_"
             style="fill:#6d4c41"
             d="m 36.61,7.34 c 0,0 -0.25,-0.01 -0.35,-0.01 -0.11,0 -0.35,0.01 -0.35,0.01 -13.57,0.26 -17.66,8.42 -17.66,14.09 0,5.5 0.01,9.54 0.01,9.54 0,0 0.22,-0.22 0.61,-0.53 0.42,-0.33 0.9,-0.52 0.9,-0.52 l 0.69,4.6 4.52,-9.45 c 0.03,-0.06 0.09,-0.09 0.15,-0.09 l 2.68,0.3 c 2.69,0.3 5.4,0.44 8.1,0.45 l 0,0.01 c 0.12,0 0.23,0 0.35,0 0.12,0 0.23,0 0.35,0 l 0,-0.01 c 2.71,-0.01 5.41,-0.15 8.1,-0.45 l 2.68,-0.3 c 0.06,-0.01 0.13,0.03 0.15,0.09 l 4.52,9.45 0.69,-4.6 c 0,0 0.47,0.19 0.9,0.52 0.4,0.31 0.61,0.53 0.61,0.53 0,0 0.01,-4.04 0.01,-9.54 0,-5.66 -4.09,-13.82 -17.66,-14.09 z"
             inkscape:connector-curvature="0" /></g><g
           id="XMLID_66_"><g
             id="XMLID_73_"><path
               id="XMLID_75_"
               style="fill:#e59600"
               d="m 108.24,29.71 c 0,0 2.92,0.51 2.92,3.65 0,2.77 -2.13,3.87 -4.26,3.87 l 0,-7.51 1.34,0 z"
               inkscape:connector-curvature="0" /><path
               id="XMLID_74_"
               style="fill:#e59600"
               d="m 76.42,29.71 c 0,0 -2.92,0.51 -2.92,3.65 0,2.77 2.13,3.87 4.26,3.87 l 0,-7.51 -1.34,0 z"
               inkscape:connector-curvature="0" /></g><path
             id="XMLID_72_"
             style="fill:#fcc21b"
             d="m 92.33,9.13 c -12.57,0 -15.86,9.75 -15.86,23.44 0,14.2 9.13,17.87 15.86,17.87 6.64,0 15.86,-3.57 15.86,-17.87 0,-13.69 -3.29,-23.44 -15.86,-23.44 z"
             inkscape:connector-curvature="0" /><path
             id="XMLID_71_"
             style="fill:#444444"
             d="m 87.11,33.84 c 0,1.41 -0.95,2.56 -2.12,2.56 -1.17,0 -2.12,-1.15 -2.12,-2.56 0,-1.42 0.95,-2.56 2.12,-2.56 1.17,0 2.12,1.15 2.12,2.56"
             inkscape:connector-curvature="0" /><path
             id="XMLID_70_"
             style="fill:#444444"
             d="m 97.55,33.84 c 0,1.41 0.95,2.56 2.12,2.56 1.17,0 2.12,-1.15 2.12,-2.56 0,-1.42 -0.95,-2.56 -2.12,-2.56 -1.17,0 -2.12,1.15 -2.12,2.56"
             inkscape:connector-curvature="0" /><path
             id="XMLID_69_"
             style="fill:#513f35"
             d="m 96.92,42.49 c -0.64,0 -4.59,0 -4.59,0 0,0 -3.95,0 -4.59,0 -0.53,0 -0.75,0.35 -0.4,0.88 0.49,0.74 2.3,2.17 5,2.17 2.7,0 4.51,-1.43 5,-2.17 0.33,-0.52 0.11,-0.88 -0.42,-0.88 z"
             inkscape:connector-curvature="0" /><path
             id="XMLID_68_"
             style="fill:#e59600"
             d="m 94.55,38.59 c -0.78,0.22 -1.59,0.33 -2.22,0.33 -0.63,0 -1.44,-0.11 -2.22,-0.33 -0.33,-0.09 -0.47,0.22 -0.35,0.43 0.25,0.44 1.25,1.32 2.56,1.32 1.32,0 2.32,-0.88 2.56,-1.32 0.13,-0.21 0,-0.52 -0.33,-0.43 z"
             inkscape:connector-curvature="0" /><path
             id="XMLID_67_"
             style="fill:#6d4c41"
             d="m 92.71,7.34 c 0,0 -0.25,-0.01 -0.35,-0.01 -0.11,0 -0.35,0.01 -0.35,0.01 -13.57,0.26 -17.66,8.42 -17.66,14.09 0,5.5 0.01,9.54 0.01,9.54 0,0 0.22,-0.22 0.61,-0.53 0.42,-0.33 0.9,-0.52 0.9,-0.52 l 0.69,4.6 4.52,-9.45 c 0.03,-0.06 0.09,-0.09 0.15,-0.09 l 2.68,0.3 c 2.69,0.3 5.4,0.44 8.1,0.45 l 0,0.01 c 0.12,0 0.23,0 0.35,0 0.12,0 0.23,0 0.35,0 l 0,-0.01 c 2.71,-0.01 5.41,-0.15 8.1,-0.45 l 2.68,-0.3 c 0.06,-0.01 0.13,0.03 0.15,0.09 l 4.52,9.45 0.69,-4.6 c 0,0 0.47,0.19 0.9,0.52 0.4,0.31 0.61,0.53 0.61,0.53 0,0 0.01,-4.04 0.01,-9.54 0,-5.66 -4.09,-13.82 -17.66,-14.09 z"
             inkscape:connector-curvature="0" /></g></g><rect
         id="XMLID_52_"
         x="22.4"
         y="81.9"
         style="fill:#616161;"
         width="10.71"
         height="45.72" /><path
         id="XMLID_51_"
         style="fill:#444444;"
         d="M34.51,128H21v-3.5c0-2.21,1.79-4,4-4h5.5c2.21,0,4,1.79,4,4V128z" /><rect
         id="XMLID_49_"
         x="39.29"
         y="81.9"
         transform="matrix(-1 -1.224647e-16 1.224647e-16 -1 89.2916 209.509)"
         style="fill:#616161;"
         width="10.71"
         height="45.72" /><path
         id="XMLID_48_"
         style="fill:#444444;"
         d="M37.89,128h13.5v-3.5c0-2.21-1.79-4-4-4h-5.5c-2.21,0-4,1.79-4,4V128z" /><path
         style="fill:#616161;"
         d="M50,81.9H22.4v15.54h10.71v-0.9c0-1.32,1.07-2.39,2.39-2.39h1.4c1.32,0,2.39,1.07,2.39,2.39v0.9H50    V81.9z"
         id="path94" /><path
         style="fill:#616161;"
         d="M106.1,81.9h-27.6v15.54h10.71v-0.9c0-1.32,1.07-2.39,2.39-2.39H93c1.32,0,2.39,1.07,2.39,2.39v0.9    h10.71V81.9z"
         id="path96" /></g><g
       id="XMLID_63_"><g
         id="XMLID_87_" /><g
         id="XMLID_84_" /><rect
         id="XMLID_82_"
         x="78.49"
         y="81.9"
         style="fill:#616161;"
         width="10.71"
         height="45.72" /><path
         id="XMLID_81_"
         style="fill:#444444;"
         d="M90.6,128H77.1v-3.5c0-2.21,1.79-4,4-4h5.5c2.21,0,4,1.79,4,4V128z" /><rect
         id="XMLID_79_"
         x="95.38"
         y="81.9"
         transform="matrix(-1 -1.224647e-16 1.224647e-16 -1 201.4801 209.509)"
         style="fill:#616161;"
         width="10.71"
         height="45.72" /><path
         id="XMLID_78_"
         style="fill:#444444;"
         d="M93.99,128h13.5v-3.5c0-2.21-1.79-4-4-4h-5.5c-2.21,0-4,1.79-4,4V128z" /></g></g></svg>