<?xml version="1.0" encoding="UTF-8" standalone="no"?>
<!-- Generator: Adobe Illustrator 19.2.1, SVG Export Plug-In . SVG Version: 6.00 Build 0)  -->

<svg
   xmlns:dc="http://purl.org/dc/elements/1.1/"
   xmlns:cc="http://creativecommons.org/ns#"
   xmlns:rdf="http://www.w3.org/1999/02/22-rdf-syntax-ns#"
   xmlns:svg="http://www.w3.org/2000/svg"
   xmlns="http://www.w3.org/2000/svg"
   xmlns:sodipodi="http://sodipodi.sourceforge.net/DTD/sodipodi-0.dtd"
   xmlns:inkscape="http://www.inkscape.org/namespaces/inkscape"
   version="1.1"
   x="0px"
   y="0px"
   viewBox="0 0 128 128"
   style="enable-background:new 0 0 128 128;"
   xml:space="preserve"
   id="svg35840"
   inkscape:version="0.91 r13725"
   sodipodi:docname="1f3c5.svg"><metadata
     id="metadata35935"><rdf:RDF><cc:Work
         rdf:about=""><dc:format>image/svg+xml</dc:format><dc:type
           rdf:resource="http://purl.org/dc/dcmitype/StillImage" /><dc:title></dc:title></cc:Work></rdf:RDF></metadata><defs
     id="defs35933" /><sodipodi:namedview
     pagecolor="#ffffff"
     bordercolor="#666666"
     borderopacity="1"
     objecttolerance="10"
     gridtolerance="10"
     guidetolerance="10"
     inkscape:pageopacity="0"
     inkscape:pageshadow="2"
     inkscape:window-width="640"
     inkscape:window-height="480"
     id="namedview35931"
     showgrid="false"
     inkscape:zoom="0.4609375"
     inkscape:cx="64"
     inkscape:cy="64"
     inkscape:window-x="0"
     inkscape:window-y="0"
     inkscape:window-maximized="0"
     inkscape:current-layer="Layer_2" /><g
     id="Layer_5"><polygon
       style="fill:#006CA2;"
       points="50.08,62 74.08,62 104.08,4 80.08,4  "
       id="polygon35843" /><polygon
       style="fill:#2F2F2F;"
       points="65.08,33 53.08,56.2 56.08,62 74.08,62 77.08,56.2  "
       id="polygon35845" /></g><g
     id="Layer_2"><g
       id="g35848"><path
         style="fill:#FCC21B;"
         d="M76,62v14H52V62H76 M76,56H52c-3.31,0-6,2.69-6,6v14c0,3.31,2.69,6,6,6h24c3.31,0,6-2.69,6-6V62    C82,58.69,79.31,56,76,56L76,56z"
         id="path35850" /></g><circle
       style="fill:#FCC21B;"
       cx="64"
       cy="94"
       r="30"
       id="circle35852" /><path
       style="fill:#FFFFFF;"
       d="M43.89,86.7c-0.4,0-0.79-0.08-1.16-0.24c-1.44-0.62-2.14-2.29-1.58-3.76   c0.01-0.02,0.01-0.05,0.02-0.07c0.01-0.05,0.01-0.04,0.03-0.08c2.65-6.32,8.22-11,14.9-12.54c0.33-0.08,0.68,0.09,0.83,0.4   c0.15,0.31,0.06,0.68-0.21,0.9c-4.38,3.48-7.88,8.17-10.11,13.57c0,0.01-0.01,0.01-0.01,0.02c0,0.01,0,0.01-0.01,0.01   c-0.31,0.72-0.89,1.28-1.62,1.57C44.62,86.63,44.26,86.7,43.89,86.7z"
       id="path35856" /></g><g
     id="star"><g
       id="g35859"><path
         style="fill:#F79329;"
         d="M62.45,79.8c0.85-1.73,2.25-1.73,3.11,0l2.53,5.13c0.85,1.73,3.12,3.38,5.03,3.65l5.66,0.82    c1.91,0.28,2.34,1.61,0.96,2.96l-4.09,3.99c-1.38,1.35-2.25,4.01-1.92,5.91l0.97,5.63c0.33,1.9-0.8,2.73-2.51,1.83l-5.06-2.66    c-1.71-0.9-4.51-0.9-6.22,0l-5.06,2.66c-1.71,0.9-2.84,0.08-2.51-1.83l0.97-5.63c0.33-1.9-0.54-4.56-1.92-5.91l-4.09-3.99    c-1.38-1.35-0.95-2.68,0.96-2.96l5.66-0.82c1.91-0.28,4.17-1.92,5.03-3.65L62.45,79.8z"
         id="path35861" /></g></g><g
     id="Layer_3"><polygon
       style="fill:#006CA2;"
       points="76.08,62 52.08,62 22.08,4 46.08,4  "
       id="polygon35864" /></g><g
     id="Layer_6" /></svg>