<?xml version="1.0" encoding="UTF-8" standalone="no"?>
<!-- Generator: Adobe Illustrator 19.2.1, SVG Export Plug-In . SVG Version: 6.00 Build 0)  -->

<svg
   xmlns:dc="http://purl.org/dc/elements/1.1/"
   xmlns:cc="http://creativecommons.org/ns#"
   xmlns:rdf="http://www.w3.org/1999/02/22-rdf-syntax-ns#"
   xmlns:svg="http://www.w3.org/2000/svg"
   xmlns="http://www.w3.org/2000/svg"
   xmlns:sodipodi="http://sodipodi.sourceforge.net/DTD/sodipodi-0.dtd"
   xmlns:inkscape="http://www.inkscape.org/namespaces/inkscape"
   version="1.1"
   x="0px"
   y="0px"
   viewBox="0 0 128 128"
   style="enable-background:new 0 0 128 128;"
   xml:space="preserve"
   id="svg2"
   inkscape:version="0.91 r13725"
   sodipodi:docname="1f411.svg"><metadata
     id="metadata134"><rdf:RDF><cc:Work
         rdf:about=""><dc:format>image/svg+xml</dc:format><dc:type
           rdf:resource="http://purl.org/dc/dcmitype/StillImage" /><dc:title></dc:title></cc:Work></rdf:RDF></metadata><defs
     id="defs132" /><sodipodi:namedview
     pagecolor="#ffffff"
     bordercolor="#666666"
     borderopacity="1"
     objecttolerance="10"
     gridtolerance="10"
     guidetolerance="10"
     inkscape:pageopacity="0"
     inkscape:pageshadow="2"
     inkscape:window-width="640"
     inkscape:window-height="480"
     id="namedview130"
     showgrid="false"
     inkscape:zoom="0.921875"
     inkscape:cx="64"
     inkscape:cy="64"
     inkscape:window-x="0"
     inkscape:window-y="0"
     inkscape:window-maximized="0"
     inkscape:current-layer="图层_1" /><g
     id="Layer_2" /><g
     id="图层_1"><path
       style="fill:#2F2F2F;"
       d="M105.62,100.4c1.18,2.81,2.44,5.67,4.36,8.07c1.03,1.3,2.32,2.48,3.9,3.04   c1.7,0.61,3.51,0.35,5.12-0.39c1.43-0.66,2.16-1.73,2.21-3.29c0.12-4-0.88-7.9-1.73-11.78c-0.81-3.73-1.21-7.52-1.8-11.3   c-0.31-1.96-4.15-0.57-5.36-0.21c-1.98,0.6-3.93,1.46-5.7,2.53c-0.76,0.46-1.47,0.94-1.97,1.69c-0.37,0.57-0.52,1.04-0.68,1.68   C103.11,93.84,104.3,97.28,105.62,100.4z"
       id="path106" /><path
       style="fill:#2F2F2F;"
       d="M82.79,105.85c0.2,0.96,0.44,1.9,0.75,2.78c0.45,1.3,1.3,2.27,2.56,2.84c3,1.37,7.24-0.02,8.27-3.31   c1.14-3.62,2.25-7.68,2.24-11.51c0-0.29,0.22-0.83,0.08-1.08c-0.16-0.3-0.72-0.14-0.99-0.14c-0.71,0-1.38,0.03-2.08,0.1   c-0.51,0.05-1.02,0.04-1.53,0.09c-0.46,0.04-0.91,0.08-1.38,0.09c-0.54,0.01-1.07,0.12-1.62,0.17c-0.59,0.05-1.19,0-1.78,0.05   c-1.17,0.09-2.48,0.14-3.62,0.42c-0.65,0.16-1.06,0.37-1.35,0.99c-0.29,0.6-0.16,1.39-0.16,2.03   C82.17,101.44,82.35,103.71,82.79,105.85z"
       id="path108" /><path
       style="fill:#2F2F2F;"
       d="M54.75,110.92c0.22,1.32,0.46,2.63,0.69,3.94c0.15,0.87,0.23,1.83,0.52,2.67   c1.98,5.66,7.2,8.59,11.91,5c2.29-1.75,2.53-5.01,2.54-7.66c0.01-2.58,0.03-5.17-0.04-7.75c-0.06-2.27,0.05-4.82-0.5-7.02   c-0.18-0.74-0.91-1.01-1.59-1.04c-1.95-0.05-3.92,0.04-5.86,0.21c-1.51,0.13-3.02,0.55-4.5,0.84c-1.2,0.24-2.41,0.76-3.38,1.49   c-1.27,0.97-0.47,4.43-0.32,5.75C54.36,108.56,54.55,109.74,54.75,110.92z"
       id="path110" /><path
       style="fill:#2F2F2F;"
       d="M23.09,101.97c-0.84,2.17-1.72,4.33-2.62,6.48c-0.82,1.96-2.61,5.59-1.61,7.77   c2.31,5,8.66,3.76,12.08,0.78c1.85-1.61,3.26-3.65,4.59-5.7c2.08-3.2,4.25-6.72,3.77-10.67c-0.14-1.18-1.19-1.45-2.19-1.91   c-0.47-0.21-0.86-0.56-1.31-0.81c-0.41-0.24-0.87-0.36-1.31-0.52c-0.42-0.15-0.8-0.39-1.21-0.58c-0.39-0.19-0.8-0.27-1.21-0.42   c-1.42-0.54-3-1.28-4.53-1.28c-0.53,0-1.14-0.11-1.61,0.17c-0.91,0.54-1.14,2.04-1.46,2.95C24.03,99.48,23.57,100.73,23.09,101.97z   "
       id="path112" /><g
       id="g114"><path
         style="fill:#E0E0E0;"
         d="M125.48,69.32c1-3.23,0.67-6.99-0.86-9.83c-0.85-1.58-1.94-2.9-3.27-3.92    c-0.66-0.51-1.34-0.81-1.98-1.04c0.56-1.24,1.21-3.01,1.22-4.99c0.02-3.03-1.14-6.12-3.25-8.69c-1.49-1.82-3.08-2.7-4.86-3.59    c-0.31-0.16-0.65-0.29-0.98-0.43c0,0-0.34-0.14-0.33-0.19c0.61-2.27,0.92-4.05,0.98-5.59c0.14-3.41-1.36-6.93-4.23-9.91    c-3.65-3.8-8.98-6.25-13.58-6.25c-0.81,0-1.52,0.15-2.15,0.28l-0.5,0.1c-0.19-0.29-0.44-0.72-0.6-1.02    c-0.38-0.69-0.78-1.41-1.31-1.95c-1.49-1.56-3.36-2.8-5.74-3.78c-3.77-1.53-8.16-2.02-12.22-1.36c-2,0.33-3.73,1.12-5.27,1.97    c-2.6-3.33-6.93-5.25-12.09-5.25c-2.77,0-5.47,0.58-7.78,1.67c-0.33,0.16-2.16,1.05-3.68,2.23C40.86,6.71,38.94,6,36.59,6    c-1.26,0-2.55,0.22-3.94,0.65c-2.83,0.88-5.47,2.5-7.35,4.81c-0.89,1.09-1.59,2.33-2.05,3.66c-0.44,1.28-0.44,3.83-1.6,4.58    c-1.43,0.93-3.08,1.39-4.47,2.45c-0.46,0.35-0.96,0.48-1.42,0.8c-0.42,0.3-0.77,0.78-1.17,1.13c-0.58,0.51-1.18,0.87-1.69,1.49    c-1.01,1.22-1.91,2.29-2.57,3.76c-1.18,2.62-1.52,5.49-1.93,8.29c-0.11,0.7,0.11,1.46,0.02,2.16c-0.09,0.74-0.2,1.39-0.2,2.16    c0,2.22-0.12,4.48,0.66,6.59c0.77,2.11-0.86,2.96-1.65,4.8c-0.41,0.98-0.65,2.02-0.88,3.04c-0.31,1.36-0.38,2.65-0.38,4.08    c0,1.57,0.78,2.88,0.98,4.39c0.2,1.55,0.88,2.81,1.77,4.11c0.23,0.33,0.54,0.69,0.87,1.06l0.33,0.36l-0.04,0.08    c-2.3,4.56-2,10.35,0.76,14.75c1.38,2.21,3.35,4.06,5.85,5.45c0.1,0.06,0.12,1.53,0.15,1.73c0.09,0.58,0.22,1.16,0.38,1.73    c0.33,1.12,0.8,2.19,1.4,3.19c0.6,1,1.32,1.92,2.15,2.74c1.65,1.66,4.46,3,6.66,3.69c1.87,0.59,3.92,0.57,5.73,1.38    c2.19,0.97,4.09,2.47,6.26,3.49c1.16,0.55,2.37,1,3.59,1.36c2.48,0.74,5.07,1.12,7.66,1.12c2.63,0,5.28-0.36,7.77-1.22    c2.7-0.92,5.54-2.58,7.78-4.34c0.23-0.18,0.5-0.44,0.76-0.55c0.64-0.28,1.83,0.43,2.47,0.62c1.01,0.3,2.04,0.5,3.09,0.63    c5.79,0.71,12.08-0.99,16.91-4.21c0.75-0.5,1.47-1.32,2.35-1.6c1.02-0.32,2.09,0.41,3.07,0.58c3.09,0.55,6.29,0.22,9.25-0.76    c3.73-1.23,5.83-4.25,7.31-7.69c0.28-0.65,1.32-0.87,1.89-1.15c2.14-1.05,4.45-1.85,5.88-3.87c1.23-1.72,1.77-3.79,2.1-5.86    c0.15-0.94,0.27-1.89,0.24-2.84c-0.03-0.94-0.5-1.93-0.5-2.83c0,0-0.08-0.24-0.2-0.59C122.92,74.2,124.64,72.05,125.48,69.32z"
         id="path116" /></g><path
       style="fill:#E0E0E0;"
       d="M42.35,71.45c0.26-0.05,0.54-0.08,0.79-0.14c0.67-0.16,1.31-0.3,1.96-0.54   c1.21-0.43,2.96-1.41,2.79-2.93c-0.1-0.93-0.7-1.39-1.63-1.12c-0.28,0.08-0.58,0.18-0.87,0.29c-0.79,0.29-1.45,0.82-2.25,1.08   c-1.61,0.52-3.36,0.61-4.8-0.39c-1.06-0.75-2-2.8-3.55-2.64c-1.35,0.12-1.05,1.79-0.63,2.63c0.69,1.35,1.95,1.99,3.04,2.93   l0.57,0.42l0.2,0.55l0.01,0.47c-0.02,1.82-0.83,4.6,1.59,4.99c0.31,0.05,0.64,0.01,0.95,0.01l1.01-0.12   c-0.2-0.24-0.4-0.51-0.44-0.84c-0.11-0.8-0.21-1.65-0.25-2.46c-0.01-0.41-0.18-1.74,0.32-1.97C41.51,71.48,41.96,71.53,42.35,71.45   z"
       id="path118" /><path
       style="fill:#E0E0E0;"
       d="M33.53,47.82c-2.19-0.87-4.77,0.61-5.76,3.27c-0.99,2.68,0.01,5.54,2.2,6.41   c2.18,0.83,4.76-0.61,5.73-3.29C36.7,51.55,35.72,48.67,33.53,47.82z"
       id="path120" /><path
       style="fill:#E0E0E0;"
       d="M59.54,55.75c-0.05-2.85-2.02-5.16-4.36-5.15c-2.35,0-4.21,2.32-4.15,5.15   c0.06,2.85,2.03,5.16,4.39,5.16C57.75,60.89,59.61,58.59,59.54,55.75z"
       id="path122" /><path
       style="fill:#2F2F2F;"
       d="M71.99,44.82c0.05-0.65,0-1.25-0.2-1.73c-0.51-1.2-2.16-0.04-2.77,0.42   c-1.87,1.42-12,5.35-11.76-0.52c0.04-0.89,0.74-1.62,0.26-2.61c-0.29-0.61-0.67-0.75-1.31-0.67c-1.36,0.15-2.45,1.35-3.68,1.84   c-2.09,0.84-3.97,1.63-6.3,1.24c-1.21-0.21-2.82-0.82-3.61-1.8c-0.63-0.77-0.86-3.75-2.24-3.79c-0.77-0.03-1.35,0.64-1.78,1.2   c-0.52,0.66-0.83,1-1.62,1.44c-2.01,1.12-4.78,1.91-7.09,1.67c-1.18-0.12-2.28-0.41-3.04-1.37c-0.54-0.69-0.58-3.4-1.8-3.29   c-0.73,0.06-1.23,0.84-1.54,1.8c-1.02,3.15-1.06,6.86-1.36,10.14c-0.69,7.47-1.85,15.58,1.91,22.48c2.97,5.45,9.73,8.14,16.08,8.9   c4.5,0.54,9.11,0.15,13.36-1.48c3.94-1.52,7.42-4.05,10.24-7.18c3.34-3.7,4.19-9.36,5.57-14C70.51,53.45,71.68,49.07,71.99,44.82z    M29.97,57.5c-2.19-0.87-3.18-3.73-2.2-6.41c0.99-2.65,3.57-4.13,5.76-3.27c2.19,0.85,3.17,3.73,2.17,6.39   C34.73,56.89,32.15,58.34,29.97,57.5z M45.1,70.77c-0.65,0.24-1.29,0.38-1.96,0.54c-0.25,0.06-0.53,0.1-0.79,0.14   c-0.38,0.08-0.84,0.03-1.2,0.2c-0.49,0.23-0.33,1.56-0.32,1.97c0.04,0.81,0.14,1.66,0.25,2.46c0.04,0.34,0.25,0.6,0.44,0.84   l-1.01,0.12c-0.31,0-0.64,0.04-0.95-0.01c-2.42-0.39-1.61-3.17-1.59-4.99l-0.01-0.47l-0.2-0.55l-0.57-0.42   c-1.1-0.94-2.36-1.58-3.04-2.93c-0.42-0.84-0.72-2.51,0.63-2.63c1.56-0.16,2.49,1.89,3.55,2.64c1.45,1,3.19,0.91,4.8,0.39   c0.8-0.26,1.46-0.78,2.25-1.08c0.29-0.1,0.6-0.21,0.87-0.29c0.92-0.26,1.52,0.2,1.63,1.12C48.06,69.36,46.31,70.34,45.1,70.77z    M55.41,60.91c-2.36,0-4.33-2.31-4.39-5.16c-0.06-2.84,1.8-5.16,4.15-5.15c2.35-0.01,4.32,2.3,4.36,5.15   C59.61,58.59,57.75,60.89,55.41,60.91z"
       id="path124" /><path
       style="fill:#78A3AD;"
       d="M21.03,47.45c-0.5-0.55-0.47-0.44-0.99-0.03l-0.55,0.54c-0.46,0.5-1.04,1.11-1.85,1.56   c-0.56,0.3-1.43,0.67-2.42,0.67c-1.08,0-1.95-0.47-2.57-1.19c-0.48-0.57-0.82-1.29-0.86-2.15c-0.05-0.98,0.26-1.76,0.58-2.34   c-0.56-0.81-0.98-1.71-1.35-2.65c-0.32-0.74-0.57-1.51-0.79-2.3c-0.29-1-0.51-2.02-0.68-3.02c-0.23-1.27-0.29-2.58-0.18-3.87   c-0.1,0.08-0.21,0.16-0.31,0.24c-2.94,2.34-5.13,5.74-6.2,8.84C1.58,45.4,0.95,53.57,5.9,57.3c0.66,0.5,1.41,0.92,2.29,1.24   c0.05,0.02,0.1,0.02,0.14,0.04c0.84,0.29,1.68,0.48,2.53,0.6c0.54,0.07,1.07,0.15,1.59,0.15c5.22,0,8.95-3.41,9.51-8.69   C22.08,49.54,21.67,48.18,21.03,47.45z"
       id="path126" /><path
       style="fill:#78A3AD;"
       d="M95.49,47.09c-0.8-0.98-1.75-1.86-2.87-2.43c-0.93-0.49-1.89-0.71-2.84-0.71   c-1.61,0-3.19,0.63-4.57,1.66c-1.41,1.05-2.22,2.72-2.37,4.46c-0.17,2.08,1.95,3.23,2.41,5.05c0.54,2.19-1.54,3.76-3.66,3.76   l-0.61-0.05c-2.58-0.39-3.65-2.16-3.68-4.58c-0.01-1.62-0.04-4.24-2.22-4.32h-0.19c-1.4,0-2.49,0.65-3.34,1.66   c-2.34,2.79-2.66,8.41-1.48,11.11c0.29,0.69,0.61,1.41,0.97,2.1c0.37,0.71,0.81,1.4,1.36,1.97c3.03,3.11,7.24,4.67,11.47,4.67   c3.62,0,7.26-1.14,10.16-3.41c2.07-1.6,3.56-3.85,4.38-6.33C100.01,56.8,98.72,51.02,95.49,47.09z"
       id="path128" /></g></svg>