<?xml version="1.0" encoding="UTF-8" standalone="no"?>
<!-- Generator: Adobe Illustrator 19.2.1, SVG Export Plug-In . SVG Version: 6.00 Build 0)  -->

<svg
   xmlns:dc="http://purl.org/dc/elements/1.1/"
   xmlns:cc="http://creativecommons.org/ns#"
   xmlns:rdf="http://www.w3.org/1999/02/22-rdf-syntax-ns#"
   xmlns:svg="http://www.w3.org/2000/svg"
   xmlns="http://www.w3.org/2000/svg"
   xmlns:sodipodi="http://sodipodi.sourceforge.net/DTD/sodipodi-0.dtd"
   xmlns:inkscape="http://www.inkscape.org/namespaces/inkscape"
   version="1.1"
   id="图层_1"
   x="0px"
   y="0px"
   viewBox="0 0 128 128"
   style="enable-background:new 0 0 128 128;"
   xml:space="preserve"
   inkscape:version="0.91 r13725"
   sodipodi:docname="1f45f.svg"><metadata
     id="metadata105"><rdf:RDF><cc:Work
         rdf:about=""><dc:format>image/svg+xml</dc:format><dc:type
           rdf:resource="http://purl.org/dc/dcmitype/StillImage" /><dc:title></dc:title></cc:Work></rdf:RDF></metadata><defs
     id="defs103" /><sodipodi:namedview
     pagecolor="#ffffff"
     bordercolor="#666666"
     borderopacity="1"
     objecttolerance="10"
     gridtolerance="10"
     guidetolerance="10"
     inkscape:pageopacity="0"
     inkscape:pageshadow="2"
     inkscape:window-width="640"
     inkscape:window-height="480"
     id="namedview101"
     showgrid="false"
     inkscape:zoom="0.11523438"
     inkscape:cx="64"
     inkscape:cy="64"
     inkscape:window-x="0"
     inkscape:window-y="0"
     inkscape:window-maximized="0"
     inkscape:current-layer="图层_1" /><g
     id="g83"><path
       style="fill:#E0E0E0;"
       d="M83.29,38.07c5.32-1.43,14.26-8.26,20.12-8.91c2.11-0.23,5.37-0.08,7.41,0.52   c4.38,1.28,6.98,4.97,8.59,9.24c1.27,3.35,3.4,8.81,3.75,17.96c0.02,0.64,0.38,1.77-0.11,2.18c-0.4,0.33-0.96,0.35-1.48,0.35   c-2.38-0.01-6.37-0.41-8.75-0.42c-1.35,0-2.83-0.06-3.82-0.97c-1.15-1.07-1.17-2.85-1.1-4.43c-1.84-2.65-5.56-2.92-8.77-3.14   c-3.21-0.22-7.02-1.11-8.12-4.14c-0.36-0.98-0.35-2.05-0.35-3.1C90.68,39.75,83.27,41.53,83.29,38.07z"
       id="path85" /><path
       style="fill:#757575;"
       d="M87.27,44.17c5.99-3.07,11.53-8.75,17.97-8.98c0.82-0.03,1.66-0.04,2.45,0.19   c1.62,0.48,2.87,2.05,3,3.76c0.18,2.31-1.48,4.33-3.27,5.75c-3.52,2.8-7.88,4.36-12.31,4.93c-1.15,0.15-2.4,0.21-3.38-0.42   c-0.87-0.56-1.37-1.55-1.82-2.49C88.75,44.48,88.44,46.6,87.27,44.17z"
       id="path87" /><path
       style="fill:#78909C;"
       d="M5.79,89.15c-4.75-0.34-5.35,12.64,1.24,18.5c5.64,5.02,14.25,6.63,21.37,7.25   c23.65,2.07,47.86-9.09,52.3-10.47c4.47-1.39,26.94-9.6,35.18-13.6c2.82-1.37,8.14-3.4,9.11-5.64c1.09-2.51,0.74-8.65,0.19-13   c-0.14-1.12-0.42-2.29-1.23-3.07c-1.31-1.29-3.72,0.04-5.5,0.48c-6.9,1.7-11.11,4.18-17.66,6.94c-3.4,1.44-6.91,2.63-10.4,3.81   c-16.81,5.7-33.88,11.46-51.6,12.39C27.33,93.36,17.17,90.59,5.79,89.15z"
       id="path89" /><path
       style="fill:#0288D1;"
       d="M58.53,39.22c1.01-6.04,4.56-11.9,10.65-12.59c4.6-0.52,20.09,1.8,23.26,5.18   c6.56,6.99-1.74,14.12-1.42,15.32c0.43,1.64,2.89,2.67,5.91,1.94c2.69-0.64,4.11-1.89,6.9-2.72c2.77-0.82,4.92,1.59,6.2,4.14   c1.69,3.37,4.67,4.01,7.79,4.12c1.36,0.05,3.63-0.06,4.65,0.43c1.04,0.5,1.68,1.95,1.98,3.03c1.59,5.66,2.42,13.08-0.88,17.94   c-4.08,6.01-31.39,14.23-38.9,17.27c-7.15,2.9-26.18,9.3-33.85,8.49c-0.56-0.06-1.17-0.16-1.56-0.57c-0.51-0.54-0.45-1.37-0.38-2.1   c0.49-5.02-12.92-26.06-16.74-27.82c-0.81-0.37-1.68-1.02-1.64-1.9c0.02-0.53-0.09-1.07,0.36-1.35c2.55-1.58,3.42-2.9,5.3-4.78   c1.1-1.1,1.55-2.85,3.37-4.57c1.05-1,3.83-1.97,4.68-2.99c1.09-1.29,1.53-2.37,2.7-3.62c2.13-2.27,3.5-2.11,5.05-3.75   c0.83-0.88,1.45-2.8,2.24-4.11C55.02,42.89,58.13,40.88,58.53,39.22z"
       id="path91" /><path
       style="fill:#E0E0E0;"
       d="M29.65,67.53c-8.66,5.61-14.31,8.22-23.08,17.57c-1.45,1.55-2.26,5.14-1.96,7.24   c0.34,2.35,2.01,4.31,3.86,5.79c5.77,4.61,12.56,5.7,19.93,6.2c7.89,0.53,17.87-0.15,25.94-1.48c1.67-0.28,3.61-1.89,3.96-3.33   c0.78-3.15,0.23-9.59,0.19-12.18c-0.06-4.34-0.75-6.55-2.82-9.05c-2.87-3.47-6.8-5.19-11.41-7.12   C39.66,69.24,33.51,65.55,29.65,67.53z"
       id="path93" /><path
       style="fill:#FFFFFF;"
       d="M57.11,46.77c0.35-0.55,0.78-0.99,1.3-1.38c0.31-0.23,0.67-0.39,1.06-0.5   c4.3-1.24,9.43,0.37,13.6,1.55c2.68,0.76,10.83,3.35,7.96,7.64c-0.75,1.11-2.25,1.85-3.58,1.78c-1.89-0.1-3.27-1.53-4.88-2.37   c-1.81-0.95-3.58-1.83-5.53-2.49c-1.58-0.55-3.17-1.05-4.79-1.47c-1.41-0.36-2.65-0.3-4.08-0.46c-0.36-0.04-0.67,0.05-1.01-0.14   C56.42,48.51,56.75,47.35,57.11,46.77z"
       id="path95" /><path
       style="fill:#FFFFFF;"
       d="M49.4,53.87c1.11-1.38,2.66-1.69,4.29-1.76c0.58-0.03,1.18-0.02,1.77-0.02   c3.56,0,7.1,0.82,10.31,2.38c2.14,1.04,4.49,2.11,6.04,3.98c0.9,1.09,1.82,2.15,1.39,3.67c-1.38,4.84-7.5-0.67-9.47-1.7   c-1.71-0.89-3.8-1.97-5.63-2.52c-0.93-0.28-1.91-0.35-2.82-0.6c-1.77-0.49-3.46-0.6-5.24-0.87C48.5,56.2,48.62,54.85,49.4,53.87z"
       id="path97" /><path
       style="fill:#FFFFFF;"
       d="M41.42,61.46c0.81-1.38,2.7-1.75,4.16-1.92l0.08,0c3.03-0.31,6.47,0.67,9.36,1.52   c1.01,0.3,2.17,0.59,3.14,1.01c2.09,0.9,4.42,2.14,5.98,3.81c2.36,2.53-0.43,4.52-3.32,4.24c-0.5-0.05-0.88-0.26-1.35-0.4   c-0.7-0.22-1.44-0.27-2.15-0.46c-2.08-0.58-4-1.46-5.87-2.49c-0.96-0.53-1.95-0.86-2.97-1.27c-1.22-0.49-2.41-0.85-3.65-1.3   c-0.97-0.35-2.56-0.3-3.38-0.97C40.95,62.82,41.11,61.98,41.42,61.46z"
       id="path99" /></g></svg>