<?xml version="1.0" encoding="UTF-8" standalone="no"?>
<!-- Generator: Adobe Illustrator 19.2.1, SVG Export Plug-In . SVG Version: 6.00 Build 0)  -->

<svg
   xmlns:dc="http://purl.org/dc/elements/1.1/"
   xmlns:cc="http://creativecommons.org/ns#"
   xmlns:rdf="http://www.w3.org/1999/02/22-rdf-syntax-ns#"
   xmlns:svg="http://www.w3.org/2000/svg"
   xmlns="http://www.w3.org/2000/svg"
   xmlns:sodipodi="http://sodipodi.sourceforge.net/DTD/sodipodi-0.dtd"
   xmlns:inkscape="http://www.inkscape.org/namespaces/inkscape"
   version="1.1"
   id="レイヤー_1"
   x="0px"
   y="0px"
   viewBox="0 0 128 128"
   style="enable-background:new 0 0 128 128;"
   xml:space="preserve"
   inkscape:version="0.91 r13725"
   sodipodi:docname="1f549.svg"><metadata
     id="metadata19"><rdf:RDF><cc:Work
         rdf:about=""><dc:format>image/svg+xml</dc:format><dc:type
           rdf:resource="http://purl.org/dc/dcmitype/StillImage" /><dc:title></dc:title></cc:Work></rdf:RDF></metadata><defs
     id="defs17" /><sodipodi:namedview
     pagecolor="#ffffff"
     bordercolor="#666666"
     borderopacity="1"
     objecttolerance="10"
     gridtolerance="10"
     guidetolerance="10"
     inkscape:pageopacity="0"
     inkscape:pageshadow="2"
     inkscape:window-width="640"
     inkscape:window-height="480"
     id="namedview15"
     showgrid="false"
     inkscape:zoom="0.4609375"
     inkscape:cx="64"
     inkscape:cy="64"
     inkscape:window-x="0"
     inkscape:window-y="0"
     inkscape:window-maximized="0"
     inkscape:current-layer="レイヤー_1" /><g
     id="g7"><path
       style="fill:#F79229;"
       d="M76.52,39.24c16.29-0.25,24.83-7.42,31.32-23.45c0.39-0.95-0.02-2.04-0.95-2.49l-6.37-3.06   c-1.01-0.49-2.23-0.01-2.63,1.04c-4.23,10.85-10.98,20.07-24.7,20.07c-9.08,0-16.22-5.89-20.55-15.29   c-0.23-0.49-0.81-0.71-1.3-0.48l-1.95,0.94c-0.48,0.23-0.68,0.82-0.45,1.3C55.3,30.85,62.21,39.46,76.52,39.24z"
       id="path9" /><path
       style="fill:#F79229;"
       d="M104.07,52.49c-7.82-0.47-16.84,2.56-23.91,13.49c-4.72,7.3-9.84,18.59-16.37,18.86   c-5.34,0.22-6.87-0.82-10.84-4.72c4.83-2.99,10.36-9.33,10.65-15.56c0.43-9.3-1.1-18.7-11.01-22.6   c-11.02-4.7-23.51,0.09-33.87,5.44c-0.95,0.49-1.33,1.66-0.84,2.61l3.66,7.1c0.53,1.03,1.83,1.36,2.79,0.73   c1.16-0.77,2.8-1.8,4.65-2.78c6.25-3.32,11.51-4.02,18.32-2.43c5.88,1.38,11.35,9.13,7.74,14.75c-4.02,6.26-11.98,6.53-18.9,6.68   c-1.13,0.02-1.99,1-1.88,2.12l0.65,6.58c0.11,1.11,1.13,1.9,2.23,1.72c2.02-0.33,5.09-0.8,7.02-0.93   c5.65-0.38,10.18,7.09,10.18,12.22c0.01,7.86-4.98,15.49-13.54,15.74c-11.52,0.33-22.99-7.58-31.66-20.53   c-0.26-0.39-0.76-0.54-1.19-0.35l-2.92,1.28c-0.5,0.22-0.73,0.82-0.49,1.32c7.8,16.02,19.19,29.18,38.55,29.35   c14.28,0.13,21.66-7.3,22.09-17.29c0.17-3.95-2.05-9.68-4.84-13.78c3.09,1.67,5.32,2,8.42,1.95c6.71-0.1,12.03-6.01,17.57-16   C94.67,62.47,98,58.31,105.57,58.39c7.14,0.07,11.45,6.99,10.91,19.51c-0.62,14.27-7.55,22.95-18.46,23.19   c-7.67,0.16-13.49-1.45-17.4-6.85c-0.33-0.45-0.95-0.56-1.39-0.22l-1.86,1.42c-0.41,0.32-0.5,0.91-0.2,1.34   c5.6,7.85,10.59,13.4,19.82,14.61c15.92,0.37,26.95-10.3,26.89-28.95C123.82,63.78,115.67,53.18,104.07,52.49z"
       id="path11" /><path
       style="fill:#F79229;"
       d="M75.25,22.54c0.31,0.26,0.69,0.38,1.07,0.38c0.47,0,0.94-0.19,1.27-0.57l7.56-8.58   c0.3-0.34,0.45-0.79,0.42-1.24c-0.03-0.45-0.25-0.87-0.59-1.17L76.4,4.09c-0.69-0.59-1.73-0.52-2.34,0.15l-7.85,8.58   c-0.31,0.34-0.47,0.8-0.44,1.26c0.03,0.46,0.26,0.89,0.62,1.19L75.25,22.54z"
       id="path13" /></g></svg>