<?xml version="1.0" encoding="UTF-8" standalone="no"?>
<!-- Generator: Adobe Illustrator 19.2.1, SVG Export Plug-In . SVG Version: 6.00 Build 0)  -->

<svg
   xmlns:dc="http://purl.org/dc/elements/1.1/"
   xmlns:cc="http://creativecommons.org/ns#"
   xmlns:rdf="http://www.w3.org/1999/02/22-rdf-syntax-ns#"
   xmlns:svg="http://www.w3.org/2000/svg"
   xmlns="http://www.w3.org/2000/svg"
   xmlns:sodipodi="http://sodipodi.sourceforge.net/DTD/sodipodi-0.dtd"
   xmlns:inkscape="http://www.inkscape.org/namespaces/inkscape"
   version="1.1"
   x="0px"
   y="0px"
   viewBox="0 0 128 128"
   style="enable-background:new 0 0 128 128;"
   xml:space="preserve"
   id="svg2"
   inkscape:version="0.91 r13725"
   sodipodi:docname="1f5d2.svg"><metadata
     id="metadata164"><rdf:RDF><cc:Work
         rdf:about=""><dc:format>image/svg+xml</dc:format><dc:type
           rdf:resource="http://purl.org/dc/dcmitype/StillImage" /><dc:title></dc:title></cc:Work></rdf:RDF></metadata><defs
     id="defs162" /><sodipodi:namedview
     pagecolor="#ffffff"
     bordercolor="#666666"
     borderopacity="1"
     objecttolerance="10"
     gridtolerance="10"
     guidetolerance="10"
     inkscape:pageopacity="0"
     inkscape:pageshadow="2"
     inkscape:window-width="640"
     inkscape:window-height="480"
     id="namedview160"
     showgrid="false"
     inkscape:zoom="0.32593203"
     inkscape:cx="64"
     inkscape:cy="64"
     inkscape:window-x="0"
     inkscape:window-y="0"
     inkscape:window-maximized="0"
     inkscape:current-layer="图层_1" /><g
     id="Layer_2" /><g
     id="图层_1"><g
       id="g38"><g
         id="g40"><g
           id="g42"><path
             style="fill:#78909C;"
             d="M105.46,125.16H25.19c-1.55,0-2.81-1.26-2.81-2.81V18.98c0-1.55,1.26-2.81,2.81-2.81h80.27      c1.55,0,2.81,1.26,2.81,2.81v103.38C108.27,123.91,107.01,125.16,105.46,125.16z"
             id="path44" /></g><g
           id="g46"><path
             style="fill:#E0E0E0;"
             d="M102.81,122.52H22.54c-1.55,0-2.81-1.26-2.81-2.81V16.33c0-1.55,1.26-2.81,2.81-2.81h80.27      c1.55,0,2.81,1.26,2.81,2.81v103.38C105.62,121.26,104.36,122.52,102.81,122.52z"
             id="path48" /></g><g
           id="g50"><g
             id="g52"><g
               id="g54"><path
                 style="fill:#616161;"
                 d="M93.43,46.67h-61.5c-1.38,0-2.5-1.12-2.5-2.5s1.12-2.5,2.5-2.5h61.5c1.38,0,2.5,1.12,2.5,2.5        S94.81,46.67,93.43,46.67z"
                 id="path56" /></g><g
               id="g58"><path
                 style="fill:#616161;"
                 d="M93.43,60.4h-61.5c-1.38,0-2.5-1.12-2.5-2.5s1.12-2.5,2.5-2.5h61.5c1.38,0,2.5,1.12,2.5,2.5        S94.81,60.4,93.43,60.4z"
                 id="path60" /></g><g
               id="g62"><path
                 style="fill:#616161;"
                 d="M93.43,74.13h-61.5c-1.38,0-2.5-1.12-2.5-2.5s1.12-2.5,2.5-2.5h61.5c1.38,0,2.5,1.12,2.5,2.5        S94.81,74.13,93.43,74.13z"
                 id="path64" /></g><g
               id="g66"><path
                 style="fill:#616161;"
                 d="M93.43,87.87h-61.5c-1.38,0-2.5-1.12-2.5-2.5s1.12-2.5,2.5-2.5h61.5c1.38,0,2.5,1.12,2.5,2.5        S94.81,87.87,93.43,87.87z"
                 id="path68" /></g><g
               id="g70"><path
                 style="fill:#616161;"
                 d="M58.23,101.6h-26.3c-1.38,0-2.5-1.12-2.5-2.5s1.12-2.5,2.5-2.5h26.3c1.38,0,2.5,1.12,2.5,2.5        S59.61,101.6,58.23,101.6z"
                 id="path72" /></g></g></g><g
           id="g74"><path
             style="fill:#B0BEC5;"
             d="M105.62,94.41l-12.33,15.42l-15.87,12.69h25.39c1.57,0,2.81-1.21,2.81-2.81V94.41z"
             id="path76" /></g><g
           id="g78"><g
             id="g80"><path
               style="fill:#78A3AD;"
               d="M77.42,122.52c0.8-4.37,1.08-9.48,0.36-15.99c-0.16-1.49,0.94-2.81,2.44-2.88       c3.46-0.17,9.4-0.61,13.61-1.73c6.03-1.6,11.79-7.51,11.79-7.51s-3.51,9.33-12.76,18.26       C86.34,118.96,77.42,122.52,77.42,122.52z"
               id="path82" /></g></g></g><g
         id="g84"><g
           id="g86"><path
             style="fill:#616161;"
             d="M38.15,25.04c-5.08,0-9.06-4.88-9.06-11.1s3.98-11.1,9.06-11.1c5.08,0,9.06,4.88,9.06,11.1      c0,0.57-0.03,1.13-0.1,1.68c-0.2,1.65-1.7,2.81-3.34,2.61c-1.64-0.2-2.81-1.7-2.61-3.35c0.04-0.3,0.06-0.62,0.06-0.95      c0-2.92-1.62-5.1-3.06-5.1s-3.06,2.18-3.06,5.1s1.62,5.1,3.06,5.1c1.66,0,3,1.34,3,3S39.81,25.04,38.15,25.04z"
             id="path88" /></g><g
           id="g90"><rect
             x="40.3"
             y="13.58"
             style="fill:#E0E0E0;"
             width="7.84"
             height="6.08"
             id="rect92" /></g></g><g
         id="g94"><g
           id="g96"><path
             style="fill:#616161;"
             d="M62.46,25.04c-5.08,0-9.06-4.88-9.06-11.1s3.98-11.1,9.06-11.1s9.06,4.88,9.06,11.1      c0,0.56-0.03,1.12-0.1,1.67c-0.2,1.64-1.7,2.81-3.34,2.62c-1.65-0.2-2.82-1.69-2.62-3.34c0.04-0.31,0.06-0.63,0.06-0.95      c0-2.92-1.62-5.1-3.06-5.1s-3.06,2.18-3.06,5.1s1.62,5.1,3.06,5.1c1.66,0,3,1.34,3,3S64.12,25.04,62.46,25.04z"
             id="path98" /></g><g
           id="g100"><rect
             x="64.61"
             y="13.58"
             style="fill:#E0E0E0;"
             width="7.84"
             height="6.08"
             id="rect102" /></g></g><g
         id="g104"><g
           id="g106"><path
             style="fill:#616161;"
             d="M86.77,25.04c-5.08,0-9.06-4.88-9.06-11.1s3.98-11.1,9.06-11.1s9.06,4.88,9.06,11.1      c0,0.56-0.03,1.12-0.1,1.67c-0.2,1.64-1.7,2.81-3.34,2.62c-1.65-0.2-2.82-1.69-2.62-3.34c0.04-0.31,0.06-0.63,0.06-0.95      c0-2.92-1.62-5.1-3.06-5.1s-3.06,2.18-3.06,5.1s1.62,5.1,3.06,5.1c1.66,0,3,1.34,3,3S88.43,25.04,86.77,25.04z"
             id="path108" /></g><g
           id="g110"><rect
             x="88.92"
             y="13.58"
             style="fill:#E0E0E0;"
             width="7.84"
             height="6.08"
             id="rect112" /></g></g></g></g></svg>