<?xml version="1.0" encoding="UTF-8" standalone="no"?>
<!-- Generator: Adobe Illustrator 19.2.1, SVG Export Plug-In . SVG Version: 6.00 Build 0)  -->

<svg
   xmlns:dc="http://purl.org/dc/elements/1.1/"
   xmlns:cc="http://creativecommons.org/ns#"
   xmlns:rdf="http://www.w3.org/1999/02/22-rdf-syntax-ns#"
   xmlns:svg="http://www.w3.org/2000/svg"
   xmlns="http://www.w3.org/2000/svg"
   xmlns:xlink="http://www.w3.org/1999/xlink"
   xmlns:sodipodi="http://sodipodi.sourceforge.net/DTD/sodipodi-0.dtd"
   xmlns:inkscape="http://www.inkscape.org/namespaces/inkscape"
   version="1.1"
   x="0px"
   y="0px"
   viewBox="0 0 128 128"
   style="enable-background:new 0 0 128 128;"
   xml:space="preserve"
   id="svg2"
   inkscape:version="0.91 r13725"
   sodipodi:docname="1f60c.svg"><metadata
     id="metadata72"><rdf:RDF><cc:Work
         rdf:about=""><dc:format>image/svg+xml</dc:format><dc:type
           rdf:resource="http://purl.org/dc/dcmitype/StillImage" /><dc:title></dc:title></cc:Work></rdf:RDF></metadata><defs
     id="defs70" /><sodipodi:namedview
     pagecolor="#ffffff"
     bordercolor="#666666"
     borderopacity="1"
     objecttolerance="10"
     gridtolerance="10"
     guidetolerance="10"
     inkscape:pageopacity="0"
     inkscape:pageshadow="2"
     inkscape:window-width="723"
     inkscape:window-height="480"
     id="namedview68"
     showgrid="false"
     inkscape:zoom="0.4609375"
     inkscape:cx="-13.101691"
     inkscape:cy="64"
     inkscape:window-x="0"
     inkscape:window-y="0"
     inkscape:window-maximized="0"
     inkscape:current-layer="svg2" /><g
     id="Layer_2"><g
       id="g30"><path
         style="fill:#FCC21B;"
         d="M64,10.81c-62.12,0-63.59,69.65-63.59,83.44c0,13.77,28.47,24.94,63.59,24.94    c35.12,0,63.59-11.17,63.59-24.94C127.59,80.46,126.13,10.81,64,10.81z"
         id="path32" /><path
         style="display:none;fill:#2F2F2F;"
         d="M48.29,59.58c-0.17,0.26-4.25,6.53-13.16,6.53c-8.91,0-12.99-6.25-13.16-6.53    c-0.81-1.29-0.44-3,0.85-3.81c1.28-0.83,2.98-0.44,3.81,0.84c0.09,0.15,2.71,3.97,8.5,3.97c5.81,0,8.47-3.93,8.49-3.96    c0.82-1.29,2.53-1.68,3.81-0.85C48.73,56.58,49.11,58.29,48.29,59.58z"
         id="path34" /><path
         style="display:none;fill:#ED6C30;"
         d="M67.12,91.48c-1.01,4.78-3.81,7.57-6.62,7.87c-2.8,0.31-6.27-1.91-8.38-6.77    c-3.63-8.32-2.34-20.87,5.73-20.85C65.49,71.74,68.77,83.39,67.12,91.48z"
         id="path36" /><path
         style="display:none;fill:#2F2F2F;"
         d="M95.03,59.65c-0.18,0.27-4.33,6.65-13.4,6.65c-9.09,0-13.22-6.4-13.39-6.65    c-0.83-1.32-0.44-3.05,0.86-3.88c1.31-0.83,3.05-0.45,3.88,0.87c0.09,0.15,2.74,4.04,8.64,4.04c5.93,0,8.64-4,8.66-4.04    c0.83-1.32,2.57-1.7,3.88-0.87C95.47,56.6,95.86,58.33,95.03,59.65z"
         id="path38" /></g><path
       style="fill:#2F2F2F;"
       d="M87.07,80.67c-1.1,0-2.05,0.64-2.51,1.57c-0.36,0.69-7.25,13.41-20.48,13.41   c-12.33,0-20.96-12.73-21.05-12.86c-0.85-1.28-2.58-1.62-3.85-0.77c-1.29,0.85-1.62,2.58-0.77,3.86   c0.4,0.62,10.39,15.33,25.67,15.33c16.82,0,25.76-15.85,25.76-17.76C89.85,81.92,88.61,80.67,87.07,80.67z"
       id="path40" /><path
       style="fill:#FFFFFF;"
       d="M91.36,39.67c2.08,3.42,6.32,6.5,10.18,3.68c3.88-2.83,4.05-7.76,0.68-12.4   c-4.99-6.92-15.47-11.19-16.44-10.47C84.82,21.19,86.32,31.5,91.36,39.67"
       id="path42" /><g
       id="g44"><defs
         id="defs46"><path
           id="SVGID_1_"
           d="M76.04,44.64c-1.99,2.67-3.89,6.93-4.02,10.61c-0.35,9.08,6.18,16.7,14.58,17.01     c8.37,0.31,15.44-6.8,15.78-15.88c0.02-0.7-0.12-1.85-0.17-2.53C98.2,50.66,87.91,46.09,76.04,44.64z" /></defs><use
         xlink:href="#SVGID_1_"
         style="overflow:visible;fill:#FFFFFF;"
         id="use49" /><clipPath
         id="SVGID_2_"><use
           xlink:href="#SVGID_1_"
           style="overflow:visible;"
           id="use52" /></clipPath><path
         style="clip-path:url(#SVGID_2_);fill:#2F2F2F;"
         d="M86.04,43.85c3.46,1.49,5.32,5.07,4.13,8.03    c-1.17,2.96-4.92,4.14-8.38,2.66c-3.46-1.48-5.31-5.09-4.13-8.04C78.83,43.56,82.58,42.37,86.04,43.85"
         id="path54"
         clip-path="url(#SVGID_2_)" /></g><g
       id="g56"><defs
         id="defs58"><path
           id="SVGID_3_"
           d="M51.86,44.64c1.99,2.67,3.89,6.93,4.02,10.61c0.35,9.08-6.18,16.7-14.58,17.01     c-8.37,0.31-15.44-6.8-15.78-15.88c-0.02-0.7,0.12-1.85,0.17-2.53C29.7,50.66,39.99,46.09,51.86,44.64z" /></defs><use
         xlink:href="#SVGID_3_"
         style="overflow:visible;fill:#FFFFFF;"
         id="use61" /><clipPath
         id="SVGID_4_"><use
           xlink:href="#SVGID_3_"
           style="overflow:visible;"
           id="use64" /></clipPath><path
         style="clip-path:url(#SVGID_4_);fill:#2F2F2F;"
         d="M41.86,43.85c-3.46,1.49-5.32,5.07-4.13,8.03    c1.17,2.96,4.92,4.14,8.38,2.66c3.46-1.48,5.31-5.09,4.13-8.04C49.07,43.56,45.32,42.37,41.86,43.85"
         id="path66"
         clip-path="url(#SVGID_4_)" /></g></g></svg>