<?xml version="1.0" encoding="UTF-8" standalone="no"?>
<!-- Generator: Adobe Illustrator 19.2.1, SVG Export Plug-In . SVG Version: 6.00 Build 0)  -->

<svg
   xmlns:dc="http://purl.org/dc/elements/1.1/"
   xmlns:cc="http://creativecommons.org/ns#"
   xmlns:rdf="http://www.w3.org/1999/02/22-rdf-syntax-ns#"
   xmlns:svg="http://www.w3.org/2000/svg"
   xmlns="http://www.w3.org/2000/svg"
   xmlns:sodipodi="http://sodipodi.sourceforge.net/DTD/sodipodi-0.dtd"
   xmlns:inkscape="http://www.inkscape.org/namespaces/inkscape"
   version="1.1"
   id="图层_1"
   x="0px"
   y="0px"
   viewBox="0 0 128 128"
   style="enable-background:new 0 0 128 128;"
   xml:space="preserve"
   inkscape:version="0.91 r13725"
   sodipodi:docname="1f60f.svg"><metadata
     id="metadata49"><rdf:RDF><cc:Work
         rdf:about=""><dc:format>image/svg+xml</dc:format><dc:type
           rdf:resource="http://purl.org/dc/dcmitype/StillImage" /><dc:title></dc:title></cc:Work></rdf:RDF></metadata><defs
     id="defs47" /><sodipodi:namedview
     pagecolor="#ffffff"
     bordercolor="#666666"
     borderopacity="1"
     objecttolerance="10"
     gridtolerance="10"
     guidetolerance="10"
     inkscape:pageopacity="0"
     inkscape:pageshadow="2"
     inkscape:window-width="1024"
     inkscape:window-height="717"
     id="namedview45"
     showgrid="false"
     inkscape:zoom="5.6568543"
     inkscape:cx="67.595833"
     inkscape:cy="55.559388"
     inkscape:window-x="0"
     inkscape:window-y="0"
     inkscape:window-maximized="1"
     inkscape:current-layer="图层_1" /><g
     id="g3"><g
       id="g5"><path
         style="fill:#FCC21B;"
         d="M63.79,8.64C1.48,8.64,0,78.5,0,92.33c0,13.83,28.56,25.03,63.79,25.03    c35.24,0,63.79-11.21,63.79-25.03C127.58,78.5,126.11,8.64,63.79,8.64z"
         id="path7" /></g></g><g
     id="g9"><path
       style="fill:#2F2F2F;"
       d="M63.91,98.82c-3.43,0-6.87-0.43-10.25-1.31c-1.6-0.42-2.56-2.06-2.15-3.66   c0.42-1.6,2.06-2.56,3.66-2.14c11.65,3.04,24.21-0.21,32.78-8.48c1.19-1.15,3.09-1.12,4.24,0.08c1.15,1.19,1.12,3.09-0.08,4.24   C84.54,94.85,74.32,98.82,63.91,98.82z"
       id="path11" /></g><g
     id="g13"><path
       style="fill:#2F2F2F;"
       d="M55.53,67.26c-0.01,0.01-0.02,0.02-0.02,0.02C55.51,67.27,55.52,67.26,55.53,67.26z"
       id="path15" /></g><g
     id="g17"><g
       id="g19"><path
         style="fill:#2f2f2f"
         d="m 53.307119,65.674915 c -0.92,0 -14.541865,-5.419152 -15.051865,-6.269152 -0.12,-0.21 1.896271,1.377118 2.844746,2.384237 -0.74,4.78 1.73,8.45 5.88,8.42 2.26,-0.02 4.59,-1.14 6.53,-2.92 -0.13,0.12 -0.28,0.23 -0.44,0.32 -0.44,0.25 0.717119,-1.935085 0.237119,-1.935085 z"
         id="path21"
         inkscape:connector-curvature="0"
         sodipodi:nodetypes="scccccs" /></g><g
       id="g23"><path
         style="fill:#2f2f2f"
         d="m 39.650391,56.25 c -9.77,0 -14.191094,7.309141 -14.371094,7.619141 -0.76,1.28 -0.329063,2.940937 0.960937,3.710937 1.29,0.77 2.950469,0.350313 3.730469,-0.929687 0.13,-0.21 3.109453,-4.960938 9.689453,-4.960938 0.506577,0 0.972607,0.04031 1.439453,0.08984 5.56,0.62 6.188032,3.000077 6.308032,3.210077 l 4.611824,3.414029 c 0,0 1.350301,-1.013872 1.490301,-1.133872 L 53.529297,67.25 c 0.92,-0.84 1.169765,-2.250859 0.509765,-3.380859 -0.17,-0.27 -3.559687,-5.878829 -10.929687,-7.298829 -1.07,-0.21 -2.218984,-0.320312 -3.458984,-0.320312 z"
         id="path25"
         inkscape:connector-curvature="0"
         sodipodi:nodetypes="scscscccccccs" /></g><g
       id="g27" /></g><g
     id="g31"><g
       id="g33"><path
         style="fill:#2f2f2f"
         d="M 88.580078 56.25 C 78.810078 56.25 74.390936 63.559141 74.210938 63.869141 C 73.450936 65.149141 73.879922 66.810078 75.169922 67.580078 C 76.459922 68.350078 78.120391 67.930391 78.900391 66.650391 C 79.030391 66.440391 82.009844 61.689453 88.589844 61.689453 C 89.09642 61.689453 89.56245 61.729767 90.029297 61.779297 C 90.03532 61.779969 90.040859 61.78057 90.046875 61.78125 C 90.040527 61.783986 90.035654 61.786317 90.029297 61.789062 C 89.289297 66.569063 91.760156 70.240938 95.910156 70.210938 C 98.170156 70.190938 100.49945 69.069063 102.43945 67.289062 C 102.33271 67.387595 102.53014 67.174135 102.60742 67.089844 C 103.39844 66.238825 103.59192 64.932737 102.9707 63.869141 C 102.8007 63.599141 99.409063 57.990313 92.039062 56.570312 C 90.969064 56.360312 89.820078 56.25 88.580078 56.25 z "
         id="path35" /></g><g
       id="g37" /><g
       id="g41" /></g></svg>