<?xml version="1.0" encoding="UTF-8" standalone="no"?>
<!-- Generator: Adobe Illustrator 19.2.1, SVG Export Plug-In . SVG Version: 6.00 Build 0)  -->

<svg
   xmlns:dc="http://purl.org/dc/elements/1.1/"
   xmlns:cc="http://creativecommons.org/ns#"
   xmlns:rdf="http://www.w3.org/1999/02/22-rdf-syntax-ns#"
   xmlns:svg="http://www.w3.org/2000/svg"
   xmlns="http://www.w3.org/2000/svg"
   xmlns:sodipodi="http://sodipodi.sourceforge.net/DTD/sodipodi-0.dtd"
   xmlns:inkscape="http://www.inkscape.org/namespaces/inkscape"
   version="1.1"
   id="图层_1"
   x="0px"
   y="0px"
   viewBox="0 0 128 128"
   style="enable-background:new 0 0 128 128;"
   xml:space="preserve"
   inkscape:version="0.91 r13725"
   sodipodi:docname="1f60d.svg"><metadata
     id="metadata125"><rdf:RDF><cc:Work
         rdf:about=""><dc:format>image/svg+xml</dc:format><dc:type
           rdf:resource="http://purl.org/dc/dcmitype/StillImage" /><dc:title></dc:title></cc:Work></rdf:RDF></metadata><defs
     id="defs123" /><sodipodi:namedview
     pagecolor="#ffffff"
     bordercolor="#666666"
     borderopacity="1"
     objecttolerance="10"
     gridtolerance="10"
     guidetolerance="10"
     inkscape:pageopacity="0"
     inkscape:pageshadow="2"
     inkscape:window-width="1024"
     inkscape:window-height="717"
     id="namedview121"
     showgrid="false"
     inkscape:zoom="7.375"
     inkscape:cx="39.874649"
     inkscape:cy="42.305085"
     inkscape:window-x="0"
     inkscape:window-y="0"
     inkscape:window-maximized="1"
     inkscape:current-layer="图层_1" /><g
     id="g3"
     transform="translate(0.25,0)"><path
       style="fill:#fcc21b"
       d="M 63.79,8.64 C 1.48,8.64 0,78.5 0,92.33 c 0,13.83 28.56,25.03 63.79,25.03 35.24,0 63.79,-11.21 63.79,-25.03 0,-13.83 -1.47,-83.69 -63.79,-83.69 z"
       id="path5"
       inkscape:connector-curvature="0" /></g><g
     id="g7"
     transform="translate(0.25,0)"><g
       id="g9"><g
         id="g11"><path
           style="fill:#fcc21b"
           d="m 109.54,94.9 c -9.5,3.41 -19.98,-1.4 -23.44,-10.78 -3.44,-9.37 1.43,-19.74 10.93,-23.17 9.47,-3.41 19.98,1.42 23.45,10.79 3.44,9.39 -1.46,19.76 -10.94,23.16 z"
           id="path13"
           inkscape:connector-curvature="0" /><path
           style="fill:#fcc01c"
           d="m 109.31,94.27 c -9.15,3.29 -19.24,-1.35 -22.56,-10.37 -3.31,-9.02 1.38,-19 10.52,-22.3 9.12,-3.28 19.23,1.37 22.57,10.39 3.31,9.02 -1.41,19 -10.53,22.28 z"
           id="path15"
           inkscape:connector-curvature="0" /><path
           style="fill:#fcbe1c"
           d="M 109.07,93.63 C 100.28,96.79 90.58,92.34 87.38,83.66 84.2,75 88.72,65.4 97.5,62.23 c 8.77,-3.15 18.48,1.31 21.69,9.98 3.18,8.68 -1.35,18.28 -10.12,21.42 z"
           id="path17"
           inkscape:connector-curvature="0" /><path
           style="fill:#fbbb1d"
           d="M 108.84,93 C 100.4,96.03 91.1,91.76 88.03,83.43 84.97,75.11 89.3,65.9 97.73,62.86 c 8.41,-3.03 17.74,1.26 20.82,9.58 3.05,8.33 -1.29,17.54 -9.71,20.56 z"
           id="path19"
           inkscape:connector-curvature="0" /><path
           style="fill:#fbb91e"
           d="m 108.61,92.36 c -8.08,2.9 -17,-1.19 -19.93,-9.17 -2.93,-7.97 1.22,-16.79 9.3,-19.7 8.06,-2.9 16.99,1.21 19.94,9.18 2.91,7.98 -1.25,16.8 -9.31,19.69 z"
           id="path21"
           inkscape:connector-curvature="0" /><path
           style="fill:#fbb71e"
           d="m 108.37,91.73 c -7.73,2.78 -16.25,-1.14 -19.06,-8.76 -2.8,-7.62 1.17,-16.05 8.89,-18.84 7.7,-2.77 16.24,1.15 19.06,8.77 2.8,7.63 -1.18,16.06 -8.89,18.83 z"
           id="path23"
           inkscape:connector-curvature="0" /><path
           style="fill:#fbb51f"
           d="m 108.14,91.1 c -7.37,2.65 -15.5,-1.09 -18.18,-8.36 -2.67,-7.27 1.11,-15.31 8.48,-17.97 7.35,-2.64 15.5,1.1 18.19,8.37 2.66,7.27 -1.14,15.32 -8.49,17.96 z"
           id="path25"
           inkscape:connector-curvature="0" /><path
           style="fill:#fab220"
           d="m 107.9,90.46 c -7.02,2.52 -14.76,-1.03 -17.3,-7.96 -2.54,-6.92 1.06,-14.57 8.07,-17.1 7,-2.52 14.75,1.05 17.31,7.97 2.54,6.92 -1.08,14.58 -8.08,17.09 z"
           id="path27"
           inkscape:connector-curvature="0" /><path
           style="fill:#fab020"
           d="m 107.67,89.83 c -6.66,2.39 -14.01,-0.98 -16.43,-7.55 -2.41,-6.57 1.01,-13.84 7.66,-16.24 6.64,-2.39 14,1 16.43,7.56 2.42,6.57 -1.02,13.84 -7.66,16.23 z"
           id="path29"
           inkscape:connector-curvature="0" /><path
           style="fill:#faae21"
           d="m 107.44,89.19 c -6.31,2.26 -13.26,-0.93 -15.55,-7.15 -2.28,-6.22 0.95,-13.1 7.25,-15.37 6.29,-2.26 13.26,0.94 15.56,7.16 2.28,6.22 -0.97,13.1 -7.26,15.36 z"
           id="path31"
           inkscape:connector-curvature="0" /><path
           style="fill:#faac22"
           d="m 107.2,88.56 c -5.95,2.14 -12.51,-0.88 -14.68,-6.75 -2.15,-5.87 0.9,-12.36 6.84,-14.5 5.93,-2.13 12.51,0.89 14.68,6.76 2.16,5.86 -0.9,12.36 -6.84,14.49 z"
           id="path33"
           inkscape:connector-curvature="0" /><path
           style="fill:#f9a922"
           d="m 106.97,87.92 c -5.59,2.01 -11.77,-0.82 -13.8,-6.35 -2.03,-5.51 0.85,-11.62 6.44,-13.64 5.58,-2.01 11.76,0.84 13.8,6.35 2.02,5.53 -0.86,11.64 -6.44,13.64 z"
           id="path35"
           inkscape:connector-curvature="0" /><path
           style="fill:#f9a723"
           d="m 106.74,87.29 c -5.24,1.88 -11.02,-0.77 -12.92,-5.94 -1.9,-5.16 0.79,-10.88 6.03,-12.77 5.23,-1.88 11.02,0.78 12.93,5.95 1.88,5.16 -0.82,10.88 -6.04,12.76 z"
           id="path37"
           inkscape:connector-curvature="0" /><path
           style="fill:#f9a524"
           d="m 106.5,86.65 c -4.88,1.75 -10.27,-0.72 -12.05,-5.54 -1.77,-4.81 0.74,-10.14 5.62,-11.91 4.87,-1.75 10.27,0.73 12.05,5.55 1.77,4.82 -0.75,10.16 -5.62,11.9 z"
           id="path39"
           inkscape:connector-curvature="0" /><path
           style="fill:#f9a324"
           d="m 106.27,86.02 c -4.53,1.63 -9.53,-0.67 -11.17,-5.14 -1.64,-4.46 0.68,-9.41 5.21,-11.04 4.52,-1.62 9.52,0.68 11.17,5.14 1.64,4.47 -0.69,9.42 -5.21,11.04 z"
           id="path41"
           inkscape:connector-curvature="0" /><path
           style="fill:#f8a025"
           d="m 106.03,85.39 c -4.17,1.5 -8.78,-0.62 -10.29,-4.74 -1.51,-4.11 0.63,-8.67 4.8,-10.17 4.16,-1.5 8.77,0.63 10.3,4.74 1.51,4.11 -0.64,8.67 -4.81,10.17 z"
           id="path43"
           inkscape:connector-curvature="0" /><path
           style="fill:#f89e26"
           d="m 105.8,84.75 c -3.82,1.37 -8.03,-0.56 -9.42,-4.33 -1.38,-3.76 0.58,-7.93 4.39,-9.31 3.81,-1.37 8.03,0.57 9.42,4.34 1.39,3.76 -0.58,7.93 -4.39,9.3 z"
           id="path45"
           inkscape:connector-curvature="0" /><path
           style="fill:#f89c26"
           d="m 105.57,84.12 c -3.46,1.24 -7.28,-0.51 -8.54,-3.93 -1.25,-3.41 0.52,-7.19 3.98,-8.44 3.46,-1.24 7.28,0.52 8.55,3.93 1.25,3.41 -0.54,7.2 -3.99,8.44 z"
           id="path47"
           inkscape:connector-curvature="0" /><path
           style="fill:#f89a27"
           d="m 105.33,83.48 c -3.11,1.12 -6.54,-0.46 -7.67,-3.53 -1.13,-3.06 0.47,-6.45 3.57,-7.58 3.1,-1.11 6.53,0.47 7.67,3.53 1.14,3.07 -0.47,6.47 -3.57,7.58 z"
           id="path49"
           inkscape:connector-curvature="0" /><path
           style="fill:#f79728"
           d="m 105.1,82.85 c -2.75,0.99 -5.79,-0.41 -6.79,-3.12 -1,-2.71 0.42,-5.72 3.17,-6.71 2.75,-0.99 5.79,0.41 6.79,3.13 0.99,2.7 -0.43,5.71 -3.17,6.7 z"
           id="path51"
           inkscape:connector-curvature="0" /><path
           style="fill:#f79528"
           d="m 104.87,82.21 c -2.4,0.86 -5.04,-0.35 -5.91,-2.72 -0.87,-2.36 0.36,-4.98 2.76,-5.84 2.39,-0.86 5.04,0.36 5.92,2.72 0.85,2.36 -0.38,4.99 -2.77,5.84 z"
           id="path53"
           inkscape:connector-curvature="0" /><path
           style="fill:#f79329"
           d="m 104.63,81.58 c -2.04,0.73 -4.3,-0.3 -5.04,-2.32 -0.74,-2.01 0.31,-4.24 2.35,-4.98 2.04,-0.73 4.29,0.31 5.04,2.32 0.74,2.01 -0.31,4.25 -2.35,4.98 z"
           id="path55"
           inkscape:connector-curvature="0" /></g></g><g
       id="g57"><g
         id="g59"><path
           style="fill:#fcc21b"
           d="M 31.54,94.9 C 22.04,98.31 11.56,93.5 8.1,84.12 4.66,74.75 9.53,64.38 19.03,60.95 28.5,57.54 39.01,62.37 42.48,71.74 45.92,81.13 41.02,91.5 31.54,94.9 Z"
           id="path61"
           inkscape:connector-curvature="0" /><path
           style="fill:#fcc01c"
           d="M 31.31,94.27 C 22.16,97.56 12.07,92.92 8.75,83.9 c -3.31,-9.02 1.38,-19 10.52,-22.3 9.12,-3.28 19.23,1.37 22.57,10.39 3.31,9.02 -1.41,19 -10.53,22.28 z"
           id="path63"
           inkscape:connector-curvature="0" /><path
           style="fill:#fcbe1c"
           d="M 31.07,93.63 C 22.28,96.79 12.58,92.34 9.38,83.66 6.2,75 10.72,65.4 19.5,62.23 c 8.77,-3.15 18.48,1.31 21.69,9.98 3.18,8.68 -1.35,18.28 -10.12,21.42 z"
           id="path65"
           inkscape:connector-curvature="0" /><path
           style="fill:#fbbb1d"
           d="M 30.84,93 C 22.4,96.03 13.1,91.76 10.03,83.43 6.97,75.11 11.3,65.9 19.73,62.86 28.14,59.83 37.47,64.12 40.55,72.44 43.6,80.77 39.26,89.98 30.84,93 Z"
           id="path67"
           inkscape:connector-curvature="0" /><path
           style="fill:#fbb91e"
           d="m 30.61,92.36 c -8.08,2.9 -17,-1.19 -19.93,-9.17 -2.93,-7.97 1.22,-16.79 9.3,-19.7 8.06,-2.9 16.99,1.21 19.94,9.18 2.91,7.98 -1.25,16.8 -9.31,19.69 z"
           id="path69"
           inkscape:connector-curvature="0" /><path
           style="fill:#fbb71e"
           d="m 30.37,91.73 c -7.73,2.78 -16.25,-1.14 -19.06,-8.76 -2.8,-7.62 1.17,-16.05 8.89,-18.84 7.7,-2.77 16.24,1.15 19.06,8.77 2.8,7.63 -1.18,16.06 -8.89,18.83 z"
           id="path71"
           inkscape:connector-curvature="0" /><path
           style="fill:#fbb51f"
           d="m 30.14,91.1 c -7.37,2.65 -15.5,-1.09 -18.18,-8.36 -2.67,-7.27 1.11,-15.31 8.48,-17.97 7.35,-2.64 15.5,1.1 18.19,8.37 2.66,7.27 -1.14,15.32 -8.49,17.96 z"
           id="path73"
           inkscape:connector-curvature="0" /><path
           style="fill:#fab220"
           d="m 29.9,90.46 c -7.02,2.52 -14.76,-1.03 -17.3,-7.96 -2.54,-6.92 1.06,-14.57 8.07,-17.1 7,-2.52 14.75,1.05 17.31,7.97 2.54,6.92 -1.08,14.58 -8.08,17.09 z"
           id="path75"
           inkscape:connector-curvature="0" /><path
           style="fill:#fab020"
           d="m 29.67,89.83 c -6.66,2.39 -14.01,-0.98 -16.43,-7.55 -2.41,-6.57 1.01,-13.84 7.66,-16.24 6.64,-2.39 14,1 16.43,7.56 2.42,6.57 -1.02,13.84 -7.66,16.23 z"
           id="path77"
           inkscape:connector-curvature="0" /><path
           style="fill:#faae21"
           d="m 29.44,89.19 c -6.31,2.26 -13.26,-0.93 -15.55,-7.15 -2.28,-6.22 0.95,-13.1 7.25,-15.37 6.29,-2.26 13.26,0.94 15.56,7.16 2.28,6.22 -0.97,13.1 -7.26,15.36 z"
           id="path79"
           inkscape:connector-curvature="0" /><path
           style="fill:#faac22"
           d="m 29.2,88.56 c -5.95,2.14 -12.51,-0.88 -14.68,-6.75 -2.15,-5.87 0.9,-12.36 6.84,-14.5 5.93,-2.13 12.51,0.89 14.68,6.76 2.16,5.86 -0.9,12.36 -6.84,14.49 z"
           id="path81"
           inkscape:connector-curvature="0" /><path
           style="fill:#f9a922"
           d="m 28.97,87.92 c -5.59,2.01 -11.77,-0.82 -13.8,-6.35 -2.03,-5.51 0.85,-11.62 6.44,-13.64 5.58,-2.01 11.76,0.84 13.8,6.35 2.02,5.53 -0.86,11.64 -6.44,13.64 z"
           id="path83"
           inkscape:connector-curvature="0" /><path
           style="fill:#f9a723"
           d="m 28.74,87.29 c -5.24,1.88 -11.02,-0.77 -12.92,-5.94 -1.9,-5.16 0.79,-10.88 6.03,-12.77 5.23,-1.88 11.02,0.78 12.93,5.95 1.88,5.16 -0.82,10.88 -6.04,12.76 z"
           id="path85"
           inkscape:connector-curvature="0" /><path
           style="fill:#f9a524"
           d="M 28.5,86.65 C 23.62,88.4 18.23,85.93 16.45,81.11 14.68,76.3 17.19,70.97 22.07,69.2 c 4.87,-1.75 10.27,0.73 12.05,5.55 1.77,4.82 -0.75,10.16 -5.62,11.9 z"
           id="path87"
           inkscape:connector-curvature="0" /><path
           style="fill:#f9a324"
           d="m 28.27,86.02 c -4.53,1.63 -9.53,-0.67 -11.17,-5.14 -1.64,-4.46 0.68,-9.41 5.21,-11.04 4.52,-1.62 9.52,0.68 11.17,5.14 1.64,4.47 -0.69,9.42 -5.21,11.04 z"
           id="path89"
           inkscape:connector-curvature="0" /><path
           style="fill:#f8a025"
           d="m 28.03,85.39 c -4.17,1.5 -8.78,-0.62 -10.29,-4.74 -1.51,-4.11 0.63,-8.67 4.8,-10.17 4.16,-1.5 8.77,0.63 10.3,4.74 1.51,4.11 -0.64,8.67 -4.81,10.17 z"
           id="path91"
           inkscape:connector-curvature="0" /><path
           style="fill:#f89e26"
           d="m 27.8,84.75 c -3.82,1.37 -8.03,-0.56 -9.42,-4.33 -1.38,-3.76 0.58,-7.93 4.39,-9.31 3.81,-1.37 8.03,0.57 9.42,4.34 1.39,3.76 -0.58,7.93 -4.39,9.3 z"
           id="path93"
           inkscape:connector-curvature="0" /><path
           style="fill:#f89c26"
           d="m 27.57,84.12 c -3.46,1.24 -7.28,-0.51 -8.54,-3.93 -1.25,-3.41 0.52,-7.19 3.98,-8.44 3.46,-1.24 7.28,0.52 8.55,3.93 1.25,3.41 -0.54,7.2 -3.99,8.44 z"
           id="path95"
           inkscape:connector-curvature="0" /><path
           style="fill:#f89a27"
           d="m 27.33,83.48 c -3.11,1.12 -6.54,-0.46 -7.67,-3.53 -1.13,-3.06 0.47,-6.45 3.57,-7.58 3.1,-1.11 6.53,0.47 7.67,3.53 1.14,3.07 -0.47,6.47 -3.57,7.58 z"
           id="path97"
           inkscape:connector-curvature="0" /><path
           style="fill:#f79728"
           d="m 27.1,82.85 c -2.75,0.99 -5.79,-0.41 -6.79,-3.12 -1,-2.71 0.42,-5.72 3.17,-6.71 2.75,-0.99 5.79,0.41 6.79,3.13 0.99,2.7 -0.43,5.71 -3.17,6.7 z"
           id="path99"
           inkscape:connector-curvature="0" /><path
           style="fill:#f79528"
           d="m 26.87,82.21 c -2.4,0.86 -5.04,-0.35 -5.91,-2.72 -0.87,-2.36 0.36,-4.98 2.76,-5.84 2.39,-0.86 5.04,0.36 5.92,2.72 0.85,2.36 -0.38,4.99 -2.77,5.84 z"
           id="path101"
           inkscape:connector-curvature="0" /><path
           style="fill:#f79329"
           d="m 26.63,81.58 c -2.04,0.73 -4.3,-0.3 -5.04,-2.32 -0.74,-2.01 0.31,-4.24 2.35,-4.98 2.04,-0.73 4.29,0.31 5.04,2.32 0.74,2.01 -0.31,4.25 -2.35,4.98 z"
           id="path103"
           inkscape:connector-curvature="0" /></g></g></g><g
     id="g105"
     transform="translate(0.25,0)"><g
       id="g107"><path
         style="fill:#d7598b"
         d="m 45.06,30.55 c -3.37,0.93 -5.8,3.54 -6.61,6.68 -2.31,-2.23 -5.8,-3.22 -9.04,-2.3 -2.42,0.68 -4.43,2.23 -5.68,4.41 -1.24,2.17 -1.56,4.68 -0.89,7.07 2.97,10.85 21.03,15.3 21.79,15.49 0.19,0.05 0.38,0.04 0.56,0.01 0.23,-0.05 0.44,-0.16 0.61,-0.33 C 46.36,61.01 59.54,47.82 56.56,37 55.21,32.08 49.94,29.1 45.06,30.55 Z"
         id="path109"
         inkscape:connector-curvature="0" /></g><g
       id="g111"><path
         style="fill:#d7598b"
         d="m 82.77,30.64 c 3.39,0.87 5.86,3.44 6.72,6.56 2.27,-2.27 5.74,-3.32 9,-2.46 2.43,0.63 4.47,2.16 5.75,4.31 1.28,2.15 1.64,4.65 1.02,7.05 C 102.49,57 84.51,61.76 83.75,61.96 83.56,62.01 83.37,62.01 83.19,61.97 82.96,61.92 82.75,61.81 82.57,61.65 82,61.11 68.6,48.16 71.38,37.29 c 1.26,-4.95 6.48,-8.02 11.39,-6.65 z"
         id="path113"
         inkscape:connector-curvature="0" /></g></g><g
     id="g115"
     transform="translate(0.25,0)"><path
       style="fill:#ed6c30"
       d="m 82.49,73.14 c -3.77,-0.92 -8.34,2.92 -15.44,4.51 -1.11,0.25 -2.11,0.34 -3.04,0.33 l 0,20.32 c 11.32,0 18.46,-6.19 21.02,-10.5 4.8,-8.1 2.67,-13.4 -2.54,-14.66 z"
       id="path117"
       inkscape:connector-curvature="0" /><path
       style="fill:#ed6c30"
       d="m 45.53,73.14 c 3.77,-0.92 8.34,2.92 15.44,4.51 1.11,0.25 2.11,0.34 3.04,0.33 l 0,20.32 C 53.37,98.3 45.42,91.84 42.99,87.8 38.15,79.72 40.32,74.4 45.53,73.14 Z"
       id="path119"
       inkscape:connector-curvature="0" /></g></svg>