<?xml version="1.0" encoding="UTF-8" standalone="no"?>
<!-- Generator: Adobe Illustrator 19.2.1, SVG Export Plug-In . SVG Version: 6.00 Build 0)  -->

<svg
   xmlns:dc="http://purl.org/dc/elements/1.1/"
   xmlns:cc="http://creativecommons.org/ns#"
   xmlns:rdf="http://www.w3.org/1999/02/22-rdf-syntax-ns#"
   xmlns:svg="http://www.w3.org/2000/svg"
   xmlns="http://www.w3.org/2000/svg"
   xmlns:sodipodi="http://sodipodi.sourceforge.net/DTD/sodipodi-0.dtd"
   xmlns:inkscape="http://www.inkscape.org/namespaces/inkscape"
   version="1.1"
   id="图层_1"
   x="0px"
   y="0px"
   viewBox="0 0 128 128"
   style="enable-background:new 0 0 128 128;"
   xml:space="preserve"
   inkscape:version="0.91 r13725"
   sodipodi:docname="1f61d.svg"><metadata
     id="metadata35"><rdf:RDF><cc:Work
         rdf:about=""><dc:format>image/svg+xml</dc:format><dc:type
           rdf:resource="http://purl.org/dc/dcmitype/StillImage" /><dc:title></dc:title></cc:Work></rdf:RDF></metadata><defs
     id="defs33" /><sodipodi:namedview
     pagecolor="#ffffff"
     bordercolor="#666666"
     borderopacity="1"
     objecttolerance="10"
     gridtolerance="10"
     guidetolerance="10"
     inkscape:pageopacity="0"
     inkscape:pageshadow="2"
     inkscape:window-width="640"
     inkscape:window-height="480"
     id="namedview31"
     showgrid="false"
     inkscape:zoom="0.32593203"
     inkscape:cx="64"
     inkscape:cy="64"
     inkscape:window-x="0"
     inkscape:window-y="0"
     inkscape:window-maximized="0"
     inkscape:current-layer="图层_1" /><g
     id="g3"><g
       id="g5"><path
         style="fill:#FCC21B;"
         d="M127.22,93.42c0,13.86-28.29,25.1-63.22,25.1c-34.92,0-63.23-11.24-63.23-25.1    c0-13.87,1.47-83.94,63.23-83.94C125.77,9.48,127.22,79.54,127.22,93.42"
         id="path7" /></g></g><path
     style="fill:#D7598B;"
     d="M47.44,85.93c3.85,4.48,0.76,17.64,10.25,22.37c1.77,0.89,4.13,1.35,6.55,1.34l0-0.08l0,0.08  c2.42-0.04,4.77-0.55,6.52-1.47c9.4-4.92,6.04-18.02,9.8-22.58L47.44,85.93z"
     id="path15" /><g
     id="g17"><path
       style="fill:#2F2F2F;"
       d="M64,90.1c-11.65,0-23.3-3.14-33.25-9.41c-1.4-0.88-1.82-2.74-0.94-4.14   c0.88-1.4,2.74-1.82,4.14-0.94c17.97,11.34,42.12,11.34,60.09,0c1.4-0.88,3.25-0.46,4.14,0.94s0.46,3.25-0.94,4.14   C87.3,86.96,75.65,90.1,64,90.1z"
       id="path19" /></g><g
     id="g21"><path
       style="fill:#2F2F2F;"
       d="M98.46,63.78c-0.5,1.13-1.7,1.72-2.86,1.52c-0.21-0.04-0.42-0.1-0.61-0.19   c-7.83-3.49-18.47-3.39-18.57-3.39c-1.21,0.02-2.24-0.78-2.57-1.92c-0.33-1.15,0.16-2.37,1.18-2.98   c9.01-5.41,21.72-7.26,22.25-7.33c1.45-0.2,2.78,0.8,2.98,2.24c0.2,1.44-0.81,2.77-2.24,2.98c-0.07,0.01-5.28,0.76-11.12,2.65   c3.25,0.47,6.94,1.48,10.24,2.94C98.46,60.89,99.06,62.46,98.46,63.78z"
       id="path23" /><path
       style="fill:#2F2F2F;"
       d="M29.76,63.78c0.5,1.13,1.7,1.72,2.86,1.52c0.21-0.04,0.42-0.1,0.61-0.19   c7.83-3.49,18.47-3.39,18.57-3.39c1.21,0.02,2.24-0.78,2.57-1.92c0.33-1.15-0.16-2.37-1.18-2.98c-9.01-5.41-21.72-7.26-22.25-7.33   c-1.45-0.2-2.78,0.8-2.98,2.24c-0.2,1.44,0.81,2.77,2.24,2.98c0.07,0.01,5.28,0.76,11.12,2.65c-3.25,0.47-6.94,1.48-10.24,2.94   C29.77,60.89,29.17,62.46,29.76,63.78z"
       id="path25" /></g></svg>