<?xml version="1.0" encoding="UTF-8" standalone="no"?>
<!-- Generator: Adobe Illustrator 19.2.1, SVG Export Plug-In . SVG Version: 6.00 Build 0)  -->

<svg
   xmlns:dc="http://purl.org/dc/elements/1.1/"
   xmlns:cc="http://creativecommons.org/ns#"
   xmlns:rdf="http://www.w3.org/1999/02/22-rdf-syntax-ns#"
   xmlns:svg="http://www.w3.org/2000/svg"
   xmlns="http://www.w3.org/2000/svg"
   xmlns:sodipodi="http://sodipodi.sourceforge.net/DTD/sodipodi-0.dtd"
   xmlns:inkscape="http://www.inkscape.org/namespaces/inkscape"
   version="1.1"
   id="图层_1"
   x="0px"
   y="0px"
   viewBox="0 0 128 128"
   style="enable-background:new 0 0 128 128;"
   xml:space="preserve"
   inkscape:version="0.91 r13725"
   sodipodi:docname="1f612.svg"><metadata
     id="metadata39"><rdf:RDF><cc:Work
         rdf:about=""><dc:format>image/svg+xml</dc:format><dc:type
           rdf:resource="http://purl.org/dc/dcmitype/StillImage" /><dc:title></dc:title></cc:Work></rdf:RDF></metadata><defs
     id="defs37" /><sodipodi:namedview
     pagecolor="#ffffff"
     bordercolor="#666666"
     borderopacity="1"
     objecttolerance="10"
     gridtolerance="10"
     guidetolerance="10"
     inkscape:pageopacity="0"
     inkscape:pageshadow="2"
     inkscape:window-width="1024"
     inkscape:window-height="717"
     id="namedview35"
     showgrid="false"
     inkscape:zoom="7.375"
     inkscape:cx="64"
     inkscape:cy="58.576271"
     inkscape:window-x="0"
     inkscape:window-y="0"
     inkscape:window-maximized="1"
     inkscape:current-layer="g7" /><g
     id="g3"><path
       style="fill:#FCC21B;"
       d="M64,9.9C1.99,9.9,0.51,79.42,0.51,93.19c0,13.76,28.43,24.91,63.49,24.91   c35.07,0,63.49-11.16,63.49-24.91C127.49,79.42,126.02,9.9,64,9.9z"
       id="path5" /></g><g
     id="g7"><g
       id="g9"><g
         id="g15"><path
           id="path19"
           style="fill:#2f2f2f"
           d="m 56.63,56.2 c 0,-0.03 0.01,-0.06 0.01,-0.09 0.03,-0.17 0.05,-0.35 0.05,-0.53 0,-1.66 -1.34,-3 -3,-3 l -13.03,0 c -0.12,0.67 -0.18,1.37 -0.17,2.09 0.01,1.4 0.28,2.72 0.73,3.91 l 12.47,0 c 1.45,0.01 2.66,-1.01 2.94,-2.38 z M 50.028983,54.79339 41.22,58.59 c 1.29,3.39 4.17,5.74 7.48,5.7 4.01,-0.04 7.3,-3.53 7.92,-8.09 -0.27,1.37 -5.259427,-1.980516 -6.591017,-1.40661 z M 40.66,52.59 l -11.24,0 c -1.66,0 -3,1.34 -3,3 0,1.66 1.34,3 3,3 l 11.81,0 c -0.46,-1.2 -0.72,-2.52 -0.73,-3.91 -0.02,-0.72 0.04,-1.42 0.16,-2.09 z m 15.98,3.53 c 0,0.03 -0.01,0.06 -0.01,0.09 0,-0.03 0,-0.06 0.01,-0.09 z"
           inkscape:connector-curvature="0"
           sodipodi:nodetypes="ccsscccccscccscssscccccc" /></g></g><g
       id="g21"><path
         style="fill:#2F2F2F;"
         d="M101.53,56.12c0,0.03-0.01,0.06-0.01,0.09C101.53,56.18,101.52,56.15,101.53,56.12z"
         id="path23" /><g
         id="g27"><path
           style="fill:#2f2f2f"
           d="m 85.550781,52.580078 c -5.76e-4,0.0032 -0.0014,0.0065 -0.002,0.0098 l -11.238281,0 c -1.66,0 -3,1.34 -3,3 0,1.66 1.34,3 3,3 l 11.798828,0 c 1.29,3.39 4.170469,5.739219 7.480469,5.699218 3.986172,-0.03976 7.258456,-3.489586 7.906246,-8.009765 0.006,-0.02733 0.0178,-0.05246 0.0234,-0.08008 0,-0.03 0.01,-0.05984 0.01,-0.08984 0.03,-0.17 0.0508,-0.349297 0.0508,-0.529297 0,-1.66 -1.34,-3 -3.000002,-3 z m 14.521489,5.615234 c -0.43934,0.251543 -0.948442,0.394532 -1.492192,0.394532 l -12.460937,0 c -0.0012,-0.0032 -0.0027,-0.0065 -0.0039,-0.0098 l 13.14281,0.813559 c 0.542828,0.0037 0.374867,-0.949039 0.814226,-1.198325 z"
           id="path31"
           inkscape:connector-curvature="0"
           sodipodi:nodetypes="ccssscccccssccscccc" /></g></g></g><path
     style="fill:none;stroke:#2F2F2F;stroke-width:6;stroke-linecap:round;stroke-miterlimit:10;"
     d="M50.02,85.11  c7.34-6.96,20.62-6.96,27.95,0"
     id="path33" /></svg>