<?xml version="1.0" encoding="UTF-8" standalone="no"?>
<!-- Generator: Adobe Illustrator 19.2.1, SVG Export Plug-In . SVG Version: 6.00 Build 0)  -->

<svg
   xmlns:dc="http://purl.org/dc/elements/1.1/"
   xmlns:cc="http://creativecommons.org/ns#"
   xmlns:rdf="http://www.w3.org/1999/02/22-rdf-syntax-ns#"
   xmlns:svg="http://www.w3.org/2000/svg"
   xmlns="http://www.w3.org/2000/svg"
   xmlns:xlink="http://www.w3.org/1999/xlink"
   xmlns:sodipodi="http://sodipodi.sourceforge.net/DTD/sodipodi-0.dtd"
   xmlns:inkscape="http://www.inkscape.org/namespaces/inkscape"
   version="1.1"
   x="0px"
   y="0px"
   viewBox="0 0 128 128"
   style="enable-background:new 0 0 128 128;"
   xml:space="preserve"
   id="svg2"
   inkscape:version="0.91 r13725"
   sodipodi:docname="1f64f.svg"><metadata
     id="metadata158"><rdf:RDF><cc:Work
         rdf:about=""><dc:format>image/svg+xml</dc:format><dc:type
           rdf:resource="http://purl.org/dc/dcmitype/StillImage" /><dc:title></dc:title></cc:Work></rdf:RDF></metadata><defs
     id="defs156" /><sodipodi:namedview
     pagecolor="#ffffff"
     bordercolor="#666666"
     borderopacity="1"
     objecttolerance="10"
     gridtolerance="10"
     guidetolerance="10"
     inkscape:pageopacity="0"
     inkscape:pageshadow="2"
     inkscape:window-width="1024"
     inkscape:window-height="717"
     id="namedview154"
     showgrid="false"
     inkscape:zoom="2.6074563"
     inkscape:cx="63.431811"
     inkscape:cy="86.351554"
     inkscape:window-x="0"
     inkscape:window-y="0"
     inkscape:window-maximized="1"
     inkscape:current-layer="svg2" /><rect
     style="opacity:1;fill:#fbc11b;fill-opacity:1;stroke:none;stroke-opacity:1"
     id="rect4180"
     width="9.7627115"
     height="94.915253"
     x="59.389832"
     y="4.8813558" /><g
     id="Layer_2"><path
       style="fill:#FCC21B;"
       d="M66,45.26L66,5.7c0-1.15,0.28-2.3,0.92-3.25c2.11-3.14,6.61-3.26,8.9-0.34l0.36,0.46   c0.53,0.68,0.9,1.47,1.07,2.32l2.97,32.88c1.15,14.81,3.85,18.31,7.12,34c1.62,7.77-12.75,32.25-12.75,32.25s-5.93,3.04-5.76-11.29   C68.89,87.59,66,45.26,66,45.26z"
       id="path66" /><path
       style="fill:#FCC21B;"
       d="M62,45.26L62,5.7c0-1.15-0.28-2.3-0.92-3.25c-2.11-3.14-6.61-3.26-8.9-0.34l-0.36,0.46   c-0.53,0.68-0.9,1.47-1.07,2.32l-2.97,32.88c-1.15,14.81-3.85,18.31-7.12,34c-1.62,7.77,12.75,32.25,12.75,32.25   s5.93,3.04,5.76-11.29C59.11,87.59,62,45.26,62,45.26z"
       id="path68" /><path
       style="fill:#FCC21B;"
       d="M87.57,74.38c0,0,9,14.75,15.75,18.38s-14.75,32.88-14.75,32.88s-11.58-19.44-15.21-19.69"
       id="path70" /><path
       style="fill:#FCC21B;"
       d="M73.92,105.3c0,0-8.04-0.61-7.88-13.05C66.21,79.82,66,51.01,66,51.01V16.52   c0-1.07,0.41-2.11,1.18-2.95l0,0c0.41-0.46,0.9-0.83,1.43-1.11c3.12-1.68,6.99,0.17,8.03,3.55l0.62,11.55"
       id="path72" /><path
       style="fill:#FCC21B;"
       d="M77.26,28c0-8.85-11.4-8.17-11.26,0.03V58.3l0,36.19c-0.17,10.91,1.73,10.18,1.73,10.18l6.19,1.26   c6.4,0.01,11.96-4.39,13.42-10.62l0.77-3.29c2.75-23.5-5.78-39.79-5.78-39.79c-4-11.42-5.06-22.02-5.06-24.67"
       id="path74" /><path
       style="fill:#FCC21B;"
       d="M50.74,28c0-8.85,11.4-8.17,11.26,0.03V58.3l0,36.19c0.17,10.91-7.92,11.45-7.92,11.45h0   c-6.4,0.01-11.96-4.39-13.42-10.62l-0.77-3.29c-2.75-23.5,5.78-39.79,5.78-39.79c4-11.42,5.06-22.02,5.06-24.67"
       id="path76" /><path
       style="fill:#FCC21B;"
       d="M40.43,74.38c0,0-9,14.75-15.75,18.38s14.75,32.88,14.75,32.88s11.58-19.44,15.21-19.69"
       id="path78" /><polygon
       style="fill:#4285F4;"
       points="106.42,90.83 80.46,118.67 88.65,128 128,128 128,108.59  "
       id="polygon80" /><path
       style="fill:#FCC21B;"
       d="M61.53,103.09c0,0,0.59,1.59,0.43-10.84C61.79,79.82,62,51.01,62,51.01V16.52   c0-1.07-0.41-2.11-1.18-2.95l0,0c-0.41-0.46-0.9-0.83-1.43-1.11c-3.12-1.68-6.99,0.17-8.03,3.55l-0.62,11.55"
       id="path82" /><g
       id="g84"><path
         style="fill:#FCC21B;"
         d="M74.47,14.28C71.24,9.55,64,11.46,64,20"
         id="path86" /></g><g
       id="g90"><path
         style="fill:#FCC21B;"
         d="M51.39,3.19c2.49-4.88,11.4-2.31,12.67,4.88"
         id="path92" /></g><g
       id="g96"><path
         style="fill:#FCC21B;"
         d="M76.54,3.19c-2.49-4.88-11.4-2.31-12.67,4.88"
         id="path98" /></g><path
       style="fill:#FCC21B;stroke:#E39E49;stroke-width:4;stroke-linecap:round;stroke-miterlimit:10;"
       d="M64,10"
       id="path102" /><g
       id="g104"><path
         style="fill:#FCC21B;"
         d="M64,20c0-8.66-7.44-10.5-10.6-5.53"
         id="path106" /></g><polygon
       style="fill:#4285F4;"
       points="22.12,90.83 48.35,118.67 40.43,128 0,128 0,108.61  "
       id="polygon110" /><path
       style="fill:#FCC21B;"
       d="M85.27,105.93"
       id="path112" /><g
       id="g114"><defs
         id="defs116"><path
           id="SVGID_5_"
           d="M40.43,74.38c0,0-9,14.75-15.75,18.38s14.75,32.88,14.75,32.88s11.58-19.44,15.21-19.69" /></defs><clipPath
         id="SVGID_6_"><use
           xlink:href="#SVGID_5_"
           style="overflow:visible;"
           id="use120" /></clipPath></g><g
       id="g122"><defs
         id="defs124"><path
           id="SVGID_7_"
           d="M87.57,74.38c0,0,9,14.75,15.75,18.38s-14.75,32.88-14.75,32.88s-11.58-19.44-15.21-19.69" /></defs><clipPath
         id="SVGID_8_"><use
           xlink:href="#SVGID_7_"
           style="overflow:visible;"
           id="use128" /></clipPath></g><g
       id="g130"><path
         style="fill:#FCC21B;"
         d="M64,39c0-9.39-8.74-10.76-11.3-4.13"
         id="path132" /></g><g
       id="g136"><path
         style="fill:#FCC21B;"
         d="M75.55,35.61C73.37,28.15,64,29.28,64,39"
         id="path138" /></g><g
       id="g142"><path
         style="fill:#FCC21B;"
         d="M51.87,106.09c0,0,11.74,2.79,12.06-11.14"
         id="path144" /><path
         style="fill:#E39E49;"
         d="M51.87,106.09c0,0,0.3,0.04,0.83,0.05c0.26,0.01,0.58-0.01,0.94-0.02    c0.36-0.04,0.77-0.05,1.21-0.14c0.44-0.07,0.9-0.17,1.38-0.32c0.48-0.12,0.96-0.35,1.44-0.56c0.46-0.27,0.94-0.5,1.34-0.87    c0.45-0.3,0.78-0.74,1.14-1.12c0.32-0.42,0.59-0.88,0.84-1.33c0.18-0.5,0.43-0.94,0.54-1.43c0.11-0.49,0.22-0.96,0.32-1.4    c0.04-0.47,0.08-0.91,0.11-1.32c0.05-0.4,0.05-0.78,0.02-1.12c-0.01-0.34-0.02-0.63-0.03-0.87c-0.02-0.48-0.02-0.75-0.02-0.75    l-0.01-0.18c-0.04-1.11,0.84-2.05,1.95-2.08c1.11-0.04,2.05,0.84,2.08,1.95c0,0.13-0.01,0.28-0.03,0.41c0,0-0.06,0.33-0.15,0.9    c-0.05,0.28-0.11,0.63-0.18,1.02c-0.06,0.39-0.15,0.83-0.31,1.32c-0.15,0.48-0.31,0.99-0.47,1.54c-0.23,0.54-0.5,1.09-0.77,1.66    c-0.28,0.57-0.71,1.1-1.07,1.65c-0.44,0.51-0.91,1.02-1.42,1.45c-0.55,0.4-1.08,0.82-1.69,1.08c-0.57,0.32-1.19,0.49-1.77,0.67    c-0.59,0.12-1.16,0.26-1.7,0.28c-0.54,0.05-1.05,0.05-1.51,0.03c-0.46-0.01-0.89-0.08-1.26-0.12c-0.37-0.07-0.69-0.11-0.95-0.18    C52.15,106.2,51.87,106.09,51.87,106.09z"
         id="path146" /></g><g
       id="g148"><path
         style="fill:#FCC21B;"
         d="M76.17,106.05c0,0-11.72,2.87-12.14-11.06"
         id="path150" /><path
         style="fill:#E39E49;"
         d="M76.17,106.05c0,0-0.28,0.1-0.8,0.22c-0.26,0.07-0.58,0.12-0.95,0.19    c-0.37,0.04-0.79,0.11-1.26,0.13c-0.47,0.03-0.97,0.03-1.51-0.02c-0.54-0.02-1.11-0.15-1.7-0.27c-0.58-0.18-1.2-0.34-1.77-0.66    c-0.61-0.25-1.14-0.67-1.7-1.07c-0.51-0.43-0.99-0.93-1.43-1.44c-0.36-0.55-0.8-1.08-1.08-1.64c-0.27-0.57-0.55-1.12-0.78-1.66    c-0.17-0.55-0.33-1.06-0.48-1.54c-0.17-0.48-0.26-0.92-0.32-1.32c-0.07-0.39-0.13-0.74-0.19-1.02c-0.1-0.57-0.16-0.9-0.16-0.9    c-0.19-1.1,0.54-2.14,1.63-2.34c1.1-0.19,2.14,0.54,2.34,1.63c0.02,0.13,0.03,0.26,0.03,0.39l-0.01,0.19c0,0-0.01,0.27-0.02,0.75    C66,95.92,66,96.22,65.99,96.56c-0.02,0.34-0.03,0.72,0.03,1.12c0.04,0.41,0.08,0.85,0.12,1.31c0.1,0.45,0.22,0.92,0.33,1.4    c0.12,0.49,0.37,0.92,0.55,1.42c0.25,0.45,0.53,0.9,0.85,1.32c0.36,0.38,0.7,0.82,1.15,1.11c0.4,0.36,0.89,0.6,1.35,0.86    c0.48,0.2,0.96,0.43,1.44,0.55c0.48,0.15,0.94,0.24,1.38,0.31c0.44,0.08,0.84,0.1,1.21,0.13c0.36,0.01,0.68,0.03,0.94,0.01    C75.87,106.1,76.17,106.05,76.17,106.05z"
         id="path152" /></g><path
       style="fill:#E39E49;"
       d="M 56.371094 0.03515625 C 56.229844 0.03265625 56.089219 0.035546875 55.949219 0.060546875 C 55.679219 0.090546875 55.410625 0.13015625 55.140625 0.16015625 C 54.880625 0.24015625 54.630859 0.31085937 54.380859 0.38085938 C 54.130859 0.44085938 53.909219 0.55992188 53.699219 0.66992188 C 53.499219 0.78992188 53.279375 0.85976562 53.109375 1.0097656 C 52.769375 1.2897656 52.440469 1.5007812 52.230469 1.8007812 C 52.010469 2.0807813 51.800703 2.2895313 51.720703 2.5195312 C 51.510703 2.9495312 51.390625 3.1894531 51.390625 3.1894531 C 51.390625 3.1894531 51.559141 2.979375 51.869141 2.609375 C 51.999141 2.409375 52.249766 2.2607812 52.509766 2.0507812 C 52.729766 1.8407812 53.089922 1.7207812 53.419922 1.5507812 C 53.589922 1.4607813 53.800234 1.450625 53.990234 1.390625 C 54.180234 1.340625 54.379609 1.2692969 54.599609 1.2792969 C 54.809609 1.2592969 55.03 1.2502344 55.25 1.2402344 C 55.47 1.2702344 55.699688 1.2903125 55.929688 1.3203125 C 56.159687 1.3303125 56.389141 1.4207031 56.619141 1.4707031 C 56.849141 1.5307031 57.080781 1.5794531 57.300781 1.6894531 C 57.520781 1.7894531 57.740938 1.8704687 57.960938 1.9804688 L 58.589844 2.3496094 C 58.809844 2.4496094 58.989688 2.6395313 59.179688 2.7695312 C 59.369687 2.9195312 59.560703 3.0504687 59.720703 3.2304688 C 59.880703 3.3904687 60.050938 3.5509375 60.210938 3.7109375 C 60.350938 3.8809375 60.479141 4.0604688 60.619141 4.2304688 C 60.899141 4.5504688 61.069297 4.9495312 61.279297 5.2695312 C 61.469297 5.6095312 61.570937 5.9597656 61.710938 6.2597656 C 61.810938 6.5697656 61.869453 6.8808594 61.939453 7.1308594 C 61.974256 7.227533 61.984937 7.3187862 61.996094 7.4101562 C 61.970486 7.4829449 61.890625 7.7109375 61.890625 7.7109375 C 61.840625 7.8509375 61.809063 8.0101562 61.789062 8.1601562 C 61.745269 8.5652504 61.828378 8.9546034 62 9.2929688 L 62 12.164062 C 61.764455 12.007415 61.521663 11.859839 61.279297 11.720703 C 60.699297 11.460703 60.119766 11.230391 59.509766 11.150391 C 59.219766 11.080391 58.909141 11.090078 58.619141 11.080078 L 58.189453 11.080078 L 57.769531 11.150391 C 57.199531 11.200391 56.700234 11.419844 56.240234 11.589844 C 55.810234 11.839844 55.380078 12.039844 55.080078 12.339844 C 54.920078 12.479844 54.759141 12.610469 54.619141 12.730469 C 54.489141 12.870469 54.379531 13.010625 54.269531 13.140625 C 54.049531 13.390625 53.879531 13.620078 53.769531 13.830078 C 53.529531 14.240078 53.400391 14.470703 53.400391 14.470703 C 53.400391 14.470703 53.580391 14.279453 53.900391 13.939453 C 54.040391 13.769453 54.259531 13.590156 54.519531 13.410156 C 54.649531 13.310156 54.779922 13.209375 54.919922 13.109375 C 55.079922 13.029375 55.240156 12.949375 55.410156 12.859375 C 55.730156 12.659375 56.139297 12.590938 56.529297 12.460938 C 56.949297 12.410937 57.370547 12.330391 57.810547 12.400391 L 58.130859 12.419922 L 58.449219 12.509766 C 58.659219 12.569766 58.870312 12.600703 59.070312 12.720703 C 59.490312 12.870703 59.839453 13.140391 60.189453 13.400391 C 60.499453 13.720391 60.809297 14.010625 61.029297 14.390625 C 61.159297 14.560625 61.269609 14.739453 61.349609 14.939453 C 61.429609 15.129453 61.529375 15.31 61.609375 15.5 C 61.719375 15.91 61.889688 16.260391 61.929688 16.650391 C 61.948039 16.789862 61.974877 16.922088 62 17.054688 L 62 20.009766 C 61.98 20.159766 61.970469 20.320469 61.980469 20.480469 C 61.983418 20.516845 61.995166 20.550185 62 20.585938 L 62 31.070312 C 61.811036 30.933381 61.616628 30.805541 61.400391 30.710938 C 61.080391 30.570937 60.799219 30.369062 60.449219 30.289062 C 60.109219 30.199062 59.789219 30.079297 59.449219 30.029297 C 59.109219 29.999297 58.769453 29.979219 58.439453 29.949219 C 58.099453 29.979219 57.780938 30.020547 57.460938 30.060547 C 57.150937 30.100547 56.850547 30.240313 56.560547 30.320312 C 56.260547 30.390312 56 30.559219 55.75 30.699219 C 55.49 30.839219 55.250781 30.970156 55.050781 31.160156 C 54.850781 31.340156 54.650937 31.509922 54.460938 31.669922 C 54.300938 31.869922 54.15 32.050469 54 32.230469 C 53.69 32.570469 53.519844 32.959531 53.339844 33.269531 C 53.139844 33.579531 53.040937 33.869141 52.960938 34.119141 C 52.790937 34.609141 52.689453 34.880859 52.689453 34.880859 C 52.689453 34.880859 52.839375 34.629219 53.109375 34.199219 C 53.239375 33.989219 53.400625 33.730469 53.640625 33.480469 C 53.880625 33.220469 54.099219 32.909922 54.449219 32.669922 C 54.609219 32.539922 54.779219 32.409531 54.949219 32.269531 C 55.149219 32.169531 55.350781 32.070937 55.550781 31.960938 C 55.740781 31.830938 55.969219 31.780938 56.199219 31.710938 C 56.429219 31.640938 56.640625 31.550781 56.890625 31.550781 C 57.130625 31.540781 57.359609 31.48 57.599609 31.5 C 57.829609 31.53 58.070547 31.550078 58.310547 31.580078 L 58.990234 31.789062 C 59.210234 31.879062 59.409141 32.019141 59.619141 32.119141 C 59.839141 32.199141 59.989688 32.409062 60.179688 32.539062 C 60.369688 32.669063 60.520156 32.859063 60.660156 33.039062 C 60.980156 33.359063 61.180391 33.800156 61.400391 34.160156 C 61.550391 34.580156 61.740313 34.959141 61.820312 35.369141 C 61.880549 35.721953 61.97628 36.047599 62 36.349609 L 62 39.197266 C 61.995813 39.269919 61.985044 39.342686 61.990234 39.410156 C 61.9914 39.431713 61.998169 39.451301 62 39.472656 L 62 98 L 64 96 L 66 98 L 66 39.476562 C 66.025711 39.282418 66.033358 39.084712 66 38.880859 L 66 38.869141 L 66 36.378906 C 66.022842 36.012104 66.154382 35.666874 66.220703 35.25 C 66.330703 34.84 66.509219 34.429766 66.699219 34.009766 C 66.819219 33.819766 66.940547 33.619922 67.060547 33.419922 C 67.170547 33.199922 67.359766 33.070859 67.509766 32.880859 C 67.659766 32.680859 67.839062 32.530391 68.039062 32.400391 C 68.229063 32.250391 68.420391 32.089766 68.650391 32.009766 C 69.080391 31.769766 69.570547 31.660078 70.060547 31.580078 C 70.310547 31.570078 70.560547 31.570547 70.810547 31.560547 C 71.060547 31.600547 71.310781 31.649453 71.550781 31.689453 C 71.800781 31.729453 72.02 31.859453 72.25 31.939453 C 72.49 32.009453 72.690625 32.139297 72.890625 32.279297 C 73.080625 32.419297 73.300703 32.529688 73.470703 32.679688 C 73.630703 32.839688 73.799219 32.990625 73.949219 33.140625 C 74.299219 33.420625 74.469219 33.780547 74.699219 34.060547 C 74.929219 34.330547 75.059687 34.629141 75.179688 34.869141 C 75.409688 35.339141 75.550781 35.609375 75.550781 35.609375 C 75.550781 35.609375 75.469375 35.320078 75.359375 34.830078 C 75.289375 34.570078 75.230781 34.259922 75.050781 33.919922 C 74.880781 33.579922 74.760937 33.139531 74.460938 32.769531 C 74.330937 32.569531 74.189063 32.360391 74.039062 32.150391 C 73.889062 31.940391 73.670469 31.760547 73.480469 31.560547 C 73.280469 31.350547 73.070547 31.15 72.810547 31 C 72.560547 30.84 72.309531 30.639766 72.019531 30.509766 C 71.719531 30.389766 71.419375 30.260625 71.109375 30.140625 C 70.789375 30.070625 70.449375 30.009219 70.109375 29.949219 C 69.419375 29.899219 68.69 29.930859 68 30.130859 C 67.63 30.190859 67.310469 30.35 66.980469 30.5 C 66.640469 30.64 66.319063 30.809297 66.039062 31.029297 C 66.02662 31.038628 66.012626 31.047381 66 31.056641 L 66 20.666016 C 66.055825 20.415312 66.066086 20.15039 66.019531 19.880859 L 66.019531 19.869141 C 66.019531 19.869141 66.002245 19.771593 66 19.759766 L 66 17.035156 C 66.018393 16.931879 66.03924 16.833234 66.050781 16.720703 C 66.080781 16.330703 66.249609 15.990078 66.349609 15.580078 C 66.419609 15.390078 66.519609 15.209531 66.599609 15.019531 C 66.679609 14.819531 66.780156 14.630703 66.910156 14.470703 C 67.030156 14.310703 67.139297 14.099219 67.279297 13.949219 L 67.720703 13.480469 C 68.050703 13.210469 68.400781 12.929531 68.800781 12.769531 C 68.990781 12.649531 69.200156 12.599063 69.410156 12.539062 C 69.620156 12.469063 69.829063 12.410156 70.039062 12.410156 C 70.469062 12.330156 70.890781 12.389922 71.300781 12.419922 C 71.690781 12.529922 72.099922 12.579531 72.419922 12.769531 C 72.589922 12.849531 72.750156 12.93 72.910156 13 C 73.060156 13.09 73.180547 13.179531 73.310547 13.269531 C 73.570547 13.439531 73.799219 13.609297 73.949219 13.779297 C 74.279219 14.099297 74.470703 14.279297 74.470703 14.279297 C 74.470703 14.279297 74.329844 14.050391 74.089844 13.650391 C 73.989844 13.450391 73.810078 13.240234 73.580078 12.990234 C 73.470078 12.860234 73.350703 12.719844 73.220703 12.589844 C 73.070703 12.469844 72.919766 12.350703 72.759766 12.220703 C 72.449766 11.930703 72.019844 11.759531 71.589844 11.519531 C 71.129844 11.359531 70.630313 11.170859 70.070312 11.130859 C 69.790312 11.080859 69.510703 11.079609 69.220703 11.099609 C 68.930703 11.109609 68.629844 11.119219 68.339844 11.199219 C 67.739844 11.289219 67.169375 11.530781 66.609375 11.800781 L 66 12.1875 L 66 9.0996094 C 66.166836 8.6676598 66.194644 8.1801646 66.029297 7.7109375 C 66.029297 7.7109375 66.002066 7.6329521 66 7.6269531 L 66 7.1035156 C 66.06629 6.860137 66.124962 6.5759037 66.220703 6.2695312 C 66.360703 5.9795312 66.470391 5.6192969 66.650391 5.2792969 C 66.860391 4.9592969 67.030312 4.5602344 67.320312 4.2402344 C 67.450312 4.0802344 67.580469 3.8907031 67.730469 3.7207031 C 67.890469 3.5607031 68.050703 3.4002344 68.220703 3.2402344 C 68.380703 3.0602344 68.569766 2.9192969 68.759766 2.7792969 C 68.959766 2.6492969 69.139609 2.459375 69.349609 2.359375 L 69.980469 1.9902344 C 70.190469 1.8802344 70.420625 1.7992188 70.640625 1.6992188 C 70.860625 1.5892187 71.090312 1.5404688 71.320312 1.4804688 C 71.550313 1.4304688 71.779766 1.3400781 72.009766 1.3300781 C 72.239766 1.3000781 72.469453 1.27 72.689453 1.25 C 72.909453 1.27 73.129844 1.2790625 73.339844 1.2890625 C 73.559844 1.2890625 73.749219 1.3503906 73.949219 1.4003906 C 74.139219 1.4503906 74.359531 1.4705469 74.519531 1.5605469 C 74.849531 1.7305469 75.209688 1.8505469 75.429688 2.0605469 C 75.679688 2.2605469 75.930547 2.399375 76.060547 2.609375 C 76.370547 2.979375 76.539062 3.1894531 76.539062 3.1894531 C 76.539063 3.1894531 76.419219 2.9392969 76.199219 2.5292969 C 76.119219 2.2992969 75.909453 2.0905469 75.689453 1.8105469 C 75.479453 1.5105469 75.150547 1.2995313 74.810547 1.0195312 C 74.640547 0.86953125 74.430703 0.7996875 74.220703 0.6796875 C 74.000703 0.5696875 73.789062 0.450625 73.539062 0.390625 C 73.289063 0.320625 73.039297 0.23992188 72.779297 0.16992188 C 72.519297 0.13992187 72.250703 0.1003125 71.970703 0.0703125 C 71.690703 0.0103125 71.409141 0.05078125 71.119141 0.05078125 C 70.829141 0.05078125 70.54 0.059140625 70.25 0.11914062 C 69.96 0.16914063 69.659141 0.20929687 69.369141 0.27929688 L 68.5 0.5390625 C 68.2 0.6090625 67.940156 0.77085938 67.660156 0.88085938 C 67.380156 1.0008594 67.099609 1.1192969 66.849609 1.2792969 C 66.589609 1.4392969 66.330078 1.59 66.080078 1.75 C 65.840078 1.93 65.610859 2.1207812 65.380859 2.3007812 C 64.900859 2.6507813 64.540391 3.1002344 64.150391 3.4902344 C 64.080952 3.5693171 64.025069 3.6516809 63.960938 3.7324219 C 63.896573 3.65136 63.839242 3.5696273 63.769531 3.4902344 C 63.379531 3.1002344 63.019062 2.6507813 62.539062 2.3007812 C 62.309063 2.1207813 62.079844 1.92 61.839844 1.75 C 61.589844 1.6 61.330312 1.4392969 61.070312 1.2792969 C 60.820312 1.1092969 60.539766 0.98914062 60.259766 0.86914062 C 59.979766 0.75914062 59.719922 0.60929687 59.419922 0.52929688 L 58.550781 0.26953125 C 58.260781 0.19953125 57.959922 0.159375 57.669922 0.109375 C 57.389922 0.049375 57.090781 0.0390625 56.800781 0.0390625 C 56.655781 0.0440625 56.512344 0.03765625 56.371094 0.03515625 z "
       id="path64" /></g><ellipse
     style="opacity:1;fill:#fbc11b;fill-opacity:1;stroke:none;stroke-opacity:1"
     id="path4192"
     cx="61.169491"
     cy="8.3389835"
     rx="0.86440676"
     ry="2.2033896" /><ellipse
     ry="2.2033896"
     rx="0.86440676"
     cy="8.3728819"
     cx="66.830505"
     id="ellipse4194"
     style="opacity:1;fill:#fbc11b;fill-opacity:1;stroke:none;stroke-opacity:1" /></svg>