<?xml version="1.0" encoding="UTF-8" standalone="no"?>
<!-- Generator: Adobe Illustrator 19.2.1, SVG Export Plug-In . SVG Version: 6.00 Build 0)  -->

<svg
   xmlns:dc="http://purl.org/dc/elements/1.1/"
   xmlns:cc="http://creativecommons.org/ns#"
   xmlns:rdf="http://www.w3.org/1999/02/22-rdf-syntax-ns#"
   xmlns:svg="http://www.w3.org/2000/svg"
   xmlns="http://www.w3.org/2000/svg"
   xmlns:xlink="http://www.w3.org/1999/xlink"
   xmlns:sodipodi="http://sodipodi.sourceforge.net/DTD/sodipodi-0.dtd"
   xmlns:inkscape="http://www.inkscape.org/namespaces/inkscape"
   version="1.1"
   id="图层_1"
   x="0px"
   y="0px"
   viewBox="0 0 128 128"
   style="enable-background:new 0 0 128 128;"
   xml:space="preserve"
   inkscape:version="0.91 r13725"
   sodipodi:docname="1f937-1f3fd-200d-2640-fe0f.svg"><metadata
     id="metadata304"><rdf:RDF><cc:Work
         rdf:about=""><dc:format>image/svg+xml</dc:format><dc:type
           rdf:resource="http://purl.org/dc/dcmitype/StillImage" /><dc:title></dc:title></cc:Work></rdf:RDF></metadata><defs
     id="defs302" /><sodipodi:namedview
     pagecolor="#ffffff"
     bordercolor="#666666"
     borderopacity="1"
     objecttolerance="10"
     gridtolerance="10"
     guidetolerance="10"
     inkscape:pageopacity="0"
     inkscape:pageshadow="2"
     inkscape:window-width="1024"
     inkscape:window-height="717"
     id="namedview300"
     showgrid="false"
     inkscape:zoom="4"
     inkscape:cx="64"
     inkscape:cy="21.372881"
     inkscape:window-x="0"
     inkscape:window-y="0"
     inkscape:window-maximized="1"
     inkscape:current-layer="图层_1" /><path
     id="XMLID_1366_"
     style="fill:#6D4C41;"
     d="M30.27,57.93c0,0,3.8,38.44,10.52,55.83c3.31,8.57,6.9,13.82,13.67,7.61l28.33-3.08  c7.85,4.85,12.55-1.01,13.23-10.21c1.61-21.73-1.82-56.46-1.82-56.46L30.27,57.93z" /><g
     id="g248"><path
       style="fill:#651fff"
       d="M 63.990234 85.900391 C 58.250234 86.010391 52.509375 86.220703 50.109375 86.220703 C 35.389375 86.220703 24.179688 100.04055 24.179688 116.81055 L 24.179688 128 C 24.179687 127.95 25.810391 127.99023 27.150391 127.99023 C 31.350391 128.00023 35.189219 125.30039 38.949219 120.40039 L 38.949219 128 L 63.990234 128 L 89.042969 128 L 89.042969 120.40039 C 92.804813 125.30039 96.645598 128.00023 100.84766 127.99023 C 102.18832 127.99023 103.82031 127.95 103.82031 128 L 103.82031 116.81055 C 103.82031 100.04055 92.604175 86.220703 77.876953 86.220703 C 75.475776 86.220703 69.73305 86.010391 63.990234 85.900391 z "
       id="path250" /><g
       id="g252"><g
         id="g254"><path
           id="XMLID_1375_"
           style="fill:#BF8F68;"
           d="M107.68,75.67c3.54-0.69,5.67-1.75,9.57-4.84c0.06,0.16,6.99-5.96,9.93-11.38     c1.04-1.92-0.44-3.74-1.62-2.42c-3.03,4.09-8.77,8.62-8.93,8.34l0,0c-0.7-2.44-3.66-1.12-5.2-0.16     c-2.35,1.54-4.81,2.79-7.34,3.73C99.68,70.37,103.15,76.31,107.68,75.67z" /><path
           style="fill:#BF8F68;"
           d="M104.14,68.93c0,0-1.95,0.38-2.61,2.87c-0.23,0.89-0.21,2.04-0.14,3.56l-0.02,1.78l5.53,1.92     l4.76-1.12c0,0,0.92-3.68,2.88-5.1l-4.89-1.28L104.14,68.93z"
           id="path257" /></g><g
         id="g259"><defs
           id="defs261"><path
             id="XMLID_1374_"
             d="M102.77,128c6.51,0,11.76-5.35,11.63-11.86l-0.26-39.47c-0.02-0.73-0.6-1.33-1.33-1.38l-11.74-0.68      c-0.76-0.05-1.43,0.5-1.52,1.26L94.11,118C93.34,123.27,97.43,128,102.77,128L102.77,128z" /></defs><use
           xlink:href="#XMLID_1374_"
           style="overflow:visible;fill:#651FFF;"
           id="use264" /><clipPath
           id="XMLID_2_"><use
             xlink:href="#XMLID_1374_"
             style="overflow:visible;"
             id="use267" /></clipPath></g></g><polygon
       id="XMLID_1363_"
       style="opacity:0.54;"
       points="92.8,106.95 95.23,109.71 97.09,96.12 94.67,93.36  " /></g><ellipse
     id="XMLID_1365_"
     transform="matrix(0.9952 -0.0983 0.0983 0.9952 -5.0641 6.3905)"
     style="fill:#6D4C41;"
     cx="62.31"
     cy="54.58"
     rx="32.12"
     ry="28.87" /><path
     id="XMLID_1361_"
     style="fill:#99674F;"
     d="M64.41,102.06L64.41,102.06c-4.82,0-8.64-3.91-8.64-8.73V85.8h17.28v7.53  C73.05,98.16,69.23,102.06,64.41,102.06z" /><g
     id="g274"><path
       id="XMLID_1360_"
       style="fill:#BF8F68;"
       d="M57.66,33.44c-19.37,3.82-21.48,19.84-17.31,40.94   c4.16,21.1,20.46,24.57,29.88,22.71c9.41-1.86,23.17-11.26,19.01-32.36C85.07,43.64,77.03,29.62,57.66,33.44z" /><path
       id="XMLID_1357_"
       style="fill:#6D4C41;"
       d="M68.32,48.53c-2.09,2.98-12.61,17.04-29.64,23.53l-4.67-23.64   c0,0,4.63-16.6,22.89-20.21s28.93,10.37,28.93,10.37l4.59,23.26c0,0-12.87-2.23-21.31-13.32C68.91,48.26,68.51,48.26,68.32,48.53z" /><path
       id="XMLID_1346_"
       style="fill:#99674F;"
       d="M69.57,77.16c-1.15,0.59-2.39,1.01-3.37,1.2c-0.98,0.19-2.28,0.27-3.57,0.17   c-0.55-0.04-0.66,0.49-0.41,0.78c0.52,0.61,2.35,1.67,4.42,1.27c2.06-0.41,3.35-2.09,3.6-2.85C70.37,77.36,70.07,76.9,69.57,77.16z   " /><path
       id="XMLID_1345_"
       style="fill:#49362E;"
       d="M71.01,87.59c0.28,1.44-0.94,1.99-2.53,2.31c-1.59,0.31-2.94,0.23-3.21-1.17   c-0.29-1.48,0.81-2.65,2.4-2.96S70.71,86.08,71.01,87.59z" /><path
       id="XMLID_1344_"
       style="fill:#49362E;"
       d="M56.6,72.07c0.45,2.26-0.71,4.4-2.58,4.77c-1.87,0.37-3.76-1.16-4.21-3.43   c-0.45-2.27,0.71-4.4,2.59-4.77C54.28,68.27,56.15,69.8,56.6,72.07" /><path
       id="XMLID_1337_"
       style="fill:#49362E;"
       d="M73.31,68.77c0.45,2.26,2.32,3.8,4.21,3.43c1.87-0.37,3.03-2.5,2.59-4.77   c-0.45-2.27-2.33-3.8-4.2-3.43C74.02,64.37,72.87,66.51,73.31,68.77" /></g><g
     id="g282"><g
       id="g284"><path
         id="XMLID_1372_"
         style="fill:#BF8F68;"
         d="M20.32,75.67c-3.54-0.69-5.67-1.75-9.57-4.84c-0.06,0.16-6.99-5.96-9.93-11.38    c-1.04-1.92,0.44-3.74,1.62-2.42c3.03,4.09,8.77,8.62,8.93,8.34l0,0c0.7-2.44,3.66-1.12,5.2-0.16c2.35,1.54,4.81,2.79,7.34,3.73    C28.32,70.37,24.85,76.31,20.32,75.67z" /><path
         style="fill:#BF8F68;"
         d="M23.86,68.93c0,0,1.95,0.38,2.61,2.87c0.23,0.89,0.21,2.04,0.14,3.56l0.02,1.78l-5.53,1.92    l-4.76-1.12c0,0-0.92-3.68-2.88-5.1l4.89-1.28L23.86,68.93z"
         id="path287" /></g><g
       id="g289"><defs
         id="defs291"><path
           id="XMLID_1371_"
           d="M25.23,128c-6.51,0-11.76-5.35-11.63-11.86l0.26-39.47c0.02-0.73,0.6-1.33,1.33-1.38l11.74-0.68     c0.76-0.05,1.43,0.5,1.52,1.26L33.89,118C34.66,123.27,30.57,128,25.23,128L25.23,128z" /></defs><use
         xlink:href="#XMLID_1371_"
         style="overflow:visible;fill:#651FFF;"
         id="use294" /><clipPath
         id="XMLID_3_"><use
           xlink:href="#XMLID_1371_"
           style="overflow:visible;"
           id="use297" /></clipPath></g></g><polygon
     id="XMLID_1373_"
     style="opacity:0.54;"
     points="35.2,106.95 32.77,109.71 30.91,96.12 33.33,93.36 " /></svg>