<?xml version="1.0" encoding="UTF-8" standalone="no"?>
<!-- Generator: Adobe Illustrator 19.2.1, SVG Export Plug-In . SVG Version: 6.00 Build 0)  -->

<svg
   xmlns:dc="http://purl.org/dc/elements/1.1/"
   xmlns:cc="http://creativecommons.org/ns#"
   xmlns:rdf="http://www.w3.org/1999/02/22-rdf-syntax-ns#"
   xmlns:svg="http://www.w3.org/2000/svg"
   xmlns="http://www.w3.org/2000/svg"
   xmlns:sodipodi="http://sodipodi.sourceforge.net/DTD/sodipodi-0.dtd"
   xmlns:inkscape="http://www.inkscape.org/namespaces/inkscape"
   version="1.1"
   id="レイヤー_1"
   x="0px"
   y="0px"
   viewBox="0 0 128 128"
   style="enable-background:new 0 0 128 128;"
   xml:space="preserve"
   inkscape:version="0.91 r13725"
   sodipodi:docname="1f951.svg"><metadata
     id="metadata29"><rdf:RDF><cc:Work
         rdf:about=""><dc:format>image/svg+xml</dc:format><dc:type
           rdf:resource="http://purl.org/dc/dcmitype/StillImage" /><dc:title></dc:title></cc:Work></rdf:RDF></metadata><defs
     id="defs27" /><sodipodi:namedview
     pagecolor="#ffffff"
     bordercolor="#666666"
     borderopacity="1"
     objecttolerance="10"
     gridtolerance="10"
     guidetolerance="10"
     inkscape:pageopacity="0"
     inkscape:pageshadow="2"
     inkscape:window-width="640"
     inkscape:window-height="480"
     id="namedview25"
     showgrid="false"
     inkscape:zoom="0.65186406"
     inkscape:cx="64"
     inkscape:cy="64"
     inkscape:window-x="0"
     inkscape:window-y="0"
     inkscape:window-maximized="0"
     inkscape:current-layer="レイヤー_1" /><path
     style="fill:#46681E;"
     d="M42.6,30.62c-0.18,0.19-0.36,0.38-0.54,0.57c-1.74,1.67-3.42,3.43-5.05,5.3  c-0.13,0.14-0.3,0.34-0.46,0.52c-4.1,4.38-8.12,8.82-12.07,13.32C18.99,56.4,9.67,62.79,7.17,65.96c-2.56,3.25-4.3,6.6-5.34,9.92  c-0.19,0.6-0.36,1.2-0.5,1.79c-0.06,0.22-0.12,0.45-0.17,0.67c-0.85,3.78-0.64,7.45,0.5,10.81c0.11,0.33,0.2,0.66,0.33,0.98  c0.12,0.32,0.28,0.63,0.42,0.94c1.44,3.24,3.78,6.07,6.97,8.27c0.19,0.13,0.39,0.25,0.59,0.38c0.51,0.34,1.04,0.66,1.58,0.98  c3.02,1.73,6.57,3.01,10.66,3.65c3.98,0.63,16.11,1.39,24.26,2.11c5.96,0.63,40.93-1.72,47.41-4.26  c12.56-4.93,22.95-11.68,27.86-23.84l0,0c0.94-2.32,1.67-4.6,2.26-6.86c0.19-0.74,0.35-1.48,0.51-2.21  c1.83-8.68,1.05-16.94-2.38-24.81c-2.83-8.1-7.85-14.69-15.09-19.83c-0.61-0.43-1.23-0.87-1.88-1.28c-1.96-1.26-4.05-2.44-6.31-3.5  l0,0c-11.86-5.59-26.15-5.68-38.72-0.78C53.63,21.63,47.59,25.47,42.6,30.62z"
     id="path13" /><g
     id="g15"><path
       style="fill:#AFB42B;"
       d="M112.98,44.77c-0.18-0.18-0.37-0.35-0.55-0.52c-1.61-1.69-3.32-3.33-5.15-4.91   c-0.14-0.12-0.34-0.29-0.51-0.44c-4.25-3.98-8.57-7.89-12.96-11.73c-5.9-5.34-14.07-15.85-17.16-18.28   c-3.17-2.49-6.47-4.18-9.75-5.2C66.3,3.5,65.71,3.34,65.11,3.2c-0.22-0.06-0.45-0.12-0.67-0.17c-3.76-0.83-7.43-0.64-10.82,0.45   c-0.33,0.11-0.66,0.19-0.99,0.32c-0.32,0.12-0.64,0.27-0.95,0.4c-3.28,1.39-6.18,3.65-8.47,6.74c-0.14,0.18-0.26,0.38-0.4,0.57   c-0.36,0.49-0.69,1-1.02,1.53c-1.81,2.92-3.2,6.36-3.97,10.32c-0.75,3.86,0.19,17.06-0.77,24.96c-0.81,5.77-1.51,11.56-2.12,17.35   c-0.03,0.23-0.06,0.48-0.09,0.67c-0.35,2.39-0.57,4.75-0.68,7.08c-0.02,0.25-0.05,0.5-0.08,0.76c-0.61,6.94,0.46,13.77,2.81,20.06   c4.55,12.19,14.01,22.32,26.02,27.11c0,0,0,0,0,0c2.29,0.91,4.55,1.63,6.79,2.21c0.74,0.19,1.47,0.35,2.2,0.5   c8.63,1.8,16.9,1.05,24.87-2.25c8.18-2.72,14.92-7.57,20.27-14.58c0.45-0.59,0.9-1.19,1.33-1.82c1.32-1.9,2.56-3.92,3.69-6.11l0,0   c5.94-11.48,6.46-25.33,1.92-37.52C121.64,55.48,117.98,49.62,112.98,44.77z M116.02,96.17c-0.95,1.83-2.01,3.58-3.24,5.37   c-0.37,0.54-0.76,1.05-1.15,1.57c-4.25,5.58-9.4,9.43-15.72,11.79l-1.51,0.53c0,0-1.06,0.43-1.48,0.59   c-6.33,2.36-12.74,2.81-19.62,1.38c-0.63-0.13-1.26-0.27-1.89-0.43c-2.09-0.54-4.04-1.17-5.96-1.94   c-9.94-3.96-18.22-12.62-22.17-23.17c-2.1-5.62-2.91-11.36-2.41-17.08l0.08-0.79c0.12-2.42,0.33-4.58,0.64-6.67l0.12-0.93   c0.61-5.8,1.31-11.56,2.09-17.12c0.81-6.61-0.05-20.7,0.71-24.61c0.58-2.98,1.61-5.68,3.07-8.03c0.24-0.39,0.49-0.77,0.76-1.14   l0.25-0.36c1.62-2.18,3.53-3.71,5.76-4.66l0.43-0.19l0.49-0.18l0.45-0.14c2.3-0.74,4.74-0.84,7.25-0.28l0.46,0.12   c0.57,0.13,1,0.26,1.43,0.39c2.64,0.82,5.19,2.19,7.58,4.06c3.52,2.76,14.01,15.44,16.8,17.97c4.34,3.79,8.64,7.68,12.88,11.65   l0.72,0.64c1.59,1.38,3.16,2.88,4.67,4.45l0.53,0.51c4.33,4.19,7.48,9.07,9.57,14.69C121.53,74.7,120.93,86.67,116.02,96.17z"
       id="path17" /><path
       style="fill:#FFF69F;"
       d="M107.51,48.95c-1.5-1.57-3.08-3.07-4.67-4.45l-0.72-0.64c-4.24-3.97-8.54-7.86-12.88-11.65   c-2.79-2.52-13.27-15.2-16.8-17.97c-2.39-1.87-4.94-3.24-7.58-4.06c-0.43-0.13-0.86-0.26-1.43-0.39l-0.46-0.12   c-2.51-0.55-4.95-0.46-7.25,0.28l-0.45,0.14l-0.49,0.18l-0.43,0.19c-2.23,0.95-4.14,2.47-5.76,4.66l-0.25,0.36   c-0.26,0.37-0.51,0.75-0.76,1.14c-1.46,2.35-2.49,5.05-3.07,8.03c-0.76,3.91,0.1,18-0.71,24.61c-0.78,5.55-1.48,11.31-2.09,17.12   l-0.12,0.93c-0.3,2.08-0.51,4.25-0.64,6.67l-0.08,0.79c-0.5,5.72,0.31,11.46,2.41,17.08c3.94,10.55,12.23,19.21,22.17,23.17   c1.92,0.77,3.87,1.4,5.96,1.94c0.64,0.16,1.27,0.3,1.89,0.43c6.87,1.43,13.29,0.98,19.62-1.38c0.42-0.16,1.48-0.59,1.48-0.59   l1.51-0.53c6.33-2.36,11.47-6.22,15.72-11.79c0.39-0.51,0.78-1.03,1.15-1.57c1.24-1.78,2.3-3.54,3.24-5.37   c4.92-9.5,5.51-21.47,1.59-32.03c-2.09-5.62-5.24-10.49-9.57-14.69L107.51,48.95z"
       id="path19" /></g><path
     style="fill:#855C52;"
     d="M100.14,72.73c3.84,10.3-1.4,21.77-11.7,25.6s-21.77-1.4-25.6-11.7s2.5-29.97,9.44-32.08  C79.42,52.39,96.3,62.43,100.14,72.73z"
     id="path21" /><path
     style="fill:#D7CCC8;"
     d="M83.94,64.76C83.3,67,87.5,71.25,88.17,77.8c0.51,4.95,3.05,7.19,6.08,6.57  c3.08-0.62,4.26-6.73,0.83-12.46C91.75,66.33,85,61.05,83.94,64.76z"
     id="path23" /></svg>