<?xml version="1.0" encoding="UTF-8" standalone="no"?>
<!-- Generator: Adobe Illustrator 19.2.1, SVG Export Plug-In . SVG Version: 6.00 Build 0)  -->

<svg
   xmlns:dc="http://purl.org/dc/elements/1.1/"
   xmlns:cc="http://creativecommons.org/ns#"
   xmlns:rdf="http://www.w3.org/1999/02/22-rdf-syntax-ns#"
   xmlns:svg="http://www.w3.org/2000/svg"
   xmlns="http://www.w3.org/2000/svg"
   xmlns:xlink="http://www.w3.org/1999/xlink"
   xmlns:sodipodi="http://sodipodi.sourceforge.net/DTD/sodipodi-0.dtd"
   xmlns:inkscape="http://www.inkscape.org/namespaces/inkscape"
   version="1.1"
   x="0px"
   y="0px"
   viewBox="0 0 128 128"
   style="enable-background:new 0 0 128 128;"
   xml:space="preserve"
   id="svg27929"
   inkscape:version="0.91 r13725"
   sodipodi:docname="2615.svg"><metadata
     id="metadata28094"><rdf:RDF><cc:Work
         rdf:about=""><dc:format>image/svg+xml</dc:format><dc:type
           rdf:resource="http://purl.org/dc/dcmitype/StillImage" /><dc:title></dc:title></cc:Work></rdf:RDF></metadata><defs
     id="defs28092" /><sodipodi:namedview
     pagecolor="#ffffff"
     bordercolor="#666666"
     borderopacity="1"
     objecttolerance="10"
     gridtolerance="10"
     guidetolerance="10"
     inkscape:pageopacity="0"
     inkscape:pageshadow="2"
     inkscape:window-width="640"
     inkscape:window-height="480"
     id="namedview28090"
     showgrid="false"
     inkscape:zoom="0.4609375"
     inkscape:cx="64"
     inkscape:cy="-74.811971"
     inkscape:window-x="0"
     inkscape:window-y="0"
     inkscape:window-maximized="0"
     inkscape:current-layer="图层_1" /><g
     id="Layer_2" /><g
     id="图层_1"><g
       id="g28037"><g
         id="g28039"><path
           style="fill:#E0E0E0;"
           d="M52.54,42.53c-23.82,0-47.64,9.02-47.64,27.04c0,20.08,9.42,55.63,47.64,55.63     s47.64-35.55,47.64-55.63C100.18,51.55,76.36,42.53,52.54,42.53z"
           id="path28041" /><g
           id="g28043"><path
             id="XMLID_16_"
             style="fill:#E0E0E0;"
             d="M33.87,49.53c-4.38-1.82-8.09-6.63-8.4-10.72c-0.68-8.81,4.28-11.96,4.28-19.64      c0-6.44-1.09-9.82-3.23-11.58c-0.62-0.51-0.72-0.68-0.66-0.82c0.09-0.18,0.09-0.29,1.04-0.06c3.89,0.95,10.21,4.59,10.4,12.26      c0.2,8.16-4.27,10.05-4.94,18.91c-0.25,3.3-0.26,7.95,1.91,10.97c0.27,0.37,0.31,0.52,0.3,0.62      C34.55,49.61,34.31,49.69,33.87,49.53z" /><path
             id="XMLID_15_"
             style="fill:#E0E0E0;"
             d="M55.82,45.44c-4.38-1.82-8.09-6.63-8.4-10.72c-0.68-8.81,4.28-11.96,4.28-19.64      c0-6.44-1.09-9.82-3.23-11.58C47.85,3,47.75,2.83,47.81,2.69c0.09-0.18,0.09-0.29,1.04-0.06c3.89,0.95,10.21,4.59,10.4,12.26      c0.2,8.16-4.27,10.05-4.94,18.91c-0.25,3.3-0.26,7.95,1.91,10.97c0.27,0.37,0.31,0.52,0.3,0.62      C56.5,45.52,56.26,45.61,55.82,45.44z" /><path
             id="XMLID_14_"
             style="fill:#E0E0E0;"
             d="M76.23,50.36c-4.38-1.82-8.09-6.63-8.4-10.72c-0.68-8.81,4.28-11.96,4.28-19.64      c0-6.44-1.09-9.82-3.23-11.58c-0.62-0.51-0.72-0.68-0.66-0.82c0.09-0.18,0.09-0.29,1.04-0.06c3.89,0.95,10.21,4.59,10.4,12.26      c0.2,8.16-4.27,10.05-4.94,18.91c-0.25,3.3-0.26,7.95,1.91,10.97c0.27,0.37,0.31,0.52,0.3,0.62      C76.91,50.44,76.67,50.53,76.23,50.36z" /></g><g
           id="g28048"><defs
             id="defs28050"><ellipse
               id="SVGID_7_"
               cx="52.54"
               cy="69.81"
               rx="40.17"
               ry="21.1" /></defs><use
             xlink:href="#SVGID_7_"
             style="overflow:visible;fill:#90A4AE;"
             id="use28053" /><clipPath
             id="SVGID_8_"><use
               xlink:href="#SVGID_7_"
               style="overflow:visible;"
               id="use28056" /></clipPath><ellipse
             style="clip-path:url(#SVGID_8_);fill:#855C52;"
             cx="52.54"
             cy="80.23"
             rx="40.17"
             ry="21.1"
             id="ellipse28058"
             clip-path="url(#SVGID_8_)" /></g><g
           id="g28060"><path
             style="fill:#E0E0E0;"
             d="M81.36,109.7c-0.66,0-1.04-0.01-1.07-0.02c-3.03-0.19-5.33-2.81-5.13-5.84      c0.19-3.03,2.79-5.34,5.84-5.14c0.26,0,26.31,0.25,30.43-13.86c0.98-3.35,0.88-5.86-0.29-7.46c-1.03-1.41-4.1-3.79-13.05-3.99      c-3.04-0.07-5.45-2.58-5.38-5.62c0.07-3.04,2.61-5.43,5.62-5.38c10.43,0.22,17.72,3.08,21.69,8.48      c3.3,4.5,3.96,10.23,1.97,17.04C115.94,108.58,87.29,109.7,81.36,109.7z"
             id="path28062" /></g></g><path
         style="fill:#BCAAA4;"
         d="M45.31,70.47c1.24-0.15,2.46-1.33,2.03-2.34c-0.35-0.84-1.57-1.04-2.6-1.08    c-4.1-0.17-11.1,1.9-17.02,4.73c-0.81,0.38-2.22,1.4-2.43,2.21c-0.23,0.87,0.55,1.57,1.43,1.65c0.88,0.08,1.81-0.28,2.69-0.64    C36.74,72.06,39.09,71.29,45.31,70.47z"
         id="path28064" /></g></g></svg>