<?xml version="1.0" encoding="UTF-8" standalone="no"?>
<!-- Generator: Adobe Illustrator 19.2.1, SVG Export Plug-In . SVG Version: 6.00 Build 0)  -->

<svg
   xmlns:dc="http://purl.org/dc/elements/1.1/"
   xmlns:cc="http://creativecommons.org/ns#"
   xmlns:rdf="http://www.w3.org/1999/02/22-rdf-syntax-ns#"
   xmlns:svg="http://www.w3.org/2000/svg"
   xmlns="http://www.w3.org/2000/svg"
   xmlns:sodipodi="http://sodipodi.sourceforge.net/DTD/sodipodi-0.dtd"
   xmlns:inkscape="http://www.inkscape.org/namespaces/inkscape"
   version="1.1"
   id="图层_1"
   x="0px"
   y="0px"
   viewBox="0 0 128 128"
   style="enable-background:new 0 0 128 128;"
   xml:space="preserve"
   inkscape:version="0.91 r13725"
   sodipodi:docname="1f324.svg"><metadata
     id="metadata61"><rdf:RDF><cc:Work
         rdf:about=""><dc:format>image/svg+xml</dc:format><dc:type
           rdf:resource="http://purl.org/dc/dcmitype/StillImage" /><dc:title></dc:title></cc:Work></rdf:RDF></metadata><defs
     id="defs59" /><sodipodi:namedview
     pagecolor="#ffffff"
     bordercolor="#666666"
     borderopacity="1"
     objecttolerance="10"
     gridtolerance="10"
     guidetolerance="10"
     inkscape:pageopacity="0"
     inkscape:pageshadow="2"
     inkscape:window-width="721"
     inkscape:window-height="480"
     id="namedview57"
     showgrid="false"
     inkscape:zoom="0.32593203"
     inkscape:cx="64"
     inkscape:cy="64"
     inkscape:window-x="0"
     inkscape:window-y="0"
     inkscape:window-maximized="0"
     inkscape:current-layer="图层_1" /><g
     id="g29"><g
       id="g31"><path
         style="fill:#FFB74D;"
         d="M69.81,30.03c-16.92,0-30.65,13.72-30.65,30.64c0,16.93,13.72,30.65,30.65,30.65    c16.92,0,30.65-13.72,30.65-30.65C100.46,43.75,86.74,30.03,69.81,30.03"
         id="path33" /><path
         style="fill:#FFB74D;"
         d="M63.22,24.44L63.22,24.44h13.2c0.61,0,1.18-0.3,1.53-0.8c0.34-0.5,0.42-1.13,0.22-1.71l-6.6-17.87    c-0.27-0.74-0.97-1.23-1.75-1.23c-0.78,0-1.48,0.49-1.74,1.23l-6.6,17.88c-0.21,0.57-0.13,1.22,0.22,1.71    C62.04,24.15,62.61,24.44,63.22,24.44"
         id="path35" /><path
         style="fill:#FFB74D;"
         d="M100.1,39.72c0.35,0.35,0.83,0.55,1.32,0.55c0.11,0,0.22-0.01,0.33-0.03    c0.6-0.11,1.11-0.5,1.36-1.05l7.97-17.31c0.33-0.71,0.18-1.54-0.37-2.09c-0.55-0.56-1.39-0.71-2.1-0.38L91.3,27.38    c-0.55,0.26-0.95,0.76-1.05,1.36c-0.11,0.6,0.09,1.21,0.51,1.65L100.1,39.72z"
         id="path37" /><path
         style="fill:#FFB74D;"
         d="M126.43,58.92l-17.89-6.59c-0.57-0.21-1.21-0.13-1.71,0.22c-0.5,0.35-0.8,0.91-0.8,1.53l0.01,13.19    c0,0.61,0.3,1.18,0.8,1.53c0.32,0.21,0.69,0.33,1.06,0.33c0.22,0,0.44-0.04,0.64-0.12l17.88-6.6c0.73-0.27,1.22-0.97,1.22-1.75    C127.65,59.89,127.16,59.19,126.43,58.92"
         id="path39" /><path
         style="fill:#FFB74D;"
         d="M103.1,82.16c-0.26-0.55-0.76-0.95-1.36-1.06c-0.6-0.1-1.22,0.09-1.65,0.52l-9.33,9.33    c-0.43,0.43-0.62,1.04-0.52,1.64c0.1,0.6,0.5,1.11,1.05,1.36l17.31,7.98c0.25,0.12,0.51,0.17,0.78,0.17    c0.48,0,0.96-0.19,1.31-0.54c0.55-0.56,0.71-1.39,0.37-2.1L103.1,82.16z"
         id="path41" /><path
         style="fill:#FFB74D;"
         d="M76.41,96.9L76.41,96.9l-13.2,0.01c-0.61,0-1.18,0.3-1.52,0.8c-0.35,0.5-0.43,1.14-0.22,1.7    l6.6,17.88c0.27,0.73,0.96,1.22,1.74,1.22c0.78,0,1.48-0.49,1.75-1.22l6.6-17.89c0.21-0.57,0.13-1.21-0.22-1.7    C77.59,97.19,77.02,96.9,76.41,96.9"
         id="path43" /><path
         style="fill:#FFB74D;"
         d="M39.53,81.62c-0.43-0.43-1.04-0.62-1.64-0.52c-0.6,0.11-1.11,0.51-1.36,1.06l-7.98,17.31    c-0.32,0.71-0.17,1.55,0.38,2.1c0.35,0.35,0.83,0.55,1.31,0.55c0.27,0,0.53-0.06,0.78-0.17l17.31-7.98    c0.56-0.26,0.95-0.77,1.06-1.37c0.11-0.6-0.09-1.21-0.52-1.64L39.53,81.62z"
         id="path45" /><path
         style="fill:#FFB74D;"
         d="M31.73,69.13c0.37,0,0.74-0.12,1.06-0.34c0.5-0.35,0.8-0.92,0.8-1.53l-0.01-13.19    c0-0.61-0.3-1.18-0.8-1.53c-0.5-0.35-1.14-0.43-1.71-0.22l-17.89,6.6c-0.73,0.27-1.22,0.97-1.22,1.75c0,0.77,0.48,1.47,1.22,1.74    l17.89,6.59C31.29,69.09,31.51,69.13,31.73,69.13"
         id="path47" /><path
         style="fill:#FFB74D;"
         d="M36.53,39.18c0.26,0.55,0.77,0.95,1.36,1.05c0.11,0.02,0.22,0.03,0.33,0.03    c0.49,0,0.96-0.19,1.32-0.54l9.33-9.34c0.43-0.43,0.62-1.05,0.51-1.65c-0.11-0.59-0.5-1.1-1.05-1.35L31.01,19.4    c-0.71-0.33-1.54-0.18-2.09,0.38c-0.55,0.55-0.7,1.38-0.37,2.09L36.53,39.18z"
         id="path49" /></g><g
       id="g51"><path
         style="fill:#E3EBEE;"
         d="M89.5,82.39C89.49,82.39,89.49,82.39,89.5,82.39c-0.01-0.06,0-0.11,0-0.17    c0-7.8-6.32-14.12-14.12-14.12c-1,0-1.98,0.11-2.93,0.31c-2.8-6.81-9.49-11.61-17.31-11.61c-5.87,0-11.11,2.71-14.54,6.94    c-2.21-1.12-4.7-1.77-7.35-1.77c-8.45,0-15.39,6.44-16.2,14.68C7.85,77.13,0.47,84.66,0.35,94c-0.13,9.74,7.67,17.74,17.41,17.86    c0.76,0.01,1.5-0.04,2.23-0.13c3.76,7.93,11.84,13.42,21.21,13.42c5.65,0,10.83-2,14.88-5.32c3.1,2.29,6.91,3.67,11.06,3.67    c8.51,0,15.67-5.71,17.9-13.5c1.4,0.46,2.9,0.73,4.46,0.73c7.83,0,14.17-6.34,14.17-14.17C103.67,88.73,97.32,82.39,89.5,82.39z"
         id="path53" /><path
         style="fill:#B9CDD2;"
         d="M97.82,85.09c3.21,3.24,0.94,10.68-1.27,13.1c-4.34,4.76-12.32,3.65-15.52,2.96    c-0.87-0.19-1.01-0.12-1.29,0.05c-0.25,0.15-0.37,0.4-0.64,0.98c-1.03,2.22-3.69,6.53-9.31,8.26c-5.85,1.81-11.37-0.94-13.96-2.59    c-0.98-0.62-1.02-0.64-1.46-0.63c-0.45,0-0.89,0.33-1.42,0.75c-2.33,1.84-7.67,5.08-15.89,4.61c-8.06-0.46-12.68-5.43-14.26-7.99    c-0.3-0.49-0.63-0.9-1-0.94c-0.43-0.04-0.91,0.4-1.28,0.76c-3.43,3.34-14.22,4.34-17.81-1.35c3.64,5.84,9.27,8.73,15.04,8.8    c0.76,0.01,1.5-0.04,2.23-0.13c3.76,7.93,11.84,13.42,21.21,13.42c5.65,0,10.83-2,14.88-5.32c3.1,2.29,6.91,3.67,11.06,3.67    c8.51,0,15.67-5.71,17.9-13.5c1.4,0.46,2.9,0.73,4.46,0.73c7.83,0,14.17-6.34,14.17-14.17C103.67,92.39,101.57,87.69,97.82,85.09z    "
         id="path55" /></g></g></svg>