<?xml version="1.0" encoding="UTF-8" standalone="no"?>
<!-- Generator: Adobe Illustrator 19.2.1, SVG Export Plug-In . SVG Version: 6.00 Build 0)  -->

<svg
   xmlns:dc="http://purl.org/dc/elements/1.1/"
   xmlns:cc="http://creativecommons.org/ns#"
   xmlns:rdf="http://www.w3.org/1999/02/22-rdf-syntax-ns#"
   xmlns:svg="http://www.w3.org/2000/svg"
   xmlns="http://www.w3.org/2000/svg"
   xmlns:xlink="http://www.w3.org/1999/xlink"
   xmlns:sodipodi="http://sodipodi.sourceforge.net/DTD/sodipodi-0.dtd"
   xmlns:inkscape="http://www.inkscape.org/namespaces/inkscape"
   version="1.1"
   x="0px"
   y="0px"
   viewBox="0 0 128 128"
   style="enable-background:new 0 0 128 128;"
   xml:space="preserve"
   id="svg2"
   inkscape:version="0.91 r13725"
   sodipodi:docname="1f385-1f3fe.svg"><metadata
     id="metadata54"><rdf:RDF><cc:Work
         rdf:about=""><dc:format>image/svg+xml</dc:format><dc:type
           rdf:resource="http://purl.org/dc/dcmitype/StillImage" /></cc:Work></rdf:RDF></metadata><defs
     id="defs52" /><sodipodi:namedview
     pagecolor="#ffffff"
     bordercolor="#666666"
     borderopacity="1"
     objecttolerance="10"
     gridtolerance="10"
     guidetolerance="10"
     inkscape:pageopacity="0"
     inkscape:pageshadow="2"
     inkscape:window-width="771"
     inkscape:window-height="480"
     id="namedview50"
     showgrid="false"
     inkscape:zoom="1.84375"
     inkscape:cx="64"
     inkscape:cy="64"
     inkscape:window-x="0"
     inkscape:window-y="0"
     inkscape:window-maximized="0"
     inkscape:current-layer="svg2" /><g
     id="Layer_2" /><g
     id="图层_1"><g
       id="g6"><path
         id="XMLID_252_"
         style="fill:#513F35;"
         d="M69.41,94.83c-1.66,0-11.83,0-11.83,0s-10.17,0-11.83,0    c-1.36,0-1.94,0.91-1.04,2.28c1.26,1.91,5.91,5.59,12.87,5.59s11.61-3.68,12.87-5.59C71.34,95.74,70.76,94.83,69.41,94.83z" /><path
         style="fill:#BE2006;"
         d="M60.5,5.94c0,0,30.38-1.52,43.84,19.89c12.59,20.02,11.17,42.3,11.17,42.3h-8.34    c0,0-0.36-9.31-3.93-19.8c-1.6-4.71-3.28-8.64-6.69-13.83C89.31,23.48,75.02,12.91,60.5,5.94z"
         id="path9" /><circle
         style="fill:#CFD8DC;"
         cx="111.38"
         cy="76.74"
         r="10.79"
         id="circle11" /><g
         id="XMLID_234_"><path
           id="XMLID_236_"
           style="fill:#7A4C32;"
           d="M98.99,62.77c0,0,7.59,1.32,7.59,9.49c0,7.21-5.54,10.06-11.08,10.06V62.77H98.99     z" /><path
           id="XMLID_235_"
           style="fill:#7A4C32;"
           d="M16.17,62.77c0,0-7.59,1.32-7.59,9.49c0,7.21,5.54,10.06,11.08,10.06V62.77H16.17     z" /></g><path
         id="XMLID_233_"
         style="fill:#9B643C;"
         d="M57.58,9.22c-32.72,0-41.28,25.37-41.28,61c0,36.95,23.75,46.5,41.28,46.5    c17.28,0,41.28-9.28,41.28-46.5C98.86,34.59,90.3,9.22,57.58,9.22z" /><path
         id="XMLID_231_"
         style="fill:#7A4C32;"
         d="M63.29,84.78c-2.01,0.57-4.1,0.85-5.71,0.85s-3.7-0.28-5.71-0.85    c-0.86-0.24-1.2,0.57-0.89,1.11c0.64,1.12,3.21,3.39,6.6,3.39c3.39,0,5.96-2.27,6.6-3.39C64.49,85.35,64.15,84.53,63.29,84.78z" /><path
         id="XMLID_230_"
         style="fill:#42312C;"
         d="M44.12,72.55c0,3.64-2.44,6.59-5.46,6.59c-3.02,0-5.47-2.95-5.47-6.59    c0-3.65,2.45-6.6,5.47-6.6C41.69,65.95,44.12,68.9,44.12,72.55" /><path
         id="XMLID_220_"
         style="fill:#42312C;"
         d="M71.03,72.55c0,3.64,2.44,6.59,5.47,6.59c3.01,0,5.46-2.95,5.46-6.59    c0-3.65-2.45-6.6-5.46-6.6C73.47,65.95,71.03,68.9,71.03,72.55" /><path
         id="XMLID_219_"
         style="fill:#6D4C41;"
         d="M16.3,72.55l-2.18-13.43c0,0-4.73-51.77,44.58-51.77s41.64,54.02,41.64,54.02    l-1.51,11.18l-12.81-21.7c0,0-24.34,1.96-55.96-0.42L16.3,72.55z" /><path
         style="fill:#DD2C00;"
         d="M101.92,44.39C99.73,27.87,90.77,5.92,58.65,5.92C25.46,5.92,15.73,28.38,13,44.34    C42.34,38.01,72.58,38.03,101.92,44.39z"
         id="path21" /><path
         style="fill:#DD2C00;"
         d="M22.88,60.63"
         id="path23" /><g
         id="g25"><path
           style="fill:#E0E0E0;"
           d="M 91.730469 58.869141 C 92.900469 87.799141 82.810312 98.749687 57.570312 91.179688 L 57.570312 91.195312 C 32.344974 98.753537 22.259996 87.803221 23.429688 58.880859 L 13 58.880859 C 13 58.880859 15.519453 66.079063 15.689453 72.539062 C 15.929453 81.969063 14.29 82.869453 14 92.689453 C 13.79 99.849453 15.420781 109.8807 32.050781 116.7207 C 41.570781 120.6407 51.920078 121.12 57.580078 123.5 C 63.240078 121.12 73.589375 120.6407 83.109375 116.7207 C 99.729375 109.8707 101.37016 99.839453 101.16016 92.689453 C 100.87016 82.869453 99.230703 81.969063 99.470703 72.539062 C 99.640703 66.069063 102.16016 58.869141 102.16016 58.869141 L 91.730469 58.869141 z "
           id="path27" /></g><g
         id="g31"><path
           style="fill:#E0E0E0;"
           d="M26.45,95.09c5.42-1.34,12.82-9.79,31.49-3.96c0,0,0.9,9.47-10.08,11.42     C32.86,105.22,20.08,96.66,26.45,95.09z"
           id="path33" /><path
           style="fill:#E0E0E0;"
           d="M88.71,95.09c-5.42-1.34-12.82-9.79-31.49-3.96c0,0-0.9,9.47,10.08,11.42     C82.29,105.22,95.07,96.66,88.71,95.09z"
           id="path35" /></g><g
         id="g37"><defs
           id="defs39"><path
             id="SVGID_1_"
             d="M106.33,61.34c-0.04-4.39-0.07-8.78-0.11-13.17c-0.05-1.6-1.34-3.18-2.93-3.53      c-30.23-6.75-61.45-6.75-91.68,0c-1.58,0.35-2.88,1.93-2.93,3.53c-0.04,4.39-0.07,8.77-0.11,13.16l0,0c0,0-0.17,3.37,2.04,4.74      c0,0,1.34-1.8,4.07-2.85c28.1-5.81,57.44-5.81,85.54,0c2.73,1.05,4.15,2.66,4.15,2.66C106.47,64.56,106.34,61.39,106.33,61.34z" /></defs><use
           xlink:href="#SVGID_1_"
           style="overflow:visible;fill:#F5F5F5;"
           id="use42" /><clipPath
           id="SVGID_2_"><use
             xlink:href="#SVGID_1_"
             style="overflow:visible;"
             id="use45" /></clipPath><path
           style="clip-path:url(#SVGID_2_);fill:#CFD8DC;"
           d="M95.11,42.91c1.19,0.25,3.98,1.76,4.05,4.37     c0.1,3.4,0.26,4.64,0.05,6.09c-0.35,2.47-3.29,3.62-6.11,3.26c-15.55-1.98-28.59-5.62-44.21-4.35     c-11.48,0.94-23.33,4.76-34.83,5.4c-3.24,0.18-5.55-2-5.62-3.24c-0.02,3.32-0.41,7.01-0.43,10.33     c6.11,10.97,49.13,3.42,73.84,3.82c7.84,0.12,15.78,0.51,23.42-1.27c0.53-0.12,1.07-0.27,1.49-0.62c0.47-0.39,0.7-0.99,0.92-1.56     c0.6-1.59,1.2-3.18,1.8-4.76c0.85-2.24,1.7-4.51,1.87-6.9c0.2-2.85-0.6-5.7-1.77-8.31c-0.24-0.53-0.52-1.09-1.01-1.4     c-0.41-0.27-0.92-0.33-1.41-0.39c-2.87-0.33-5.73-0.66-8.6-0.99"
           id="path47"
           clip-path="url(#SVGID_2_)" /></g><path
         id="XMLID_205_"
         style="fill:#352620;"
         d="M69.41,94.83c-1.66,0-11.83,0-11.83,0s-10.17,0-11.83,0    c-1.36,0-1.94,0.91-1.04,2.28c1.26,1.91,5.91,5.59,12.87,5.59s11.61-3.68,12.87-5.59C71.34,95.74,70.76,94.83,69.41,94.83z" /></g></g></svg>