<?xml version="1.0" encoding="UTF-8" standalone="no"?>
<!-- Generator: Adobe Illustrator 19.2.1, SVG Export Plug-In . SVG Version: 6.00 Build 0)  -->

<svg
   xmlns:dc="http://purl.org/dc/elements/1.1/"
   xmlns:cc="http://creativecommons.org/ns#"
   xmlns:rdf="http://www.w3.org/1999/02/22-rdf-syntax-ns#"
   xmlns:svg="http://www.w3.org/2000/svg"
   xmlns="http://www.w3.org/2000/svg"
   xmlns:xlink="http://www.w3.org/1999/xlink"
   xmlns:sodipodi="http://sodipodi.sourceforge.net/DTD/sodipodi-0.dtd"
   xmlns:inkscape="http://www.inkscape.org/namespaces/inkscape"
   version="1.1"
   x="0px"
   y="0px"
   viewBox="0 0 128 128"
   style="enable-background:new 0 0 128 128;"
   xml:space="preserve"
   id="svg2"
   inkscape:version="0.91 r13725"
   sodipodi:docname="1f41d.svg"><metadata
     id="metadata250"><rdf:RDF><cc:Work
         rdf:about=""><dc:format>image/svg+xml</dc:format><dc:type
           rdf:resource="http://purl.org/dc/dcmitype/StillImage" /><dc:title></dc:title></cc:Work></rdf:RDF></metadata><defs
     id="defs248" /><sodipodi:namedview
     pagecolor="#ffffff"
     bordercolor="#666666"
     borderopacity="1"
     objecttolerance="10"
     gridtolerance="10"
     guidetolerance="10"
     inkscape:pageopacity="0"
     inkscape:pageshadow="2"
     inkscape:window-width="640"
     inkscape:window-height="480"
     id="namedview246"
     showgrid="false"
     inkscape:zoom="0.32593203"
     inkscape:cx="64"
     inkscape:cy="64"
     inkscape:window-x="0"
     inkscape:window-y="0"
     inkscape:window-maximized="0"
     inkscape:current-layer="图层_1" /><g
     id="Layer_2" /><g
     id="图层_1"><g
       id="g102"><g
         id="g104"><polygon
           style="fill:#424242;"
           points="115.36,69.68 126.18,68.3 119.47,76.7    "
           id="polygon106" /></g><g
         id="g108"><path
           style="fill:#424242;"
           d="M27.47,45.51c-0.8,0-1.58-0.38-2.07-1.09c-9.77-14.35-19.93-9.85-20.03-9.8     c-1.25,0.58-2.74,0.04-3.32-1.21c-0.58-1.25-0.04-2.74,1.21-3.32c0.14-0.06,14.14-6.3,26.27,11.52c0.78,1.14,0.48,2.7-0.66,3.47     C28.45,45.37,27.96,45.51,27.47,45.51z"
           id="path110" /></g><g
         id="g112"><path
           style="fill:#424242;"
           d="M43.07,39.71c-1.24,0-2.32-0.92-2.48-2.19c-2.15-16.94-12.68-17.26-13.13-17.27     c-1.37-0.02-2.49-1.14-2.48-2.51c0-1.37,1.1-2.48,2.47-2.49c0,0,0,0,0,0c0.25,0,15.37,0.21,18.1,21.63     c0.17,1.37-0.79,2.62-2.17,2.8C43.28,39.71,43.18,39.71,43.07,39.71z"
           id="path114" /></g><g
         id="g116"><path
           style="fill:#BDBDBD;"
           d="M60.65,15.9c3.6-3.23,8.59-4.22,13.35-2.63c2.04,0.67,3.83,1.67,5.34,2.98     C91.98,27.24,85.16,47.7,79,64.13c-0.04,0.1-2.81,8.47-5.79,9.12c-2.43,0.53-5.25-3.09-5.25-3.09c-0.13-0.12-3.13-3.98-3.46-4.5     c-5.35-7.82-8.92-16.51-10.64-25.84c-0.38-2.07-0.56-4.36-0.47-6.75c0.03-0.92,0.1-1.85,0.23-2.78c0.11-0.87,0.26-1.74,0.45-2.6     c0.94-4.15,2.86-8.22,6.19-11.43L60.65,15.9z"
           id="path118" /></g><g
         id="g120"><path
           style="fill:#ECEFF1;"
           d="M99.01,18.13c5.36-0.63,10.54,1.68,13.86,6.19c1.43,1.92,2.41,3.99,2.95,6.15     c4.46,18.13-14.91,32.4-31.09,43.41c-0.1,0.07-8,5.92-11.14,4.59c-2.55-1.08-2.8-6.2-2.8-6.2c-0.04-0.19-0.29-5.64-0.26-6.32     c0.15-10.56,2.48-20.78,6.91-30.38c0.98-2.13,2.29-4.34,3.91-6.45c0.62-0.82,1.28-1.62,2-2.39c0.66-0.72,1.35-1.42,2.08-2.08     c3.52-3.18,7.89-5.65,12.99-6.44L99.01,18.13z"
           id="path122" /></g><g
         id="g124"><defs
           id="defs126"><ellipse
             id="SVGID_1_"
             transform="matrix(0.9051 -0.4252 0.4252 0.9051 -26.1586 49.4282)"
             cx="97.66"
             cy="83.32"
             rx="23.42"
             ry="18.78" /></defs><use
           xlink:href="#SVGID_1_"
           style="overflow:visible;fill:#FCC21B;"
           id="use129" /><clipPath
           id="SVGID_2_"><use
             xlink:href="#SVGID_1_"
             style="overflow:visible;"
             id="use132" /></clipPath><g
           style="clip-path:url(#SVGID_2_);"
           id="g134"
           clip-path="url(#SVGID_2_)"><ellipse
             transform="matrix(0.9051 -0.4252 0.4252 0.9051 -26.2676 49.1401)"
             style="fill:#424242;"
             cx="96.96"
             cy="83.42"
             rx="18.78"
             ry="23.42"
             id="ellipse136" /></g><g
           style="clip-path:url(#SVGID_2_);"
           id="g138"
           clip-path="url(#SVGID_2_)"><ellipse
             transform="matrix(0.9051 -0.4252 0.4252 0.9051 -28.4591 45.8203)"
             style="fill:#FCC21B;"
             cx="88.42"
             cy="86.67"
             rx="18.78"
             ry="23.42"
             id="ellipse140" /></g><g
           style="clip-path:url(#SVGID_2_);"
           id="g142"
           clip-path="url(#SVGID_2_)"><ellipse
             transform="matrix(0.9051 -0.4252 0.4252 0.9051 -31.6035 42.0733)"
             style="fill:#424242;"
             cx="78.46"
             cy="91.84"
             rx="18.78"
             ry="23.42"
             id="ellipse144" /></g><g
           style="clip-path:url(#SVGID_2_);"
           id="g146"
           clip-path="url(#SVGID_2_)"><ellipse
             transform="matrix(0.9051 -0.4252 0.4252 0.9051 -34.1916 38.317)"
             style="fill:#FCC21B;"
             cx="68.75"
             cy="95.76"
             rx="18.78"
             ry="23.42"
             id="ellipse148" /></g></g><g
         id="g150"><path
           style="fill:#424242;"
           d="M42.4,97.96c-2.46,0-4-0.29-4.17-0.32c-1.35-0.27-2.24-1.58-1.97-2.94     c0.27-1.35,1.58-2.23,2.93-1.97c0.16,0.03,9.9,1.74,19.9-4.99c1.14-0.77,2.7-0.47,3.47,0.68c0.77,1.15,0.47,2.7-0.68,3.47     C54.26,97.02,46.85,97.96,42.4,97.96z"
           id="path152" /></g><g
         id="g154"><path
           style="fill:#424242;"
           d="M46.54,108.26c-1.19,0-2.24-0.85-2.46-2.06c-0.24-1.36,0.66-2.65,2.01-2.9     c0.16-0.03,9.85-1.98,16.72-11.87c0.79-1.14,2.35-1.42,3.48-0.63c1.13,0.79,1.42,2.34,0.63,3.48     c-8.12,11.7-19.46,13.86-19.94,13.94C46.84,108.25,46.69,108.26,46.54,108.26z"
           id="path156" /></g><g
         id="g158"><path
           style="fill:#424242;"
           d="M68.95,115.47c-0.2,0-0.4-0.02-0.6-0.07c-1.34-0.33-2.16-1.68-1.83-3.02     c0.03-0.14,2.25-9.61-0.42-21.26c-0.31-1.35,0.53-2.69,1.88-3c1.35-0.31,2.69,0.53,3,1.88c2.96,12.89,0.51,23.14,0.41,23.57     C71.1,114.71,70.07,115.47,68.95,115.47z"
           id="path160" /></g><g
         id="g162"><path
           style="fill:#424242;"
           d="M78.24,115.4c-0.12,0-0.24-0.01-0.36-0.03c-1.37-0.2-2.31-1.46-2.12-2.83     c0.02-0.12,1.3-9.77-2.51-21.12c-0.44-1.31,0.27-2.73,1.58-3.17c1.32-0.44,2.73,0.27,3.17,1.58c4.21,12.54,2.78,22.98,2.72,23.41     C80.53,114.5,79.46,115.4,78.24,115.4z"
           id="path164" /></g><g
         id="g166"><g
           id="g168"><path
             style="fill:#FFB300;"
             d="M83.85,73.31c-0.55-0.75,0.63-3.06-0.03-3.67c-0.68-0.62-2.87,0.79-3.65,0.33      c-0.79-0.47-0.58-3.06-1.44-3.37c-0.86-0.31-2.36,1.81-3.27,1.66c-0.9-0.15-1.62-2.65-2.54-2.65c-0.91,0-1.61,2.51-2.52,2.67      c-0.89,0.15-2.38-1.98-3.26-1.68c-0.85,0.29-0.73,2.89-1.56,3.33c-0.8,0.42-2.87-1.16-3.62-0.61c-0.75,0.55,0.14,3-0.49,3.64      c-0.66,0.66-3.11-0.23-3.64,0.5c-0.55,0.75,1.05,2.81,0.64,3.61c-0.42,0.83-3.02,0.75-3.3,1.62c-0.28,0.88,1.9,2.31,1.78,3.21      c-0.12,0.91-2.6,1.72-2.56,2.63c0.04,0.92,2.58,1.48,2.79,2.37c0.21,0.89-1.78,2.55-1.39,3.39c0.38,0.82,2.94,0.37,3.49,1.12      c0.55,0.75-0.63,3.06,0.03,3.67c0.68,0.62,2.87-0.79,3.65-0.33c0.79,0.47,0.58,3.06,1.44,3.37c0.86,0.31,2.36-1.81,3.27-1.66      c0.9,0.15,1.62,2.65,2.54,2.65c0.91,0,1.61-2.51,2.52-2.67c0.89-0.15,2.38,1.98,3.26,1.68c0.85-0.29,0.73-2.89,1.56-3.33      c0.8-0.42,2.87,1.16,3.62,0.61c0.75-0.55-0.14-3,0.49-3.64c0.66-0.66,3.11,0.23,3.64-0.5c0.55-0.75-1.05-2.81-0.64-3.61      c0.42-0.83,3.02-0.75,3.3-1.62c0.28-0.88-1.9-2.31-1.78-3.21c0.12-0.91,2.6-1.72,2.56-2.63c-0.04-0.92-2.58-1.48-2.79-2.37      c-0.21-0.89,1.78-2.55,1.39-3.39C86.96,73.6,84.4,74.06,83.85,73.31z"
             id="path170" /></g></g><g
         id="g172"><g
           id="g174"><ellipse
             transform="matrix(0.9665 -0.2567 0.2567 0.9665 -14.707 13.1663)"
             style="fill:#FCC21B;"
             cx="43.08"
             cy="62.91"
             rx="30.2"
             ry="27.45"
             id="ellipse176" /></g><g
           id="g178"><g
             id="g180"><path
               style="fill:#424242;"
               d="M45.39,81.01c-2.89,0-5.22-1.03-5.57-1.19c-1.25-0.58-1.79-2.07-1.21-3.32       c0.58-1.25,2.06-1.79,3.31-1.21c0.08,0.03,3.11,1.36,5.62,0.34c1.35-0.55,2.35-1.71,3.06-3.55c0.5-1.29,1.94-1.93,3.24-1.43       c1.29,0.5,1.93,1.95,1.43,3.24c-1.23,3.16-3.21,5.31-5.88,6.39C48.01,80.81,46.65,81.01,45.39,81.01z"
               id="path182" /></g><g
             id="g184"><path
               style="fill:#424242;"
               d="M53.81,55.79c0.7-0.27,1.42-0.3,2.13-0.17c1.08,0.2,2.12,0.81,2.94,1.75       c0.5,0.59,0.93,1.29,1.23,2.09c0.23,0.66,0.34,1.32,0.37,1.97c0.06,1.27-0.26,2.46-0.89,3.4c-0.48,0.73-1.14,1.32-1.97,1.64       c-2.41,0.9-5.22-0.73-6.28-3.68C50.28,59.86,51.4,56.71,53.81,55.79z"
               id="path186" /></g><g
             id="g188"><path
               style="fill:#424242;"
               d="M33.17,73.56c-2.55,0.37-5.07-1.81-5.6-4.91c-0.52-3.07,1.13-5.9,3.7-6.27       c2.55-0.39,5.07,1.81,5.58,4.9C37.38,70.36,35.72,73.16,33.17,73.56z"
               id="path190" /></g></g></g></g></g></svg>