<?xml version="1.0" encoding="UTF-8" standalone="no"?>
<!-- Generator: Adobe Illustrator 19.2.1, SVG Export Plug-In . SVG Version: 6.00 Build 0)  -->

<svg
   xmlns:dc="http://purl.org/dc/elements/1.1/"
   xmlns:cc="http://creativecommons.org/ns#"
   xmlns:rdf="http://www.w3.org/1999/02/22-rdf-syntax-ns#"
   xmlns:svg="http://www.w3.org/2000/svg"
   xmlns="http://www.w3.org/2000/svg"
   xmlns:xlink="http://www.w3.org/1999/xlink"
   xmlns:sodipodi="http://sodipodi.sourceforge.net/DTD/sodipodi-0.dtd"
   xmlns:inkscape="http://www.inkscape.org/namespaces/inkscape"
   version="1.1"
   x="0px"
   y="0px"
   viewBox="0 0 128 128"
   style="enable-background:new 0 0 128 128;"
   xml:space="preserve"
   id="svg2"
   inkscape:version="0.91 r13725"
   sodipodi:docname="1f41e.svg"><metadata
     id="metadata256"><rdf:RDF><cc:Work
         rdf:about=""><dc:format>image/svg+xml</dc:format><dc:type
           rdf:resource="http://purl.org/dc/dcmitype/StillImage" /><dc:title></dc:title></cc:Work></rdf:RDF></metadata><defs
     id="defs254" /><sodipodi:namedview
     pagecolor="#ffffff"
     bordercolor="#666666"
     borderopacity="1"
     objecttolerance="10"
     gridtolerance="10"
     guidetolerance="10"
     inkscape:pageopacity="0"
     inkscape:pageshadow="2"
     inkscape:window-width="640"
     inkscape:window-height="480"
     id="namedview252"
     showgrid="false"
     inkscape:zoom="0.921875"
     inkscape:cx="64"
     inkscape:cy="64"
     inkscape:window-x="0"
     inkscape:window-y="0"
     inkscape:window-maximized="0"
     inkscape:current-layer="图层_1" /><g
     id="Layer_2" /><g
     id="图层_1"><g
       id="g146"><g
         id="g148"><g
           id="g150"><g
             id="g152"><path
               style="fill:#424242;"
               d="M72.39,26.74c-0.83,0.48-1.87,0.55-2.79,0.1c-1.47-0.72-2.08-2.5-1.36-3.97l0,0       c1.04-2.13,2.43-6.17,2.19-8.79c-1.57-1.41-5.66-4.91-10.63-7.93c-1.4-0.85-1.85-2.68-0.99-4.08c0.85-1.4,2.68-1.85,4.08-0.99       C69.82,5.3,75,10.22,75.22,10.43c0.4,0.38,0.69,0.87,0.82,1.4c1.41,5.47-2.08,12.83-2.48,13.65       C73.29,26.03,72.88,26.46,72.39,26.74z"
               id="path154" /></g><g
             id="g156"><path
               style="fill:#424242;"
               d="M116.11,50c-0.85,0.49-1.93,0.55-2.87,0.06c-8.8-4.62-18.37-3.22-18.46-3.2       c-1.62,0.25-3.13-0.86-3.39-2.47c-0.25-1.62,0.85-3.13,2.46-3.39c0.47-0.07,11.56-1.75,22.15,3.81       c1.45,0.76,2.01,2.56,1.25,4.01C116.98,49.33,116.58,49.73,116.11,50z"
               id="path158" /></g><g
             id="g160"><path
               style="fill:#424242;"
               d="M123.51,78.66c-1.22,0.7-2.8,0.46-3.75-0.66c-7.96-9.41-18.45-9.15-18.55-9.14       c-1.64,0.06-3.01-1.22-3.07-2.86c-0.06-1.64,1.22-3.01,2.86-3.07c0.55-0.02,13.49-0.34,23.29,11.24       c1.06,1.25,0.9,3.12-0.35,4.18C123.81,78.47,123.66,78.57,123.51,78.66z"
               id="path162" /></g></g><g
           id="g164"><g
             id="g166"><path
               style="fill:#424242;"
               d="M20.47,56.72c-0.49,0.28-1.07,0.43-1.68,0.39c-0.91-0.06-9.03-0.72-13.06-4.68       c-0.39-0.39-0.67-0.88-0.8-1.42C4.85,50.72,3.19,43.77,3,35.65c-0.04-1.64,1.26-3,2.9-3.03c1.64-0.04,3,1.26,3.03,2.9       c0.13,5.82,1.12,11.1,1.55,13.17c2.26,1.58,6.71,2.36,8.71,2.5c1.63,0.11,2.87,1.53,2.76,3.16       C21.88,55.37,21.3,56.24,20.47,56.72z"
               id="path168" /></g><g
             id="g170"><path
               style="fill:#424242;"
               d="M18.75,106.21c-0.47,0.27-1.02,0.42-1.6,0.39c-1.64-0.06-2.91-1.45-2.85-3.08       c0.47-11.95,7.47-20.72,7.77-21.09c1.03-1.27,2.9-1.47,4.17-0.44c1.27,1.03,1.47,2.9,0.44,4.17l0,0       c-0.06,0.08-6.06,7.66-6.46,17.59C20.19,104.81,19.6,105.72,18.75,106.21z"
               id="path172" /></g><g
             id="g174"><path
               style="fill:#424242;"
               d="M39.87,126.95c-0.15,0.09-0.31,0.16-0.48,0.22c-1.54,0.55-3.24-0.25-3.8-1.79       c-5.13-14.28,1.62-25.33,1.91-25.79c0.87-1.39,2.7-1.81,4.09-0.94c1.39,0.87,1.81,2.69,0.95,4.08       c-0.24,0.39-5.48,9.18-1.36,20.65C41.67,124.75,41.09,126.25,39.87,126.95z"
               id="path176" /></g></g></g><g
         id="g178"><defs
           id="defs180"><path
             id="SVGID_3_"
             d="M99.3,44.6c13.1,22.68,6.52,51-14.7,63.24s-49.02,3.79-62.12-18.9s-4.46-47.43,16.76-59.67      S86.2,21.92,99.3,44.6z" /></defs><use
           xlink:href="#SVGID_3_"
           style="overflow:visible;fill:#ED6C30;"
           id="use183" /><clipPath
           id="SVGID_4_"><use
             xlink:href="#SVGID_3_"
             style="overflow:visible;"
             id="use186" /></clipPath><g
           style="clip-path:url(#SVGID_4_);"
           id="g188"
           clip-path="url(#SVGID_4_)"><ellipse
             transform="matrix(0.866 -0.5 0.5 0.866 -23.5015 37.5416)"
             style="fill:#424242;"
             cx="58.3"
             cy="62.63"
             rx="14.51"
             ry="12.04"
             id="ellipse190" /></g><g
           style="clip-path:url(#SVGID_4_);"
           id="g192"
           clip-path="url(#SVGID_4_)"><g
             id="g194"><g
               id="g196"><ellipse
                 transform="matrix(0.9946 -0.1043 0.1043 0.9946 -7.2495 2.8202)"
                 style="fill:#424242;"
                 cx="23.35"
                 cy="70.76"
                 rx="11.36"
                 ry="13.69"
                 id="ellipse198" /></g><g
               id="g200"><ellipse
                 transform="matrix(0.3842 -0.9232 0.9232 0.3842 -67.275 109.7206)"
                 style="fill:#424242;"
                 cx="48.61"
                 cy="105.29"
                 rx="10.07"
                 ry="12.14"
                 id="ellipse202" /></g></g><g
             id="g204"><g
               id="g206"><ellipse
                 transform="matrix(0.5876 -0.8092 0.8092 0.5876 4.9351 82.205)"
                 style="fill:#424242;"
                 cx="83.11"
                 cy="36.26"
                 rx="11.36"
                 ry="13.69"
                 id="ellipse208" /></g><g
               id="g210"><ellipse
                 transform="matrix(0.1289 -0.9917 0.9917 0.1289 12.6715 165.2298)"
                 style="fill:#424242;"
                 cx="100.38"
                 cy="75.4"
                 rx="12.14"
                 ry="10.07"
                 id="ellipse212" /></g></g></g><g
           style="clip-path:url(#SVGID_4_);"
           id="g214"
           clip-path="url(#SVGID_4_)"><path
             style="fill:#424242;"
             d="M87.71,113.23c-1.18,0.68-2.7,0.28-3.38-0.91L35.04,26.94c-0.68-1.18-0.28-2.7,0.91-3.38      c1.18-0.68,2.7-0.28,3.38,0.91l49.29,85.38C89.3,111.03,88.89,112.55,87.71,113.23z"
             id="path216" /></g><g
           style="clip-path:url(#SVGID_4_);"
           id="g218"
           clip-path="url(#SVGID_4_)"><g
             id="g220"><ellipse
               transform="matrix(0.9639 -0.2664 0.2664 0.9639 -21.0336 17.8722)"
               style="fill:#424242;"
               cx="55.37"
               cy="86.47"
               rx="5.7"
               ry="4.5"
               id="ellipse222" /></g><g
             id="g224"><ellipse
               transform="matrix(0.7126 -0.7016 0.7016 0.7126 -27.4041 77.1152)"
               style="fill:#424242;"
               cx="80.42"
               cy="72.01"
               rx="5.7"
               ry="4.5"
               id="ellipse226" /></g></g></g><g
         id="g228"><path
           style="fill:#424242;"
           d="M67.41,21.91c3.66,6.34-5.86,14.99-19.29,22.74s-25.69,11.67-29.34,5.34s2.67-20.52,16.1-28.28     S63.75,15.57,67.41,21.91z"
           id="path230" /></g><g
         id="g232"><g
           id="g234"><path
             style="fill:#424242;"
             d="M31.28,30.44c-0.95,0.55-2.18,0.41-2.99-0.4c-4.78-4.79-10.26-5.95-10.32-5.96      c-1.33-0.27-2.2-1.57-1.94-2.91c0.27-1.34,1.56-2.21,2.89-1.95c0.28,0.05,6.98,1.41,12.87,7.32c0.96,0.97,0.96,2.53,0,3.5      C31.64,30.21,31.47,30.34,31.28,30.44z"
             id="path236" /></g><g
           id="g238"><path
             style="fill:#424242;"
             d="M44.23,22.97c-0.18,0.11-0.38,0.19-0.6,0.25c-1.32,0.35-2.68-0.43-3.03-1.75      c-2.17-8.05,0-14.53,0.1-14.8c0.45-1.29,1.85-1.98,3.14-1.53c1.29,0.44,1.97,1.85,1.54,3.14c-0.04,0.11-1.75,5.42,0,11.91      C45.68,21.29,45.18,22.42,44.23,22.97z"
             id="path240" /></g></g><g
         id="g242"><g
           id="g244"><ellipse
             transform="matrix(0.9072 -0.4208 0.4208 0.9072 -13.5408 16.3247)"
             style="fill:#FFFFFF;"
             cx="30.22"
             cy="38.85"
             rx="4.22"
             ry="5.13"
             id="ellipse246" /></g><g
           id="g248"><ellipse
             transform="matrix(0.818 -0.5752 0.5752 0.818 -5.6316 34.7109)"
             style="fill:#FFFFFF;"
             cx="52.04"
             cy="26.25"
             rx="4.22"
             ry="5.13"
             id="ellipse250" /></g></g></g></g></svg>