<?xml version="1.0" encoding="UTF-8" standalone="no"?>
<!-- Generator: Adobe Illustrator 19.2.1, SVG Export Plug-In . SVG Version: 6.00 Build 0)  -->

<svg
   xmlns:dc="http://purl.org/dc/elements/1.1/"
   xmlns:cc="http://creativecommons.org/ns#"
   xmlns:rdf="http://www.w3.org/1999/02/22-rdf-syntax-ns#"
   xmlns:svg="http://www.w3.org/2000/svg"
   xmlns="http://www.w3.org/2000/svg"
   xmlns:sodipodi="http://sodipodi.sourceforge.net/DTD/sodipodi-0.dtd"
   xmlns:inkscape="http://www.inkscape.org/namespaces/inkscape"
   version="1.1"
   x="0px"
   y="0px"
   viewBox="0 0 128 128"
   style="enable-background:new 0 0 128 128;"
   xml:space="preserve"
   id="svg145"
   inkscape:version="0.91 r13725"
   sodipodi:docname="1f48e.svg"><metadata
     id="metadata277"><rdf:RDF><cc:Work
         rdf:about=""><dc:format>image/svg+xml</dc:format><dc:type
           rdf:resource="http://purl.org/dc/dcmitype/StillImage" /><dc:title></dc:title></cc:Work></rdf:RDF></metadata><defs
     id="defs275" /><sodipodi:namedview
     pagecolor="#ffffff"
     bordercolor="#666666"
     borderopacity="1"
     objecttolerance="10"
     gridtolerance="10"
     guidetolerance="10"
     inkscape:pageopacity="0"
     inkscape:pageshadow="2"
     inkscape:window-width="640"
     inkscape:window-height="480"
     id="namedview273"
     showgrid="false"
     inkscape:zoom="0.4609375"
     inkscape:cx="110.28599"
     inkscape:cy="64"
     inkscape:window-x="0"
     inkscape:window-y="0"
     inkscape:window-maximized="0"
     inkscape:current-layer="图层_1" /><g
     id="Layer_2" /><g
     id="图层_1"><g
       id="g249"><polygon
         style="fill:#E1F5FE;"
         points="1.66,10.5 44.17,1.78 42.31,29.82   "
         id="polygon251" /><polygon
         style="fill:#81D4FA;"
         points="20.78,68.9 1.66,10.5 42.31,29.82   "
         id="polygon253" /><polygon
         style="fill:#64B5F6;"
         points="64.3,63.7 42.31,29.82 20.78,68.9   "
         id="polygon255" /><polygon
         style="fill:#0288D1;"
         points="117.5,126.34 126.22,83.83 98.18,85.69   "
         id="polygon257" /><polygon
         style="fill:#81D4FA;"
         points="59.1,107.22 117.5,126.34 98.18,85.69   "
         id="polygon259" /><polygon
         style="fill:#E1F5FE;"
         points="64.3,63.7 98.18,85.69 59.1,107.22   "
         id="polygon261" /><polygon
         style="fill:#B2EBF2;"
         points="59.1,107.22 64.3,63.7 20.78,68.9   "
         id="polygon263" /><polygon
         style="fill:#B3E5FC;"
         points="75.95,11.57 116.43,52.05 126.22,83.83 98.18,85.69 64.3,63.7 42.31,29.82 44.17,1.78       "
         id="polygon265" /><polygon
         style="fill:#1E88E5;"
         points="2.24,125.76 1.66,10.5 20.78,68.9   "
         id="polygon267" /><polygon
         style="fill:#B3E5FC;"
         points="2.24,125.76 117.5,126.34 59.1,107.22   "
         id="polygon269" /><polygon
         style="fill:#E1F5FE;"
         points="59.1,107.22 59.1,107.22 2.24,125.76 20.78,68.9   "
         id="polygon271" /></g></g></svg>