<?xml version="1.0" encoding="UTF-8" standalone="no"?>
<!-- Generator: Adobe Illustrator 19.2.1, SVG Export Plug-In . SVG Version: 6.00 Build 0)  -->

<svg
   xmlns:dc="http://purl.org/dc/elements/1.1/"
   xmlns:cc="http://creativecommons.org/ns#"
   xmlns:rdf="http://www.w3.org/1999/02/22-rdf-syntax-ns#"
   xmlns:svg="http://www.w3.org/2000/svg"
   xmlns="http://www.w3.org/2000/svg"
   xmlns:sodipodi="http://sodipodi.sourceforge.net/DTD/sodipodi-0.dtd"
   xmlns:inkscape="http://www.inkscape.org/namespaces/inkscape"
   version="1.1"
   id="图层_1"
   x="0px"
   y="0px"
   viewBox="0 0 128 128"
   style="enable-background:new 0 0 128 128;"
   xml:space="preserve"
   inkscape:version="0.91 r13725"
   sodipodi:docname="1f48d.svg"><metadata
     id="metadata143"><rdf:RDF><cc:Work
         rdf:about=""><dc:format>image/svg+xml</dc:format><dc:type
           rdf:resource="http://purl.org/dc/dcmitype/StillImage" /><dc:title></dc:title></cc:Work></rdf:RDF></metadata><defs
     id="defs141" /><sodipodi:namedview
     pagecolor="#ffffff"
     bordercolor="#666666"
     borderopacity="1"
     objecttolerance="10"
     gridtolerance="10"
     guidetolerance="10"
     inkscape:pageopacity="0"
     inkscape:pageshadow="2"
     inkscape:window-width="640"
     inkscape:window-height="480"
     id="namedview139"
     showgrid="false"
     inkscape:zoom="0.65186406"
     inkscape:cx="64"
     inkscape:cy="64"
     inkscape:window-x="0"
     inkscape:window-y="0"
     inkscape:window-maximized="0"
     inkscape:current-layer="图层_1" /><g
     id="g103"><path
       style="fill:none;stroke:#FFFFFF;stroke-width:2.5;stroke-linecap:round;stroke-linejoin:round;stroke-miterlimit:10;"
       d="   M30.38,45.83c-7.69,3.13-14.19,8.59-18.6,15.52 M45.33,42.92c-2.63,0-5.21,0.26-7.7,0.75"
       id="path105" /><path
       style="fill:#E0E0E0;"
       d="M78.5,49.5c-17.01-17.01-44.58-17.01-61.59,0c-17.01,17.01-17.01,44.58,0,61.59   c17.01,17.01,44.58,17.01,61.59,0C95.51,94.08,95.51,66.51,78.5,49.5z M22.37,105.63c-13.99-13.99-13.99-36.68,0-50.67   s36.68-13.99,50.67,0s13.99,36.68,0,50.67S36.36,119.62,22.37,105.63z"
       id="path107" /><g
       id="g109"><polygon
         style="fill:#E1F5FE;"
         points="75.09,5.36 92.54,1.78 91.78,13.29   "
         id="polygon111" /><polygon
         style="fill:#81D4FA;"
         points="82.94,29.33 75.09,5.36 91.78,13.29   "
         id="polygon113" /><polygon
         style="fill:#64B5F6;"
         points="100.8,27.2 91.78,13.29 82.94,29.33   "
         id="polygon115" /><polygon
         style="fill:#0288D1;"
         points="122.64,52.91 126.22,35.46 114.71,36.22   "
         id="polygon117" /><polygon
         style="fill:#81D4FA;"
         points="98.67,45.06 122.64,52.91 114.71,36.22   "
         id="polygon119" /><polygon
         style="fill:#E1F5FE;"
         points="100.8,27.2 114.71,36.22 98.67,45.06   "
         id="polygon121" /><polygon
         style="fill:#B2EBF2;"
         points="98.67,45.06 100.8,27.2 82.94,29.33   "
         id="polygon123" /><polygon
         style="fill:#B3E5FC;"
         points="105.58,5.8 122.2,22.42 126.22,35.46 114.71,36.22 100.8,27.2 91.78,13.29 92.54,1.78       "
         id="polygon125" /><polygon
         style="fill:#1E88E5;"
         points="75.33,52.67 75.09,5.36 82.94,29.33   "
         id="polygon127" /><polygon
         style="fill:#B3E5FC;"
         points="75.33,52.67 122.64,52.91 98.67,45.06   "
         id="polygon129" /><polygon
         style="fill:#E1F5FE;"
         points="98.67,45.06 98.67,45.06 75.33,52.67 82.94,29.33   "
         id="polygon131" /></g><path
       style="fill:#BDBDBD;"
       d="M76.13,51.87c-17.01-17.01-44.58-17.01-61.59,0c-17.01,17.01-17.01,44.58,0,61.59   c17.01,17.01,44.58,17.01,61.59,0C93.13,96.46,93.13,68.88,76.13,51.87z M20,108C6.01,94.01,6.01,71.33,20,57.34   s36.68-13.99,50.67,0s13.99,36.68,0,50.67S33.99,121.99,20,108z"
       id="path133" /><path
       style="fill:#BDBDBD;"
       d="M76.27,51.73l20.59,1.05c0,0-0.13,1.43-2.86,2.08c-2.56,0.61-15.05,2.16-15.05,2.16l-3.71-4.26   L76.27,51.73z"
       id="path135" /><path
       style="fill:#BDBDBD;"
       d="M76.27,51.73l-1.05-20.59c0,0-1.43,0.13-2.08,2.86c-0.61,2.56-2.16,15.05-2.16,15.05l4.26,3.71   L76.27,51.73z"
       id="path137" /></g></svg>