<?xml version="1.0" encoding="UTF-8" standalone="no"?>
<!-- Generator: Adobe Illustrator 19.2.1, SVG Export Plug-In . SVG Version: 6.00 Build 0)  -->

<svg
   xmlns:dc="http://purl.org/dc/elements/1.1/"
   xmlns:cc="http://creativecommons.org/ns#"
   xmlns:rdf="http://www.w3.org/1999/02/22-rdf-syntax-ns#"
   xmlns:svg="http://www.w3.org/2000/svg"
   xmlns="http://www.w3.org/2000/svg"
   xmlns:sodipodi="http://sodipodi.sourceforge.net/DTD/sodipodi-0.dtd"
   xmlns:inkscape="http://www.inkscape.org/namespaces/inkscape"
   version="1.1"
   x="0px"
   y="0px"
   viewBox="0 0 128 128"
   style="enable-background:new 0 0 128 128;"
   xml:space="preserve"
   id="svg2"
   inkscape:version="0.91 r13725"
   sodipodi:docname="1f4ae.svg"><metadata
     id="metadata48"><rdf:RDF><cc:Work
         rdf:about=""><dc:format>image/svg+xml</dc:format><dc:type
           rdf:resource="http://purl.org/dc/dcmitype/StillImage" /><dc:title></dc:title></cc:Work></rdf:RDF></metadata><defs
     id="defs46" /><sodipodi:namedview
     pagecolor="#ffffff"
     bordercolor="#666666"
     borderopacity="1"
     objecttolerance="10"
     gridtolerance="10"
     guidetolerance="10"
     inkscape:pageopacity="0"
     inkscape:pageshadow="2"
     inkscape:window-width="640"
     inkscape:window-height="480"
     id="namedview44"
     showgrid="false"
     inkscape:zoom="0.4609375"
     inkscape:cx="64"
     inkscape:cy="64"
     inkscape:window-x="0"
     inkscape:window-y="0"
     inkscape:window-maximized="0"
     inkscape:current-layer="图层_2" /><g
     id="Layer_1" /><g
     id="图层_2"><g
       id="g38"><path
         style="fill:none;stroke:#D7598B;stroke-width:3;stroke-linecap:round;stroke-linejoin:round;stroke-miterlimit:10;"
         d="    M102.45,23.7c-3.99,2.6-7.41,3.48-9.42,2.02c-2.01-1.46-2.24-4.99-0.99-9.58c-8.03-1.12-18.04,3.96-24.93,13.44    c-1.2,1.65-2.23,3.34-3.12,5.06c-0.89-1.72-1.92-3.41-3.12-5.06c-6.89-9.48-16.9-14.56-24.93-13.44c1.25,4.59,1.02,8.12-0.99,9.58    c-2.01,1.46-5.43,0.59-9.42-2.02c-3.55,7.29-1.81,18.38,5.08,27.86c1.2,1.65,2.49,3.16,3.85,4.53c-1.91,0.31-3.84,0.77-5.78,1.4    C17.55,61.11,9.63,69.06,8.21,77.04c4.75,0.24,8.04,1.54,8.81,3.9c0.77,2.36-1.12,5.35-4.83,8.33c5.84,5.63,16.92,7.4,28.07,3.78    c1.94-0.63,3.77-1.39,5.5-2.26c-0.29,1.91-0.45,3.89-0.45,5.93c0,11.72,5.11,21.71,12.27,25.53c1.69-4.45,3.95-7.17,6.43-7.17    c2.48,0,4.74,2.72,6.43,7.17c7.16-3.81,12.27-13.8,12.27-25.53c0-2.04-0.17-4.03-0.46-5.94c1.73,0.87,3.56,1.64,5.51,2.27    c11.15,3.62,22.23,1.85,28.07-3.78c-3.71-2.99-5.6-5.97-4.83-8.33c0.77-2.36,4.05-3.67,8.81-3.9    c-1.41-7.99-9.34-15.93-20.49-19.55c-1.94-0.63-3.87-1.09-5.77-1.4c1.36-1.37,2.65-2.88,3.85-4.53    C104.27,42.07,106,30.99,102.45,23.7z"
         id="path40" /><path
         style="fill:#FFFFFF;stroke:#D7598B;stroke-width:5;stroke-linecap:round;stroke-linejoin:round;stroke-miterlimit:10;"
         d="    M124.01,54.38c-5.11-0.25-8.65-1.66-9.47-4.2c-0.82-2.54,1.21-5.75,5.19-8.96c-6.28-6.06-18.2-7.96-30.19-4.06    c-2.08,0.68-4.06,1.5-5.91,2.43c0.31-2.05,0.49-4.18,0.49-6.37c0-12.61-5.49-23.36-13.19-27.46c-1.82,4.79-4.25,7.71-6.92,7.71    c-2.67,0-5.1-2.92-6.92-7.71c-7.7,4.1-13.19,14.85-13.19,27.46c0,2.19,0.17,4.32,0.49,6.37c-1.86-0.93-3.83-1.75-5.91-2.43    c-11.99-3.9-23.91-1.99-30.19,4.06c3.99,3.21,6.02,6.43,5.19,8.96c-0.82,2.54-4.36,3.95-9.47,4.2    c1.52,8.59,10.04,17.14,22.04,21.03c2.08,0.68,4.16,1.17,6.21,1.51c-1.46,1.48-2.85,3.1-4.14,4.87    c-7.41,10.2-9.28,22.13-5.46,29.97c4.29-2.8,7.97-3.74,10.13-2.17c2.16,1.57,2.41,5.36,1.07,10.31    c8.64,1.21,19.4-4.26,26.81-14.46c1.29-1.78,2.4-3.61,3.35-5.46c0.95,1.85,2.06,3.68,3.35,5.46c7.41,10.2,18.17,15.67,26.81,14.46    c-1.34-4.94-1.09-8.74,1.07-10.31c2.16-1.57,5.84-0.63,10.13,2.17c3.82-7.84,1.95-19.77-5.46-29.97c-1.29-1.77-2.68-3.4-4.14-4.87    c2.05-0.34,4.13-0.83,6.21-1.51C113.97,71.51,122.49,62.97,124.01,54.38z"
         id="path42" /></g></g></svg>