<?xml version="1.0" encoding="UTF-8" standalone="no"?>
<!-- Generator: Adobe Illustrator 19.2.1, SVG Export Plug-In . SVG Version: 6.00 Build 0)  -->

<svg
   xmlns:dc="http://purl.org/dc/elements/1.1/"
   xmlns:cc="http://creativecommons.org/ns#"
   xmlns:rdf="http://www.w3.org/1999/02/22-rdf-syntax-ns#"
   xmlns:svg="http://www.w3.org/2000/svg"
   xmlns="http://www.w3.org/2000/svg"
   xmlns:sodipodi="http://sodipodi.sourceforge.net/DTD/sodipodi-0.dtd"
   xmlns:inkscape="http://www.inkscape.org/namespaces/inkscape"
   version="1.1"
   id="レイヤー_1"
   x="0px"
   y="0px"
   viewBox="0 0 128 128"
   style="enable-background:new 0 0 128 128;"
   xml:space="preserve"
   inkscape:version="0.91 r13725"
   sodipodi:docname="1f4bf.svg"><metadata
     id="metadata61"><rdf:RDF><cc:Work
         rdf:about=""><dc:format>image/svg+xml</dc:format><dc:type
           rdf:resource="http://purl.org/dc/dcmitype/StillImage" /><dc:title></dc:title></cc:Work></rdf:RDF></metadata><defs
     id="defs59" /><sodipodi:namedview
     pagecolor="#ffffff"
     bordercolor="#666666"
     borderopacity="1"
     objecttolerance="10"
     gridtolerance="10"
     guidetolerance="10"
     inkscape:pageopacity="0"
     inkscape:pageshadow="2"
     inkscape:window-width="1024"
     inkscape:window-height="717"
     id="namedview57"
     showgrid="false"
     inkscape:zoom="3.6875"
     inkscape:cx="52.610169"
     inkscape:cy="64"
     inkscape:window-x="0"
     inkscape:window-y="0"
     inkscape:window-maximized="1"
     inkscape:current-layer="レイヤー_1" /><g
     id="g3"><g
       id="g5"><g
         id="g7"><g
           id="g9"><path
             style="fill:#40c0e7"
             d="m 112.42603,62.899745 c 0,26.741004 -21.685025,48.426025 -48.436541,48.426025 -26.741005,0 -48.415516,-21.685021 -48.415516,-48.426025 0,-26.741006 21.685022,-48.415515 48.415516,-48.415515 26.762027,0 48.436541,21.685021 48.436541,48.415515 z"
             id="path11"
             inkscape:connector-curvature="0" /></g><g
           id="g13"><polygon
             style="fill:#FFFFFF;"
             points="62.99,62.9 114.87,57.75 114.87,72.35     "
             id="polygon15" /><polygon
             style="fill:#FFFFFF;"
             points="86.84,21.48 63.99,62.9 110.07,49.1 102.34,30.02     "
             id="polygon17" /></g><g
           id="g19"><polygon
             style="fill:#FFFFFF;"
             points="64.99,62.74 19.63,88.44 14.51,62.32     "
             id="polygon23" /><polygon
             style="fill:#FFFFFF;"
             points="43.82,105.69 63.99,62.9 18.88,79.61 27.81,98.16     "
             id="polygon25" /><g
             id="g27"><polygon
               style="fill:#40C0E7;"
               points="64.96,63.79 18.25,86.93 13.09,73.26      "
               id="polygon31" /></g><g
             id="g35"><polygon
               style="fill:#40C0E7;"
               points="60.71,62.58 109.79,45.01 113.33,59.19      "
               id="polygon39" /></g></g></g><g
         id="g43"><g
           id="g45"><ellipse
             style="fill:#FFFFFF;"
             cx="63.99"
             cy="62.9"
             rx="11.71"
             ry="11.71"
             id="ellipse47" /></g><path
           style="fill:#40C0E7;"
           d="M63.99,51.19c6.47,0,11.71,5.25,11.71,11.71c0,6.47-5.24,11.71-11.71,11.71     c-6.47,0-11.71-5.24-11.71-11.71C52.28,56.44,57.52,51.19,63.99,51.19 M63.99,47.52c-9.09,0-16.48,7.39-16.48,16.48     c0,9.08,7.39,16.48,16.48,16.48S80.47,73.09,80.47,64C80.47,54.91,73.08,47.52,63.99,47.52L63.99,47.52z"
           id="path49" /><g
           id="g51"><ellipse
             style="fill:#40C0E7;"
             cx="63.99"
             cy="62.9"
             rx="5.5"
             ry="5.5"
             id="ellipse53" /></g></g></g><path
       style="fill:#40C0E7;"
       d="M63.99,16.84c25.45,0,46.08,20.63,46.08,46.06c0,25.44-20.63,46.07-46.08,46.07   c-25.44,0-46.06-20.63-46.06-46.07C17.93,37.47,38.56,16.84,63.99,16.84 M63.99,10.78c-29.34,0-53.22,23.87-53.22,53.22   c0,29.35,23.88,53.22,53.22,53.22c29.36,0,53.24-23.88,53.24-53.22C117.23,34.65,93.35,10.78,63.99,10.78L63.99,10.78z"
       id="path55" /></g></svg>