<?xml version="1.0" encoding="UTF-8" standalone="no"?>
<!-- Generator: Adobe Illustrator 19.2.1, SVG Export Plug-In . SVG Version: 6.00 Build 0)  -->

<svg
   xmlns:dc="http://purl.org/dc/elements/1.1/"
   xmlns:cc="http://creativecommons.org/ns#"
   xmlns:rdf="http://www.w3.org/1999/02/22-rdf-syntax-ns#"
   xmlns:svg="http://www.w3.org/2000/svg"
   xmlns="http://www.w3.org/2000/svg"
   xmlns:sodipodi="http://sodipodi.sourceforge.net/DTD/sodipodi-0.dtd"
   xmlns:inkscape="http://www.inkscape.org/namespaces/inkscape"
   version="1.1"
   x="0px"
   y="0px"
   viewBox="0 0 128 128"
   style="enable-background:new 0 0 128 128;"
   xml:space="preserve"
   id="svg2"
   inkscape:version="0.91 r13725"
   sodipodi:docname="1f4c5.svg"><metadata
     id="metadata84"><rdf:RDF><cc:Work
         rdf:about=""><dc:format>image/svg+xml</dc:format><dc:type
           rdf:resource="http://purl.org/dc/dcmitype/StillImage" /><dc:title></dc:title></cc:Work></rdf:RDF></metadata><defs
     id="defs82" /><sodipodi:namedview
     pagecolor="#ffffff"
     bordercolor="#666666"
     borderopacity="1"
     objecttolerance="10"
     gridtolerance="10"
     guidetolerance="10"
     inkscape:pageopacity="0"
     inkscape:pageshadow="2"
     inkscape:window-width="640"
     inkscape:window-height="480"
     id="namedview80"
     showgrid="false"
     inkscape:zoom="0.32593203"
     inkscape:cx="64"
     inkscape:cy="64"
     inkscape:window-x="0"
     inkscape:window-y="0"
     inkscape:window-maximized="0"
     inkscape:current-layer="图层_1" /><g
     id="Layer_2" /><g
     id="图层_1"><g
       id="g6"><path
         style="fill:#E0E0E0;"
         d="M115.5,126.36h-103c-5.52,0-10-4.48-10-10V26.84c0-5.76,4.67-10.43,10.43-10.43h102.13    c5.76,0,10.43,4.67,10.43,10.43v89.52C125.5,121.89,121.02,126.36,115.5,126.36z"
         id="path8" /><path
         style="fill:#1E88E5;"
         d="M125.5,51.44H2.5V9.78c0-4.42,3.58-8,8-8h107c4.42,0,8,3.58,8,8V51.44z"
         id="path10" /><g
         id="g12"><g
           id="g14"><g
             id="g16"><g
               id="g18"><rect
                 x="83.64"
                 y="83.6"
                 style="fill:#9E9E9E;"
                 width="4.51"
                 height="4.38"
                 id="rect20" /><rect
                 x="98"
                 y="83.6"
                 style="fill:#9E9E9E;"
                 width="4.51"
                 height="4.38"
                 id="rect22" /><rect
                 x="112.36"
                 y="83.6"
                 style="fill:#9E9E9E;"
                 width="4.51"
                 height="4.38"
                 id="rect24" /></g><rect
               x="83.64"
               y="94.47"
               style="fill:#9E9E9E;"
               width="4.51"
               height="4.38"
               id="rect26" /><rect
               x="98"
               y="94.47"
               style="fill:#9E9E9E;"
               width="4.51"
               height="4.38"
               id="rect28" /><rect
               x="112.36"
               y="94.47"
               style="fill:#9E9E9E;"
               width="4.51"
               height="4.38"
               id="rect30" /><rect
               x="83.64"
               y="105.34"
               style="fill:#9E9E9E;"
               width="4.51"
               height="4.38"
               id="rect32" /><rect
               x="98"
               y="105.34"
               style="fill:#9E9E9E;"
               width="4.51"
               height="4.38"
               id="rect34" /><rect
               x="112.36"
               y="105.34"
               style="fill:#9E9E9E;"
               width="4.51"
               height="4.38"
               id="rect36" /></g></g></g><g
         id="g38"><path
           style="fill:#FFFFFF;"
           d="M42.94,12.84h4.69v15.75c0,1.45-0.32,2.73-0.96,3.84c-0.64,1.11-1.54,1.97-2.71,2.57     c-1.17,0.6-2.48,0.91-3.95,0.91c-2.41,0-4.28-0.61-5.62-1.84c-1.34-1.22-2.02-2.96-2.02-5.2h4.72c0,1.12,0.23,1.94,0.7,2.47     s1.21,0.8,2.22,0.8c0.9,0,1.61-0.31,2.14-0.92c0.53-0.61,0.8-1.49,0.8-2.62V12.84z"
           id="path40" /><path
           style="fill:#FFFFFF;"
           d="M61.48,33.87c-1.12,1.35-2.66,2.03-4.62,2.03c-1.81,0-3.2-0.52-4.15-1.56     c-0.95-1.04-1.44-2.57-1.46-4.58V18.69h4.52v10.93c0,1.76,0.8,2.64,2.41,2.64c1.53,0,2.58-0.53,3.16-1.6V18.69h4.53v16.91H61.6     L61.48,33.87z"
           id="path42" /><path
           style="fill:#FFFFFF;"
           d="M74.02,35.59h-4.53v-24h4.53V35.59z"
           id="path44" /><path
           style="fill:#FFFFFF;"
           d="M84.05,29.2l3.12-10.52h4.84l-6.8,19.53l-0.38,0.89c-1.01,2.21-2.68,3.31-5,3.31     c-0.66,0-1.32-0.1-2-0.3V38.7l0.69,0.02c0.85,0,1.49-0.13,1.91-0.39c0.42-0.26,0.75-0.69,0.99-1.3l0.53-1.39l-5.92-16.95h4.86     L84.05,29.2z"
           id="path46" /></g></g><g
       id="g48"><path
         style="fill:#2F2F2F;"
         d="M32.05,111.27h-8.47V78.58L13.48,81.7v-6.83l17.67-6.33h0.91V111.27z"
         id="path50" /><path
         style="fill:#2F2F2F;"
         d="M74.91,73.33l-16.49,37.93h-8.94l16.52-35.83H44.8v-6.83h30.12V73.33z"
         id="path52" /></g></g></svg>