<?xml version="1.0" encoding="UTF-8" standalone="no"?>
<!-- Generator: Adobe Illustrator 19.2.1, SVG Export Plug-In . SVG Version: 6.00 Build 0)  -->

<svg
   xmlns:dc="http://purl.org/dc/elements/1.1/"
   xmlns:cc="http://creativecommons.org/ns#"
   xmlns:rdf="http://www.w3.org/1999/02/22-rdf-syntax-ns#"
   xmlns:svg="http://www.w3.org/2000/svg"
   xmlns="http://www.w3.org/2000/svg"
   xmlns:sodipodi="http://sodipodi.sourceforge.net/DTD/sodipodi-0.dtd"
   xmlns:inkscape="http://www.inkscape.org/namespaces/inkscape"
   version="1.1"
   x="0px"
   y="0px"
   viewBox="0 0 128 128"
   style="enable-background:new 0 0 128 128;"
   xml:space="preserve"
   id="svg2"
   inkscape:version="0.91 r13725"
   sodipodi:docname="1f4dd.svg"><metadata
     id="metadata120"><rdf:RDF><cc:Work
         rdf:about=""><dc:format>image/svg+xml</dc:format><dc:type
           rdf:resource="http://purl.org/dc/dcmitype/StillImage" /><dc:title></dc:title></cc:Work></rdf:RDF></metadata><defs
     id="defs118" /><sodipodi:namedview
     pagecolor="#ffffff"
     bordercolor="#666666"
     borderopacity="1"
     objecttolerance="10"
     gridtolerance="10"
     guidetolerance="10"
     inkscape:pageopacity="0"
     inkscape:pageshadow="2"
     inkscape:window-width="721"
     inkscape:window-height="480"
     id="namedview116"
     showgrid="false"
     inkscape:zoom="0.4609375"
     inkscape:cx="144.54237"
     inkscape:cy="64"
     inkscape:window-x="0"
     inkscape:window-y="0"
     inkscape:window-maximized="0"
     inkscape:current-layer="图层_1" /><g
     id="Layer_2" /><g
     id="图层_1"><g
       id="g48"><path
         style="fill:#B0BEC5;"
         d="M6.89,123.12V8.14c0-1.69,1.37-3.06,3.06-3.06H99c1.69,0,3.06,1.37,3.06,3.06v114.98    c0,1.69-1.37,3.06-3.06,3.06H9.96C8.27,126.18,6.89,124.81,6.89,123.12z"
         id="path50" /><path
         style="fill:#E0E0E0;"
         d="M4.14,120.36V5.38c0-1.69,1.37-3.06,3.06-3.06h89.04c1.69,0,3.06,1.37,3.06,3.06v114.98    c0,1.69-1.37,3.06-3.06,3.06H7.2C5.51,123.43,4.14,122.05,4.14,120.36z"
         id="path52" /><g
         id="g54"><line
           style="fill:none;stroke:#616161;stroke-width:5;stroke-linecap:round;stroke-linejoin:round;stroke-miterlimit:10;"
           x1="17.56"
           y1="28.65"
           x2="85.89"
           y2="28.65"
           id="line56" /><line
           style="fill:none;stroke:#616161;stroke-width:5;stroke-linecap:round;stroke-linejoin:round;stroke-miterlimit:10;"
           x1="17.56"
           y1="43.91"
           x2="85.89"
           y2="43.91"
           id="line58" /><line
           style="fill:none;stroke:#616161;stroke-width:5;stroke-linecap:round;stroke-linejoin:round;stroke-miterlimit:10;"
           x1="17.56"
           y1="59.16"
           x2="85.89"
           y2="59.16"
           id="line60" /><line
           style="fill:none;stroke:#616161;stroke-width:5;stroke-linecap:round;stroke-linejoin:round;stroke-miterlimit:10;"
           x1="17.56"
           y1="74.42"
           x2="85.89"
           y2="74.42"
           id="line62" /><line
           style="fill:none;stroke:#616161;stroke-width:5;stroke-linecap:round;stroke-linejoin:round;stroke-miterlimit:10;"
           x1="17.56"
           y1="89.68"
           x2="46.78"
           y2="89.68"
           id="line64" /></g><g
         id="g66"><rect
           x="90.16"
           y="23.09"
           transform="matrix(0.7071 -0.7071 0.7071 0.7071 8.6042 75.078)"
           style="fill:#EEEEEE;"
           width="9.53"
           height="8.13"
           id="rect68" /><rect
           x="97.1"
           y="28.34"
           transform="matrix(0.7071 -0.7071 0.7071 0.7071 5.7299 82.0174)"
           style="fill:#C5C5C5;"
           width="9.53"
           height="11.5"
           id="rect70" /><rect
           x="104.04"
           y="36.97"
           transform="matrix(0.7071 -0.7071 0.7071 0.7071 2.8555 88.9568)"
           style="fill:#E0E0E0;"
           width="9.53"
           height="8.13"
           id="rect72" /><path
           style="fill:#E95F5D;"
           d="M109.26,13.41c-1.75-1.75-4.59-1.75-6.34,0l-7.49,7.49l5.75,5.75l10.67-10.67L109.26,13.41z"
           id="path74" /><path
           style="fill:#D64545;"
           d="M122.55,26.7l-2.58-2.58L109.3,34.79l5.75,5.75l7.49-7.49C124.3,31.29,124.3,28.45,122.55,26.7z"
           id="path76" /><rect
           x="103.03"
           y="19.64"
           transform="matrix(0.7071 -0.7071 0.7071 0.7071 14.4338 85.6227)"
           style="fill:#DF4C49;"
           width="15.09"
           height="11.5"
           id="rect78" /><polygon
           style="fill:none;"
           points="72.62,82.97 72.62,82.97 66.87,77.22 70.24,80.59    "
           id="polygon80" /><path
           style="fill:#FFD05F;"
           d="M58.75,69.08L94.43,33.4l-5.75-5.75L53,63.34L53,63.34l-1.94,6.7c0.46,0.46,1.46,0.91,6.28-0.97     c0.83-0.32,1.36-0.02,1.4,0L58.75,69.08L58.75,69.08L58.75,69.08L58.75,69.08z"
           id="path82" /><polygon
           style="fill:#F59252;"
           points="49.34,84.06 49.34,84.06 49.27,83.99 49.27,83.99 49.34,84.06    "
           id="polygon84" /><polygon
           style="fill:#F59252;"
           points="50.62,85.34 49.34,84.06 49.34,84.06    "
           id="polygon86" /><path
           style="fill:#F59252;"
           d="M49.29,84.04c0.01,0.01,0.01,0.04,0.02,0.06l0.03-0.04C49.34,84.06,49.3,84.04,49.29,84.04z"
           id="path88" /><polygon
           style="fill:#F59252;"
           points="49.34,84.06 49.31,84.1 49.31,84.1 49.34,84.06    "
           id="polygon90" /><path
           style="fill:#F59252;"
           d="M58.75,69.09l-9.42,14.97h0l-0.03,0.04c0.03,0.1,0.05,0.25-0.03,0.45     c-0.71,1.9-0.53,2.3-0.34,2.48c0.18,0.18,0.58,0.37,2.48-0.34c0.2-0.08,0.35-0.06,0.45-0.03l0.04-0.03l14.97-9.42L58.75,69.09z"
           id="path92" /><polygon
           style="fill:#F59252;"
           points="51.87,86.66 51.91,86.63 51.91,86.63 51.87,86.66    "
           id="polygon94" /><path
           style="fill:#333333;"
           d="M52.12,88.92L52.12,88.92c-0.11-0.03-0.18-0.08-0.23-0.13c-0.14-0.14-0.31-0.44,0.07-1.76     c0.05-0.19,0-0.31-0.03-0.36c-0.01-0.01-0.04-0.01-0.06-0.02c0,0,0,0,0,0c-0.1-0.03-0.25-0.05-0.45,0.03     c-1.9,0.71-2.3,0.53-2.48,0.34c-0.18-0.18-0.37-0.58,0.34-2.48c0.08-0.2,0.06-0.35,0.03-0.45c0,0,0,0,0,0     c-0.01-0.02-0.01-0.05-0.02-0.06c-0.05-0.03-0.17-0.08-0.36-0.03c-1.31,0.38-1.61,0.22-1.76,0.07c-0.05-0.05-0.1-0.12-0.13-0.23     l0,0c0,0,0-0.01,0-0.01l-1.55,5.35c-0.23,0.79,0.5,1.52,1.29,1.29L52.12,88.92C52.13,88.92,52.13,88.92,52.12,88.92z"
           id="path96" /><path
           style="fill:#F59252;"
           d="M51.93,86.68c-0.01-0.01-0.02-0.04-0.02-0.04l-0.04,0.03C51.89,86.67,51.92,86.67,51.93,86.68z"
           id="path98" /><polygon
           style="fill:#E5823B;"
           points="52.12,88.92 52.13,88.92 53.74,88.46 53.73,88.45    "
           id="polygon100" /><polygon
           style="fill:#E5823B;"
           points="52.12,88.92 53.73,88.45 52.12,88.92    "
           id="polygon102" /><path
           style="fill:#E5823B;"
           d="M66.88,77.22l-14.97,9.42l0,0l0.07,0.07c0,0-0.02-0.01-0.05-0.02c0.03,0.05,0.08,0.17,0.03,0.36     c-0.38,1.31-0.22,1.61-0.07,1.76c0.05,0.05,0.12,0.1,0.23,0.13l1.61-0.47l18.9-5.49L66.88,77.22z"
           id="path104" /><path
           style="fill:#E5823B;"
           d="M51.98,86.7l-0.07-0.07c0,0,0.01,0.03,0.02,0.04C51.96,86.69,51.98,86.7,51.98,86.7z"
           id="path106" /><path
           style="fill:#F9A371;"
           d="M58.75,69.09c0,0-0.55-0.35-1.42-0.01c-4.82,1.88-5.83,1.42-6.28,0.97l-3.54,12.19l0,0l-0.47,1.61     c0.03,0.11,0.08,0.18,0.13,0.23c0.14,0.14,0.44,0.31,1.76-0.07c0.19-0.05,0.31,0,0.36,0.03c-0.01-0.03-0.02-0.05-0.02-0.05l0,0     l0.07,0.07L58.75,69.09z"
           id="path108" /><path
           style="fill:#F9A371;"
           d="M49.34,84.06l-0.07-0.07c0,0,0.01,0.02,0.02,0.05C49.3,84.04,49.34,84.06,49.34,84.06z"
           id="path110" /><path
           style="fill:#FFBF24;"
           d="M94.43,33.4L58.75,69.09l8.13,8.13l35.69-35.69L94.43,33.4z M58.75,69.09c0,0,0.42,0.66,0.04,1.68     c-2.14,5.69-1.58,6.89-1.03,7.44c0.55,0.55,1.75,1.11,7.44-1.03c1.02-0.38,1.68,0.04,1.68,0.04l-4.06-4.06L58.75,69.09z"
           id="path112" /><path
           style="fill:#EBA81B;"
           d="M102.56,41.53L66.87,77.22l5.75,5.75l35.69-35.69L102.56,41.53z M66.87,77.22     c0,0,0.35,0.55,0.01,1.42c-1.88,4.82-1.42,5.83-0.97,6.28l6.71-1.95l-2.38-2.38L66.87,77.22z"
           id="path114" /></g></g></g></svg>