<?xml version="1.0" encoding="UTF-8" standalone="no"?>
<!-- Generator: Adobe Illustrator 19.2.1, SVG Export Plug-In . SVG Version: 6.00 Build 0)  -->

<svg
   xmlns:dc="http://purl.org/dc/elements/1.1/"
   xmlns:cc="http://creativecommons.org/ns#"
   xmlns:rdf="http://www.w3.org/1999/02/22-rdf-syntax-ns#"
   xmlns:svg="http://www.w3.org/2000/svg"
   xmlns="http://www.w3.org/2000/svg"
   xmlns:sodipodi="http://sodipodi.sourceforge.net/DTD/sodipodi-0.dtd"
   xmlns:inkscape="http://www.inkscape.org/namespaces/inkscape"
   version="1.1"
   id="图层_1"
   x="0px"
   y="0px"
   viewBox="0 0 128 128"
   style="enable-background:new 0 0 128 128;"
   xml:space="preserve"
   inkscape:version="0.91 r13725"
   sodipodi:docname="1f574.svg"><metadata
     id="metadata129"><rdf:RDF><cc:Work
         rdf:about=""><dc:format>image/svg+xml</dc:format><dc:type
           rdf:resource="http://purl.org/dc/dcmitype/StillImage" /><dc:title></dc:title></cc:Work></rdf:RDF></metadata><defs
     id="defs127" /><sodipodi:namedview
     pagecolor="#ffffff"
     bordercolor="#666666"
     borderopacity="1"
     objecttolerance="10"
     gridtolerance="10"
     guidetolerance="10"
     inkscape:pageopacity="0"
     inkscape:pageshadow="2"
     inkscape:window-width="640"
     inkscape:window-height="480"
     id="namedview125"
     showgrid="false"
     inkscape:zoom="0.4609375"
     inkscape:cx="64"
     inkscape:cy="64"
     inkscape:window-x="0"
     inkscape:window-y="0"
     inkscape:window-maximized="0"
     inkscape:current-layer="图层_1" /><g
     id="g3"><path
       style="fill:#FCC21B;"
       d="M74.31,71.79c-0.11,1.63,1.19,3,2.83,2.97c1.42-0.03,2.59-1.14,2.7-2.56l0.31-3.03l-5.65-0.1   L74.31,71.79z"
       id="path5" /><path
       style="fill:#FCC21B;"
       d="M48.11,72.1c0.11,1.42,1.28,2.53,2.7,2.56c1.63,0.04,2.94-1.34,2.83-2.97l-0.18-2.63l-5.64,0.14   L48.11,72.1z"
       id="path7" /></g><g
     id="g9"><path
       style="fill:#2F2F2F;"
       d="M64,41.22l16.38-3.09c1.84,0,2.55,3.59,2.55,5.43l-2,25.76H63.75L64,41.22z"
       id="path11" /></g><ellipse
     style="fill:#C2C2C2;"
     cx="64.12"
     cy="123.65"
     rx="13.75"
     ry="3.6"
     id="ellipse13" /><rect
     x="61.97"
     y="43.13"
     style="fill:#FFFFFF;"
     width="3.43"
     height="11.4"
     id="rect15" /><g
     id="g43"><path
       style="fill:#2F2F2F;"
       d="M64,41.22l-16.38-3.09c-1.84,0-2.55,3.59-2.55,5.43l2,25.76h17.18L64,41.22z"
       id="path45" /></g><g
     id="g47"><polygon
       style="fill:#FCC21B;"
       points="63.83,45.23 60.07,39.8 60.07,36.66 67.93,36.66 67.93,39.8  "
       id="polygon49" /><path
       style="fill:#E8A23D;"
       d="M67.93,40.58c0,0-1.5,0.63-3.93,0.63c-2.42,0-3.93-0.63-3.93-0.63v-3.93c0-1.03,0.68-1.97,1.71-1.97   h4.44c1.03,0,1.71,0.94,1.71,1.97V40.58z"
       id="path51" /></g><g
     id="g53"><rect
       x="59.98"
       y="44.49"
       style="fill:#E5E5E5;"
       width="8.61"
       height="12.91"
       id="rect55" /><polygon
       style="fill:#E15148;"
       points="67.54,65.41 64.12,67.58 60.7,65.41 63.04,47.81 65.2,47.81  "
       id="polygon57" /><polygon
       style="fill:#E15148;"
       points="65.2,47.94 63.04,47.94 62.08,45.75 62.49,44.56 65.76,44.56 66.16,45.75  "
       id="polygon59" /><path
       style="fill:#FFFFFF;"
       d="M59.59,38.6l4.46,5.97l-3.51,4.01c-0.32,0.37-0.91,0.29-1.13-0.14l-2.74-6.9   c-0.15-0.38-0.02-0.81,0.31-1.05L59.59,38.6z"
       id="path61" /><path
       style="fill:#FFFFFF;"
       d="M68.52,38.6l-4.46,5.97l3.38,4c0.31,0.37,0.9,0.3,1.12-0.13l2.77-6.88c0.15-0.37,0.03-0.8-0.29-1.04   L68.52,38.6z"
       id="path63" /></g><polygon
     style="fill:#2F2F2F;"
     points="68.9,68.22 71.21,67.15 70.54,43.94 64.05,55.96 57.46,43.71 56.79,66.92 58.97,67.93   58.85,68.21 "
     id="polygon65" /><path
     style="fill:#2F2F2F;"
     d="M59.21,27.02c0,1.18-0.79,2.14-1.77,2.14c-0.98,0-1.78-0.96-1.78-2.14c0-1.19,0.8-2.15,1.78-2.15  C58.41,24.87,59.21,25.83,59.21,27.02"
     id="path67" /><path
     style="fill:#2F2F2F;"
     d="M68.09,27.02c0,1.18,0.79,2.14,1.78,2.14c0.98,0,1.78-0.96,1.78-2.14c0-1.19-0.8-2.15-1.78-2.15  C68.88,24.88,68.09,25.84,68.09,27.02"
     id="path69" /><g
     id="g71"><path
       style="fill:#6D4C41;"
       d="M77.26,26.6c0,0,0.04-3.58-1.89-5.81h-2.19v3.27L77.26,26.6z"
       id="path73" /><path
       style="fill:#6D4C41;"
       d="M50.73,26.6c0,0-0.04-3.58,1.89-5.81h2.19v3.27L50.73,26.6z"
       id="path75" /><path
       style="fill:#FCC21B;"
       d="M77.3,27.15c0,1.83-1.13,3.32-2.52,3.32s-2.52-1.48-2.52-3.32c0-1.83,1.13-3.32,2.52-3.32   S77.3,25.32,77.3,27.15"
       id="path77" /><path
       style="fill:#FCC21B;"
       d="M55.73,27.15c0,1.83-1.13,3.32-2.52,3.32c-1.39,0-2.52-1.48-2.52-3.32c0-1.83,1.13-3.32,2.52-3.32   C54.6,23.84,55.73,25.32,55.73,27.15"
       id="path79" /><path
       style="fill:#FCC21B;"
       d="M75.89,24.75c0-2.96-5.32-9.8-11.89-9.8c-6.56,0-11.89,6.83-11.89,9.8c0,2.96,0.87,13.5,11.89,13.5   C75.02,38.25,75.89,27.71,75.89,24.75"
       id="path81" /><path
       style="fill:#6D4C41;"
       d="M51.14,24.11l-0.03,1.2c0,0,1.34,0.11,2.07,2.18l0,0l0.21,0.84c0.11,0.43,0.58,0.64,0.97,0.45   c0.23-0.12,0.38-0.35,0.38-0.61v-4.91l-2.14-0.4L51.14,24.11z"
       id="path83" /><path
       style="fill:#6D4C41;"
       d="M76.86,24.11l0.03,1.2c0,0-1.34,0.11-2.07,2.18l0,0l-0.21,0.84c-0.11,0.43-0.58,0.64-0.97,0.45   c-0.23-0.12-0.38-0.35-0.38-0.61v-4.91l2.14-0.4L76.86,24.11z"
       id="path85" /></g><g
     id="g87"><path
       style="fill-rule:evenodd;clip-rule:evenodd;fill:#FFFFFF;"
       d="M72.21,27.81L72.21,27.81c0.03-1.03-0.15-1.27-0.94-1.4   c-0.74-0.13-1.51-0.19-2.26-0.16c-0.91,0.03-1.93,0.32-2.63,0.57c-0.89,0.33-1.02,0.39-0.82,0.85c0.55,1.3,1.22,3.07,3.98,2.98   C71.58,30.59,72.17,29.4,72.21,27.81"
       id="path89" /><path
       style="fill-rule:evenodd;clip-rule:evenodd;fill:#FFFFFF;"
       d="M55.58,27.81c0.04,1.58,0.63,2.78,2.67,2.84   c2.76,0.08,3.44-1.68,3.98-2.98c0.19-0.46,0.07-0.52-0.82-0.85c-0.69-0.25-1.72-0.54-2.63-0.57c-0.75-0.02-1.51,0.04-2.26,0.16   C55.73,26.55,55.56,26.79,55.58,27.81z"
       id="path91" /><path
       style="fill-rule:evenodd;clip-rule:evenodd;fill:#2F2F2F;"
       d="M54.56,25.92c5.46-0.66,6.43,0.17,9.44,0.22   c3.01-0.05,3.98-1.01,9.44-0.22c0.34,0.05,0.37,0.06,0.43,0.34c0.02,0.12,0.04,0.64,0.05,0.76c0.01,0.23-0.04,0.26-0.32,0.38   c-0.24,0.1-0.35,0.13-0.35,0.55c0,2.73-1.51,3.58-3.54,3.64c-2.15,0.07-3.89-0.93-4.62-2.47c-1.03-2.17-1.19-2.17-2.22,0   c-0.73,1.54-2.43,2.54-4.57,2.47c-2.03-0.07-3.54-1.01-3.54-3.64c0-0.41-0.11-0.45-0.35-0.55c-0.27-0.12-0.33-0.15-0.32-0.38   c0.01-0.12,0.02-0.64,0.05-0.76C54.19,25.98,54.22,26.1,54.56,25.92L54.56,25.92z M72.35,27.9c0.03-1.03-0.15-1.27-0.94-1.4   c-0.74-0.13-1.51-0.19-2.26-0.16c-0.91,0.03-1.94,0.19-2.63,0.44c-0.89,0.33-0.99,0.58-0.79,1.04c0.55,1.3,1.2,3,3.96,2.92   C71.71,30.68,72.31,29.48,72.35,27.9L72.35,27.9z M55.65,27.9c0.04,1.58,0.63,2.78,2.67,2.84c2.76,0.08,3.44-1.68,3.98-2.98   c0.19-0.46,0.07-0.52-0.82-0.85c-0.69-0.25-1.72-0.54-2.63-0.57c-0.75-0.02-1.51,0.04-2.26,0.16C55.8,26.63,55.62,26.87,55.65,27.9   z"
       id="path93" /><path
       style="fill:#2F2F2F;"
       d="M62.39,29.07c-0.74,1.1-2.61,2.08-3.88,2.08c-1.27,0-3.03-0.62-2.61-2.29   c0.44-1.76,1.35-2.62,2.61-2.62C59.78,26.24,64.19,26.39,62.39,29.07z"
       id="path95" /><path
       style="fill:#2F2F2F;"
       d="M72.71,29.07c-0.6,1.16-2.61,2.08-3.88,2.08c-1.27,0-2.35-0.95-2.31-2.42   c0.04-1.63,1.23-2.5,2.5-2.48C71.53,26.3,74.12,26.33,72.71,29.07z"
       id="path97" /></g><polygon
     style="fill:#E15148;"
     points="74.3,51.83 69.21,51.83 69.21,51.21 71.76,50.21 74.3,51.21 "
     id="polygon101" /><path
     style="fill:#444444;"
     d="M75.15,38.6l-2.02,2.92l3.08,0.45c-0.09,0.61-0.14,1.6-0.56,2.05l-11.67,15.9l0.01-3.96l6.07-16.18  L75.15,38.6z"
     id="path105" /><g
     id="g107"><polygon
       style="fill:#2F2F2F;"
       points="70.44,103.34 57.56,103.34 53.25,68.46 74.75,68.46  "
       id="polygon109" /><path
       style="fill:#444444;"
       d="M60.5,111.98L60.5,111.98c-1.62,0-2.93-1.31-2.93-2.93v-5.71h5.86v5.71   C63.43,110.67,62.12,111.98,60.5,111.98z"
       id="path111" /><path
       style="fill:#444444;"
       d="M67.54,111.98L67.54,111.98c-1.62,0-2.93-1.31-2.93-2.93v-5.71h5.86v5.71   C70.47,110.67,69.16,111.98,67.54,111.98z"
       id="path113" /><path
       style="fill:#444444;"
       d="M63.19,74.76c-0.45,0.27-0.72,0.76-0.7,1.28l0.94,27.29h1.18l0.77-27.3   c0.01-0.52-0.25-1.01-0.7-1.27l-0.01,0C64.22,74.49,63.65,74.49,63.19,74.76L63.19,74.76z"
       id="path115" /><path
       style="fill:#FFFFFF;"
       d="M63.43,104.55L63.43,104.55c-1.91,0.61-3.96,0.61-5.87,0h0v-1.21h5.87V104.55z"
       id="path117" /><path
       style="fill:#FFFFFF;"
       d="M70.48,104.55L70.48,104.55c-1.91,0.61-3.96,0.61-5.87,0l0,0v-1.21h5.87V104.55z"
       id="path119" /></g><path
     style="fill:#2F2F2F;"
     d="M75.69,19.99c0,0-1.1-6.55-2.39-8.03c-1.27-1.46-6.28-1.68-9.29-1.69l0,0h0h0l0,0  c-3.01,0.01-8.02,0.23-9.29,1.69c-1.29,1.48-2.39,8.03-2.39,8.03s-4.91,1.46-2.77,2.71c1.04,0.61,5.61,0.99,14.46,1l0,0h0h0l0,0  c8.85-0.01,13.42-0.39,14.46-1C80.6,21.45,75.69,19.99,75.69,19.99z"
     id="path121" /><path
     style="fill:#444444;"
     d="M52.85,38.6l2.02,2.92l-3.08,0.45c0.09,0.61,0.14,1.6,0.56,2.05l11.67,15.9l-0.01-3.96l-6.07-16.18  L52.85,38.6z"
     id="path123" /></svg>