<?xml version="1.0" encoding="UTF-8" standalone="no"?>
<!-- Generator: Adobe Illustrator 19.2.1, SVG Export Plug-In . SVG Version: 6.00 Build 0)  -->

<svg
   xmlns:dc="http://purl.org/dc/elements/1.1/"
   xmlns:cc="http://creativecommons.org/ns#"
   xmlns:rdf="http://www.w3.org/1999/02/22-rdf-syntax-ns#"
   xmlns:svg="http://www.w3.org/2000/svg"
   xmlns="http://www.w3.org/2000/svg"
   xmlns:sodipodi="http://sodipodi.sourceforge.net/DTD/sodipodi-0.dtd"
   xmlns:inkscape="http://www.inkscape.org/namespaces/inkscape"
   version="1.1"
   x="0px"
   y="0px"
   viewBox="0 0 128 128"
   style="enable-background:new 0 0 128 128;"
   xml:space="preserve"
   id="svg2"
   inkscape:version="0.91 r13725"
   sodipodi:docname="1f577.svg"><metadata
     id="metadata85"><rdf:RDF><cc:Work
         rdf:about=""><dc:format>image/svg+xml</dc:format><dc:type
           rdf:resource="http://purl.org/dc/dcmitype/StillImage" /><dc:title></dc:title></cc:Work></rdf:RDF></metadata><defs
     id="defs83" /><sodipodi:namedview
     pagecolor="#ffffff"
     bordercolor="#666666"
     borderopacity="1"
     objecttolerance="10"
     gridtolerance="10"
     guidetolerance="10"
     inkscape:pageopacity="0"
     inkscape:pageshadow="2"
     inkscape:window-width="640"
     inkscape:window-height="480"
     id="namedview81"
     showgrid="false"
     inkscape:zoom="0.16296602"
     inkscape:cx="64"
     inkscape:cy="64"
     inkscape:window-x="0"
     inkscape:window-y="0"
     inkscape:window-maximized="0"
     inkscape:current-layer="レイヤー_1" /><g
     id="Layer_3"
     style="display:none;"><rect
       style="display:inline;fill:#333333;"
       width="128"
       height="128"
       id="rect5" /></g><g
     id="レイヤー_1"><path
       style="fill:#474C4F;"
       d="M112.03,60.69c-0.73-1.16-1.85-2.06-3.16-2.53l-19.24-6.89l14.18-0.73c2.1-0.11,3.99-1.26,5.06-3.07   c2.31-3.92,7.06-15.65,1.36-39.89c-0.47-2.01-2.48-3.26-4.49-2.78c-2.01,0.47-3.25,2.48-2.78,4.49   c4.89,20.78,1.43,30.64-0.22,33.83l-20.06,1.03v-0.14c0-0.2-0.02-0.39-0.03-0.59l10.49-3.64c2.29-0.8,3.93-2.87,4.16-5.27   c0.42-4.36,0.68-15.93-5.99-29.09c-0.93-1.84-3.18-2.58-5.02-1.64c-1.84,0.93-2.58,3.18-1.64,5.02c5.41,10.67,5.58,19.99,5.28,24.2   l-9.56,3.32c-1.47-2.24-3.55-4.03-6-5.15c-0.01-2.2-0.31-6.91-2.76-7.79c-4.35-1.55-4.06,3.68-7.02,3.68   c-2.74,0-2.67-5.24-7.02-3.68c-2.35,0.84-2.72,5.21-2.75,7.51c-2.67,1.06-4.95,2.9-6.54,5.25L39.23,33   c-0.29-4.2-0.12-13.52,5.28-24.2c0.93-1.84,0.2-4.09-1.64-5.02c-1.84-0.93-4.09-0.2-5.02,1.64c-6.67,13.16-6.41,24.73-5.99,29.09   c0.23,2.41,1.86,4.48,4.16,5.28l9.88,3.43c-0.02,0.27-0.04,0.53-0.04,0.8v0.11l-19.44-1c-1.65-3.19-5.1-13.04-0.22-33.83   c0.47-2.01-0.77-4.02-2.78-4.49c-2.01-0.47-4.02,0.77-4.49,2.78c-5.7,24.24-0.95,35.98,1.36,39.89c1.07,1.82,2.96,2.96,5.06,3.07   l14.18,0.73l-19.24,6.89c-1.31,0.47-2.43,1.36-3.16,2.53c-2.38,3.78-9.54,18.14-1.9,44.44c0.47,1.63,1.97,2.7,3.59,2.7   c0.34,0,0.7-0.05,1.04-0.15c1.98-0.58,3.12-2.65,2.55-4.63c-6.62-22.79-0.93-34.99,0.82-38l22.84-8.18c0,0.03,0.01,0.06,0.01,0.08   L31.65,70.15c-0.85,0.78-1.47,1.78-1.79,2.9c-1.17,4.09-6.53,25.7,2.5,48.9c0.58,1.48,1.99,2.38,3.48,2.38   c0.45,0,0.91-0.08,1.35-0.26c1.92-0.75,2.87-2.91,2.13-4.84c-7.95-20.41-3.58-39.4-2.37-43.81l12.54-11.45   c1.24,1.38,2.74,2.51,4.42,3.33c-5.09,0.9-9.37,4.55-10.85,9.6c-1.29,4.41-1.98,10.63-0.79,19.22c3.1,22.52,18.7,25.54,22.24,25.54   c3.54,0,18.67-3.03,21.77-25.54c1.18-8.59,0.5-14.81-0.79-19.22c-1.48-5.05-5.75-8.7-10.84-9.6c1.81-0.87,3.42-2.11,4.71-3.64   l12.88,11.76c1.21,4.41,5.58,23.4-2.37,43.81c-0.75,1.92,0.2,4.09,2.13,4.84c0.45,0.17,0.9,0.26,1.35,0.26   c1.5,0,2.91-0.9,3.48-2.38c9.03-23.2,3.67-44.81,2.5-48.9c-0.32-1.11-0.94-2.12-1.79-2.9l-14.6-13.34l23.02,8.24   c1.76,3.01,7.44,15.2,0.82,38c-0.58,1.98,0.56,4.05,2.55,4.63c0.35,0.1,0.7,0.15,1.04,0.15c1.62,0,3.11-1.06,3.59-2.7   C121.58,78.83,114.41,64.47,112.03,60.69z"
       id="path12" /></g><g
     id="Layer_2"><g
       id="g37"><path
         style="fill:#CCCCCC;"
         d="M109.81,64.57c0,0,0.07,0.13,0.21,0.39c0.14,0.24,0.33,0.65,0.57,1.16    c0.22,0.51,0.5,1.12,0.75,1.85c0.28,0.72,0.52,1.54,0.79,2.44c0.23,0.91,0.49,1.89,0.68,2.94c0.23,1.05,0.35,2.16,0.52,3.32    c0.1,1.16,0.24,2.35,0.25,3.57c0.07,1.22,0.05,2.45,0.02,3.68c0,1.23-0.15,2.46-0.22,3.67c-0.11,1.21-0.28,2.38-0.42,3.53    c-0.17,1.14-0.38,2.23-0.56,3.27c-0.16,1.04-0.44,2-0.62,2.9c-0.21,0.89-0.37,1.72-0.59,2.44c-0.2,0.72-0.38,1.34-0.52,1.86    c-0.29,1.03-0.45,1.62-0.45,1.62c-0.07,0.26-0.34,0.41-0.6,0.34c-0.25-0.07-0.4-0.33-0.34-0.59l0.01-0.02c0,0,0.15-0.59,0.4-1.61    c0.13-0.51,0.29-1.14,0.46-1.85c0.2-0.71,0.33-1.53,0.52-2.42c0.16-0.89,0.41-1.84,0.54-2.87c0.15-1.03,0.33-2.1,0.46-3.23    c0.1-1.13,0.24-2.28,0.32-3.47c0.03-1.18,0.15-2.38,0.12-3.58c0-1.2-0.01-2.4-0.11-3.58c-0.04-1.18-0.22-2.33-0.34-3.44    c-0.19-1.1-0.33-2.18-0.58-3.17c-0.2-1-0.48-1.93-0.72-2.78c-0.28-0.84-0.53-1.62-0.81-2.27c-0.25-0.67-0.53-1.23-0.74-1.69    c-0.23-0.44-0.39-0.78-0.55-1.04c-0.14-0.25-0.22-0.38-0.22-0.38c-0.27-0.48-0.11-1.09,0.37-1.36c0.48-0.27,1.09-0.11,1.36,0.37    C109.8,64.55,109.81,64.57,109.81,64.57z"
         id="path39" /></g><g
       id="g41"><path
         style="fill:#CCCCCC;"
         d="M96.19,75.18c0,0,0.04,0.17,0.12,0.49c0.08,0.31,0.19,0.79,0.33,1.4c0.27,1.22,0.62,2.95,0.91,5.04    c0.16,1.05,0.28,2.19,0.41,3.39c0.1,1.21,0.23,2.48,0.27,3.8c0.03,0.66,0.05,1.33,0.08,2.01c0,0.68,0,1.37,0.01,2.06    c0.03,1.39-0.08,2.79-0.12,4.2c-0.13,1.4-0.2,2.81-0.38,4.18c-0.19,1.37-0.32,2.73-0.59,4.02c-0.24,1.3-0.45,2.56-0.75,3.73    c-0.29,1.17-0.51,2.3-0.84,3.3c-0.3,1.01-0.58,1.94-0.82,2.76c-0.29,0.81-0.55,1.51-0.76,2.09c-0.42,1.16-0.66,1.82-0.66,1.82    c-0.11,0.3-0.45,0.46-0.75,0.35c-0.3-0.11-0.46-0.44-0.35-0.74l0.01-0.03c0,0,0.22-0.65,0.62-1.8c0.2-0.57,0.43-1.26,0.7-2.06    c0.23-0.81,0.48-1.72,0.76-2.72c0.31-0.99,0.5-2.1,0.77-3.25c0.28-1.15,0.46-2.39,0.67-3.67c0.24-1.27,0.34-2.61,0.5-3.95    c0.16-1.35,0.2-2.73,0.3-4.1c0.01-1.38,0.1-2.76,0.04-4.11c-0.01-0.68-0.03-1.35-0.04-2.01c-0.04-0.66-0.08-1.32-0.12-1.96    c-0.07-1.29-0.22-2.53-0.33-3.71c-0.15-1.17-0.29-2.28-0.47-3.3c-0.32-2.04-0.69-3.72-0.97-4.87c-0.14-0.57-0.25-1.03-0.34-1.35    c-0.09-0.32-0.13-0.48-0.13-0.48c-0.15-0.53,0.17-1.08,0.7-1.23c0.53-0.15,1.08,0.17,1.23,0.7    C96.18,75.16,96.18,75.17,96.19,75.18z"
         id="path43" /></g><g
       id="g45"><path
         style="fill:#CCCCCC;"
         d="M33.82,73.31c0,0-0.23,0.76-0.55,2.04c-0.31,1.3-0.76,3.17-1.13,5.44    c-0.21,1.13-0.36,2.38-0.54,3.69c-0.13,1.32-0.31,2.7-0.39,4.14c-0.13,1.44-0.17,2.93-0.21,4.45c-0.04,1.52,0,3.06,0.03,4.6    c0.11,1.54,0.11,3.08,0.31,4.59c0.15,1.51,0.29,3,0.54,4.42c0.11,0.71,0.22,1.42,0.33,2.11c0.11,0.69,0.28,1.35,0.41,2    c0.28,1.3,0.51,2.53,0.84,3.64c0.31,1.12,0.59,2.14,0.83,3.05c0.3,0.89,0.57,1.67,0.79,2.31c0.44,1.28,0.68,2.01,0.68,2.01    l0.01,0.03c0.08,0.22-0.04,0.47-0.27,0.54c-0.22,0.08-0.46-0.04-0.54-0.26c0,0-0.27-0.73-0.74-2.02    c-0.24-0.64-0.52-1.42-0.85-2.32c-0.27-0.91-0.58-1.95-0.92-3.07c-0.37-1.12-0.63-2.36-0.94-3.67c-0.15-0.66-0.33-1.33-0.46-2.02    c-0.12-0.7-0.25-1.41-0.38-2.13c-0.29-1.44-0.46-2.95-0.65-4.48c-0.23-1.53-0.27-3.1-0.42-4.66c-0.07-1.57-0.14-3.13-0.14-4.68    c0.01-1.54,0.02-3.07,0.11-4.53c0.05-1.47,0.2-2.89,0.3-4.23c0.16-1.34,0.28-2.61,0.47-3.78c0.33-2.34,0.73-4.26,1.03-5.62    c0.31-1.37,0.52-2.1,0.52-2.1l0.01-0.04c0.15-0.53,0.7-0.84,1.23-0.69c0.53,0.15,0.84,0.7,0.69,1.23    C33.82,73.3,33.82,73.31,33.82,73.31z"
         id="path47" /></g><g
       id="g49"><path
         style="fill:#CCCCCC;"
         d="M20.1,62.3c0,0-0.09,0.15-0.26,0.43c-0.18,0.28-0.39,0.68-0.66,1.18    c-0.25,0.51-0.59,1.15-0.89,1.91c-0.33,0.75-0.63,1.63-0.96,2.59c-0.28,0.98-0.61,2.03-0.84,3.18c-0.29,1.13-0.45,2.36-0.67,3.62    c-0.13,1.27-0.32,2.59-0.36,3.94c-0.03,0.67-0.09,1.35-0.09,2.04c0,0.68,0,1.37,0,2.06c-0.03,1.37,0.12,2.75,0.17,4.1    c0.1,1.35,0.27,2.68,0.4,3.96c0.17,1.28,0.39,2.51,0.56,3.69c0.17,1.18,0.45,2.26,0.64,3.28c0.22,1.01,0.38,1.95,0.61,2.76    c0.21,0.82,0.39,1.53,0.54,2.12c0.3,1.17,0.47,1.84,0.47,1.84l0.01,0.02c0.07,0.29-0.1,0.58-0.39,0.66    c-0.28,0.07-0.57-0.1-0.65-0.38c0,0-0.19-0.67-0.51-1.85c-0.16-0.59-0.36-1.31-0.59-2.13c-0.25-0.82-0.44-1.76-0.67-2.78    c-0.22-1.03-0.52-2.12-0.72-3.31c-0.2-1.19-0.45-2.43-0.65-3.73c-0.16-1.31-0.36-2.65-0.49-4.03c-0.08-1.38-0.26-2.78-0.26-4.19    c-0.01-0.7-0.03-1.41-0.04-2.11c-0.01-0.7,0.04-1.4,0.05-2.1c0.01-1.39,0.18-2.75,0.29-4.07c0.19-1.31,0.34-2.59,0.61-3.78    c0.22-1.2,0.54-2.32,0.82-3.35c0.33-1.02,0.63-1.96,0.96-2.77c0.31-0.82,0.64-1.5,0.92-2.08c0.3-0.58,0.53-1.03,0.7-1.3    c0.16-0.28,0.25-0.43,0.25-0.43c0.28-0.48,0.89-0.64,1.37-0.36s0.64,0.89,0.36,1.37C20.11,62.29,20.1,62.3,20.1,62.3z"
         id="path51" /></g><g
       id="g53"><path
         style="fill:#CCCCCC;"
         d="M22.91,7.8c0,0-0.14,0.62-0.39,1.7c-0.12,0.54-0.28,1.2-0.45,1.95c-0.19,0.76-0.33,1.6-0.52,2.53    c-0.17,0.93-0.4,1.92-0.55,2.99c-0.16,1.07-0.36,2.2-0.52,3.37c-0.13,1.17-0.3,2.38-0.41,3.62c-0.08,1.23-0.23,2.49-0.26,3.74    c-0.06,1.26-0.1,2.51-0.07,3.75c-0.02,1.24,0.08,2.45,0.13,3.63c0.12,1.17,0.2,2.3,0.38,3.36c0.14,1.07,0.36,2.06,0.55,2.97    c0.22,0.91,0.44,1.74,0.68,2.45c0.23,0.72,0.47,1.33,0.69,1.83c0.21,0.5,0.39,0.88,0.54,1.12c0.13,0.25,0.2,0.39,0.2,0.39    l0.02,0.03c0.14,0.26,0.04,0.59-0.23,0.73c-0.26,0.14-0.58,0.04-0.72-0.21c0,0-0.08-0.14-0.23-0.41c-0.16-0.27-0.36-0.67-0.6-1.19    c-0.24-0.52-0.5-1.16-0.77-1.91c-0.27-0.75-0.52-1.6-0.77-2.54c-0.22-0.94-0.47-1.97-0.64-3.06c-0.21-1.09-0.32-2.25-0.47-3.45    c-0.08-1.2-0.21-2.45-0.22-3.71c-0.06-1.27-0.04-2.55-0.01-3.83c0-1.29,0.12-2.56,0.18-3.82c0.09-1.26,0.23-2.49,0.34-3.69    c0.14-1.19,0.31-2.34,0.45-3.43c0.13-1.09,0.35-2.12,0.5-3.07c0.17-0.95,0.3-1.83,0.47-2.58c0.16-0.76,0.29-1.42,0.4-1.96    c0.22-1.09,0.35-1.71,0.35-1.71c0.11-0.54,0.64-0.89,1.18-0.78c0.54,0.11,0.89,0.64,0.78,1.18C22.91,7.78,22.91,7.79,22.91,7.8z"
         id="path55" /></g><g
       id="g57"><path
         style="fill:#CCCCCC;"
         d="M41.75,5.86c0,0-0.21,0.42-0.59,1.16c-0.19,0.37-0.41,0.82-0.67,1.33    c-0.24,0.51-0.51,1.09-0.8,1.72c-0.3,0.62-0.58,1.34-0.9,2.07c-0.32,0.74-0.61,1.53-0.93,2.35c-0.33,0.82-0.59,1.68-0.9,2.55    c-0.29,0.88-0.56,1.77-0.82,2.67c-1.03,3.6-1.7,7.31-1.96,10.1c-0.28,2.8-0.12,4.65-0.12,4.65c0.02,0.22-0.14,0.41-0.36,0.43    c-0.21,0.02-0.4-0.14-0.43-0.35l0-0.01c0,0-0.24-1.93-0.07-4.8c0.15-2.87,0.68-6.67,1.59-10.38c0.23-0.93,0.47-1.85,0.73-2.76    c0.28-0.9,0.52-1.8,0.82-2.64c0.29-0.85,0.55-1.68,0.85-2.44c0.3-0.77,0.55-1.5,0.84-2.17c0.28-0.67,0.53-1.28,0.76-1.82    C39.02,7,39.23,6.55,39.4,6.17c0.35-0.75,0.54-1.18,0.54-1.18c0.23-0.5,0.82-0.72,1.33-0.49c0.5,0.23,0.72,0.82,0.49,1.33    C41.76,5.83,41.75,5.85,41.75,5.86z"
         id="path59" /></g><g
       id="g61"><path
         style="fill:#CCCCCC;"
         d="M87.93,6.6c0,0,0.17,0.38,0.48,1.05c0.31,0.65,0.72,1.65,1.2,2.86c0.46,1.2,0.94,2.61,1.41,4.14    c0.44,1.54,0.88,3.18,1.22,4.85c0.71,3.33,1.07,6.71,1.18,9.26c0.11,2.55-0.06,4.26-0.06,4.26l0,0.01    c-0.02,0.23-0.23,0.39-0.45,0.37c-0.22-0.02-0.38-0.21-0.37-0.43c0,0,0.09-1.65-0.12-4.14c-0.21-2.48-0.71-5.79-1.55-9    c-0.4-1.61-0.9-3.2-1.39-4.67c-0.51-1.47-1.05-2.81-1.54-3.95c-0.5-1.12-0.93-2.05-1.28-2.71c-0.33-0.66-0.52-1.03-0.52-1.03    c-0.25-0.49-0.05-1.09,0.44-1.34c0.49-0.25,1.09-0.05,1.34,0.44C87.92,6.58,87.92,6.59,87.93,6.6z"
         id="path63" /></g><g
       id="g65"><path
         style="fill:#CCCCCC;"
         d="M106.93,9.08c0,0,0.11,0.53,0.29,1.45c0.18,0.93,0.48,2.23,0.73,3.85c0.13,0.81,0.3,1.68,0.42,2.6    c0.12,0.93,0.24,1.9,0.37,2.91c0.09,1.01,0.19,2.06,0.28,3.13c0.05,1.07,0.14,2.15,0.15,3.24c0.05,2.18-0.02,4.36-0.2,6.39    c-0.12,1.02-0.21,2-0.38,2.93c-0.14,0.93-0.34,1.8-0.52,2.6c-0.21,0.8-0.4,1.52-0.63,2.16c-0.2,0.64-0.43,1.18-0.61,1.63    c-0.19,0.44-0.35,0.79-0.47,1.02c-0.12,0.23-0.18,0.36-0.18,0.36c-0.13,0.25-0.43,0.35-0.68,0.23c-0.24-0.12-0.35-0.42-0.23-0.66    l0.01-0.03c0,0,0.05-0.12,0.16-0.34c0.11-0.22,0.24-0.55,0.41-0.97c0.16-0.43,0.36-0.95,0.53-1.57c0.19-0.61,0.36-1.32,0.54-2.09    c0.15-0.78,0.32-1.62,0.43-2.52c0.14-0.9,0.2-1.86,0.29-2.85c0.12-1.98,0.13-4.11,0.02-6.23c-0.04-1.06-0.16-2.12-0.23-3.16    c-0.12-1.04-0.25-2.06-0.36-3.05c-0.16-0.99-0.31-1.94-0.45-2.84c-0.14-0.9-0.33-1.74-0.48-2.53c-0.28-1.56-0.62-2.87-0.83-3.79    c-0.21-0.92-0.34-1.44-0.34-1.44c-0.13-0.54,0.21-1.08,0.75-1.2c0.54-0.13,1.08,0.21,1.2,0.75    C106.93,9.06,106.93,9.08,106.93,9.08z"
         id="path67" /></g><g
       id="g69"><path
         style="fill:#CCCCCC;"
         d="M61.69,35.46c0,0-0.36,0.39-1.04,0.97c-0.37,0.29-0.68,0.63-1.07,1.01    c-0.4,0.33-0.81,0.83-1.29,1.26c-0.43,0.49-0.92,0.97-1.35,1.52c-0.25,0.25-0.44,0.55-0.66,0.84c-0.24,0.27-0.41,0.6-0.63,0.89    c-0.41,0.61-0.77,1.28-1.08,1.98c-0.27,0.72-0.56,1.46-0.71,2.27c-0.19,0.79-0.28,1.62-0.33,2.46c-0.06,0.83-0.03,1.68,0,2.51    c0.06,0.83,0.14,1.64,0.25,2.42c0.1,0.78,0.26,1.51,0.39,2.2c0.28,1.37,0.59,2.52,0.81,3.32c0.23,0.79,0.35,1.24,0.35,1.24    l0.03,0.09c0.15,0.54-0.16,1.1-0.7,1.25c-0.4,0.11-0.8-0.03-1.05-0.32c0,0-0.09-0.11-0.25-0.3c-0.16-0.19-0.38-0.48-0.65-0.85    c-0.53-0.74-1.22-1.84-1.92-3.25c-0.35-0.71-0.67-1.5-0.98-2.35c-0.33-0.85-0.58-1.79-0.81-2.78c-0.19-1-0.38-2.05-0.41-3.15    c-0.07-1.1-0.01-2.23,0.16-3.38c0.16-1.14,0.48-2.28,0.89-3.36c0.44-1.07,0.96-2.1,1.62-3c0.64-0.9,1.37-1.68,2.13-2.32    c0.75-0.65,1.54-1.14,2.26-1.56c0.76-0.37,1.42-0.7,2.1-0.9c0.66-0.19,1.24-0.4,1.67-0.44c0.88-0.14,1.41-0.16,1.41-0.16    c0.63-0.02,1.15,0.47,1.17,1.09C61.99,34.97,61.88,35.25,61.69,35.46z"
         id="path71" /></g><g
       id="g73"><path
         style="fill:#CCCCCC;"
         d="M58.04,77.68c0,0-0.17,0.1-0.49,0.28c-0.29,0.17-0.89,0.49-1.15,0.73    c-0.34,0.21-0.84,0.65-1.38,1.18c-0.24,0.29-0.53,0.57-0.79,0.92c-0.24,0.37-0.55,0.7-0.78,1.14c-0.25,0.42-0.52,0.86-0.73,1.36    c-0.25,0.48-0.45,1.02-0.65,1.57c-0.22,0.55-0.36,1.16-0.54,1.76c-0.12,0.63-0.3,1.25-0.39,1.92c-0.24,1.32-0.32,2.74-0.36,4.18    c0,1.45,0.06,2.93,0.24,4.42c0.34,2.97,1.07,5.91,2.05,8.57c0.51,1.32,1.05,2.58,1.67,3.72c0.6,1.15,1.27,2.18,1.93,3.09    c0.68,0.9,1.36,1.69,2.03,2.3c0.33,0.32,0.64,0.61,0.96,0.84c0.31,0.24,0.59,0.48,0.88,0.64c0.28,0.17,0.53,0.33,0.74,0.46    c0.23,0.11,0.42,0.2,0.58,0.27c0.32,0.15,0.49,0.23,0.49,0.23l0.05,0.02c0.21,0.1,0.3,0.35,0.2,0.57    c-0.09,0.2-0.32,0.29-0.52,0.22c0,0-0.19-0.07-0.56-0.19c-0.18-0.06-0.41-0.14-0.67-0.23c-0.25-0.12-0.54-0.26-0.86-0.41    c-0.33-0.14-0.66-0.36-1.03-0.58c-0.38-0.21-0.75-0.49-1.15-0.79c-0.81-0.59-1.63-1.36-2.47-2.24c-0.83-0.9-1.66-1.93-2.44-3.08    c-0.8-1.15-1.53-2.43-2.23-3.78c-1.36-2.72-2.51-5.79-3.24-8.99c-0.38-1.6-0.63-3.23-0.81-4.86c-0.13-1.63-0.23-3.26-0.12-4.85    c0.01-0.8,0.13-1.58,0.21-2.35c0.13-0.77,0.23-1.53,0.42-2.26c0.18-0.74,0.36-1.45,0.61-2.13c0.21-0.69,0.5-1.34,0.78-1.97    c0.26-0.63,0.63-1.2,0.93-1.76c0.32-0.55,0.7-1.04,1.02-1.51c0.72-0.9,1.39-1.66,2.13-2.28c0.75-0.69,1.11-0.9,1.42-1.14    c0.29-0.22,0.45-0.34,0.45-0.34c1.42-1.06,3.44-0.76,4.5,0.66c1.06,1.42,0.76,3.44-0.66,4.5C58.25,77.55,58.14,77.62,58.04,77.68z    "
         id="path75" /></g><circle
       style="fill:#CCCCCC;"
       cx="58.5"
       cy="26.96"
       r="1.75"
       id="circle77" /><circle
       style="fill:#CCCCCC;"
       cx="70.5"
       cy="26.96"
       r="1.75"
       id="circle79" /></g></svg>