<?xml version="1.0" encoding="UTF-8" standalone="no"?>
<!-- Generator: Adobe Illustrator 19.2.1, SVG Export Plug-In . SVG Version: 6.00 Build 0)  -->

<svg
   xmlns:dc="http://purl.org/dc/elements/1.1/"
   xmlns:cc="http://creativecommons.org/ns#"
   xmlns:rdf="http://www.w3.org/1999/02/22-rdf-syntax-ns#"
   xmlns:svg="http://www.w3.org/2000/svg"
   xmlns="http://www.w3.org/2000/svg"
   xmlns:sodipodi="http://sodipodi.sourceforge.net/DTD/sodipodi-0.dtd"
   xmlns:inkscape="http://www.inkscape.org/namespaces/inkscape"
   version="1.1"
   id="图层_1"
   x="0px"
   y="0px"
   viewBox="0 0 128 128"
   style="enable-background:new 0 0 128 128;"
   xml:space="preserve"
   inkscape:version="0.91 r13725"
   sodipodi:docname="1f5a4.svg"><metadata
     id="metadata11"><rdf:RDF><cc:Work
         rdf:about=""><dc:format>image/svg+xml</dc:format><dc:type
           rdf:resource="http://purl.org/dc/dcmitype/StillImage" /><dc:title></dc:title></cc:Work></rdf:RDF></metadata><defs
     id="defs9" /><sodipodi:namedview
     pagecolor="#ffffff"
     bordercolor="#666666"
     borderopacity="1"
     objecttolerance="10"
     gridtolerance="10"
     guidetolerance="10"
     inkscape:pageopacity="0"
     inkscape:pageshadow="2"
     inkscape:window-width="717"
     inkscape:window-height="480"
     id="namedview7"
     showgrid="false"
     inkscape:zoom="1.84375"
     inkscape:cx="64"
     inkscape:cy="64"
     inkscape:window-x="0"
     inkscape:window-y="0"
     inkscape:window-maximized="0"
     inkscape:current-layer="图层_1" /><path
     d="M90.38,20.11c-11.87,0-22.04,6.52-26.38,16.07c-4.34-9.55-14.51-16.07-26.38-16.07C21.84,20.11,9,31.94,9,46.48  C9,66.7,23.86,76.31,38.22,85.59c9.1,5.88,18.5,11.96,23.66,20.66c0.05,0.2,0.12,0.39,0.23,0.57c0.38,0.65,1.08,1.06,1.84,1.06h0.1  c0.76,0,1.44-0.45,1.82-1.11c0.07-0.12,0.13-0.25,0.17-0.38c5.14-8.78,14.59-14.89,23.74-20.8C104.14,76.31,119,66.7,119,46.48  C119,31.94,106.16,20.11,90.38,20.11z"
     id="path3"
     style="fill:#010101;fill-opacity:1" /><path
     style="fill:none;stroke:#E1E1E0;stroke-width:6;stroke-linecap:round;stroke-miterlimit:10;"
     d="M34.11,30.15  c-5.75,1.03-9.92,4.39-11.91,9.34"
     id="path5" /></svg>
