<?xml version="1.0" encoding="UTF-8" standalone="no"?>
<!-- Generator: Adobe Illustrator 19.2.1, SVG Export Plug-In . SVG Version: 6.00 Build 0)  -->

<svg
   xmlns:dc="http://purl.org/dc/elements/1.1/"
   xmlns:cc="http://creativecommons.org/ns#"
   xmlns:rdf="http://www.w3.org/1999/02/22-rdf-syntax-ns#"
   xmlns:svg="http://www.w3.org/2000/svg"
   xmlns="http://www.w3.org/2000/svg"
   xmlns:sodipodi="http://sodipodi.sourceforge.net/DTD/sodipodi-0.dtd"
   xmlns:inkscape="http://www.inkscape.org/namespaces/inkscape"
   version="1.1"
   id="图层_1"
   x="0px"
   y="0px"
   viewBox="0 0 128 128"
   style="enable-background:new 0 0 128 128;"
   xml:space="preserve"
   inkscape:version="0.91 r13725"
   sodipodi:docname="1f382.svg"><metadata
     id="metadata33308"><rdf:RDF><cc:Work
         rdf:about=""><dc:format>image/svg+xml</dc:format><dc:type
           rdf:resource="http://purl.org/dc/dcmitype/StillImage" /><dc:title></dc:title></cc:Work></rdf:RDF></metadata><defs
     id="defs33306" /><sodipodi:namedview
     pagecolor="#ffffff"
     bordercolor="#666666"
     borderopacity="1"
     objecttolerance="10"
     gridtolerance="10"
     guidetolerance="10"
     inkscape:pageopacity="0"
     inkscape:pageshadow="2"
     inkscape:window-width="640"
     inkscape:window-height="480"
     id="namedview33304"
     showgrid="false"
     inkscape:zoom="0.65186406"
     inkscape:cx="64"
     inkscape:cy="64"
     inkscape:window-x="0"
     inkscape:window-y="0"
     inkscape:window-maximized="0"
     inkscape:current-layer="图层_1" /><path
     style="fill:#FCC21B;"
     d="M121.54,62.9c-0.03,26.02-0.01,29.53-0.01,33.04c0.01,6.58-2.89,12.13-7.58,16.79  c-9.53,9.46-22.93,13.52-36.25,14.54c-4.47,0.34-8.99,0.45-13.47,0.45c-4.48,0-9-0.11-13.47-0.45  c-13.32-1.02-26.72-5.08-36.25-14.54c-4.69-4.66-7.58-10.2-7.58-16.79c0-3.51,0.01-7.03-0.01-33.04H121.54z"
     id="path33244" /><path
     style="fill:#FFF3E0;"
     d="M121.6,50.87c-9.08-11.94-23.82-20.97-38.03-23.1c-4.21-0.63-8.46-0.91-12.69-1.14  c-9.58-0.52-19.56-0.12-29.07,1.34c-10.42,1.6-21.72,6.37-29.92,13.8c-2.55,2.31-4.36,5.38-5.8,8.51  c-3.3,7.21-4.75,15.46-4.75,23.39c0,5.26,0.86,10.47,5.44,13.39c1.3,0.83,2.87,0.77,4.31,0.46c2.21-0.49,3.76-1.58,5.96-0.37  c3.26,1.78,3.93,5.6,5.73,8.57c3.24,5.33,10.46,7.71,16.16,5.45c5.79-2.29,9.75,3.62,14.5,5.8c5.66,2.59,12.46,1.78,17.87-0.98  c1.48-0.76,2.55-1.86,3.84-2.92c2.46-2.04,5.31-3.26,8.48-3.36c4.2-0.13,8.4,1.75,12.56,0.47c3.43-1.04,5.87-4.16,7.68-7.16  c1.54-2.55,2.8-5.83,6.13-6.17c3.35-0.33,6.13,2.93,9.59,1.83c6.13-1.95,7.03-10.13,7.1-15.64c0.09-6.79-0.88-14.65-4.14-20.68  C122.25,51.84,121.95,51.34,121.6,50.87z"
     id="path33246" /><g
     id="g33248"><path
       style="fill:#40C0E7;"
       d="M74.93,42.29c-0.09,0.58-0.08,1.2-0.08,1.76c-0.01,1.98-0.05,3.96-0.1,5.94   c-0.09,3.96-0.2,7.91-0.2,11.87c0,2.56-1.1,7.94,1.93,9.13c2.93,1.16,6.59,0.55,6.58-3.63c-0.01-1.19,0-2.38,0-3.56   c0-4.98-0.01-9.95,0-14.94c0-1.45-0.16-2.87-0.15-4.32c0.01-1.21,0.05-2.79-0.83-3.67c-0.69-0.69-1.71-0.84-2.6-0.85   c-1.05-0.03-2.49-0.18-3.44,0.37C75.33,40.79,75.05,41.51,74.93,42.29z"
       id="path33250" /><g
       id="g33252"><path
         style="fill:#ED6C30;"
         d="M74.81,45.81c-1.48-0.9-2.67-2.23-3.4-4.03c-0.51-1.26-0.86-2.9-0.79-4.27    c0.17-3.29,1.98-6.33,4.32-8.55c1.38-1.32,3.06-2.98,5.02-3.34c4.16-0.76,7.07,6.05,7.93,9.12c1.56,5.56-1.63,11.39-7.6,11.95    C78.73,46.84,76.18,46.63,74.81,45.81z"
         id="path33254" /><path
         style="fill:#FCC21B;"
         d="M76.99,44.63c-0.62-0.43-1.11-1.08-1.42-1.95c-0.21-0.61-0.36-1.41-0.33-2.07    c0.07-1.59,0.83-3.06,1.8-4.14c0.58-0.64,1.28-1.45,2.1-1.62c1.74-0.37,2.96,2.93,3.31,4.42c0.65,2.7-0.68,5.52-3.18,5.79    C78.63,45.12,77.56,45.02,76.99,44.63z"
         id="path33256" /></g></g><g
     id="g33258"><path
       style="fill:#40C0E7;"
       d="M97.38,24.96c-0.09,0.58-0.08,1.21-0.08,1.76c-0.01,1.99-0.05,3.96-0.1,5.94   c-0.09,3.96-0.2,7.91-0.2,11.87c0,2.56-1.1,7.94,1.93,9.13c2.92,1.16,6.6,0.55,6.58-3.63c-0.01-1.18,0-2.37,0-3.56   c0-4.98-0.01-9.94,0-14.94c0-1.45-0.16-2.88-0.15-4.32c0.01-1.22,0.06-2.79-0.83-3.67c-0.69-0.69-1.71-0.83-2.6-0.85   c-1.05-0.03-2.49-0.18-3.43,0.37C97.78,23.46,97.49,24.18,97.38,24.96z"
       id="path33260" /><g
       id="g33262"><path
         style="fill:#ED6C30;"
         d="M97.26,28.48c-1.47-0.9-2.67-2.23-3.4-4.03c-0.51-1.26-0.85-2.9-0.79-4.27    c0.17-3.28,1.99-6.33,4.32-8.55c1.38-1.32,3.06-2.98,5.02-3.34c4.16-0.76,7.08,6.05,7.94,9.12c1.56,5.56-1.64,11.39-7.61,11.95    C101.18,29.51,98.62,29.3,97.26,28.48z"
         id="path33264" /><path
         style="fill:#FCC21B;"
         d="M99.4,27.33c-0.62-0.4-1.12-1.01-1.43-1.83c-0.21-0.57-0.36-1.31-0.33-1.93    c0.06-1.5,0.83-2.87,1.81-3.88c0.58-0.6,1.29-1.36,2.11-1.51c1.75-0.35,2.96,2.74,3.33,4.13c0.65,2.53-0.69,5.17-3.19,5.43    C101.05,27.8,99.98,27.7,99.4,27.33z"
         id="path33266" /></g></g><g
     id="g33268"><path
       style="fill:#40C0E7;"
       d="M57.97,17c-0.09,0.58-0.08,1.21-0.08,1.76c-0.01,1.99-0.05,3.96-0.1,5.94   c-0.09,3.96-0.2,7.91-0.2,11.87c0,2.56-1.1,7.94,1.93,9.13c2.93,1.16,6.6,0.55,6.58-3.63c-0.01-1.18,0-2.37,0-3.56   c0-4.98-0.01-9.94,0-14.94c0-1.45-0.16-2.88-0.15-4.32c0.01-1.22,0.05-2.79-0.83-3.67c-0.69-0.69-1.71-0.83-2.6-0.85   c-1.05-0.03-2.49-0.18-3.44,0.37C58.37,15.5,58.08,16.22,57.97,17z"
       id="path33270" /><g
       id="g33272"><path
         style="fill:#ED6C30;"
         d="M57.85,20.52c-1.48-0.9-2.67-2.23-3.4-4.03c-0.51-1.26-0.86-2.9-0.79-4.27    c0.17-3.28,1.98-6.33,4.32-8.55c1.38-1.31,3.06-2.98,5.02-3.33c4.16-0.76,7.07,6.05,7.94,9.12c1.56,5.56-1.63,11.39-7.61,11.95    C61.77,21.56,59.21,21.35,57.85,20.52z"
         id="path33274" /><path
         style="fill:#FCC21B;"
         d="M60.09,19.37c-0.65-0.44-1.17-1.12-1.49-2.02c-0.23-0.63-0.38-1.46-0.34-2.14    c0.07-1.65,0.87-3.17,1.89-4.28c0.6-0.66,1.34-1.49,2.19-1.67c1.82-0.37,3.1,3.03,3.48,4.57c0.69,2.79-0.72,5.71-3.33,5.99    C61.81,19.89,60.69,19.78,60.09,19.37z"
         id="path33276" /></g></g><g
     id="g33278"><path
       style="fill:#40C0E7;"
       d="M40.17,40.2c-0.09,0.58-0.08,1.2-0.08,1.76c-0.01,1.98-0.05,3.96-0.1,5.94   c-0.09,3.96-0.2,7.91-0.2,11.87c0,2.56-1.1,7.94,1.93,9.13c2.92,1.16,6.59,0.55,6.58-3.63c-0.01-1.19,0-2.38,0-3.56   c0-4.98-0.01-9.95,0-14.94c0-1.45-0.16-2.87-0.15-4.32c0.01-1.21,0.05-2.79-0.83-3.67c-0.69-0.69-1.7-0.84-2.6-0.85   c-1.05-0.03-2.49-0.18-3.43,0.37C40.57,38.69,40.28,39.41,40.17,40.2z"
       id="path33280" /><g
       id="g33282"><path
         style="fill:#ED6C30;"
         d="M40.04,43.71c-1.48-0.9-2.67-2.23-3.4-4.03c-0.51-1.26-0.86-2.9-0.79-4.27    c0.17-3.29,1.98-6.33,4.32-8.55c1.38-1.32,3.07-2.98,5.02-3.34c4.16-0.76,7.07,6.05,7.94,9.12c1.56,5.56-1.63,11.39-7.6,11.95    C43.97,44.75,41.41,44.54,40.04,43.71z"
         id="path33284" /><path
         style="fill:#FCC21B;"
         d="M42.2,42.56c-0.66-0.45-1.19-1.14-1.51-2.06c-0.23-0.65-0.39-1.48-0.35-2.18    c0.08-1.69,0.89-3.24,1.92-4.38c0.62-0.68,1.37-1.53,2.24-1.71c1.86-0.39,3.16,3.1,3.54,4.67c0.69,2.85-0.73,5.83-3.4,6.12    C43.95,43.09,42.81,42.98,42.2,42.56z"
         id="path33286" /></g></g><g
     id="g33288"><path
       style="fill:#40C0E7;"
       d="M20.89,22.27c-0.09,0.59-0.08,1.21-0.08,1.76c-0.01,1.98-0.05,3.96-0.1,5.94   c-0.09,3.95-0.2,7.91-0.2,11.87c0,2.56-1.1,7.93,1.93,9.13c2.93,1.15,6.6,0.55,6.58-3.63c-0.01-1.19,0-2.37,0-3.56   c0-4.98-0.01-9.95,0-14.94c0-1.45-0.16-2.87-0.15-4.33c0.01-1.21,0.05-2.79-0.83-3.67c-0.69-0.69-1.71-0.84-2.6-0.86   c-1.05-0.02-2.49-0.18-3.44,0.37C21.29,20.76,21,21.49,20.89,22.27z"
       id="path33290" /><g
       id="g33292"><path
         style="fill:#ED6C30;"
         d="M20.76,25.78c-1.48-0.9-2.67-2.23-3.4-4.02c-0.51-1.26-0.86-2.9-0.79-4.27    c0.17-3.29,1.98-6.33,4.32-8.55c1.38-1.32,3.06-2.99,5.02-3.34c4.16-0.76,7.07,6.05,7.94,9.12c1.56,5.56-1.63,11.39-7.6,11.95    C24.69,26.81,22.13,26.6,20.76,25.78z"
         id="path33294" /><path
         style="fill:#FCC21B;"
         d="M23.03,24.59c-0.62-0.47-1.12-1.17-1.43-2.11c-0.21-0.66-0.36-1.52-0.33-2.23    c0.07-1.72,0.83-3.32,1.81-4.48c0.58-0.69,1.29-1.56,2.11-1.75c1.75-0.4,2.97,3.17,3.33,4.77c0.65,2.92-0.69,5.96-3.2,6.26    C24.68,25.13,23.61,25.02,23.03,24.59z"
         id="path33296" /></g></g><path
     style="fill:#FFE0B2;"
     d="M122.53,52.36c-0.28-0.51-0.58-1.02-0.94-1.49c-0.26-0.34-0.54-0.68-0.81-1.01  c0.34,1.68,5.25,30.62-57.26,30.62c-61.88,0-57.69-28.36-57.27-30.56c-0.06,0.12-0.12,0.24-0.17,0.36  c-3.3,7.21-4.75,15.46-4.75,23.39c0,5.26,0.86,10.47,5.44,13.39c1.3,0.83,2.87,0.77,4.31,0.46c2.21-0.49,3.76-1.58,5.96-0.37  c3.26,1.78,3.93,5.6,5.73,8.57c3.24,5.33,10.46,7.71,16.16,5.45c5.79-2.29,9.75,3.62,14.5,5.8c5.66,2.59,12.46,1.78,17.87-0.98  c1.48-0.76,2.55-1.86,3.84-2.92c2.46-2.04,5.31-3.26,8.48-3.36c4.2-0.13,8.4,1.75,12.56,0.47c3.43-1.04,5.87-4.16,7.68-7.16  c1.54-2.55,2.8-5.83,6.13-6.17c3.35-0.33,6.13,2.93,9.59,1.83c6.13-1.95,7.03-10.13,7.1-15.64  C126.75,66.25,125.79,58.39,122.53,52.36z"
     id="path33302" /></svg>