<?xml version="1.0" encoding="UTF-8" standalone="no"?>
<!-- Generator: Adobe Illustrator 19.2.1, SVG Export Plug-In . SVG Version: 6.00 Build 0)  -->

<svg
   xmlns:dc="http://purl.org/dc/elements/1.1/"
   xmlns:cc="http://creativecommons.org/ns#"
   xmlns:rdf="http://www.w3.org/1999/02/22-rdf-syntax-ns#"
   xmlns:svg="http://www.w3.org/2000/svg"
   xmlns="http://www.w3.org/2000/svg"
   xmlns:xlink="http://www.w3.org/1999/xlink"
   xmlns:sodipodi="http://sodipodi.sourceforge.net/DTD/sodipodi-0.dtd"
   xmlns:inkscape="http://www.inkscape.org/namespaces/inkscape"
   version="1.1"
   id="レイヤー_1"
   x="0px"
   y="0px"
   viewBox="0 0 128 128"
   style="enable-background:new 0 0 128 128;"
   xml:space="preserve"
   inkscape:version="0.91 r13725"
   sodipodi:docname="1f396.svg"><metadata
     id="metadata34124"><rdf:RDF><cc:Work
         rdf:about=""><dc:format>image/svg+xml</dc:format><dc:type
           rdf:resource="http://purl.org/dc/dcmitype/StillImage" /><dc:title></dc:title></cc:Work></rdf:RDF></metadata><defs
     id="defs34122" /><sodipodi:namedview
     pagecolor="#ffffff"
     bordercolor="#666666"
     borderopacity="1"
     objecttolerance="10"
     gridtolerance="10"
     guidetolerance="10"
     inkscape:pageopacity="0"
     inkscape:pageshadow="2"
     inkscape:window-width="640"
     inkscape:window-height="480"
     id="namedview34120"
     showgrid="false"
     inkscape:zoom="0.921875"
     inkscape:cx="64"
     inkscape:cy="64"
     inkscape:window-x="0"
     inkscape:window-y="0"
     inkscape:window-maximized="0"
     inkscape:current-layer="レイヤー_1" /><g
     id="g34038"><circle
       style="fill:#FCC21B;"
       cx="64"
       cy="94"
       r="30"
       id="circle34040" /></g><g
     id="g34066"><path
       style="fill:#FCC21B;"
       d="M70,60v11H58V60H70 M70,54H58c-3.31,0-6,2.69-6,6v11c0,3.31,2.69,6,6,6h12c3.31,0,6-2.69,6-6V60   C76,56.69,73.31,54,70,54L70,54z"
       id="path34068" /></g><path
     style="fill:none;stroke:#FFFFFF;stroke-width:5;stroke-linecap:round;stroke-miterlimit:10;"
     d="M46.3,80.29  c1.1-1.58,2.39-3.02,3.82-4.29"
     id="path34070" /><g
     id="g34076"><path
       style="fill:#006CA2;"
       d="M88,40.49c0,1.93-1.17,4.57-2.61,5.86l-14.78,13.3C69.17,60.94,66.42,62,64.49,62h-0.98   c-1.93,0-4.69-1.06-6.12-2.35l-14.78-13.3C41.17,45.06,40,42.42,40,40.49V4h48V40.49z"
       id="path34078" /><polygon
       style="fill:#40C0E7;"
       points="48,51.2 56,58.4 56,4 48,4  "
       id="polygon34080" /><path
       style="fill:#ED6C30;"
       d="M88,40.49c0,1.93-1.17,4.57-2.61,5.86l-14.78,13.3C69.17,60.94,66.42,62,64.49,62h-0.98   c-1.93,0-4.69-1.06-6.12-2.35l-14.78-13.3C41.17,45.06,40,42.42,40,40.49V4h48V40.49z"
       id="path34082" /></g><g
     id="g34084"><path
       style="fill-rule:evenodd;clip-rule:evenodd;fill:#F79329;"
       d="M64,117L64,117c-0.64,0-1.19-0.45-1.32-1.08L58.5,95   l4.18-20.92C62.81,73.45,63.36,73,64,73l0,0c0.64,0,1.19,0.45,1.32,1.08L69.5,95l-4.18,20.92C65.19,116.55,64.64,117,64,117z"
       id="path34086" /><path
       style="fill-rule:evenodd;clip-rule:evenodd;fill:#F79329;"
       d="M42,95L42,95c0,0.64,0.45,1.19,1.08,1.32L64,100.5l20.92-4.18   C85.55,96.19,86,95.64,86,95l0,0c0-0.64-0.45-1.19-1.08-1.32L64,89.5l-20.92,4.18C42.45,93.81,42,94.36,42,95z"
       id="path34088" /></g><g
     id="g34092"><defs
       id="defs34094"><path
         id="SVGID_1_"
         d="M88,40.49c0,1.93-1.17,4.57-2.61,5.86l-14.78,13.3C69.17,60.94,66.42,62,64.49,62h-0.98    c-1.93,0-4.69-1.06-6.12-2.35l-14.78-13.3C41.17,45.06,40,42.42,40,40.49V4h48V40.49z" /></defs><clipPath
       id="SVGID_2_"><use
         xlink:href="#SVGID_1_"
         style="overflow:visible;"
         id="use34098" /></clipPath><g
       style="clip-path:url(#SVGID_2_);"
       id="g34100"
       clip-path="url(#SVGID_2_)"><rect
         x="35"
         y="-2"
         style="fill-rule:evenodd;clip-rule:evenodd;fill:#006CA2;"
         width="14"
         height="61"
         id="rect34102" /><rect
         x="79"
         y="-2"
         style="fill-rule:evenodd;clip-rule:evenodd;fill:#006CA2;"
         width="14"
         height="61"
         id="rect34104" /></g></g><g
     id="g34106"><defs
       id="defs34108"><path
         id="SVGID_3_"
         d="M88,40.49c0,1.93-1.17,4.57-2.61,5.86l-14.78,13.3C69.17,60.94,66.42,62,64.49,62h-0.98    c-1.93,0-4.69-1.06-6.12-2.35l-14.78-13.3C41.17,45.06,40,42.42,40,40.49V4h48V40.49z" /></defs><clipPath
       id="SVGID_4_"><use
         xlink:href="#SVGID_3_"
         style="overflow:visible;"
         id="use34112" /></clipPath><g
       style="clip-path:url(#SVGID_4_);"
       id="g34114"
       clip-path="url(#SVGID_4_)"><polygon
         style="fill-rule:evenodd;clip-rule:evenodd;fill:#FFFFFF;"
         points="49,4 48.99,52.66 53.43,56.66 53.43,4   "
         id="polygon34116" /><polygon
         style="fill-rule:evenodd;clip-rule:evenodd;fill:#FFFFFF;"
         points="78.99,4 79,53.09 74.56,57.09 74.56,4   "
         id="polygon34118" /></g></g></svg>