<?xml version="1.0" encoding="UTF-8" standalone="no"?>
<!-- Generator: Adobe Illustrator 19.2.1, SVG Export Plug-In . SVG Version: 6.00 Build 0)  -->

<svg
   xmlns:dc="http://purl.org/dc/elements/1.1/"
   xmlns:cc="http://creativecommons.org/ns#"
   xmlns:rdf="http://www.w3.org/1999/02/22-rdf-syntax-ns#"
   xmlns:svg="http://www.w3.org/2000/svg"
   xmlns="http://www.w3.org/2000/svg"
   xmlns:sodipodi="http://sodipodi.sourceforge.net/DTD/sodipodi-0.dtd"
   xmlns:inkscape="http://www.inkscape.org/namespaces/inkscape"
   version="1.1"
   x="0px"
   y="0px"
   viewBox="0 0 128 128"
   style="enable-background:new 0 0 128 128;"
   xml:space="preserve"
   id="svg270"
   inkscape:version="0.91 r13725"
   sodipodi:docname="1f3cb-200d-2642-fe0f.svg"><metadata
     id="metadata536"><rdf:RDF><cc:Work
         rdf:about=""><dc:format>image/svg+xml</dc:format><dc:type
           rdf:resource="http://purl.org/dc/dcmitype/StillImage" /><dc:title></dc:title></cc:Work></rdf:RDF></metadata><defs
     id="defs534" /><sodipodi:namedview
     pagecolor="#ffffff"
     bordercolor="#666666"
     borderopacity="1"
     objecttolerance="10"
     gridtolerance="10"
     guidetolerance="10"
     inkscape:pageopacity="0"
     inkscape:pageshadow="2"
     inkscape:window-width="1024"
     inkscape:window-height="717"
     id="namedview532"
     showgrid="false"
     inkscape:zoom="2.8284271"
     inkscape:cx="64"
     inkscape:cy="84.979947"
     inkscape:window-x="0"
     inkscape:window-y="0"
     inkscape:window-maximized="1"
     inkscape:current-layer="g348" /><g
     id="Layer_2" /><g
     id="图层_1"><g
       id="g274"><g
         id="g276"><g
           id="g278"><path
             style="fill:#A6A9B2;"
             d="M7.74,13.77c-0.88,0-1.59,0.71-1.59,1.59c0,0.88,0.71,1.59,1.59,1.59h43.49v-3.17H7.74z"
             id="path280" /><path
             style="fill:#A6A9B2;"
             d="M120.22,13.77H83.37v3.17h36.85c0.88,0,1.59-0.71,1.59-1.59      C121.8,14.48,121.09,13.77,120.22,13.77z"
             id="path282" /><g
             id="g284"><path
               style="fill:#A6A9B2;"
               d="M104.66,4.24c0-2.14,1.73-3.87,3.87-3.87H110c2.14,0,3.87,1.73,3.87,3.87v22.25       c0,2.14-1.73,3.87-3.87,3.87h-1.47c-2.14,0-3.87-1.73-3.87-3.87V4.24z"
               id="path286" /><path
               style="fill:#A6A9B2;"
               d="M115.88,7.03c0-1.38,1.11-2.49,2.49-2.49h0.95c1.38,0,2.49,1.11,2.49,2.49v16.67       c0,1.38-1.11,2.49-2.49,2.49h-0.95c-1.38,0-2.49-1.11-2.49-2.49V7.03z"
               id="path288" /></g><g
             id="g290"><path
               style="fill:#A6A9B2;"
               d="M23.3,26.48c0,2.14-1.73,3.87-3.87,3.87h-1.47c-2.14,0-3.87-1.73-3.87-3.87V4.24       c0-2.14,1.73-3.87,3.87-3.87h1.47c2.14,0,3.87,1.73,3.87,3.87V26.48z"
               id="path292" /><path
               style="fill:#A6A9B2;"
               d="M12.08,23.69c0,1.38-1.11,2.49-2.49,2.49H8.64c-1.38,0-2.49-1.11-2.49-2.49V7.03       c0-1.38,1.11-2.49,2.49-2.49h0.95c1.38,0,2.49,1.11,2.49,2.49V23.69z"
               id="path294" /></g><rect
             x="50.57"
             y="13.77"
             style="fill:#A6A9B2;"
             width="33.45"
             height="3.17"
             id="rect296" /></g><g
           id="g298"><path
             style="fill:#566172;"
             d="M19.57,27.94h-1.75c-1.54,0-2.89-0.64-3.73-1.61v0.16c0,2.14,1.73,3.87,3.87,3.87h1.47      c2.14,0,3.87-1.73,3.87-3.87v-0.16C22.46,27.3,21.1,27.94,19.57,27.94z"
             id="path300" /><path
             style="fill:#566172;"
             d="M8.54,24.23c-0.97,0-1.82-0.37-2.38-0.95v0.41c0,1.38,1.11,2.49,2.49,2.49h0.95      c1.38,0,2.49-1.11,2.49-2.49v-0.41c-0.56,0.57-1.41,0.95-2.38,0.95H8.54z"
             id="path302" /></g><g
           id="g304"><path
             style="fill:#566172;"
             d="M108.39,27.94h1.75c1.54,0,2.89-0.64,3.73-1.61v0.16c0,2.14-1.73,3.87-3.87,3.87h-1.47      c-2.14,0-3.87-1.73-3.87-3.87v-0.16C105.49,27.3,106.85,27.94,108.39,27.94z"
             id="path306" /><path
             style="fill:#566172;"
             d="M119.42,24.23c0.97,0,1.82-0.37,2.38-0.95v0.41c0,1.38-1.11,2.49-2.49,2.49h-0.95      c-1.38,0-2.49-1.11-2.49-2.49v-0.41c0.56,0.57,1.41,0.95,2.38,0.95H119.42z"
             id="path308" /></g></g><g
         id="g310"><g
           id="g312"><path
             style="fill:#FBC11B;"
             d="M72.3,127.83"
             id="path314" /><g
             id="g316"><path
               style="fill:#4568AD;"
               d="M49.24,127.83l-12.98-0.03l0-2.22c0.01-2.63,2.14-4.76,4.78-4.76l8.21,0.02L49.24,127.83z"
               id="path318" /><path
               style="fill:#FBC11B;"
               d="M45.67,99.96l-7.75-8.38c0,0,3.32-5.93,7.53-10.39c4.19-4.44,9.89-7.65,9.89-7.65l8.56,9.19       c0,0-3.33,6.13-7.57,9.77S45.67,99.96,45.67,99.96z"
               id="path320" /><circle
               style="fill:#FBC11B;"
               cx="42.75"
               cy="94.41"
               r="5.56"
               id="circle322" /><path
               style="fill:#FBC11B;"
               d="M50.51,114.09"
               id="path324" /><path
               style="fill:#00BEA4;"
               d="M63.41,73.99c-2.85-2.81-7.44-2.78-10.25,0.07l0,0c-3.92,3.11-7.12,6.08-9.79,9.54L53.8,94.52       c0,0,2.45-1.75,4.36-3.44c1.11-0.98,2.86-2.59,3.5-3.17c0.83-0.75,1.87-0.72,2.33-0.72l1.17-10.35       C64.82,75.78,64.24,74.8,63.41,73.99z"
               id="path326" /><path
               style="fill:#FBC11B;"
               d="M49.26,120.86l-6.73-0.02c-3.1-12.78-5.33-18.77-5.31-25.98l11.03,0.49c0,0,1.3,2.46,1.6,6.21       c0.4,5.08-0.39,11.78-0.41,12.53C49.3,117.98,49.26,120.86,49.26,120.86z"
               id="path328" /><polygon
               style="fill:#E0E0E0;"
               points="49.42,114.09 40.82,114.09 42.52,120.84 49.26,120.86      "
               id="polygon330" /></g><g
             id="g332"><path
               style="fill:#4568AD;"
               d="M78.71,127.83l12.98-0.03l0-2.22c-0.01-2.63-2.14-4.76-4.78-4.76l-8.21,0.02L78.71,127.83z"
               id="path334" /><path
               style="fill:#FBC11B;"
               d="M82.28,99.96l7.75-8.38c0,0-3.32-5.93-7.53-10.39c-4.19-4.44-9.89-7.65-9.89-7.65l-8.56,9.19       c0,0,3.33,6.13,7.57,9.77C75.86,96.14,82.28,99.96,82.28,99.96z"
               id="path336" /><circle
               style="fill:#FBC11B;"
               cx="85.2"
               cy="94.41"
               r="5.56"
               id="circle338" /><path
               style="fill:#FBC11B;"
               d="M77.44,114.09"
               id="path340" /><path
               style="fill:#00BEA4;"
               d="M64.54,73.99c2.85-2.81,7.44-2.78,10.25,0.07l0,0c3.92,3.11,7.12,6.08,9.79,9.54L74.15,94.52       c0,0-2.45-1.75-4.36-3.44c-1.11-0.98-2.86-2.59-3.5-3.17c-0.83-0.75-1.87-0.72-2.33-0.72l-1.17-10.35       C63.14,75.78,63.72,74.8,64.54,73.99z"
               id="path342" /><path
               style="fill:#FBC11B;"
               d="M78.7,120.86l6.73-0.02c3.1-12.78,5.33-18.77,5.31-25.98l-11.03,0.49c0,0-1.3,2.46-1.6,6.21       c-0.4,5.08,0.39,11.78,0.41,12.53C78.66,117.98,78.7,120.86,78.7,120.86z"
               id="path344" /><polygon
               style="fill:#E0E0E0;"
               points="78.53,114.09 87.13,114.09 85.43,120.84 78.7,120.86      "
               id="polygon346" /></g></g><g
           id="g348"><g
             id="g350"
             transform="matrix(1.0010211,0,0,1,-0.04970722,0)"><path
               style="fill:#00bea4"
               d="M 59.65625 45.240234 C 52.635506 45.240234 48.679688 48.710313 48.679688 53.070312 C 48.629616 57.300312 49.760801 59.820547 50.972656 62.810547 C 50.932595 67.190547 51.244161 72.509922 52.966797 77.419922 L 63.980469 77.419922 L 63.980469 77.429688 L 74.990234 77.429688 C 76.710234 72.519688 77.020469 67.200312 76.980469 62.820312 C 78.190469 59.820312 79.610547 57.23 79.560547 53 C 79.560547 48.63 75.330313 45.240234 68.320312 45.240234 L 63.994141 45.240234 L 63.980469 45.240234 L 59.65625 45.240234 z "
               id="path352"
               transform="matrix(0.99897994,0,0,1,0.04965652,0)" /><path
               style="opacity:0.7;fill:#00796b"
               d="m 51.019096,66.039062 c 0.05881,1.656286 0.196804,3.310324 0.4312,4.951172 8.343694,0 16.687388,0 25.031082,0 0.234352,-1.640819 0.370437,-3.294964 0.429249,-4.951172 -8.630511,0 -17.261021,0 -25.891531,0 z"
               id="path354"
               inkscape:connector-curvature="0" /></g><g
             id="g356" /></g><g
           id="g362"><g
             id="g364"><g
               id="g366"><ellipse
                 transform="matrix(0.8637 -0.504 0.504 0.8637 -11.4354 24.8866)"
                 style="fill:#FBC11B;"
                 cx="40.3"
                 cy="33.59"
                 rx="3.71"
                 ry="3.71"
                 id="ellipse368" /><path
                 id="XMLID_77_"
                 style="fill:#FBC11B;"
                 d="M35.54,19.27l-5.16,2.5c1.06,5.38,3.34,10.2,6.76,13.78l6.44-3.67        C41.86,26.22,39.41,23.06,35.54,19.27z" /><path
                 style="fill:#FBC11B;"
                 d="M37.15,35.55l6.44-3.67c6.21,2.96,9.35,7.54,11.97,15.84l-6.55,4.5        C43.38,47.74,39.28,42.58,37.15,35.55z"
                 id="path371" /><path
                 style="fill:#FBC11B;"
                 d="M32.38,12.06l0.21,0c2.34,0,4.23,1.9,4.23,4.24l0,2.42c0,2.34-1.9,4.23-4.24,4.23l-0.21,0        c-2.34,0-4.23-1.9-4.23-4.24l0-2.42C28.15,13.95,30.04,12.06,32.38,12.06z"
                 id="path373" /><path
                 style="fill:#FBC11B;"
                 d="M48.84,51.59c-1.02-1.94-0.27-4.34,1.67-5.36c2.99-1.57,4.51,0.05,5.36,1.67        c1.02,1.94,0.27,4.34-1.67,5.36C52.26,54.28,49.86,53.54,48.84,51.59z"
                 id="path375" /><path
                 style="fill:#00BEA4;"
                 d="M55.16,53.13c2.14-1.57,2.99-4.08,1.8-6.33l0,0c-1.56-2.96-2.92-4.62-5.09-7.61l-9.22,6.86        c1.92,2.46,4.91,5.78,7.1,7.03C51.72,54.41,53.02,54.7,55.16,53.13z"
                 id="path377" /></g></g><g
             id="g379"><g
               id="g381"><ellipse
                 transform="matrix(0.504 -0.8637 0.8637 0.504 14.4927 92.4096)"
                 style="fill:#FBC11B;"
                 cx="87.7"
                 cy="33.59"
                 rx="3.71"
                 ry="3.71"
                 id="ellipse383" /><path
                 id="XMLID_26_"
                 style="fill:#FBC11B;"
                 d="M92.46,19.27l5.16,2.5c-1.06,5.38-3.34,10.2-6.76,13.78l-6.44-3.67        C86.14,26.22,88.59,23.06,92.46,19.27z" /><path
                 style="fill:#FBC11B;"
                 d="M90.85,35.55l-6.44-3.67c-6.21,2.96-9.35,7.54-11.97,15.84l6.55,4.5        C84.62,47.74,88.72,42.58,90.85,35.55z"
                 id="path386" /><path
                 style="fill:#FBC11B;"
                 d="M95.62,12.06l-0.21,0c-2.34,0-4.23,1.9-4.23,4.24l0,2.42c0,2.34,1.9,4.23,4.24,4.23l0.21,0        c2.34,0,4.23-1.9,4.23-4.24l0-2.42C99.85,13.95,97.96,12.06,95.62,12.06z"
                 id="path388" /><path
                 style="fill:#FBC11B;"
                 d="M79.16,51.59c1.02-1.94,0.27-4.34-1.67-5.36c-2.99-1.57-4.51,0.05-5.36,1.67        c-1.02,1.94-0.27,4.34,1.67,5.36C75.74,54.28,78.14,53.54,79.16,51.59z"
                 id="path390" /><path
                 style="fill:#00BEA4;"
                 d="M72.84,53.13c-2.14-1.57-2.99-4.08-1.8-6.33h0c1.56-2.96,2.92-4.62,5.09-7.61l9.22,6.86        c-1.92,2.46-4.91,5.78-7.1,7.03C76.28,54.41,74.98,54.7,72.84,53.13z"
                 id="path392" /></g></g></g><g
           id="g394"><g
             id="g396"><path
               id="XMLID_75_"
               style="fill:#E59600;"
               d="M63.98,49.43L63.98,49.43c-2.37,0-4.3-1.63-4.3-3.64v-3.11h8.59v3.11       C68.27,47.8,66.35,49.43,63.98,49.43z" /></g><g
             id="g399"><g
               id="XMLID_72_"><path
                 id="XMLID_74_"
                 style="fill:#E59600;"
                 d="M73.29,33.19c0,0,1.71,0.3,1.71,2.13c0,1.62-1.25,2.26-2.49,2.26v-4.39H73.29z" /><path
                 id="XMLID_73_"
                 style="fill:#E59600;"
                 d="M54.67,33.19c0,0-1.71,0.3-1.71,2.13c0,1.62,1.25,2.26,2.49,2.26v-4.39H54.67z" /></g><path
               id="XMLID_71_"
               style="fill:#FBC11B;"
               d="M63.98,21.15c-7.36,0-9.28,5.7-9.28,13.71c0,8.31,5.34,10.45,9.28,10.45       c3.88,0,9.28-2.09,9.28-10.45C73.26,26.86,71.33,21.15,63.98,21.15z" /><path
               id="XMLID_70_"
               style="fill:#C07B47;"
               d="M60.92,35.61c0,0.83-0.55,1.5-1.24,1.5c-0.68,0-1.24-0.67-1.24-1.5       c0-0.83,0.56-1.5,1.24-1.5C60.37,34.11,60.92,34.78,60.92,35.61" /><path
               id="XMLID_69_"
               style="fill:#C07B47;"
               d="M67.03,35.61c0,0.83,0.55,1.5,1.24,1.5c0.68,0,1.24-0.67,1.24-1.5       c0-0.83-0.56-1.5-1.24-1.5C67.59,34.11,67.03,34.78,67.03,35.61" /><path
               id="XMLID_68_"
               style="fill:#C07B47;"
               d="M66.66,40.67c-0.38,0-2.69,0-2.69,0s-2.31,0-2.69,0c-0.31,0-0.44,0.21-0.24,0.52       c0.29,0.43,1.34,1.27,2.92,1.27c1.58,0,2.64-0.83,2.92-1.27C67.1,40.88,66.97,40.67,66.66,40.67z" /><path
               id="XMLID_67_"
               style="fill:#E59600;"
               d="M65.28,38.39c-0.46,0.13-0.93,0.19-1.3,0.19s-0.84-0.06-1.3-0.19       c-0.2-0.06-0.27,0.13-0.2,0.25c0.15,0.26,0.73,0.77,1.5,0.77c0.77,0,1.35-0.51,1.5-0.77C65.55,38.52,65.47,38.33,65.28,38.39z" /><path
               id="XMLID_66_"
               style="fill:#6D4C41;"
               d="M64.2,20.11c0,0-0.14,0-0.21,0c-0.06,0-0.21,0-0.21,0       c-7.94,0.15-10.33,4.93-10.33,8.24c0,3.22,0,5.58,0,5.58s0.13-0.13,0.36-0.31c0.25-0.19,0.52-0.3,0.52-0.3l0.4,2.69l2.65-5.53       c0.02-0.03,0.05-0.05,0.09-0.05l1.57,0.17c1.58,0.17,3.16,0.26,4.74,0.26v0c0.07,0,0.14,0,0.21,0c0.07,0,0.14,0,0.21,0v0       c1.58,0,3.17-0.09,4.74-0.26l1.57-0.17c0.04,0,0.07,0.02,0.09,0.05L73.24,36l0.4-2.69c0,0,0.28,0.11,0.52,0.3       c0.23,0.18,0.36,0.31,0.36,0.31s0-2.36,0-5.58C74.53,25.04,72.14,20.26,64.2,20.11z" /></g></g></g></g></g></svg>