<?xml version="1.0" encoding="UTF-8" standalone="no"?>
<!-- Generator: Adobe Illustrator 19.2.1, SVG Export Plug-In . SVG Version: 6.00 Build 0)  -->

<svg
   xmlns:dc="http://purl.org/dc/elements/1.1/"
   xmlns:cc="http://creativecommons.org/ns#"
   xmlns:rdf="http://www.w3.org/1999/02/22-rdf-syntax-ns#"
   xmlns:svg="http://www.w3.org/2000/svg"
   xmlns="http://www.w3.org/2000/svg"
   xmlns:xlink="http://www.w3.org/1999/xlink"
   xmlns:sodipodi="http://sodipodi.sourceforge.net/DTD/sodipodi-0.dtd"
   xmlns:inkscape="http://www.inkscape.org/namespaces/inkscape"
   version="1.1"
   id="图层_1"
   x="0px"
   y="0px"
   viewBox="0 0 128 128"
   style="enable-background:new 0 0 128 128;"
   xml:space="preserve"
   inkscape:version="0.91 r13725"
   sodipodi:docname="1f3c2.svg"><metadata
     id="metadata125"><rdf:RDF><cc:Work
         rdf:about=""><dc:format>image/svg+xml</dc:format><dc:type
           rdf:resource="http://purl.org/dc/dcmitype/StillImage" /><dc:title></dc:title></cc:Work></rdf:RDF></metadata><defs
     id="defs123" /><sodipodi:namedview
     pagecolor="#ffffff"
     bordercolor="#666666"
     borderopacity="1"
     objecttolerance="10"
     gridtolerance="10"
     guidetolerance="10"
     inkscape:pageopacity="0"
     inkscape:pageshadow="2"
     inkscape:window-width="1024"
     inkscape:window-height="717"
     id="namedview121"
     showgrid="false"
     inkscape:zoom="2.8284271"
     inkscape:cx="34.887879"
     inkscape:cy="37.371432"
     inkscape:window-x="0"
     inkscape:window-y="0"
     inkscape:window-maximized="1"
     inkscape:current-layer="图层_1" /><g
     id="g3"><defs
       id="defs5"><path
         id="SVGID_1_"
         d="M128,128H0l0-27.35c54.56-20.16,102.17-45.24,128-85.7L128,128z" /></defs><use
       xlink:href="#SVGID_1_"
       style="overflow:visible;fill:#E1F5FE;"
       id="use8" /><clipPath
       id="SVGID_2_"><use
         xlink:href="#SVGID_1_"
         style="overflow:visible;"
         id="use11" /></clipPath><path
       style="clip-path:url(#SVGID_2_);fill:#B3E5FC;"
       d="M99.52,85.17c11.8-3.55,22.82-12.54,32.77-18.84   c0.02,3-0.11,7.68-0.09,10.68c0,0.47,0,0.97-0.27,1.36c-0.18,0.27-0.46,0.44-0.73,0.61c-9.57,5.97-19.28,12.01-30.08,15.26   c0.45-3.15-0.08-6.44-1.48-9.3"
       id="path13"
       clip-path="url(#SVGID_2_)" /></g><g
     id="g15"><path
       style="fill:#BF360C;"
       d="M103.82,95.3l-65.54,25.77c0,0-3.07,1.13-6.18,0.45c-3.11-0.68-8.95-2.81-9.8-4.82   c-0.85-2.01,0.47-1.94,3.46-2.47c2.98-0.53,12.88-2.85,21.1-5.97c8.22-3.12,48.33-18.71,50.23-19.64c3.4-1.66,8.52-3.96,11.35-2.68   C111.06,87.12,109.76,93.21,103.82,95.3z"
       id="path17" /><path
       style="fill:#FF8F00;"
       d="M103.92,92.74l-65.54,25.77c0,0-3.07,1.13-6.18,0.45c-3.11-0.68-11.14-2.96-11.99-4.98   c-0.85-2.01,2.67-1.78,5.65-2.32c2.98-0.53,12.88-2.85,21.1-5.97c8.22-3.12,48.33-18.71,50.23-19.64c3.4-1.66,8.52-3.96,11.35-2.68   C111.16,84.57,109.85,90.66,103.92,92.74z"
       id="path19" /></g><g
     id="g21"><path
       style="fill:#BF360C;"
       d="M62.99,15.6c-3.14,2.07-4.15,5.76-8.47,7.21c-5.67,1.9-11.35,0.28-12.41-2.89   c0,0-1.52-0.22-1.39,1.36c0.11,1.32-0.62,4.46,3.99,6.38s8.45,1.73,10.4,2.08c1.42,0.25,7.34-2.68,8.33-3.64   c2.08-2.01,1.1-3.2,4.06-3.07c2.23,0.09,4.01-1.62,6.24-1.53c1.72,0.07,4.8,1.68,6.17,0.64c0.95-0.72,1.55-1.89,2.53-2.56   c1.39-0.94,3.22-0.71,4.91-0.64c1.74,0.07,3.48-0.09,5.16-0.46c0.23-0.05,0.47-0.12,0.58-0.34c0.11-0.23,0.09-0.57-0.09-0.76   c-2.88-2.89,0.49-9.06-3.72-9.17c-1.8,1.41-4.4,2.27-6.38,2.31c-1.17,0.02-2.37-0.18-3.51,0.02c-1.98,0.35-3.34,2.62-5.22,3.31   c-2.57,0.94-3.94-0.97-6.63-0.35C65.85,13.89,64.03,14.92,62.99,15.6z"
       id="path23" /><g
       id="g25"><path
         id="XMLID_1787_"
         style="fill:#033A59;"
         d="M80.18,50.34l-2.21,9.27c-5.39-0.53-10.44-1.25-14.26-2.65l2.56-10.7    C70.97,46.31,75.62,47.51,80.18,50.34z" /><path
         style="fill:#033A59;"
         d="M59.54,52.61l10.82-2c-0.29-5.6-0.44-11.15-2.47-17.36l-12.27,2.27L59.54,52.61z"
         id="path28" /><ellipse
         transform="matrix(0.9833 -0.1821 0.1821 0.9833 -8.3101 12.6879)"
         style="fill:#033A59;"
         cx="64.95"
         cy="51.61"
         rx="5.5"
         ry="5.5"
         id="ellipse30" /><path
         style="fill:#FBC11B;"
         d="M86.84,52.59l-0.12-0.21c-1.31-2.31-4.24-3.11-6.55-1.8l-2.39,1.36c-2.31,1.31-3.11,4.24-1.8,6.55    l0.12,0.21c1.31,2.31,4.24,3.11,6.55,1.8l2.39-1.36C87.35,57.82,88.15,54.89,86.84,52.59z"
         id="path32" /><ellipse
         transform="matrix(0.9833 -0.1821 0.1821 0.9833 -5.2271 11.8189)"
         style="fill:#033A59;"
         cx="61.76"
         cy="34.38"
         rx="6.24"
         ry="6.24"
         id="ellipse34" /><ellipse
         transform="matrix(0.9912 -0.1324 0.1324 0.9912 -6.7386 11.1274)"
         style="fill:#FBC11B;"
         cx="80.28"
         cy="56.22"
         rx="4.9"
         ry="4.9"
         id="ellipse36" /></g><g
       id="g38"><path
         style="fill:#0277BD;"
         d="M72.2,74.47l5.75-11.29c-5.61-4.48-12.29-8.24-19.84-11.4l-6.77,13.29    C58.02,69.47,64.96,72.66,72.2,74.47z"
         id="path40" /><path
         style="fill:#0277BD;"
         d="M73.53,92.4l10.59-1.79c-0.28-8.02-0.85-15.89-2.9-22.93l-12.47,2.11    C68.75,75.78,70.81,83.77,73.53,92.4z"
         id="path42" /><ellipse
         transform="matrix(0.4539 -0.8911 0.8911 0.4539 -20.3268 104.4804)"
         style="fill:#0277BD;"
         cx="75.07"
         cy="68.82"
         rx="6.33"
         ry="6.33"
         id="ellipse44" /><ellipse
         transform="matrix(0.4539 -0.8911 0.8911 0.4539 -22.1679 80.6685)"
         style="fill:#0277BD;"
         cx="54.73"
         cy="58.42"
         rx="7.46"
         ry="7.46"
         id="ellipse46" /><g
         id="g48"><path
           style="fill:#37474f"
           d="M 83.820312 76.550781 L 69.240234 79.019531 C 69.640234 84.209531 70.849766 88.789453 73.259766 92.439453 L 74.449219 99.480469 L 91.199219 96.650391 L 90.820312 94.419922 C 90.370312 91.759922 87.859219 89.979922 85.199219 90.419922 L 84.121094 90.601562 C 85.319094 87.150608 85.669037 81.287513 83.820312 76.550781 z "
           id="path50" /></g></g><g
       id="g54"><path
         style="fill:#0277BD;"
         d="M49.4,80.6l10.76-6.69c-0.26-3.5-6.4-12.44-11.08-20.02l-12.66,7.87    C39.32,68.74,43.89,74.9,49.4,80.6z"
         id="path56" /><path
         style="fill:#0277BD;"
         d="M48.2,99.66l10.73,0.55c1.33-8.06,2.71-16.14,2.14-23.01l-12.63-0.65    C47.04,82.05,47.42,90.52,48.2,99.66z"
         id="path58" /><ellipse
         transform="matrix(0.8493 -0.5279 0.5279 0.8493 -32.5295 40.5599)"
         style="fill:#0277BD;"
         cx="54.78"
         cy="77.26"
         rx="6.33"
         ry="6.33"
         id="ellipse60" /><ellipse
         transform="matrix(0.8493 -0.5279 0.5279 0.8493 -24.0872 31.2792)"
         style="fill:#0277BD;"
         cx="42.74"
         cy="57.83"
         rx="7.46"
         ry="7.46"
         id="ellipse62" /><g
         id="g64"><path
           style="fill:#37474f"
           d="M 46.730469 85.179688 C 45.980469 90.419688 46.339688 95.250625 47.929688 99.640625 L 47.939453 99.640625 L 47.929688 99.650391 L 47.560547 106.7793 L 64.519531 107.65039 L 64.640625 105.39062 C 64.780625 102.70063 62.709531 100.40953 60.019531 100.26953 L 58.931641 100.21094 L 58.929688 100.21094 C 60.759688 96.560938 61.500078 91.570312 61.830078 86.070312 L 46.730469 85.179688 z "
           id="path66" /></g></g><path
       style="fill:#01497A;"
       d="M57.53,26.36l-9.55-1.48c-4.7-0.73-9.11,2.49-9.84,7.19l-2.99,19.23c-0.8,5.13,2.72,9.93,7.84,10.73   l8.76,1.51c3.88,0.42,8.8-2.78,9.61-6.42c1.68-7.76,2.71-13.18,3.36-20.92C65.45,31.49,62.23,27.09,57.53,26.36z"
       id="path70" /><g
       id="g72"><path
         id="XMLID_1786_"
         style="fill:#01497A;"
         d="M36.4,56.87l-9.13,2.75c-2.35-4.41-3.99-8.96-4.88-13.66l10.54-3.17L36.4,56.87z" /><path
         style="fill:#01497A;"
         d="M24.32,39.74l6.53,8.86l14.54-9.81l-7.41-10.04C32.37,31.77,27.26,35.09,24.32,39.74z"
         id="path75" /><ellipse
         transform="matrix(0.8047 -0.5937 0.5937 0.8047 -20.8349 25.0024)"
         style="fill:#01497A;"
         cx="27.58"
         cy="44.17"
         rx="5.5"
         ry="5.5"
         id="ellipse77" /><ellipse
         transform="matrix(0.8047 -0.5937 0.5937 0.8047 -11.9051 31.3395)"
         style="fill:#01497A;"
         cx="41.68"
         cy="33.76"
         rx="6.24"
         ry="6.24"
         id="ellipse79" /><path
         style="fill:#FBC11B;"
         d="M37.95,57.23l-0.11-0.21c-1.21-2.36-4.1-3.3-6.46-2.1l-2.45,1.25c-2.36,1.21-3.3,4.1-2.1,6.46    l0.11,0.21c1.21,2.36,4.1,3.3,6.46,2.1l2.45-1.25C38.22,62.49,39.16,59.6,37.95,57.23z"
         id="path81" /></g><g
       id="g83"><path
         style="fill:#757575;"
         d="M62.47,14.45c1.58,6.44-2.05,12.87-8.1,14.35s-12.05,0.03-13.82-8.98    c-1.28-6.51-0.22-12.31,8.1-14.35C56.12,3.65,60.89,8.01,62.47,14.45z"
         id="path85" /><g
         id="g87"><defs
           id="defs89"><path
             id="SVGID_3_"
             d="M39.6,14.55c0,0,1.2,0.55,1.83,0.63c4.49,0.56,8.75,0.61,13.14-0.55c0.76-0.2,1.65-0.4,2.26,0.12      c0.78,0.66,0.29,1.9,0.09,2.93c-0.38,1.91-3.53,5.33-6.32,5.5c-1.38,0.08-2.76-0.12-3.93-0.77c-0.87-0.48-1.9-0.5-2.74,0.03      c-0.32,0.21-0.67,0.38-1.03,0.49c-0.91,0.29-2.13,0.32-2.68-0.49C38.92,20.51,38.55,16.57,39.6,14.55z" /></defs><use
           xlink:href="#SVGID_3_"
           style="overflow:visible;fill:#00E5FF;"
           id="use92" /><clipPath
           id="SVGID_4_"><use
             xlink:href="#SVGID_3_"
             style="overflow:visible;"
             id="use95" /></clipPath><polygon
           style="clip-path:url(#SVGID_4_);fill:#00ACC1;"
           points="45.48,24.37 43.1,24.37 44.74,13.06 47.11,13.07    "
           id="polygon97"
           clip-path="url(#SVGID_4_)" /><polygon
           style="clip-path:url(#SVGID_4_);fill:#2962FF;"
           points="53.14,24.38 48.84,24.37 51.8,13.07 56.1,13.08    "
           id="polygon99"
           clip-path="url(#SVGID_4_)" /></g><g
         id="g101"><path
           style="fill:#757575;"
           d="M40.37,13.47c-1.46,0.29-2.47,0.63-3.44,1.18c-0.53,0.31-1.08,0.68-1.16,1.15     c-0.1,0.62,0.6,0.92,1.18,0.89c3.76-0.2,6.84-0.41,10.81-0.28c2.75,0.06,6.71,0.45,9.06-0.12c0.29-0.07,0.58-0.28,0.62-0.6     c0.07-0.51-0.28-0.72-0.8-0.77C54.16,13.81,40.01,14.92,40.37,13.47z"
           id="path103" /><path
           style="fill:#BDBDBD;"
           d="M40.37,13.06c-1.46,0.28-2.47,0.63-3.44,1.18c-0.53,0.31-1.08,0.68-1.16,1.15     c-0.1,0.62,0.6,0.92,1.18,0.89c3.76-0.2,6.84-0.41,10.81-0.28c2.75,0.06,6.71,0.45,9.06-0.12c0.29-0.08,0.58-0.28,0.62-0.6     c0.07-0.51-0.28-0.72-0.8-0.77C54.16,13.4,40.01,14.51,40.37,13.06z"
           id="path105" /></g></g><path
       style="fill:#D84315;"
       d="M64.41,17.46c-3.46,2.18-4.83,6.63-9.55,8.21c-6.19,2.07-12.3,0.59-13.37-2.57   c0,0-1.64-0.18-1.55,1.42c0.08,1.33-0.8,4.52,4.15,6.33s9.11,1.51,11.21,1.81c1.53,0.22,8.02-2.91,9.13-3.9   c2.31-2.09,1.28-3.26,4.48-3.21c2.42,0.03,4.39-1.75,6.8-1.72c1.87,0.03,5.15,1.57,6.66,0.47c1.05-0.76,1.73-1.95,2.81-2.65   c1.53-0.99,3.51-0.8,5.33-0.79c1.88,0.02,3.77-0.19,5.6-0.61c0.25-0.06,0.52-0.14,0.64-0.36c0.13-0.23,0.12-0.58-0.08-0.76   c-3.04-2.84,0.39-9.5-4.16-9.5c-1.7,1.29-3.81,2.05-5.95,2.14c-1.27,0.05-2.56-0.12-3.81,0.12c-2.16,0.41-3.08,3.1-5.14,3.85   c-2.81,1.02-5.91,0.44-8.9,0.5C66.94,16.27,65.56,16.74,64.41,17.46z"
       id="path107" /></g><g
     id="g109"><path
       style="fill:#FFFFFF;"
       d="M105.59,77.39c0.01-0.01,0.02-0.01,0.03-0.03c1.23-1.08,0.39-3.2-1.31-2.93   c-0.05,0-0.09,0.01-0.13,0.02c-0.98,0.24-1.63,1.08-1.91,2.01c-0.14,0.48-0.26,0.96-0.36,1.45c-0.05,0.24-0.11,0.49-0.13,0.73   c-0.01,0.14,0.06,0.39,0.22,0.42c0.23,0.05,0.65-0.14,0.87-0.22C103.84,78.52,104.8,78.08,105.59,77.39z"
       id="path111" /><path
       style="fill:#FFFFFF;"
       d="M117.61,65.48c0.01-0.01,0.01-0.02,0.03-0.03c1.1-1.22,3.21-0.35,2.91,1.35   c0,0.04-0.02,0.09-0.03,0.13c-0.25,0.98-1.1,1.62-2.04,1.89c-0.48,0.14-0.97,0.25-1.46,0.34c-0.24,0.05-0.49,0.1-0.73,0.12   c-0.14,0.01-0.39-0.07-0.42-0.23c-0.05-0.23,0.15-0.65,0.23-0.86C116.44,67.21,116.9,66.25,117.61,65.48z"
       id="path113" /><path
       style="fill:#FFFFFF;"
       d="M99.64,64.73c0.01-0.01,0.01-0.02,0.01-0.04c0.68-1.69-1.22-3.38-2.77-2.25   c-0.04,0.03-0.08,0.06-0.12,0.09c-0.85,0.72-1.09,1.89-0.9,2.96c0.1,0.55,0.22,1.09,0.37,1.62c0.08,0.26,0.14,0.54,0.24,0.79   c0.06,0.14,0.26,0.35,0.43,0.31c0.26-0.06,0.57-0.46,0.75-0.65C98.47,66.73,99.2,65.81,99.64,64.73z"
       id="path115" /><path
       style="fill:#FFFFFF;"
       d="M112.98,55.43c0.01-0.01,0.01-0.02,0.02-0.03c1.1-1.16,0.1-3.14-1.53-2.73   c-0.04,0.01-0.09,0.02-0.13,0.04c-0.93,0.31-1.49,1.19-1.68,2.11c-0.1,0.48-0.17,0.96-0.23,1.44c-0.02,0.24-0.06,0.48-0.06,0.72   c0,0.13,0.1,0.37,0.25,0.39c0.23,0.03,0.61-0.19,0.82-0.28C111.39,56.69,112.28,56.17,112.98,55.43z"
       id="path117" /><path
       style="fill:#FFFFFF;"
       d="M111.72,64.56c0.01-0.01,0.02-0.02,0.03-0.03c1.37-1.48,0.07-3.96-1.97-3.41   c-0.05,0.01-0.11,0.03-0.16,0.05c-1.16,0.41-1.86,1.53-2.08,2.7c-0.11,0.6-0.2,1.21-0.25,1.82c-0.03,0.3-0.07,0.61-0.07,0.91   c0.01,0.16,0.13,0.46,0.32,0.48c0.29,0.04,0.78-0.25,1.03-0.37C109.73,66.17,110.85,65.5,111.72,64.56z"
       id="path119" /></g></svg>