<?xml version="1.0" encoding="UTF-8" standalone="no"?>
<!-- Generator: Adobe Illustrator 19.2.1, SVG Export Plug-In . SVG Version: 6.00 Build 0)  -->

<svg
   xmlns:dc="http://purl.org/dc/elements/1.1/"
   xmlns:cc="http://creativecommons.org/ns#"
   xmlns:rdf="http://www.w3.org/1999/02/22-rdf-syntax-ns#"
   xmlns:svg="http://www.w3.org/2000/svg"
   xmlns="http://www.w3.org/2000/svg"
   xmlns:xlink="http://www.w3.org/1999/xlink"
   xmlns:sodipodi="http://sodipodi.sourceforge.net/DTD/sodipodi-0.dtd"
   xmlns:inkscape="http://www.inkscape.org/namespaces/inkscape"
   version="1.1"
   id="图层_1"
   x="0px"
   y="0px"
   viewBox="0 0 128 128"
   style="enable-background:new 0 0 128 128;"
   xml:space="preserve"
   inkscape:version="0.91 r13725"
   sodipodi:docname="1f3df.svg"><metadata
     id="metadata127"><rdf:RDF><cc:Work
         rdf:about=""><dc:format>image/svg+xml</dc:format><dc:type
           rdf:resource="http://purl.org/dc/dcmitype/StillImage" /><dc:title></dc:title></cc:Work></rdf:RDF></metadata><defs
     id="defs125" /><sodipodi:namedview
     pagecolor="#ffffff"
     bordercolor="#666666"
     borderopacity="1"
     objecttolerance="10"
     gridtolerance="10"
     guidetolerance="10"
     inkscape:pageopacity="0"
     inkscape:pageshadow="2"
     inkscape:window-width="640"
     inkscape:window-height="480"
     id="namedview123"
     showgrid="false"
     inkscape:zoom="0.23046875"
     inkscape:cx="57.605373"
     inkscape:cy="-1.0847458"
     inkscape:window-x="0"
     inkscape:window-y="0"
     inkscape:window-maximized="0"
     inkscape:current-layer="图层_1" /><path
     style="fill:#79A5AF;"
     d="M127.38,81.04c-0.62-14.25-2-35.79-2-35.79c-0.59-2.96-33.97-8.36-33.97-8.36H36.16  c0,0-32.77,4.96-33.36,7.92c0,0-2.32,27.23-2.79,40.82c0,0.11-0.01,0.21-0.01,0.32c0,0.04,0,0.07,0.01,0.11  c0,0.25,0.01,0.5,0.03,0.73c0.84,18.63,29.16,33.61,63.98,33.61c35.36,0,63.54-14.87,63.54-33.9  C127.56,84.83,127.63,83.19,127.38,81.04z"
     id="path3" /><ellipse
     style="fill:#EC6C2F;"
     cx="64.02"
     cy="46.97"
     rx="61.36"
     ry="31.47"
     id="ellipse5" /><path
     style="fill:#446568;"
     d="M125.96,54.65"
     id="path7" /><path
     style="fill:#446568;"
     d="M2.01,54.64"
     id="path9" /><path
     style="fill:#4B6566;"
     d="M125.96,54.65c0,17.38-27.61,31.47-61.68,31.47c-34.06,0-62.28-14.09-62.28-31.47l0.8-9.84  l122.58,2.16L125.96,54.65z"
     id="path11" /><ellipse
     style="fill:#EC6C2F;"
     cx="64.02"
     cy="51.49"
     rx="61.36"
     ry="31.47"
     id="ellipse13" /><ellipse
     style="fill:#AE3D09;"
     cx="64.02"
     cy="54.65"
     rx="46.4"
     ry="23.79"
     id="ellipse15" /><ellipse
     style="fill:#FFFFFF;"
     cx="64.02"
     cy="58.54"
     rx="38.81"
     ry="19.9"
     id="ellipse17" /><path
     style="fill:#BDCF46;"
     d="M98.08,60.98c0,9.64-15.25,17.46-34.06,17.46c-18.81,0-34.06-7.82-34.06-17.46  c0-9.65,15.24-17.47,34.06-17.47C82.83,43.51,98.08,51.33,98.08,60.98z"
     id="path23" /><path
     style="fill:#AE3D09;"
     d="M53.11,39.43c-1.72,0.28-2.75,0.52-4.3,0.79c-0.8-1.28-0.91-5.87-0.91-10.1l0,0  c0-4.42,0.26-7.98,5.21-7.98V39.43z"
     id="path33" /><path
     style="fill:#AE3D09;"
     d="M74.93,39.43c1.72,0.28,2.75,0.52,4.3,0.79c0.8-1.28,0.91-5.87,0.91-10.1l0,0  c0-4.42-0.26-7.98-5.21-7.98V39.43z"
     id="path35" /><rect
     x="53.11"
     y="22.13"
     style="fill:#5C8587;"
     width="21.83"
     height="13.77"
     id="rect37" /><linearGradient
     id="SVGID_1_"
     gradientUnits="userSpaceOnUse"
     x1="87.9375"
     y1="50.9305"
     x2="118.3211"
     y2="13.0119"><stop
       offset="0"
       style="stop-color:#FFFFFF"
       id="stop42" /><stop
       offset="1"
       style="stop-color:#FFFFFF;stop-opacity:0"
       id="stop44" /></linearGradient><polygon
     style="opacity:0.8;fill:url(#SVGID_1_);"
     points="81.72,42.35 96,0 128.04,0 128.04,41.75 100.67,58 "
     id="polygon46" /><linearGradient
     id="SVGID_2_"
     gradientUnits="userSpaceOnUse"
     x1="169.6601"
     y1="50.9306"
     x2="200.0437"
     y2="13.0119"
     gradientTransform="matrix(-1 0 0 1 209.7641 0)"><stop
       offset="0"
       style="stop-color:#FFFFFF"
       id="stop49" /><stop
       offset="1"
       style="stop-color:#FFFFFF;stop-opacity:0"
       id="stop51" /></linearGradient><polygon
     style="opacity:0.8;fill:url(#SVGID_2_);"
     points="46.32,42.35 32.04,0 0,0 0,41.75 27.37,58 "
     id="polygon53" /><path
     style="fill:none;stroke:#FFFFFF;stroke-miterlimit:10;"
     d="M51.01,48.66l-3.55,22.7c-0.19,1.21,0.75,2.31,1.98,2.31h29.15  c1.23,0,2.17-1.1,1.97-2.32l-3.66-22.7c-0.16-0.97-0.99-1.68-1.97-1.68H52.98C52,46.97,51.16,47.69,51.01,48.66z"
     id="path55" /><line
     style="fill:none;stroke:#FFFFFF;stroke-miterlimit:10;"
     x1="49.18"
     y1="60.32"
     x2="78.77"
     y2="60.32"
     id="line57" /><polygon
     style="fill:#79A5AF;"
     points="62,22.13 69.12,22.13 54.38,35.91 53.11,35.91 53.11,30.21 "
     id="polygon59" /><polygon
     style="fill:#79A5AF;"
     points="74.93,27.67 66.5,35.91 70.72,35.91 74.93,31.79 "
     id="polygon61" /><polygon
     style="fill:#EC6C2F;"
     points="2.8,44.81 2.36,50.32 2.8,53.67 5.15,44.81 2.96,43.51 "
     id="polygon63" /><polygon
     style="fill:#EC6C2F;"
     points="125.38,45.25 125.67,50.74 124.9,55.45 123.92,46.08 "
     id="polygon65" /><path
     style="fill:#4B6566;"
     d="M39.2,90.85l-3.6,25.97c0,0,8.94,3.58,28.42,3.58l0.27-34.28L39.2,90.85z"
     id="path67" /><g
     id="g69"><defs
       id="defs71"><path
         id="SVGID_3_"
         d="M127.38,81.04c-0.62-14.25-2-35.79-2-35.79c-0.59-2.96-33.97-8.36-33.97-8.36H36.16    c0,0-32.77,4.96-33.36,7.92c0,0-2.32,27.23-2.79,40.82c0,0.11-0.01,0.21-0.01,0.32c0,0.04,0,0.07,0.01,0.11    c0,0.25,0.01,0.5,0.03,0.73c0.84,18.63,29.16,33.61,63.98,33.61c35.36,0,63.54-15.26,63.54-34.28    C127.56,84.45,127.5,82.96,127.38,81.04z" /></defs><clipPath
       id="SVGID_4_"><use
         xlink:href="#SVGID_3_"
         style="overflow:visible;"
         id="use75" /></clipPath><g
       style="clip-path:url(#SVGID_4_);"
       id="g77"
       clip-path="url(#SVGID_4_)"><g
         id="g79"><path
           style="fill:#4B6566;"
           d="M66.5,97.24c-17.1,0-40.66-2.73-55.82-15.76C1.56,73.64-0.16,65.89-0.22,65.56l0.98-0.21     c0.07,0.31,7.23,30.88,65.75,30.88c15.19,0,36.22-2.62,50.15-15.13c8.32-7.46,10.18-15.03,10.2-15.1l0.97,0.23     C127.75,66.55,119.95,97.24,66.5,97.24z"
           id="path81" /></g><g
         id="g83"><path
           style="fill:#4B6566;"
           d="M66.5,110.71c-17.09,0-40.65-2.64-55.81-15.2C1.56,87.95-0.15,80.47-0.22,80.16l0.98-0.21     c0.07,0.3,7.23,29.77,65.75,29.77c52.66,0,60.28-29.48,60.35-29.78l0.41-1.5l0.56,1.73C127.75,80.47,119.94,110.71,66.5,110.71z"
           id="path85" /></g></g></g><path
     style="fill:#4B6566;"
     d="M88.95,90.85l3.47,25.97c0,0-8.94,3.58-28.42,3.58l-0.27-34.28L88.95,90.85z"
     id="path87" /><g
     id="g89"><line
       style="fill:none;stroke:#79A5AF;stroke-miterlimit:10;"
       x1="48.7"
       y1="90.14"
       x2="46.21"
       y2="119.08"
       id="line91" /><line
       style="fill:none;stroke:#79A5AF;stroke-miterlimit:10;"
       x1="58.62"
       y1="89"
       x2="56.75"
       y2="120.22"
       id="line93" /><line
       style="fill:none;stroke:#79A5AF;stroke-miterlimit:10;"
       x1="79.3"
       y1="90.14"
       x2="81.79"
       y2="119.08"
       id="line95" /><line
       style="fill:none;stroke:#79A5AF;stroke-miterlimit:10;"
       x1="69.28"
       y1="89"
       x2="71.15"
       y2="120.22"
       id="line97" /></g><polygon
     style="fill:#4B6566;"
     points="34.74,87.87 39.2,90.85 88.95,90.85 93.43,87.8 64.29,84.17 "
     id="polygon99" /><path
     style="fill:#EF7748;"
     d="M64.26,77.69h-0.53c-14.18,0.09-23.95,5.94-29.03,8.35c-1,0.48-0.62,1.99,0.49,1.9  c7.55-0.57,22.43-1.62,28.53-1.62c6.13,0,21.43,1.06,29.1,1.63c1.11,0.08,1.49-1.43,0.49-1.9C88.24,83.64,78.45,77.77,64.26,77.69z"
     id="path103" /><path
     style="fill:#79A5AF;"
     d="M30.64,94.19"
     id="path107" /><polygon
     style="fill:#79A5AF;"
     points="69.28,96.74 57.69,106.17 56.75,117 70.35,106.87 "
     id="polygon111" /><path
     style="fill:#79A5AF;"
     d="M70.72,112.96l-9.6,7.44c0,0,5.07,0.03,7.7-0.08l2.33-2.07L70.72,112.96z"
     id="path113" /><polygon
     style="fill:#79A5AF;"
     points="69.28,92.33 57.93,100.65 58.26,95.13 65.25,90.85 69.28,90.85 "
     id="polygon115" /><polygon
     style="fill:#79A5AF;"
     points="40.99,90.85 37.67,117.49 35.6,116.82 39.2,90.85 "
     id="polygon119" /><polygon
     style="fill:#79A5AF;"
     points="88.95,90.85 86.58,90.85 90.34,117.49 92.42,116.82 "
     id="polygon121" /></svg>