<?xml version="1.0" encoding="UTF-8" standalone="no"?>
<!-- Generator: Adobe Illustrator 19.2.1, SVG Export Plug-In . SVG Version: 6.00 Build 0)  -->

<svg
   xmlns:dc="http://purl.org/dc/elements/1.1/"
   xmlns:cc="http://creativecommons.org/ns#"
   xmlns:rdf="http://www.w3.org/1999/02/22-rdf-syntax-ns#"
   xmlns:svg="http://www.w3.org/2000/svg"
   xmlns="http://www.w3.org/2000/svg"
   xmlns:sodipodi="http://sodipodi.sourceforge.net/DTD/sodipodi-0.dtd"
   xmlns:inkscape="http://www.inkscape.org/namespaces/inkscape"
   version="1.1"
   id="Layer_1"
   x="0px"
   y="0px"
   viewBox="0 0 128 128"
   style="enable-background:new 0 0 128 128;"
   xml:space="preserve"
   inkscape:version="0.91 r13725"
   sodipodi:docname="1f46b.svg"><metadata
     id="metadata135"><rdf:RDF><cc:Work
         rdf:about=""><dc:format>image/svg+xml</dc:format><dc:type
           rdf:resource="http://purl.org/dc/dcmitype/StillImage" /><dc:title></dc:title></cc:Work></rdf:RDF></metadata><defs
     id="defs133" /><sodipodi:namedview
     pagecolor="#ffffff"
     bordercolor="#666666"
     borderopacity="1"
     objecttolerance="10"
     gridtolerance="10"
     guidetolerance="10"
     inkscape:pageopacity="0"
     inkscape:pageshadow="2"
     inkscape:window-width="1024"
     inkscape:window-height="717"
     id="namedview131"
     showgrid="false"
     inkscape:zoom="2.6074563"
     inkscape:cx="73.101623"
     inkscape:cy="68.007138"
     inkscape:window-x="0"
     inkscape:window-y="0"
     inkscape:window-maximized="1"
     inkscape:current-layer="layer1" /><g
     id="XMLID_13_"><g
       id="XMLID_46_"><path
         id="XMLID_47_"
         style="fill:#6D4C41;"
         d="M72.65,24.67c0,0,0,23.19,2.99,33.97c1.47,5.31,3.31,8.66,7.72,5.35l17.1-0.17    c4.4,3.36,7.56,0.14,8.51-5.32c2.24-12.88,2.24-33.83,2.24-33.83H72.65z" /></g><g
       id="XMLID_44_"><ellipse
         id="XMLID_45_"
         style="fill:#6D4C41;"
         cx="91.93"
         cy="24.67"
         rx="19.28"
         ry="17.33" /></g><path
       id="XMLID_43_"
       style="fill:#FCC21B;"
       d="M112.72,61.64l0.66,1.76c1.29,3.47,2.94,6.8,4.93,9.93l6.58,10   c0.93,1.42,0.64,3.32-0.68,4.39h0c-1.51,1.22-3.75,0.88-4.83-0.74l-15.75-23.61l-0.32-4.08L112.72,61.64z" /><path
       id="XMLID_42_"
       style="fill:#FCC21B;"
       d="M71.28,61.44l-0.66,1.76c-1.29,3.47-2.94,6.8-4.93,9.93l-6.58,10   c-0.93,1.42-0.64,3.32,0.68,4.39l0,0c1.51,1.22,3.75,0.88,4.83-0.74l15.75-23.61l0.32-4.08L71.28,61.44z" /><path
       id="XMLID_41_"
       style="fill:#AA00FF;"
       d="M91.93,49.82c-3.5-0.01-7.9,0.4-10.24,1.02c-7.29,1.94-9.08,5.37-11.26,11.26   l21.5,8.19V49.82z" /><rect
       id="XMLID_40_"
       x="88.66"
       y="55.66"
       style="fill:#AA00FF;"
       width="5.31"
       height="15.77" /><rect
       id="XMLID_39_"
       x="78.55"
       y="61.97"
       style="fill:#AA00FF;"
       width="12.28"
       height="17.4" /><polygon
       id="XMLID_38_"
       style="fill:#AA00FF;"
       points="78.62,77.45 70.43,96.9 91.93,96.9 91.93,77.45  " /><rect
       id="XMLID_37_"
       x="78.62"
       y="98.95"
       style="fill:#FCC21B;"
       width="9.21"
       height="28.66" /><rect
       id="XMLID_36_"
       x="78.62"
       y="96.9"
       style="fill:#E8A23D;"
       width="9.21"
       height="3.07" /><path
       id="XMLID_35_"
       style="fill:#444444;"
       d="M89.06,128h-12v-2.5c0-2.21,1.79-4,4-4h4c2.21,0,4,1.79,4,4V128z" /><path
       id="XMLID_34_"
       style="fill:#AA00FF;"
       d="M91.93,49.82c3.5-0.01,7.9,0.4,10.24,1.02c7.29,1.94,9.08,5.37,11.26,11.26   l-21.5,8.19V49.82z" /><rect
       id="XMLID_33_"
       x="91.93"
       y="61.97"
       transform="matrix(-1 -1.224647e-16 1.224647e-16 -1 197.1605 141.3476)"
       style="fill:#AA00FF;"
       width="13.31"
       height="17.4" /><polygon
       id="XMLID_32_"
       style="fill:#AA00FF;"
       points="105.23,77.45 113.42,96.9 91.93,96.9 91.93,77.45  " /><rect
       id="XMLID_31_"
       x="96.02"
       y="98.95"
       transform="matrix(-1 -1.224647e-16 1.224647e-16 -1 201.2551 226.5629)"
       style="fill:#FCC21B;"
       width="9.21"
       height="28.66" /><rect
       id="XMLID_30_"
       x="96.02"
       y="96.9"
       transform="matrix(-1 -1.224647e-16 1.224647e-16 -1 201.2551 196.8773)"
       style="fill:#E8A23D;"
       width="9.21"
       height="3.07" /><path
       id="XMLID_29_"
       style="fill:#444444;"
       d="M94.79,128h12v-2.5c0-2.21-1.79-4-4-4h-4c-2.21,0-4,1.79-4,4V128z" /><path
       id="XMLID_28_"
       style="fill:#FCC21B;"
       d="M91.93,56.78L91.93,56.78c-2.94,0-5.12-1.97-5.12-4.91v-5.12h10.24v5.12   C97.04,54.8,94.87,56.78,91.93,56.78z" /><path
       id="XMLID_27_"
       style="fill:#E8A23D;"
       d="M97.04,51.77c0,0-1.95,0.79-5.11,0.79s-5.12-0.7-5.12-0.7v-5.02   c0-1.34,0.89-2.8,2.23-2.8h5.79c1.34,0,2.22,1.36,2.22,2.7V51.77z" /><rect
       id="XMLID_26_"
       x="89.88"
       y="76.43"
       style="fill:#AA00FF;"
       width="4.09"
       height="20.47" /><g
       id="XMLID_22_"><rect
         id="XMLID_25_"
         x="78.62"
         y="71.44"
         style="fill:#7B1FA2;"
         width="13.31"
         height="6.02" /><rect
         id="XMLID_24_"
         x="91.93"
         y="71.44"
         transform="matrix(-1 -1.224647e-16 1.224647e-16 -1 197.1605 148.8908)"
         style="fill:#7B1FA2;"
         width="13.31"
         height="6.02" /><rect
         id="XMLID_23_"
         x="89.88"
         y="71.44"
         style="fill:#7B1FA2;"
         width="4.09"
         height="6.02" /></g><g
       id="XMLID_20_"><path
         id="XMLID_21_"
         style="fill:#FCC21B;"
         d="M91.93,11.51c-11.85,0-14.95,9.19-14.95,22.09c0,12.91,9.19,16.84,14.95,16.84    c5.76,0,14.95-3.94,14.95-16.84C106.88,20.7,103.78,11.51,91.93,11.51z" /></g><g
       id="XMLID_18_"><path
         id="XMLID_19_"
         style="fill:#6D4C41;"
         d="M96.45,21.64c-1.58,1.51-9.4,8.57-20.19,10.41V17.59c0,0,4.66-9.24,15.83-9.24    s15.83,9.47,15.83,9.47v14.23c0,0-7.32-2.81-11-10.32C96.83,21.54,96.59,21.5,96.45,21.64z" /></g><path
       id="XMLID_17_"
       style="fill:#444444;"
       d="M86.9,34.46c0,1.36-0.91,2.47-2.04,2.47c-1.13,0-2.04-1.1-2.04-2.47   c0-1.37,0.92-2.47,2.04-2.47C85.98,32,86.9,33.1,86.9,34.46" /><path
       id="XMLID_16_"
       style="fill:#444444;"
       d="M96.95,34.46c0,1.36,0.91,2.47,2.04,2.47c1.13,0,2.04-1.1,2.04-2.47   c0-1.37-0.92-2.47-2.04-2.47C97.87,32,96.95,33.1,96.95,34.46" /><path
       id="XMLID_15_"
       style="fill:#4C3734;"
       d="M96.35,42.79c-0.62,0-4.42,0-4.42,0s-3.8,0-4.42,0c-0.51,0-0.72,0.34-0.39,0.85   c0.47,0.71,2.21,2.09,4.81,2.09c2.6,0,4.34-1.37,4.81-2.09C97.07,43.13,96.85,42.79,96.35,42.79z" /><path
       id="XMLID_14_"
       style="fill:#E48C15;"
       d="M94.06,39.31c-0.75,0.21-1.53,0.32-2.14,0.32s-1.38-0.1-2.14-0.32   c-0.32-0.09-0.45,0.21-0.33,0.42c0.24,0.42,1.2,1.27,2.47,1.27c1.27,0,2.23-0.85,2.47-1.27C94.51,39.52,94.38,39.22,94.06,39.31z" /></g><g
     id="g103"><g
       id="XMLID_98_"><path
         id="XMLID_100_"
         style="fill:#FCC21B;"
         d="M14.93,61.24l-0.66,1.76c-1.29,3.47-2.94,6.8-4.93,9.93l-6.48,10    c-0.93,1.42-0.64,3.52,0.68,4.59l0,0c1.51,1.22,4.05,0.88,5.13-0.74l15.75-23.61l0.32-4.08L14.93,61.24z" /></g><g
       id="XMLID_95_" /><rect
       id="XMLID_93_"
       x="22.15"
       y="81.9"
       style="fill:#616161;"
       width="10.71"
       height="45.72" /><path
       id="XMLID_92_"
       style="fill:#444444;"
       d="M34.26,128h-13.5v-3.5c0-2.21,1.79-4,4-4h5.5c2.21,0,4,1.79,4,4V128z" /><rect
       id="XMLID_90_"
       x="39.04"
       y="81.9"
       transform="matrix(-1 -1.224647e-16 1.224647e-16 -1 88.7867 209.5066)"
       style="fill:#616161;"
       width="10.71"
       height="45.72" /><path
       id="XMLID_73_"
       style="fill:#444444;"
       d="M37.64,128h13.5v-3.5c0-2.21-1.79-4-4-4h-5.5c-2.21,0-4,1.79-4,4V128z" /><g
       id="XMLID_61_" /><path
       style="fill:#616161;"
       d="M49.75,81.9h-27.6v15.54h10.71v-0.9c0-1.32,1.07-2.39,2.39-2.39h1.4c1.32,0,2.39,1.07,2.39,2.39v0.9   h10.71V81.9z"
       id="path129" /></g><g
     inkscape:groupmode="layer"
     id="layer2"
     inkscape:label="Layer 2"
     style="display:inline"><path
       id="XMLID_97_"
       style="display:inline;fill:#fcc21b"
       d="M 57.03,61.24 57.69,63 c 1.29,3.47 2.94,6.8 4.93,9.93 l 6.48,10 c 0.93,1.42 0.64,3.52 -0.68,4.59 l 0,0 c -1.51,1.22 -4.05,0.88 -5.13,-0.74 l -15.76,-23.6 -0.32,-4.08 9.82,2.14 z"
       inkscape:connector-curvature="0" /></g><g
     inkscape:groupmode="layer"
     id="layer1"
     inkscape:label="Layer 1"
     style="display:inline"><path
       style="fill:#00bfa5"
       d="m 35.980469,49.810547 c -3.62,-0.01 -8.169844,0.418594 -10.589844,1.058594 -7.55,2.01 -9.400391,5.56039 -11.650391,11.65039 l 8.410157,3.207031 0,16.164063 13.832031,0 0,0.0059 13.769531,0 0,-16.148437 8.46875,-3.228516 c -2.25,-6.09 -4.100391,-9.64039 -11.650391,-11.65039 -2.419999,-0.64 -6.969843,-1.068594 -10.589843,-1.058594 z"
       id="XMLID_99_"
       inkscape:connector-curvature="0" /><path
       id="XMLID_72_"
       style="fill:#fcc21b"
       d="m 35.98,57.47 0,0 c -2.92,0 -5.29,-2.37 -5.29,-5.29 l 0,-4.52 10.58,0 0,4.52 c 0,2.92 -2.37,5.29 -5.29,5.29 z"
       inkscape:connector-curvature="0" /><path
       id="XMLID_71_"
       style="fill:#e8a23d"
       d="m 41.28,51.74 c 0,0 -2.02,0.82 -5.29,0.82 -3.27,0 -5.3,-0.72 -5.3,-0.72 l 0,-5.19 c 0,-1.39 0.92,-2.89 2.31,-2.89 l 5.98,0 c 1.39,0 2.3,1.41 2.3,2.8 l 0,5.18 z"
       inkscape:connector-curvature="0" /><path
       id="XMLID_67_"
       style="fill:#fcc21b"
       d="m 35.98,9.13 c -12.57,0 -15.86,9.75 -15.86,23.44 0,14.2 9.13,17.87 15.86,17.87 6.64,0 15.86,-3.57 15.86,-17.87 C 51.85,18.88 48.56,9.13 35.98,9.13 Z"
       inkscape:connector-curvature="0" /><g
       id="XMLID_68_"><path
         id="XMLID_70_"
         style="fill:#e59600"
         d="m 51.89,29.71 c 0,0 2.92,0.51 2.92,3.65 0,2.77 -2.13,3.87 -4.26,3.87 l 0,-7.51 1.34,0 z"
         inkscape:connector-curvature="0" /><path
         id="XMLID_69_"
         style="fill:#e59600"
         d="m 20.07,29.71 c 0,0 -2.92,0.51 -2.92,3.65 0,2.77 2.13,3.87 4.26,3.87 l 0,-7.51 -1.34,0 z"
         inkscape:connector-curvature="0" /></g><path
       id="XMLID_66_"
       style="fill:#444444"
       d="m 30.76,33.84 c 0,1.41 -0.95,2.56 -2.12,2.56 -1.17,0 -2.12,-1.15 -2.12,-2.56 0,-1.42 0.95,-2.56 2.12,-2.56 1.17,0 2.12,1.15 2.12,2.56"
       inkscape:connector-curvature="0" /><path
       id="XMLID_65_"
       style="fill:#444444"
       d="m 41.2,33.84 c 0,1.41 0.95,2.56 2.12,2.56 1.17,0 2.12,-1.15 2.12,-2.56 0,-1.42 -0.95,-2.56 -2.12,-2.56 -1.17,0 -2.12,1.15 -2.12,2.56"
       inkscape:connector-curvature="0" /><path
       id="XMLID_64_"
       style="fill:#513f35"
       d="m 40.57,42.49 c -0.64,0 -4.59,0 -4.59,0 0,0 -3.95,0 -4.59,0 -0.53,0 -0.75,0.35 -0.4,0.88 0.49,0.74 2.3,2.17 5,2.17 2.7,0 4.51,-1.43 5,-2.17 0.34,-0.52 0.11,-0.88 -0.42,-0.88 z"
       inkscape:connector-curvature="0" /><path
       id="XMLID_63_"
       style="fill:#e59600"
       d="m 38.2,38.59 c -0.78,0.22 -1.59,0.33 -2.22,0.33 -0.63,0 -1.44,-0.11 -2.22,-0.33 -0.33,-0.09 -0.47,0.22 -0.35,0.43 0.25,0.44 1.25,1.32 2.56,1.32 1.32,0 2.32,-0.88 2.56,-1.32 0.14,-0.21 0,-0.52 -0.33,-0.43 z"
       inkscape:connector-curvature="0" /><path
       id="XMLID_62_"
       style="fill:#6d4c41"
       d="m 36.36,7.34 c 0,0 -0.25,-0.01 -0.35,-0.01 -0.11,0 -0.35,0.01 -0.35,0.01 C 22.09,7.61 18,15.77 18,21.43 c 0,5.5 0.01,9.54 0.01,9.54 0,0 0.22,-0.22 0.61,-0.53 0.42,-0.33 0.9,-0.52 0.9,-0.52 l 0.69,4.6 4.52,-9.45 c 0.03,-0.06 0.09,-0.09 0.15,-0.09 l 2.68,0.3 c 2.69,0.3 5.4,0.44 8.1,0.45 l 0,0.01 c 0.12,0 0.23,0 0.35,0 0.12,0 0.23,0 0.35,0 l 0,-0.01 c 2.71,-0.01 5.41,-0.15 8.1,-0.45 l 2.68,-0.3 c 0.06,-0.01 0.13,0.03 0.15,0.09 l 4.52,9.45 0.69,-4.6 c 0,0 0.47,0.19 0.9,0.52 0.4,0.31 0.61,0.53 0.61,0.53 0,0 0.01,-4.04 0.01,-9.54 0,-5.66 -4.09,-13.82 -17.66,-14.09 z"
       inkscape:connector-curvature="0" /></g></svg>