<svg width="128" height="128" style="enable-background:new 0 0 128 128;" xmlns="http://www.w3.org/2000/svg" xmlns:xlink="http://www.w3.org/1999/xlink">
  <g id="Layer_2">
    <ellipse id="XMLID_49_" cx="64" cy="64.64" rx="53" ry="56.58" style="fill:#010101;"/>
    <g id="XMLID_38_">
      <radialGradient id="SVGID_1_" cx="64.2441" cy="48.8681" gradientTransform="matrix(0.9391 0 0 1.0904 3.8174 -6.1243)" gradientUnits="userSpaceOnUse" r="57.4523">
        <stop offset="0" style="stop-color:#FF0000"/>
        <stop offset="0.5099" style="stop-color:#FD0100"/>
        <stop offset="0.7142" style="stop-color:#F60300"/>
        <stop offset="0.8633" style="stop-color:#EA0700"/>
        <stop offset="0.9855" style="stop-color:#D90D00"/>
        <stop offset="1" style="stop-color:#D60E00"/>
      </radialGradient>
      <path d="M64,122c-23.71,0-43-25.11-43-55.97c0-3.86-0.12-7.62-0.23-11.26 c-0.45-14.6-0.83-27.21,6.76-35.04c6.31-6.51,18.24-9.67,36.47-9.67c18.23,0,30.16,3.16,36.47,9.67 c7.59,7.83,7.21,20.44,6.76,35.04c-0.11,3.64-0.23,7.4-0.23,11.26C107,96.89,87.71,122,64,122z" style="fill:url(#SVGID_1_);"/>
      <path d="M64,12.05c17.66,0,29.12,2.96,35.03,9.06c7,7.22,6.63,19.44,6.2,33.59 c-0.11,3.65-0.23,7.43-0.23,11.32C105,95.79,86.61,120,64,120S23,95.79,23,66.03c0-3.89-0.12-7.67-0.23-11.32 c-0.43-14.15-0.81-26.37,6.2-33.59C34.88,15.02,46.34,12.05,64,12.05 M64,8.05c-53,0-45,25.96-45,57.97S39.15,124,64,124 s45-25.96,45-57.97S117,8.05,64,8.05L64,8.05z" style="fill:#B71C1C;"/>
    </g>
    <path id="XMLID_39_" d="M34.38,24.05l2.54-2.79c1.33-1.45,3.69-1.06,4.48,0.75c2.64,6.04,8.08,16.91,12.72,16.34 c6.41-0.79,2.48-10.09,2.48-10.09h0c0.99,0,7.08,14.66-1.51,16.34c-10.58,2.08-17.12-6.21-21.25-17.73 C33.49,25.9,33.69,24.81,34.38,24.05z" style="fill:#010101;"/>
    <path id="XMLID_60_" d="M93.48,24.05l-2.54-2.79c-1.33-1.45-3.69-1.06-4.48,0.75c-2.64,6.04-8.08,16.91-12.72,16.34 c-6.41-0.79-2.48-10.09-2.48-10.09l0,0c-0.99,0-7.08,14.66,1.51,16.34c10.58,2.08,17.12-6.21,21.25-17.73 C94.38,25.9,94.18,24.81,93.48,24.05z" style="fill:#010101;"/>
    <g id="XMLID_47_">
      <path id="XMLID_46_" d="M44.79,61.49l-7.64-1.48c-5.28-1.02-8.78-6.23-7.77-11.57l0,0 c0.57-3.01,3.48-5.01,6.46-4.43l11.82,2.28c3.33,0.64,5.53,3.92,4.89,7.28L52,56.55C51.36,59.91,48.12,62.14,44.79,61.49z" style="fill:#F6E56A;"/>
      <path id="XMLID_76_" d="M41.49,47.55L41.49,47.55c-2.29,0-4.38,1.96-4.38,5.21s2.09,5.21,4.38,5.21l0,0 c2.29,0,4.38-1.96,4.38-5.21S43.79,47.55,41.49,47.55z" style="fill:#010101;"/>
    </g>
    <g id="XMLID_70_">
      <path id="XMLID_59_" d="M81.29,60.77l7.32-1.42c5.07-0.98,8.42-5.97,7.45-11.09l0,0 c-0.55-2.89-3.33-4.8-6.19-4.25L78.54,46.2c-3.19,0.62-5.3,3.76-4.69,6.98l0.54,2.84C74.99,59.25,78.1,61.38,81.29,60.77z" style="fill:#F6E56A;"/>
      <path id="XMLID_58_" d="M84.7,47.4L84.7,47.4c-2.2,0-4.2,1.88-4.2,5s2,5,4.2,5l0,0c2.2,0,4.2-1.88,4.2-5S86.9,47.4,84.7,47.4z" style="fill:#010101;"/>
    </g>
    <g id="XMLID_48_">
      <path id="XMLID_55_" d="M27.56,80.96c0,0,0.67,7.72,10.67,9.92c9.09,2,21.22-0.36,24.22-1.81c3-1.45,5.45-2.04-0.67-2.16 s-20.22-2.95-23.11-9.36C35.78,71.13,26.23,71.4,27.56,80.96z" style="fill:#010101;"/>
      <path id="XMLID_56_" d="M100.44,80.96c0,0-0.67,7.72-10.67,9.92c-9.09,2-21.22-0.36-24.22-1.81c-3-1.45-5.45-2.04,0.67-2.16 s20.22-2.95,23.11-9.36C92.22,71.13,101.77,71.4,100.44,80.96z" style="fill:#010101;"/>
    </g>
    <radialGradient id="XMLID_36_" cx="62.9537" cy="65.1977" gradientTransform="matrix(1 0 0 1.0106 0 -0.0452)" gradientUnits="userSpaceOnUse" r="17.0939">
      <stop offset="0" style="stop-color:#FF0000"/>
      <stop offset="0.5099" style="stop-color:#FD0100"/>
      <stop offset="0.7142" style="stop-color:#F60300"/>
      <stop offset="0.8633" style="stop-color:#EA0700"/>
      <stop offset="0.9855" style="stop-color:#D90D00"/>
      <stop offset="1" style="stop-color:#D60E00"/>
    </radialGradient>
    <ellipse id="XMLID_50_" cx="64" cy="72.72" rx="15" ry="15.16" style="fill:url(#XMLID_36_);stroke:#8A1515;stroke-width:4.2361;stroke-miterlimit:10;"/>
    <g id="XMLID_51_">
      <path d="M86.82,109.64c0,0-0.04-0.25-0.12-0.71c-0.04-0.23-0.09-0.52-0.15-0.86c-0.03-0.17-0.06-0.35-0.1-0.54 c-0.05-0.18-0.11-0.36-0.17-0.56c-0.12-0.39-0.24-0.82-0.4-1.28c-0.21-0.45-0.42-0.94-0.64-1.46c-0.27-0.5-0.6-1-0.92-1.54 c-0.39-0.49-0.77-1.04-1.23-1.54c-0.51-0.47-0.95-1.03-1.57-1.46c-0.29-0.23-0.58-0.47-0.88-0.71c-0.32-0.21-0.65-0.42-0.98-0.64 c-0.32-0.23-0.67-0.43-1.04-0.61c-0.36-0.19-0.73-0.38-1.1-0.57c-0.79-0.3-1.54-0.71-2.39-0.96c-1.64-0.62-3.44-0.96-5.27-1.3 c-1.84-0.3-3.74-0.4-5.63-0.4c-1.89,0.04-3.8,0.14-5.63,0.49c-0.46,0.06-0.91,0.17-1.36,0.27c-0.45,0.1-0.9,0.17-1.34,0.29 c-0.87,0.25-1.75,0.46-2.57,0.79c-1.67,0.58-3.19,1.32-4.56,2.14c-0.66,0.44-1.32,0.85-1.88,1.34c-0.61,0.44-1.11,0.95-1.59,1.44 c-0.52,0.47-0.85,1.04-1.27,1.52c-0.36,0.51-0.65,1.04-0.96,1.51c-0.24,0.52-0.46,1-0.66,1.45c-0.21,0.45-0.29,0.9-0.43,1.3 c-0.28,0.79-0.32,1.46-0.42,1.9c-0.08,0.45-0.12,0.69-0.12,0.69l-0.01,0.07c-0.05,0.28-0.32,0.47-0.6,0.42 c-0.24-0.04-0.41-0.25-0.42-0.49c0,0-0.01-0.26-0.03-0.75c0.01-0.49-0.12-1.22,0.04-2.14c0.07-0.46,0.08-0.98,0.22-1.53 c0.14-0.55,0.3-1.14,0.5-1.77c0.27-0.6,0.52-1.26,0.86-1.92c0.19-0.32,0.39-0.64,0.59-0.98c0.2-0.34,0.42-0.68,0.68-0.98 c0.5-0.64,1.03-1.32,1.68-1.91c0.6-0.65,1.33-1.18,2.06-1.76c1.5-1.08,3.19-2.1,5.05-2.83c1.84-0.78,3.82-1.38,5.87-1.77 c2.05-0.42,4.16-0.57,6.27-0.65c2.11,0.02,4.23,0.18,6.29,0.54c2.06,0.37,4.05,0.93,5.91,1.72c0.94,0.34,1.82,0.83,2.68,1.27 c0.42,0.25,0.82,0.52,1.23,0.77c0.41,0.25,0.8,0.51,1.16,0.81c1.52,1.08,2.72,2.44,3.7,3.74c0.47,0.67,0.86,1.36,1.23,2 c0.29,0.69,0.58,1.33,0.8,1.95c0.17,0.64,0.34,1.23,0.47,1.78c0.09,0.57,0.14,1.1,0.19,1.57c0.02,0.23,0.05,0.45,0.07,0.66 c-0.01,0.2-0.01,0.38-0.02,0.55c-0.02,0.34-0.03,0.63-0.04,0.87c-0.02,0.47-0.03,0.72-0.03,0.72c-0.01,0.29-0.25,0.51-0.54,0.5 C87.06,110.06,86.86,109.88,86.82,109.64z" style="fill:#010101;"/>
    </g>
    <ellipse id="XMLID_40_" cx="63.66" cy="12.31" rx="13.09" ry="8.06" fill="#010101"/>
    <path id="XMLID_43_" d="M62.53,121.07c-1.22,2.34-5.27,2.59-9.06,0.58c-3.79-2.02-5.88-5.54-4.66-7.88 c1.22-2.34,5.27-2.59,9.06-0.58C61.65,115.21,63.74,118.73,62.53,121.07z" style="fill:#010101;"/>
    <path id="XMLID_44_" d="M65.8,121.07c1.22,2.34,5.27,2.59,9.06,0.58s5.88-5.54,4.66-7.88c-1.22-2.34-5.27-2.59-9.06-0.58 S64.58,118.73,65.8,121.07z" style="fill:#010101;"/>
  </g>
</svg>
