<?xml version="1.0" encoding="UTF-8" standalone="no"?>
<!-- Generator: Adobe Illustrator 19.2.1, SVG Export Plug-In . SVG Version: 6.00 Build 0)  -->

<svg
   xmlns:dc="http://purl.org/dc/elements/1.1/"
   xmlns:cc="http://creativecommons.org/ns#"
   xmlns:rdf="http://www.w3.org/1999/02/22-rdf-syntax-ns#"
   xmlns:svg="http://www.w3.org/2000/svg"
   xmlns="http://www.w3.org/2000/svg"
   xmlns:sodipodi="http://sodipodi.sourceforge.net/DTD/sodipodi-0.dtd"
   xmlns:inkscape="http://www.inkscape.org/namespaces/inkscape"
   version="1.1"
   id="レイヤー_1"
   x="0px"
   y="0px"
   viewBox="0 0 128 128"
   style="enable-background:new 0 0 128 128;"
   xml:space="preserve"
   inkscape:version="0.91 r13725"
   sodipodi:docname="1f4fd-noseam.svg"><metadata
     id="metadata73"><rdf:RDF><cc:Work
         rdf:about=""><dc:format>image/svg+xml</dc:format><dc:type
           rdf:resource="http://purl.org/dc/dcmitype/StillImage" /><dc:title></dc:title></cc:Work></rdf:RDF></metadata><defs
     id="defs71" /><sodipodi:namedview
     pagecolor="#ffffff"
     bordercolor="#666666"
     borderopacity="1"
     objecttolerance="10"
     gridtolerance="10"
     guidetolerance="10"
     inkscape:pageopacity="0"
     inkscape:pageshadow="2"
     inkscape:window-width="721"
     inkscape:window-height="480"
     id="namedview69"
     showgrid="false"
     inkscape:zoom="1.3037281"
     inkscape:cx="94.461469"
     inkscape:cy="45.016949"
     inkscape:window-x="0"
     inkscape:window-y="0"
     inkscape:window-maximized="0"
     inkscape:current-layer="レイヤー_1" /><path
     style="fill:#40C0E7;"
     d="M28.34,116.64c-3.41,0-6.18-2.77-6.18-6.18V60.09c0-3.41,2.77-6.18,6.18-6.18h60.6  c3.41,0,6.18,2.77,6.18,6.18v50.37c0,3.41-2.77,6.18-6.18,6.18H28.34z"
     id="path5" /><path
     style="fill:#1A6CA2;"
     d="M 79.740234 74.609375 C 76.190234 74.609375 73.320313 77.240234 73.320312 80.490234 L 73.320312 110.76953 C 73.320313 114.01953 76.200234 116.65039 79.740234 116.65039 L 88.699219 116.65039 C 92.249219 116.65039 95.119141 114.01953 95.119141 110.76953 L 95.119141 103.19141 L 112.36914 110.08984 L 112.36914 109.92188 C 112.82877 111.65969 114.39825 112.94922 116.2793 112.94922 C 118.5193 112.94922 120.33984 111.13063 120.33984 108.89062 L 120.33984 79.640625 C 120.33984 77.400625 118.5193 75.580078 116.2793 75.580078 C 114.39825 75.580078 112.82877 76.869595 112.36914 78.607422 L 112.36914 78.439453 L 95.119141 84.349609 L 95.119141 80.490234 C 95.119141 77.240234 92.239219 74.609375 88.699219 74.609375 L 79.740234 74.609375 z "
     id="polygon3" /><path
     style="fill:#1A6CA2;"
     d="M80.93,121H36.35c-2.07,0-3.74-1.68-3.74-3.74v0c0-2.07,1.68-3.74,3.74-3.74h44.59  c2.07,0,3.74,1.68,3.74,3.74v0C84.68,119.32,83,121,80.93,121z"
     id="path11" /><path
     style="fill:#1A6CA2;"
     d="M21.48,67.53h37.27c4.14,0,7.49,3.35,7.49,7.49v19.64c0,4.14-3.35,7.49-7.49,7.49H21.48  c-4.14,0-7.49-3.35-7.49-7.49V75.02C13.99,70.88,17.34,67.53,21.48,67.53z"
     id="path13" /><circle
     style="fill:#ED6C30;"
     cx="84.06"
     cy="105.02"
     r="3.16"
     id="circle17" /><circle
     style="fill:#40C0E7;"
     cx="84.06"
     cy="94.54"
     r="3.16"
     id="circle19" /><g
     id="g21"><g
       id="g23"><path
         style="fill:#1A6CA2;"
         d="M94.5,8.12c-17.67,0-32,14.33-32,32s14.33,32,32,32s32-14.33,32-32S112.17,8.12,94.5,8.12z     M94.5,64.53c-13.49,0-24.42-10.93-24.42-24.42S81.02,15.7,94.5,15.7s24.42,10.93,24.42,24.42S107.99,64.53,94.5,64.53z"
         id="path25" /><g
         id="g27"><circle
           style="fill:#FFFFFF;"
           cx="94.5"
           cy="40.11"
           r="24.42"
           id="circle29" /><path
           style="fill:#1A6CA2;"
           d="M94.5,29.07c-6.1,0-11.05,4.95-11.05,11.05S88.4,51.16,94.5,51.16s11.05-4.95,11.05-11.05     S100.6,29.07,94.5,29.07z M94.5,45.05c-2.72,0-4.93-2.21-4.93-4.93s2.21-4.93,4.93-4.93c2.72,0,4.93,2.21,4.93,4.93     S97.23,45.05,94.5,45.05z"
           id="path31" /><circle
           style="fill:#FFFFFF;"
           cx="94.5"
           cy="40.11"
           r="4.93"
           id="circle33" /></g></g><polygon
       style="fill:#1A6CA2;"
       points="89.57,12.35 92.67,32.08 96.62,32.08 99.44,12.35  "
       id="polygon35" /><polygon
       style="fill:#1A6CA2;"
       points="119.33,26.78 101.57,35.93 102.81,39.67 122.43,36.15  "
       id="polygon37" /><polygon
       style="fill:#1A6CA2;"
       points="114.84,59.71 100.67,45.62 97.49,47.96 106.88,65.54  "
       id="polygon39" /><polygon
       style="fill:#1A6CA2;"
       points="82.1,65.55 91.16,47.75 87.97,45.44 74.11,59.76  "
       id="polygon41" /><polygon
       style="fill:#1A6CA2;"
       points="66.49,36.25 86.22,39.37 87.43,35.62 69.53,26.86  "
       id="polygon43" /></g><g
     id="g45"><g
       id="g47"><path
         style="fill:#1A6CA2;"
         d="M27.15,25.3c-14.28,0-25.86,11.58-25.86,25.86s11.58,25.86,25.86,25.86s25.86-11.58,25.86-25.86    S41.44,25.3,27.15,25.3z M27.15,70.9c-10.9,0-19.74-8.84-19.74-19.74s8.84-19.74,19.74-19.74s19.74,8.84,19.74,19.74    S38.05,70.9,27.15,70.9z"
         id="path49" /><g
         id="g51"><circle
           style="fill:#FFFFFF;"
           cx="27.15"
           cy="51.16"
           r="19.74"
           id="circle53" /><path
           style="fill:#1A6CA2;"
           d="M27.15,42.23c-4.93,0-8.93,4-8.93,8.93s4,8.93,8.93,8.93s8.93-4,8.93-8.93     S32.09,42.23,27.15,42.23z M27.15,55.15c-2.2,0-3.99-1.79-3.99-3.99c0-2.2,1.79-3.99,3.99-3.99s3.99,1.79,3.99,3.99     C31.14,53.36,29.36,55.15,27.15,55.15z"
           id="path55" /><circle
           style="fill:#FFFFFF;"
           cx="27.15"
           cy="51.16"
           r="3.99"
           id="circle57" /></g></g><polygon
       style="fill:#1A6CA2;"
       points="23.17,28.72 25.67,44.67 28.86,44.67 31.14,28.72  "
       id="polygon59" /><polygon
       style="fill:#1A6CA2;"
       points="47.22,40.38 32.86,47.78 33.87,50.8 49.72,47.96  "
       id="polygon61" /><polygon
       style="fill:#1A6CA2;"
       points="43.59,67 32.14,55.61 29.57,57.5 37.16,71.71  "
       id="polygon63" /><polygon
       style="fill:#1A6CA2;"
       points="17.13,71.72 24.45,57.33 21.87,55.46 10.67,67.04  "
       id="polygon65" /><polygon
       style="fill:#1A6CA2;"
       points="4.51,48.04 20.46,50.56 21.44,47.53 6.97,40.45  "
       id="polygon67" /></g></svg>