<?xml version="1.0" encoding="UTF-8" standalone="no"?>
<!-- Generator: Adobe Illustrator 19.2.1, SVG Export Plug-In . SVG Version: 6.00 Build 0)  -->

<svg
   xmlns:dc="http://purl.org/dc/elements/1.1/"
   xmlns:cc="http://creativecommons.org/ns#"
   xmlns:rdf="http://www.w3.org/1999/02/22-rdf-syntax-ns#"
   xmlns:svg="http://www.w3.org/2000/svg"
   xmlns="http://www.w3.org/2000/svg"
   xmlns:sodipodi="http://sodipodi.sourceforge.net/DTD/sodipodi-0.dtd"
   xmlns:inkscape="http://www.inkscape.org/namespaces/inkscape"
   version="1.1"
   id="レイヤー_1"
   x="0px"
   y="0px"
   viewBox="0 0 128 128"
   style="enable-background:new 0 0 128 128;"
   xml:space="preserve"
   inkscape:version="0.91 r13725"
   sodipodi:docname="1f54e.svg"><metadata
     id="metadata83"><rdf:RDF><cc:Work
         rdf:about=""><dc:format>image/svg+xml</dc:format><dc:type
           rdf:resource="http://purl.org/dc/dcmitype/StillImage" /><dc:title></dc:title></cc:Work></rdf:RDF></metadata><defs
     id="defs81" /><sodipodi:namedview
     pagecolor="#ffffff"
     bordercolor="#666666"
     borderopacity="1"
     objecttolerance="10"
     gridtolerance="10"
     guidetolerance="10"
     inkscape:pageopacity="0"
     inkscape:pageshadow="2"
     inkscape:window-width="640"
     inkscape:window-height="480"
     id="namedview79"
     showgrid="false"
     inkscape:zoom="0.65186406"
     inkscape:cx="64"
     inkscape:cy="64"
     inkscape:window-x="0"
     inkscape:window-y="0"
     inkscape:window-maximized="0"
     inkscape:current-layer="レイヤー_1" /><g
     id="g3"><path
       style="fill:#855C52;"
       d="M68,110h-7V27c0-1.1,0.9-2,2-2h3c1.1,0,2,0.9,2,2V110z"
       id="path5" /></g><g
     id="g7"><g
       id="g9"><path
         style="fill:#855C52;"
         d="M63.79,52.65C53.78,52.27,46,43.73,46,33.71L46,31c0-1.1,0.9-2,2-2h3c1.1,0,2,0.9,2,2v2.83    c0,5.98,4.43,11.22,10.39,11.78C70.23,46.26,76,40.87,76,34.17V31c0-1.1,0.9-2,2-2h3c1.1,0,2,0.9,2,2v3.17    C83,44.6,74.31,53.05,63.79,52.65z"
         id="path11" /></g><g
       id="g13"><path
         style="fill:#855C52;"
         d="M64.45,67.33C46.34,67.03,32,51.83,32,33.72V31c0-1.1,0.9-2,2-2h3c1.1,0,2,0.9,2,2v2.79    c0,14.24,11.22,26.25,25.45,26.54C79.13,60.63,91,48.78,91,34.17V31c0-1.1,0.9-2,2-2h3c1.1,0,2,0.9,2,2v3.17    C98,52.64,82.99,67.63,64.45,67.33z"
         id="path15" /></g><g
       id="g17"><path
         style="fill:#855C52;"
         d="M63.82,81.99C37.64,81.35,17,59.37,17,33.19V31c0-1.1,0.9-2,2-2h3c1.1,0,2,0.9,2,2v2.22    c0,22.29,17.48,41.1,39.76,41.76C86.83,75.67,106,57.09,106,34.17V31c0-1.1,0.9-2,2-2h3c1.1,0,2,0.9,2,2v3.17    C113,60.93,90.73,82.64,63.82,81.99z"
         id="path19" /></g><g
       id="g21"><path
         style="fill:#855C52;"
         d="M63.53,96.66C29.24,96.14,2,67.52,2,33.22V31c0-1.1,0.9-2,2-2h3c1.1,0,2,0.9,2,2v2.32    C9,63.78,33.19,89.2,63.64,89.66c31,0.47,56.36-24.6,56.36-55.49V31c0-1.1,0.9-2,2-2h3c1.1,0,2,0.9,2,2v3.17    C127,68.95,98.43,97.19,63.53,96.66z"
         id="path23" /></g></g><path
     style="fill:#EC6C30;"
     d="M59.88,11.3c0,3.89,1.58,7.42,4.12,9.97c2.55-2.56,4.12-6.08,4.12-9.97S66.55,3.88,64,1.33  C61.45,3.88,59.88,7.41,59.88,11.3z"
     id="path25" /><path
     style="fill:#EC6C30;"
     d="M74.88,15.3c0,3.89,1.58,7.42,4.12,9.97c2.55-2.56,4.12-6.08,4.12-9.97S81.55,7.88,79,5.33  C76.45,7.88,74.88,11.41,74.88,15.3z"
     id="path27" /><path
     style="fill:#EC6C30;"
     d="M89.54,15.3c0,3.89,1.58,7.42,4.12,9.97c2.55-2.56,4.12-6.08,4.12-9.97s-1.58-7.42-4.12-9.97  C91.12,7.88,89.54,11.41,89.54,15.3z"
     id="path29" /><path
     style="fill:#EC6C30;"
     d="M104.21,15.3c0,3.89,1.58,7.42,4.12,9.97c2.55-2.56,4.12-6.08,4.12-9.97s-1.58-7.42-4.12-9.97  C105.79,7.88,104.21,11.41,104.21,15.3z"
     id="path31" /><path
     style="fill:#EC6C30;"
     d="M118.88,13.97c0,3.89,1.58,7.42,4.12,9.97c2.55-2.56,4.12-6.08,4.12-9.97S125.55,6.56,123,4  C120.45,6.56,118.88,10.08,118.88,13.97z"
     id="path33" /><path
     style="fill:#EC6C30;"
     d="M44.88,15.3c0,3.89,1.58,7.42,4.12,9.97c2.55-2.56,4.12-6.08,4.12-9.97S51.55,7.88,49,5.33  C46.45,7.88,44.88,11.41,44.88,15.3z"
     id="path35" /><path
     style="fill:#EC6C30;"
     d="M30.21,15.3c0,3.89,1.58,7.42,4.12,9.97c2.55-2.56,4.12-6.08,4.12-9.97s-1.58-7.42-4.12-9.97  C31.79,7.88,30.21,11.41,30.21,15.3z"
     id="path37" /><path
     style="fill:#EC6C30;"
     d="M15.54,15.3c0,3.89,1.58,7.42,4.12,9.97c2.55-2.56,4.12-6.08,4.12-9.97s-1.58-7.42-4.12-9.97  C17.12,7.88,15.54,11.41,15.54,15.3z"
     id="path39" /><path
     style="fill:#EC6C30;"
     d="M0.88,15.3c0,3.89,1.58,7.42,4.12,9.97c2.55-2.56,4.12-6.08,4.12-9.97S7.55,7.88,5,5.33  C2.45,7.88,0.88,11.41,0.88,15.3z"
     id="path41" /><g
     id="g43"><path
       style="fill:#855C52;"
       d="M92.87,126.84H35.23c-1.54,0-2.5-1.66-1.74-2.99l0.73-1.27C39.03,114.18,47.97,109,57.64,109h12.67   c9.16,0,17.69,4.64,22.67,12.33l1.57,2.42C95.41,125.08,94.45,126.84,92.87,126.84z"
       id="path45" /></g></svg>