<?xml version="1.0" encoding="UTF-8" standalone="no"?>
<!-- Generator: Adobe Illustrator 19.2.1, SVG Export Plug-In . SVG Version: 6.00 Build 0)  -->

<svg
   xmlns:dc="http://purl.org/dc/elements/1.1/"
   xmlns:cc="http://creativecommons.org/ns#"
   xmlns:rdf="http://www.w3.org/1999/02/22-rdf-syntax-ns#"
   xmlns:svg="http://www.w3.org/2000/svg"
   xmlns="http://www.w3.org/2000/svg"
   xmlns:sodipodi="http://sodipodi.sourceforge.net/DTD/sodipodi-0.dtd"
   xmlns:inkscape="http://www.inkscape.org/namespaces/inkscape"
   version="1.1"
   id="Layer_1"
   x="0px"
   y="0px"
   viewBox="0 0 128 128"
   style="enable-background:new 0 0 128 128;"
   xml:space="preserve"
   inkscape:version="0.91 r13725"
   sodipodi:docname="1f5e1.svg"><metadata
     id="metadata19"><rdf:RDF><cc:Work
         rdf:about=""><dc:format>image/svg+xml</dc:format><dc:type
           rdf:resource="http://purl.org/dc/dcmitype/StillImage" /></cc:Work></rdf:RDF></metadata><defs
     id="defs17" /><sodipodi:namedview
     pagecolor="#ffffff"
     bordercolor="#666666"
     borderopacity="1"
     objecttolerance="10"
     gridtolerance="10"
     guidetolerance="10"
     inkscape:pageopacity="0"
     inkscape:pageshadow="2"
     inkscape:window-width="1024"
     inkscape:window-height="718"
     id="namedview15"
     showgrid="false"
     inkscape:zoom="1.8101934"
     inkscape:cx="86.055542"
     inkscape:cy="81.952029"
     inkscape:window-x="0"
     inkscape:window-y="0"
     inkscape:window-maximized="1"
     inkscape:current-layer="Layer_1" /><polygon
     style="fill:#875A3B;"
     points="85.38,31.88 96.98,43.48 118.87,15.83 111.95,8.91 "
     id="polygon3" /><path
     style="fill:#78a3ad"
     d="m 88.994387,48.816627 -10.011001,-10.001 c -1.80018,-1.80018 -4.740474,-1.690169 -6.40064,0.240024 L 24.177906,94.171162 C 22.787767,95.761321 -1.4646583,126.00435 0.03549169,127.49449 l 0,0 C 1.5356417,128.99464 32.048693,105.02225 33.648853,103.63211 L 88.764364,55.227268 c 1.920192,-1.660166 2.030203,-4.610461 0.230023,-6.410641 z"
     id="path5"
     inkscape:connector-curvature="0" /><path
     style="fill:#64878e"
     d="m 0.25549941,127.55419 c 3.11031099,-0.01 31.84318359,-22.58226 33.39333859,-23.9224 l 55.10551,-48.394835 c 1.930193,-1.670167 2.040204,-4.620461 0.240024,-6.430643 L 84.003873,43.815813 0.25549941,127.55419 Z"
     id="path7"
     inkscape:connector-curvature="0" /><ellipse
     transform="matrix(0.7071 -0.7071 0.7071 0.7071 28.4451 86.8457)"
     style="fill:#875A3B;"
     cx="119.05"
     cy="9.09"
     rx="8.33"
     ry="8.33"
     id="ellipse9" /><polygon
     style="fill:#64878E;"
     points="83.95,33.29 78.98,38.82 89.35,49.23 95.03,43.54 "
     id="polygon11" /><path
     style="fill:#78A3AD;"
     d="M106.42,48.34c-2.06-2.06-8.64-8.72-12.09-12.22l0.01-0.01c0,0-0.41-0.41-1.1-1.08  c-0.68-0.69-1.08-1.1-1.08-1.1l-0.01,0.01C88.65,30.49,82,23.91,79.93,21.85c-2.84-2.84-8.26-3.13-11.14-0.23  c-1.1,1.1-1.55,2.84-1.29,4.32c0.4,2.28,2.49,4,4.48,4.32c2.36,0.38,2.89-0.67,5.23-0.65c1.83,0.01,3.08,1.33,3.08,1.33l2.64,2.64  l4.79,4.79l2.18,2.18l4.79,4.79l2.64,2.64c0,0,1.31,1.25,1.33,3.08c0.02,2.34-1.03,2.87-0.65,5.23c0.32,1.99,2.04,4.08,4.32,4.48  c1.49,0.26,3.22-0.19,4.32-1.29C109.55,56.59,109.26,51.18,106.42,48.34z"
     id="path13" /></svg>