<?xml version="1.0" encoding="UTF-8" standalone="no"?>
<!-- Generator: Adobe Illustrator 19.2.1, SVG Export Plug-In . SVG Version: 6.00 Build 0)  -->

<svg
   xmlns:dc="http://purl.org/dc/elements/1.1/"
   xmlns:cc="http://creativecommons.org/ns#"
   xmlns:rdf="http://www.w3.org/1999/02/22-rdf-syntax-ns#"
   xmlns:svg="http://www.w3.org/2000/svg"
   xmlns="http://www.w3.org/2000/svg"
   xmlns:sodipodi="http://sodipodi.sourceforge.net/DTD/sodipodi-0.dtd"
   xmlns:inkscape="http://www.inkscape.org/namespaces/inkscape"
   version="1.1"
   id="图层_1"
   x="0px"
   y="0px"
   viewBox="0 0 128 128"
   style="enable-background:new 0 0 128 128;"
   xml:space="preserve"
   inkscape:version="0.91 r13725"
   sodipodi:docname="1f613.svg"><metadata
     id="metadata49"><rdf:RDF><cc:Work
         rdf:about=""><dc:format>image/svg+xml</dc:format><dc:type
           rdf:resource="http://purl.org/dc/dcmitype/StillImage" /><dc:title></dc:title></cc:Work></rdf:RDF></metadata><defs
     id="defs47" /><sodipodi:namedview
     pagecolor="#ffffff"
     bordercolor="#666666"
     borderopacity="1"
     objecttolerance="10"
     gridtolerance="10"
     guidetolerance="10"
     inkscape:pageopacity="0"
     inkscape:pageshadow="2"
     inkscape:window-width="640"
     inkscape:window-height="480"
     id="namedview45"
     showgrid="false"
     inkscape:zoom="0.4609375"
     inkscape:cx="64"
     inkscape:cy="64"
     inkscape:window-x="0"
     inkscape:window-y="0"
     inkscape:window-maximized="0"
     inkscape:current-layer="图层_1" /><g
     id="g23"><g
       id="g25"><g
         id="g27"><path
           style="fill:#FCC21B;"
           d="M64,9.56c-62.41,0-63.88,69.96-63.88,83.8c0,13.86,28.59,25.08,63.88,25.08     c35.28,0,63.88-11.22,63.88-25.08C127.88,79.52,126.4,9.56,64,9.56z"
           id="path29" /></g></g></g><g
     id="g31"><path
       style="fill:#2F2F2F;"
       d="M42.21,62.3c-4.49,0.04-8.17-4.27-8.22-9.62c-0.05-5.37,3.55-9.75,8.04-9.79   c4.48-0.04,8.17,4.27,8.22,9.64C50.3,57.88,46.7,62.25,42.21,62.3z"
       id="path33" /><path
       style="fill:#2F2F2F;"
       d="M86.32,62.3c4.48-0.01,8.11-4.36,8.1-9.71c-0.01-5.37-3.66-9.7-8.14-9.69   c-4.49,0.01-8.13,4.36-8.12,9.73C78.18,57.98,81.83,62.31,86.32,62.3z"
       id="path35" /></g><g
     id="g37"><path
       style="fill:#2F2F2F;"
       d="M89.69,84.75H38.31c-1.66,0-3-1.34-3-3s1.34-3,3-3h51.39c1.66,0,3,1.34,3,3S91.35,84.75,89.69,84.75   z"
       id="path39" /></g><g
     id="g41"><path
       style="fill:#FFFFFF;"
       d="M117.56,66.97c-1.23,5.24-4.71,8.47-7.61,9.33c-3.25,0.96-6.18,0.44-8.25-1.46   c-2.62-2.4-3.49-6.59-2.46-11.81c1.88-9.38,0.85-25.96,0.85-26.12c-0.04-0.64,0.29-1.22,0.87-1.48c0.57-0.28,1.24-0.16,1.7,0.27   C118.55,50.53,118.82,61.66,117.56,66.97z"
       id="path43" /></g></svg>