<?xml version="1.0" encoding="UTF-8" standalone="no"?>
<!-- Generator: Adobe Illustrator 19.2.1, SVG Export Plug-In . SVG Version: 6.00 Build 0)  -->

<svg
   xmlns:dc="http://purl.org/dc/elements/1.1/"
   xmlns:cc="http://creativecommons.org/ns#"
   xmlns:rdf="http://www.w3.org/1999/02/22-rdf-syntax-ns#"
   xmlns:svg="http://www.w3.org/2000/svg"
   xmlns="http://www.w3.org/2000/svg"
   xmlns:sodipodi="http://sodipodi.sourceforge.net/DTD/sodipodi-0.dtd"
   xmlns:inkscape="http://www.inkscape.org/namespaces/inkscape"
   version="1.1"
   id="图层_1"
   x="0px"
   y="0px"
   viewBox="0 0 128 128"
   style="enable-background:new 0 0 128 128;"
   xml:space="preserve"
   inkscape:version="0.91 r13725"
   sodipodi:docname="1f62f.svg"><metadata
     id="metadata131"><rdf:RDF><cc:Work
         rdf:about=""><dc:format>image/svg+xml</dc:format><dc:type
           rdf:resource="http://purl.org/dc/dcmitype/StillImage" /><dc:title></dc:title></cc:Work></rdf:RDF></metadata><defs
     id="defs129" /><sodipodi:namedview
     pagecolor="#ffffff"
     bordercolor="#666666"
     borderopacity="1"
     objecttolerance="10"
     gridtolerance="10"
     guidetolerance="10"
     inkscape:pageopacity="0"
     inkscape:pageshadow="2"
     inkscape:window-width="640"
     inkscape:window-height="480"
     id="namedview127"
     showgrid="false"
     inkscape:zoom="0.23046875"
     inkscape:cx="64"
     inkscape:cy="64"
     inkscape:window-x="0"
     inkscape:window-y="0"
     inkscape:window-maximized="0"
     inkscape:current-layer="图层_1" /><g
     id="g93"><g
       id="g95"><g
         id="g97"><path
           style="fill:#FCC21B;"
           d="M64,9.62c-62.41,0-63.88,69.96-63.88,83.8c0,13.86,28.59,25.08,63.88,25.08     c35.28,0,63.88-11.22,63.88-25.08C127.88,79.58,126.4,9.62,64,9.62z"
           id="path99" /></g></g></g><g
     id="g101"><path
       style="fill:#2F2F2F;"
       d="M41.99,65.06c-4.49,0.04-8.17-4.27-8.22-9.62c-0.05-5.37,3.55-9.75,8.04-9.79   c4.48-0.04,8.17,4.27,8.22,9.64C50.08,60.65,46.47,65.02,41.99,65.06z"
       id="path103" /><path
       style="fill:#2F2F2F;"
       d="M86.1,65.06c4.48-0.01,8.11-4.36,8.1-9.71c-0.01-5.37-3.66-9.7-8.14-9.69   c-4.49,0.01-8.13,4.36-8.12,9.73C77.95,60.74,81.61,65.07,86.1,65.06z"
       id="path105" /></g><path
     style="fill:#ED6C30;"
     d="M73.34,92.15c0,5.5-4.18,7.82-9.34,7.82c-5.16,0-9.34-2.32-9.34-7.82s4.18-12.1,9.34-12.1  C69.16,80.05,73.34,86.65,73.34,92.15z"
     id="path125" /></svg>