<?xml version="1.0" encoding="UTF-8" standalone="no"?>
<!-- Generator: Adobe Illustrator 19.2.1, SVG Export Plug-In . SVG Version: 6.00 Build 0)  -->

<svg
   xmlns:dc="http://purl.org/dc/elements/1.1/"
   xmlns:cc="http://creativecommons.org/ns#"
   xmlns:rdf="http://www.w3.org/1999/02/22-rdf-syntax-ns#"
   xmlns:svg="http://www.w3.org/2000/svg"
   xmlns="http://www.w3.org/2000/svg"
   xmlns:sodipodi="http://sodipodi.sourceforge.net/DTD/sodipodi-0.dtd"
   xmlns:inkscape="http://www.inkscape.org/namespaces/inkscape"
   version="1.1"
   id="图层_1"
   x="0px"
   y="0px"
   viewBox="0 0 128 128"
   style="enable-background:new 0 0 128 128;"
   xml:space="preserve"
   inkscape:version="0.91 r13725"
   sodipodi:docname="1f635.svg"><metadata
     id="metadata47"><rdf:RDF><cc:Work
         rdf:about=""><dc:format>image/svg+xml</dc:format><dc:type
           rdf:resource="http://purl.org/dc/dcmitype/StillImage" /><dc:title></dc:title></cc:Work></rdf:RDF></metadata><defs
     id="defs45" /><sodipodi:namedview
     pagecolor="#ffffff"
     bordercolor="#666666"
     borderopacity="1"
     objecttolerance="10"
     gridtolerance="10"
     guidetolerance="10"
     inkscape:pageopacity="0"
     inkscape:pageshadow="2"
     inkscape:window-width="640"
     inkscape:window-height="480"
     id="namedview43"
     showgrid="false"
     inkscape:zoom="0.4609375"
     inkscape:cx="64"
     inkscape:cy="64"
     inkscape:window-x="0"
     inkscape:window-y="0"
     inkscape:window-maximized="0"
     inkscape:current-layer="图层_1" /><g
     id="g3"><g
       id="g5"><g
         id="g7"><path
           style="fill:#FCC21B;"
           d="M64.22,9.62c-62.41,0-63.88,69.96-63.88,83.8c0,13.86,28.59,25.08,63.88,25.08     c35.28,0,63.88-11.22,63.88-25.08C128.1,79.58,126.62,9.62,64.22,9.62z"
           id="path9" /></g></g></g><path
     style="fill:#ED6C30;"
     d="M85.15,71.43c-5.4-4.59-13.77-7.55-20.92-7.55s-15.53,2.95-20.92,7.55  c-6.63,5.65-13.2,15.48-11.2,22.95c0.47,1.74,1.34,3.57,2.4,4.92c1.34,1.71,3.59,3.22,5.49,3.83c3.79,1.21,7.78,0.32,11.34-1.45  c3.59-1.78,6.46-4.39,12.89-4.39s9.3,2.61,12.89,4.39c3.56,1.76,7.55,2.65,11.34,1.45c1.9-0.61,4.16-2.13,5.49-3.83  c1.06-1.35,1.93-3.18,2.4-4.92C98.35,86.91,91.78,77.08,85.15,71.43z"
     id="path11" /><g
     id="g13"><path
       style="fill:none;stroke:#2F2F2F;stroke-width:5;stroke-linecap:round;stroke-linejoin:round;stroke-miterlimit:10;"
       d="   M82.45,43.48C82.02,40.68,84.29,38.5,87,38c2.71-0.49,5.59,1.68,7.06,4.98c1.58,3.51,0.48,11.57-7.54,13.48   c-8.69,2.06-13.93-6.45-14.75-11.09C70.93,40.6,72.53,32,82.32,28.33c10.09-3.79,17.41,3.42,20.2,8.24"
       id="path15" /></g><g
     id="g17"><path
       style="fill:none;stroke:#2F2F2F;stroke-width:5;stroke-linecap:round;stroke-linejoin:round;stroke-miterlimit:10;"
       d="   M41.26,39.07c1.55,2.37,0.39,5.3-1.87,6.87c-2.26,1.57-5.78,0.78-8.49-1.61c-2.89-2.55-5.23-10.34,1.29-15.39   c7.06-5.47,15.35,0.11,18.01,4c2.73,3.99,4.84,12.49-2.55,19.88c-7.62,7.62-17.27,4.1-21.79,0.86"
       id="path19" /></g></svg>