<?xml version="1.0" encoding="UTF-8" standalone="no"?>
<!-- Generator: Adobe Illustrator 19.2.1, SVG Export Plug-In . SVG Version: 6.00 Build 0)  -->

<svg
   xmlns:dc="http://purl.org/dc/elements/1.1/"
   xmlns:cc="http://creativecommons.org/ns#"
   xmlns:rdf="http://www.w3.org/1999/02/22-rdf-syntax-ns#"
   xmlns:svg="http://www.w3.org/2000/svg"
   xmlns="http://www.w3.org/2000/svg"
   xmlns:xlink="http://www.w3.org/1999/xlink"
   xmlns:sodipodi="http://sodipodi.sourceforge.net/DTD/sodipodi-0.dtd"
   xmlns:inkscape="http://www.inkscape.org/namespaces/inkscape"
   version="1.1"
   x="0px"
   y="0px"
   viewBox="0 0 128 128"
   style="enable-background:new 0 0 128 128;"
   xml:space="preserve"
   id="svg2"
   inkscape:version="0.91 r13725"
   sodipodi:docname="1f64d-1f3fe-200d-2642-fe0f.svg"><metadata
     id="metadata43"><rdf:RDF><cc:Work
         rdf:about=""><dc:format>image/svg+xml</dc:format><dc:type
           rdf:resource="http://purl.org/dc/dcmitype/StillImage" /><dc:title></dc:title></cc:Work></rdf:RDF></metadata><defs
     id="defs41" /><sodipodi:namedview
     pagecolor="#ffffff"
     bordercolor="#666666"
     borderopacity="1"
     objecttolerance="10"
     gridtolerance="10"
     guidetolerance="10"
     inkscape:pageopacity="0"
     inkscape:pageshadow="2"
     inkscape:window-width="1024"
     inkscape:window-height="717"
     id="namedview39"
     showgrid="false"
     inkscape:zoom="1.84375"
     inkscape:cx="64"
     inkscape:cy="64"
     inkscape:window-x="0"
     inkscape:window-y="0"
     inkscape:window-maximized="1"
     inkscape:current-layer="svg2" /><g
     id="Layer_2" /><g
     id="图层_1"><g
       id="XMLID_468_"><defs
         id="defs7"><rect
           id="XMLID_469_"
           x="0"
           y="0.21"
           width="128"
           height="128" /></defs><clipPath
         id="XMLID_4_"><use
           xlink:href="#XMLID_469_"
           style="overflow:visible;"
           id="use11" /></clipPath><g
         style="clip-path:url(#XMLID_4_);"
         id="g13"
         clip-path="url(#XMLID_4_)"><path
           id="XMLID_12_"
           style="fill:#E39400;"
           d="M68.81,75.74c-1.58,0.45-3.22,0.66-4.48,0.66s-2.9-0.22-4.48-0.66     c-0.67-0.19-0.94,0.45-0.7,0.87c0.5,0.88,2.52,2.66,5.18,2.66c2.66,0,4.68-1.78,5.18-2.66C69.75,76.19,69.49,75.55,68.81,75.74z" /><path
           id="XMLID_481_"
           style="fill:#444444;"
           d="M53.54,65.4c0,2.91-1.95,5.27-4.36,5.27c-2.41,0-4.37-2.36-4.37-5.27     c0-2.92,1.96-5.27,4.37-5.27C51.59,60.12,53.54,62.48,53.54,65.4" /><path
           id="XMLID_480_"
           style="fill:#444444;"
           d="M75.03,65.4c0,2.91,1.95,5.27,4.37,5.27c2.41,0,4.36-2.36,4.36-5.27     c0-2.92-1.96-5.27-4.36-5.27C76.98,60.12,75.03,62.48,75.03,65.4" /><path
           id="XMLID_477_"
           style="fill:#00BFA5;"
           d="M81.43,85.51c-5.94-1.08-28.92-1.08-34.87,0C27.77,88.94,14,96.9,14,113.88v57.83     l50,0.01l50-0.01v-57.83C114,96.9,100.23,88.94,81.43,85.51z" /><rect
           id="XMLID_466_"
           x="92.04"
           y="118.67"
           style="opacity:0.54;fill:#010101;fill-opacity:1"
           width="3.31"
           height="9.33" /><rect
           id="XMLID_465_"
           x="32.42"
           y="118.67"
           style="opacity:0.54;fill:#010101;fill-opacity:1"
           width="3.31"
           height="9.33" /><path
           id="XMLID_475_"
           style="fill:#7A4C32;"
           d="M64.52,105.51L64.52,105.51c-6.08,0-10.9-4.93-10.9-11.01v-9.5h21.8v9.5     C75.42,100.58,70.6,105.51,64.52,105.51z" /><path
           id="XMLID_8_"
           style="fill:#E39400;"
           d="M244.37,28.84c0,5.6-4.3,7.81-8.6,7.81" /><path
           id="XMLID_3_"
           style="fill:#E39400;"
           d="M174.19,21.47c0,0-5.89,1.02-5.89,7.37c0,5.6,4.3,7.81,8.6,7.81V21.47H174.19z" /><path
           id="XMLID_17_"
           style="fill:#7A4C32;"
           d="M96.47,57.8c0,0,5.89,1.02,5.89,7.37c0,5.6-4.3,7.81-8.6,7.81V57.8H96.47z" /><path
           id="XMLID_16_"
           style="fill:#7A4C32;"
           d="M32.19,57.8c0,0-5.89,1.02-5.89,7.37c0,5.6,4.3,7.81,8.6,7.81V57.8H32.19z" /><path
           id="XMLID_15_"
           style="fill:#9B643C;"
           d="M64.33,16.24c-25.4,0-32.04,19.69-32.04,47.35c0,28.68,18.43,36.1,32.04,36.1     c13.41,0,32.04-7.2,32.04-36.1C96.38,35.93,89.73,16.24,64.33,16.24z" /><path
           id="XMLID_11_"
           style="fill:#47352D;"
           d="M65.1,12.63c0,0-0.5-0.02-0.71-0.01c-0.21,0-0.71,0.01-0.71,0.01     c-27.41,0.53-35.67,17.02-35.67,28.45c0,11.11,0.01,19.28,0.01,19.28s0.44-0.45,1.24-1.08c0.86-0.67,1.81-1.04,1.81-1.04     l1.38,9.28l9.13-19.08c0.06-0.12,0.18-0.19,0.31-0.17l5.41,0.6c5.44,0.6,10.91,0.9,16.37,0.91v0.01c0.24,0,0.47-0.01,0.71-0.01     c0.24,0,0.47,0.01,0.71,0.01v-0.01c5.46-0.02,10.93-0.31,16.37-0.91l5.41-0.6c0.13-0.01,0.25,0.06,0.31,0.17l9.13,19.08     l1.38-9.28c0,0,0.95,0.38,1.81,1.04c0.81,0.63,1.24,1.08,1.24,1.08s0.01-8.16,0.01-19.28C100.77,29.64,92.51,13.15,65.1,12.63z" /><path
           id="XMLID_471_"
           style="fill:#42312C;"
           d="M56.95,88.77c4.63-1.45,10.27-1.38,14.66,0c0.8,0.25,1.2-0.57,0.65-1.41     c-0.78-1.19-3.67-3.46-7.98-3.46s-7.2,2.28-7.98,3.46C55.75,88.21,56.15,89.03,56.95,88.77z" /><path
           id="XMLID_470_"
           style="fill:#7A4C32;"
           d="M68.85,75.75c-1.61,0.46-3.27,0.68-4.56,0.68c-1.29,0-2.96-0.22-4.56-0.68     c-0.69-0.19-0.96,0.46-0.71,0.89c0.51,0.9,2.56,2.71,5.27,2.71c2.71,0,4.76-1.81,5.27-2.71C69.81,76.21,69.54,75.56,68.85,75.75z     " /><g
           id="g31"><path
             style="fill:#42312C;"
             d="M44.82,65.28c0.01-0.51,0.1-0.99,0.22-1.45c0.94-0.12,1.94-0.32,3.05-0.65      c1.63-0.49,2.85-1.3,3.79-2.17c1.04,0.98,1.7,2.54,1.66,4.3c-0.06,2.97-2.07,5.37-4.48,5.36      C46.65,70.66,44.76,68.25,44.82,65.28z"
             id="path33" /></g><g
           id="g35"><path
             style="fill:#42312C;"
             d="M83.75,65.28c-0.01-0.51-0.1-0.99-0.22-1.45c-0.94-0.12-1.94-0.32-3.05-0.65      c-1.63-0.49-2.85-1.3-3.79-2.17c-1.04,0.98-1.7,2.54-1.66,4.3c0.06,2.97,2.07,5.37,4.48,5.36      C81.92,70.66,83.81,68.25,83.75,65.28z"
             id="path37" /></g></g></g></g></svg>