<?xml version="1.0" encoding="UTF-8" standalone="no"?>
<!-- Generator: Adobe Illustrator 19.2.1, SVG Export Plug-In . SVG Version: 6.00 Build 0)  -->

<svg
   xmlns:dc="http://purl.org/dc/elements/1.1/"
   xmlns:cc="http://creativecommons.org/ns#"
   xmlns:rdf="http://www.w3.org/1999/02/22-rdf-syntax-ns#"
   xmlns:svg="http://www.w3.org/2000/svg"
   xmlns="http://www.w3.org/2000/svg"
   xmlns:sodipodi="http://sodipodi.sourceforge.net/DTD/sodipodi-0.dtd"
   xmlns:inkscape="http://www.inkscape.org/namespaces/inkscape"
   version="1.1"
   id="图层_1"
   x="0px"
   y="0px"
   viewBox="0 0 128 128"
   style="enable-background:new 0 0 128 128;"
   xml:space="preserve"
   inkscape:version="0.91 r13725"
   sodipodi:docname="1f6ae.svg"><metadata
     id="metadata74"><rdf:RDF><cc:Work
         rdf:about=""><dc:format>image/svg+xml</dc:format><dc:type
           rdf:resource="http://purl.org/dc/dcmitype/StillImage" /><dc:title></dc:title></cc:Work></rdf:RDF></metadata><defs
     id="defs72" /><sodipodi:namedview
     pagecolor="#ffffff"
     bordercolor="#666666"
     borderopacity="1"
     objecttolerance="10"
     gridtolerance="10"
     guidetolerance="10"
     inkscape:pageopacity="0"
     inkscape:pageshadow="2"
     inkscape:window-width="640"
     inkscape:window-height="480"
     id="namedview70"
     showgrid="false"
     inkscape:zoom="1.3037281"
     inkscape:cx="3.9293465"
     inkscape:cy="64"
     inkscape:window-x="0"
     inkscape:window-y="0"
     inkscape:window-maximized="0"
     inkscape:current-layer="图层_1" /><g
     id="g52"><g
       id="g54"><g
         id="g56"><path
           style="fill:#40C0E7;"
           d="M121.03,0H7.02C3.24,0,0.14,3.09,0.14,6.88v114.01c0,3.79,3.1,6.88,6.88,6.88h114.01     c3.78,0,6.88-3.09,6.88-6.88V6.88C127.91,3.09,124.81,0,121.03,0z"
           id="path58" /></g></g></g><path
     style="fill:#FFFFFF;"
     d="M90.47,32.55H67.54c-6.69,0-12.26,4.79-13.48,11.12l-3.29,12.15l-10.47,8.26  c-1.98,1.58-2.32,4.46-0.74,6.44c1.58,1.98,4.46,2.32,6.44,0.74l11.71-9.25l-0.01-0.01c0.71-0.59,1.26-1.38,1.52-2.34l2.7-9.99  c0.28-1.04,1.28-1.81,2.28-1.85c1,0.04,1.93,0.85,1.93,1.85v2.21v23.9v42.52c0,2.92,2.37,5.28,5.28,5.28c2.92,0,5.28-2.37,5.28-5.28  v-40.5c0-1.12,0.9-2.02,2.02-2.02s2.02,0.9,2.02,2.02v40.5c0,2.92,2.37,5.28,5.28,5.28c2.92,0,5.28-2.37,5.28-5.28V75.8V51.9v-2.21  c0-1.02,0.83-1.85,1.85-1.85s1.85,0.83,1.85,1.85v22.99c0,2.53,2.05,4.59,4.59,4.59s4.59-2.05,4.59-4.59V47.83v-1.15v-0.4  C104.2,38.7,98.05,32.55,90.47,32.55z M78.73,29.23c6.95,0,12.59-5.64,12.59-12.59S85.69,4.05,78.73,4.05S66.15,9.69,66.15,16.64  S71.78,29.23,78.73,29.23z"
     id="path60" /><g
     id="g62"><g
       id="g64"><path
         style="fill:#FFFFFF;"
         d="M52.55,123.71H31.52c-1.24,0-2.3-0.91-2.47-2.14l-5.17-36.05c-0.2-1.37,0.75-2.63,2.12-2.83    c1.38-0.2,2.63,0.75,2.83,2.12l4.87,33.91h16.69l4.87-33.91c0.2-1.37,1.45-2.32,2.83-2.12c1.37,0.2,2.32,1.46,2.12,2.83    l-5.17,36.05C54.85,122.8,53.79,123.71,52.55,123.71z"
         id="path66" /></g></g><path
     style="fill:#FFFFFF;"
     d="M48.97,88.39l-7.3,1.89c-0.7,0.18-1.45-0.03-1.96-0.54l-5.54-5.64c-1.1-1.12-0.58-3.01,0.94-3.4  l7.3-1.89c0.7-0.18,1.45,0.03,1.96,0.54l5.54,5.64C51.01,86.11,50.49,88,48.97,88.39z"
     id="path68" /></svg>