<?xml version="1.0" encoding="UTF-8" standalone="no"?>
<!-- Generator: Adobe Illustrator 19.2.1, SVG Export Plug-In . SVG Version: 6.00 Build 0)  -->

<svg
   xmlns:dc="http://purl.org/dc/elements/1.1/"
   xmlns:cc="http://creativecommons.org/ns#"
   xmlns:rdf="http://www.w3.org/1999/02/22-rdf-syntax-ns#"
   xmlns:svg="http://www.w3.org/2000/svg"
   xmlns="http://www.w3.org/2000/svg"
   xmlns:xlink="http://www.w3.org/1999/xlink"
   xmlns:sodipodi="http://sodipodi.sourceforge.net/DTD/sodipodi-0.dtd"
   xmlns:inkscape="http://www.inkscape.org/namespaces/inkscape"
   version="1.1"
   id="レイヤー_1"
   x="0px"
   y="0px"
   viewBox="0 0 128 128"
   style="enable-background:new 0 0 128 128;"
   xml:space="preserve"
   inkscape:version="0.91 r13725"
   sodipodi:docname="1f916.svg"><metadata
     id="metadata139"><rdf:RDF><cc:Work
         rdf:about=""><dc:format>image/svg+xml</dc:format><dc:type
           rdf:resource="http://purl.org/dc/dcmitype/StillImage" /><dc:title></dc:title></cc:Work></rdf:RDF></metadata><defs
     id="defs137" /><sodipodi:namedview
     pagecolor="#ffffff"
     bordercolor="#666666"
     borderopacity="1"
     objecttolerance="10"
     gridtolerance="10"
     guidetolerance="10"
     inkscape:pageopacity="0"
     inkscape:pageshadow="2"
     inkscape:window-width="640"
     inkscape:window-height="480"
     id="namedview135"
     showgrid="false"
     inkscape:zoom="0.4609375"
     inkscape:cx="64"
     inkscape:cy="64"
     inkscape:window-x="0"
     inkscape:window-y="0"
     inkscape:window-maximized="0"
     inkscape:current-layer="レイヤー_1" /><g
     id="g3"><path
       style="fill:#E06055;"
       d="M86.05,35.16H41.64V21.19c0-6.51,5.27-11.78,11.78-11.78h20.85c6.51,0,11.78,5.27,11.78,11.78V35.16   z"
       id="path5" /><path
       style="fill:#FFFFFF;"
       d="M55.12,11.62c-0.64-1.89-4.14-0.77-5.95,0.32s-4.34,3.97-3.43,4.7c0.9,0.72,2.38-1.12,5.53-1.99   C54.2,13.84,55.65,13.18,55.12,11.62z"
       id="path7" /><path
       style="fill:#CE453E;"
       d="M88.73,24.77H39.01v-2.1c0-1.79,1.45-3.24,3.24-3.24h43.25c1.79,0,3.24,1.45,3.24,3.24V24.77z"
       id="path9" /><path
       style="fill:#78A3AD;"
       d="M119.73,58.05l2.06-45.88c0.06-1.39,1.21-2.49,2.61-2.49h0c1.44,0,2.61,1.17,2.61,2.61v58.98   c0,0.83-0.4,1.62-1.07,2.11l-7.41,5.41L119.73,58.05z"
       id="path11" /><path
       style="fill:#78A3AD;"
       d="M8.27,58.05L6.22,12.17C6.15,10.78,5,9.68,3.61,9.68h0C2.17,9.68,1,10.85,1,12.29v58.98   c0,0.83,0.4,1.62,1.07,2.11l7.41,5.41L8.27,58.05z"
       id="path13" /><ellipse
       style="fill:#E06055;"
       cx="13.69"
       cy="66.89"
       rx="9.33"
       ry="17.34"
       id="ellipse15" /><g
       id="g17"><defs
         id="defs19"><ellipse
           id="SVGID_1_"
           cx="13.69"
           cy="66.89"
           rx="9.33"
           ry="17.34" /></defs><clipPath
         id="SVGID_2_"><use
           xlink:href="#SVGID_1_"
           style="overflow:visible;"
           id="use23" /></clipPath><rect
         x="12.22"
         y="49.54"
         style="clip-path:url(#SVGID_2_);fill:#CE453E;"
         width="2.62"
         height="34.69"
         id="rect25"
         clip-path="url(#SVGID_2_)" /></g><g
       id="g27"><defs
         id="defs29"><ellipse
           id="SVGID_3_"
           cx="13.69"
           cy="66.89"
           rx="9.33"
           ry="17.34" /></defs><clipPath
         id="SVGID_4_"><use
           xlink:href="#SVGID_3_"
           style="overflow:visible;"
           id="use33" /></clipPath><rect
         x="12.54"
         y="49.54"
         transform="matrix(-1 -4.478696e-11 4.478696e-11 -1 27.6896 133.7725)"
         style="clip-path:url(#SVGID_4_);fill:#CE453E;"
         width="2.62"
         height="34.69"
         id="rect35"
         clip-path="url(#SVGID_4_)" /></g><ellipse
       style="fill:#E06055;"
       cx="114.38"
       cy="66.89"
       rx="9.33"
       ry="17.34"
       id="ellipse37" /><g
       id="g39"><defs
         id="defs41"><ellipse
           id="SVGID_5_"
           cx="114.38"
           cy="66.89"
           rx="9.33"
           ry="17.34" /></defs><clipPath
         id="SVGID_6_"><use
           xlink:href="#SVGID_5_"
           style="overflow:visible;"
           id="use45" /></clipPath><rect
         x="113.23"
         y="49.54"
         transform="matrix(-1 -4.478696e-11 4.478696e-11 -1 229.0742 133.7725)"
         style="clip-path:url(#SVGID_6_);fill:#CE453E;"
         width="2.62"
         height="34.69"
         id="rect47"
         clip-path="url(#SVGID_6_)" /></g><g
       id="g49"><defs
         id="defs51"><ellipse
           id="SVGID_7_"
           cx="114.38"
           cy="66.89"
           rx="9.33"
           ry="17.34" /></defs><clipPath
         id="SVGID_8_"><use
           xlink:href="#SVGID_7_"
           style="overflow:visible;"
           id="use55" /></clipPath><rect
         x="112.91"
         y="49.54"
         style="clip-path:url(#SVGID_8_);fill:#CE453E;"
         width="2.62"
         height="34.69"
         id="rect57"
         clip-path="url(#SVGID_8_)" /></g><path
       style="fill:#78A3AD;"
       d="M111.12,35.15l-11.07-10.82c-2.03-1.98-4.74-3.09-7.58-3.09H35.73c-2.83,0-5.55,1.11-7.58,3.09   L17.08,35.15c-2.09,2.04-3.26,4.83-3.26,7.75v13.42v27.18v13.42c0,2.92,1.18,5.71,3.26,7.75l11.07,10.82   c2.03,1.98,4.74,3.09,7.58,3.09h56.74c2.83,0,5.55-1.11,7.58-3.09l11.07-10.82c2.09-2.04,3.26-4.83,3.26-7.75V83.51V56.33V42.9   C114.38,39.99,113.2,37.19,111.12,35.15z"
       id="path59" /><g
       id="g61"><g
         id="g63"><circle
           style="fill:#546E7A;"
           cx="40.28"
           cy="55.89"
           r="14.63"
           id="circle65" /><circle
           style="fill:#B8E9F4;"
           cx="40.28"
           cy="55.89"
           r="9.2"
           id="circle67" /></g><g
         id="g69"><circle
           style="fill:#546E7A;"
           cx="86.96"
           cy="55.89"
           r="14.63"
           id="circle71" /><circle
           style="fill:#B8E9F4;"
           cx="86.96"
           cy="55.89"
           r="9.2"
           id="circle73" /></g></g><path
       style="fill:#64878E;"
       d="M8.04,52.98c0,0-4.96,11.58-2.18,23.16l-3.49-2.55c0,0,0.28-5.78,1.99-12.15   C6.08,55.05,8.04,52.98,8.04,52.98z"
       id="path75" /><path
       style="fill:#64878E;"
       d="M119.96,52.98c0,0,4.96,11.58,2.18,23.16l3.49-2.55c0,0-0.28-5.78-1.99-12.15   C121.92,55.05,119.96,52.98,119.96,52.98z"
       id="path77" /><path
       style="fill:#93BFC6;"
       d="M43.36,33.98"
       id="path79" /><g
       id="g81"><path
         style="fill:#E06055;"
         d="M61.85,65.7l-5.39,12.95c-0.56,1.34,0.43,2.82,1.88,2.82h10.57c1.44,0,2.43-1.46,1.89-2.79    l-5.18-12.95C64.94,64.04,62.55,64.02,61.85,65.7z"
         id="path83" /><path
         style="fill:#EDA29B;"
         d="M63.46,67.6c-1.09-0.31-1.42,1.41-2,2.92c-0.96,2.53-1.22,3.71-0.69,3.9    c0.7,0.26,1.31-0.54,2.25-2.83C63.92,69.44,64.38,67.86,63.46,67.6z"
         id="path85" /></g><g
       id="g87"><line
         style="fill:#ECEFF1;"
         x1="48.39"
         y1="90.33"
         x2="48.39"
         y2="100.54"
         id="line89" /><line
         style="fill:#ECEFF1;"
         x1="58.97"
         y1="90.33"
         x2="58.97"
         y2="100.54"
         id="line91" /><line
         style="fill:#ECEFF1;"
         x1="69.56"
         y1="90.33"
         x2="69.56"
         y2="100.54"
         id="line93" /><line
         style="fill:#ECEFF1;"
         x1="80.14"
         y1="90.33"
         x2="80.14"
         y2="100.54"
         id="line95" /><path
         style="fill:#B8E9F4;"
         d="M81.99,100.54H46.21c-4.91,0-8.9-3.98-8.9-8.9v-1.31h53.57v1.31    C90.88,96.55,86.9,100.54,81.99,100.54z"
         id="path97" /></g><g
       id="g99"><path
         style="fill:#546E7A;stroke:#546E7A;stroke-width:4;stroke-miterlimit:10;"
         d="M82.87,100.54H45.33    c-4.42,0-8.01-3.59-8.01-8.01v0c0-1.22,0.99-2.2,2.2-2.2h49.17c1.22,0,2.2,0.99,2.2,2.2v0C90.88,96.95,87.3,100.54,82.87,100.54z"
         id="path101" /></g><path
       style="fill:#546E7A;"
       d="M46.82,91.52v8.4c0,0-9.5-0.78-9.5-8.28L46.82,91.52z"
       id="path103" /><path
       style="fill:#546E7A;"
       d="M81.3,91.52v8.4c0,0,9.5-0.78,9.5-8.28L81.3,91.52z"
       id="path105" /><g
       id="g107"><rect
         x="50.71"
         y="92.47"
         style="fill:#B8E9F4;"
         width="6.2"
         height="5.96"
         id="rect109" /><rect
         x="60.52"
         y="92.47"
         style="fill:#B8E9F4;"
         width="6.2"
         height="5.96"
         id="rect111" /><rect
         x="70.33"
         y="92.47"
         style="fill:#B8E9F4;"
         width="6.2"
         height="5.96"
         id="rect113" /><path
         style="fill:#B8E9F4;"
         d="M80.38,98.43h-0.24v-5.96h6.2v0C86.34,95.76,83.67,98.43,80.38,98.43z"
         id="path115" /><path
         style="fill:#B8E9F4;"
         d="M47.11,98.43h-0.24c-3.29,0-5.96-2.67-5.96-5.96v0h6.2V98.43z"
         id="path117" /></g></g></svg>