<?xml version="1.0" encoding="UTF-8" standalone="no"?>
<!-- Generator: Adobe Illustrator 19.2.1, SVG Export Plug-In . SVG Version: 6.00 Build 0)  -->

<svg
   xmlns:dc="http://purl.org/dc/elements/1.1/"
   xmlns:cc="http://creativecommons.org/ns#"
   xmlns:rdf="http://www.w3.org/1999/02/22-rdf-syntax-ns#"
   xmlns:svg="http://www.w3.org/2000/svg"
   xmlns="http://www.w3.org/2000/svg"
   xmlns:xlink="http://www.w3.org/1999/xlink"
   xmlns:sodipodi="http://sodipodi.sourceforge.net/DTD/sodipodi-0.dtd"
   xmlns:inkscape="http://www.inkscape.org/namespaces/inkscape"
   version="1.1"
   id="图层_1"
   x="0px"
   y="0px"
   viewBox="0 0 128 128"
   style="enable-background:new 0 0 128 128;"
   xml:space="preserve"
   inkscape:version="0.91 r13725"
   sodipodi:docname="1f925.svg"><metadata
     id="metadata57"><rdf:RDF><cc:Work
         rdf:about=""><dc:format>image/svg+xml</dc:format><dc:type
           rdf:resource="http://purl.org/dc/dcmitype/StillImage" /><dc:title></dc:title></cc:Work></rdf:RDF></metadata><defs
     id="defs55" /><sodipodi:namedview
     pagecolor="#ffffff"
     bordercolor="#666666"
     borderopacity="1"
     objecttolerance="10"
     gridtolerance="10"
     guidetolerance="10"
     inkscape:pageopacity="0"
     inkscape:pageshadow="2"
     inkscape:window-width="640"
     inkscape:window-height="480"
     id="namedview53"
     showgrid="false"
     inkscape:zoom="0.4609375"
     inkscape:cx="64"
     inkscape:cy="64"
     inkscape:window-x="0"
     inkscape:window-y="0"
     inkscape:window-maximized="0"
     inkscape:current-layer="图层_1" /><g
     id="g23"><g
       id="g25"><g
         id="g27"><path
           style="fill:#FCC21B;"
           d="M64,9.56c-62.41,0-63.88,69.96-63.88,83.8c0,13.86,28.59,25.08,63.88,25.08     c35.28,0,63.88-11.22,63.88-25.08C127.88,79.52,126.4,9.56,64,9.56z"
           id="path29" /></g></g></g><g
     id="g31"><path
       style="fill:#2F2F2F;"
       d="M41.99,58.77c-4.49,0.04-8.17-4.27-8.22-9.62c-0.05-5.37,3.55-9.75,8.04-9.79   c4.48-0.04,8.17,4.27,8.22,9.64C50.08,54.36,46.47,58.73,41.99,58.77z"
       id="path33" /><path
       style="fill:#2F2F2F;"
       d="M86.1,58.77c4.48-0.01,8.11-4.36,8.1-9.71c-0.01-5.37-3.66-9.7-8.14-9.69   c-4.49,0.01-8.13,4.36-8.12,9.73C77.95,54.45,81.61,58.78,86.1,58.77z"
       id="path35" /></g><g
     id="g37"><path
       style="fill:none;stroke:#2F2F2F;stroke-width:6;stroke-linecap:round;stroke-linejoin:round;stroke-miterlimit:10;"
       d="   M52.38,97.5c7.1-3.66,16.14-3.66,23.24,0"
       id="path39" /></g><g
     id="g41"><defs
       id="defs43"><path
         id="SVGID_1_"
         d="M111.04,85.04c-15.57-0.4-26.98-0.73-42.55-1.18c-5.07-0.15-8.58-3.88-8.36-9.05    c0.21-5,3.59-8.12,7.86-8.46c15.54-1.13,26.88-2.38,42.45-3.04c4.85-0.2,11.26,1.97,12,10.39    C123.12,81.69,116.2,85.2,111.04,85.04z" /></defs><use
       xlink:href="#SVGID_1_"
       style="overflow:visible;fill:#F57C00;"
       id="use46" /><clipPath
       id="SVGID_2_"><use
         xlink:href="#SVGID_1_"
         style="overflow:visible;"
         id="use49" /></clipPath><path
       style="clip-path:url(#SVGID_2_);fill:#FFAB00;"
       d="M112.26,78.71c-16.29,0.3-35.85,0.47-52.14,0.71   c-5.31,0.08-9.15-3.66-9.15-9.07c0-5.23,3.38-8.65,7.83-9.2c16.18-1.89,35.61-3.72,51.85-5.11c5.06-0.44,11.86,1.54,13.01,10.31   C124.74,74.67,117.66,78.64,112.26,78.71z"
       id="path51"
       clip-path="url(#SVGID_2_)" /></g></svg>