<?xml version="1.0" encoding="UTF-8" standalone="no"?>
<!-- Generator: Adobe Illustrator 19.2.1, SVG Export Plug-In . SVG Version: 6.00 Build 0)  -->

<svg
   xmlns:dc="http://purl.org/dc/elements/1.1/"
   xmlns:cc="http://creativecommons.org/ns#"
   xmlns:rdf="http://www.w3.org/1999/02/22-rdf-syntax-ns#"
   xmlns:svg="http://www.w3.org/2000/svg"
   xmlns="http://www.w3.org/2000/svg"
   xmlns:sodipodi="http://sodipodi.sourceforge.net/DTD/sodipodi-0.dtd"
   xmlns:inkscape="http://www.inkscape.org/namespaces/inkscape"
   version="1.1"
   id="レイヤー_1"
   x="0px"
   y="0px"
   viewBox="0 0 128 128"
   style="enable-background:new 0 0 128 128;"
   xml:space="preserve"
   inkscape:version="0.91 r13725"
   sodipodi:docname="1f98d.svg"><metadata
     id="metadata99"><rdf:RDF><cc:Work
         rdf:about=""><dc:format>image/svg+xml</dc:format><dc:type
           rdf:resource="http://purl.org/dc/dcmitype/StillImage" /><dc:title></dc:title></cc:Work></rdf:RDF></metadata><defs
     id="defs97" /><sodipodi:namedview
     pagecolor="#ffffff"
     bordercolor="#666666"
     borderopacity="1"
     objecttolerance="10"
     gridtolerance="10"
     guidetolerance="10"
     inkscape:pageopacity="0"
     inkscape:pageshadow="2"
     inkscape:window-width="1024"
     inkscape:window-height="717"
     id="namedview95"
     showgrid="false"
     inkscape:zoom="2.6074563"
     inkscape:cx="64"
     inkscape:cy="64"
     inkscape:window-x="0"
     inkscape:window-y="0"
     inkscape:window-maximized="1"
     inkscape:current-layer="g51" /><path
     style="fill:#2F2F2F;stroke:#464747;stroke-width:3;stroke-miterlimit:10;"
     d="M116.08,75.73c-1.01-7.77-5.67-13.53-5.67-13.53  c2.37,0.68,4.38,3.15,4.38,3.15c-0.98-4.27-2.56-7.72-4.11-10.34l0.29,0.21c5.09-13.75-1.93-18.91-4.61-19.18  c-0.8-4.23-2.02-7.37-2.02-7.37c1.04,0.9,1.91,1.5,1.91,1.5c-0.12-4.93-3.45-10.59-8.48-15.27c-4.69-4.36-10.37-5.56-10.37-5.56  c1.24,0,3.73,0.57,3.73,0.57C80.88,1.91,68.44,2.36,64,2.07c-4.44,0.29-16.88-0.16-27.13,7.84c0,0,2.49-0.57,3.73-0.57  c0,0-5.68,1.2-10.37,5.56c-5.03,4.68-8.36,10.34-8.48,15.27c0,0,0.87-0.6,1.91-1.5c0,0-1.23,3.15-2.02,7.37  c-2.69,0.3-9.66,5.46-4.59,19.17l0.25-0.18c-1.54,2.61-3.11,6.05-4.09,10.31c0,0,2.01-2.47,4.38-3.15c0,0-4.66,5.77-5.67,13.53  c-0.74,5.71-0.28,9.29-0.28,9.29s1.26-3.29,2.79-4.25c0,0-1.26,15.41,6.09,21.39c0,0-0.27-3.3,0.69-4.67c0,0,1.73,4.43,9.02,10.01  c6.23,4.77,8.44,11.05,8.44,11.05s2.7-2.17,2.44-3.79c0,0,2,5.67,7.55,8.28c0,0-0.24-2.2,0.7-3.61c0,0,0.72,1.82,2.25,2.94  c1.69,1.24,3.01,1.85,5.27,2.24c0,0-1.13-1.25-0.96-2.39c0,0,1.3,1.14,3.84,1.77c2.52,0.62,4.22,1.95,4.22,1.95  c0,0,0.01-0.01,0.01-0.01c0,0,0.01-0.01,0.01-0.01c0.79-0.57,1.7-1.31,4.22-1.93c2.54-0.63,3.84-1.77,3.84-1.77  c0.17,1.14-0.96,2.39-0.96,2.39c2.26-0.39,3.58-0.99,5.27-2.24c1.53-1.12,2.25-2.94,2.25-2.94c0.94,1.4,0.7,3.61,0.7,3.61  c5.55-2.61,7.55-8.28,7.55-8.28c-0.25,1.62,2.44,3.79,2.44,3.79s2.21-6.28,8.44-11.05c7.29-5.58,9.02-10.01,9.02-10.01  c0.96,1.37,0.69,4.67,0.69,4.67c7.35-5.98,6.09-21.39,6.09-21.39c1.53,0.97,2.79,4.25,2.79,4.25S116.82,81.44,116.08,75.73z"
     id="path49" /><g
     id="g51"><path
       style="fill:#999999;"
       d="M106.11,36.02c2.46-0.04,10.11,5,4.85,19.19l-7.21-5.18L106.11,36.02z"
       id="path53" /><path
       style="fill:#2F2F2F;"
       d="M106.83,42.02c0,0,3.93,1.47,3.38,5.69c-0.12,0.94-1.44,1.12-1.81,0.25   c-0.4-0.94-1.04-1.8-2.05-2.05L106.83,42.02z"
       id="path55" /><path
       style="fill:#999999;"
       d="M21.91,36.02c-2.46-0.04-10.11,5-4.85,19.19l7.21-5.18L21.91,36.02z"
       id="path57" /><path
       style="fill:#2F2F2F;"
       d="M64,2.07c-4.44,0.29-16.88-0.16-27.13,7.84c0,0,2.49-0.57,3.73-0.57c0,0-5.68,1.2-10.37,5.56   c-5.03,4.68-8.36,10.34-8.48,15.27c0,0,0.87-0.6,1.91-1.5c0,0-4.59,11.75-1.79,20.38c0,0-6.2,5.61-8.66,16.29   c0,0,2.01-2.47,4.38-3.15c0,0-4.66,5.77-5.67,13.53c-0.74,5.71-0.28,9.29-0.28,9.29s1.26-3.29,2.79-4.25c0,0-1.26,15.41,6.09,21.39   c0,0-0.27-3.3,0.69-4.67c0,0,1.73,4.43,9.02,10.01c6.23,4.77,8.44,11.05,8.44,11.05s2.7-2.17,2.44-3.79c0,0,2,5.67,7.55,8.28   c0,0-0.24-2.2,0.7-3.61c0,0,0.72,1.82,2.25,2.94c1.69,1.24,3.01,1.85,5.27,2.24c0,0-1.13-1.25-0.96-2.39c0,0,1.3,1.14,3.84,1.77   s3.45,1.38,4.24,1.95L64,2.07z"
       id="path59" /><path
       style="fill:#2F2F2F;"
       d="M64,2.07c4.44,0.29,16.88-0.16,27.13,7.84c0,0-2.49-0.57-3.73-0.57c0,0,5.68,1.2,10.37,5.56   c5.03,4.68,8.36,10.34,8.48,15.27c0,0-0.87-0.6-1.91-1.5c0,0,4.59,11.75,1.79,20.38c0,0,6.2,5.61,8.66,16.29   c0,0-2.01-2.47-4.38-3.15c0,0,4.66,5.77,5.67,13.53c0.74,5.71,0.28,9.29,0.28,9.29s-1.26-3.29-2.79-4.25c0,0,1.26,15.41-6.09,21.39   c0,0,0.27-3.3-0.69-4.67c0,0-1.73,4.43-9.02,10.01c-6.23,4.77-8.44,11.05-8.44,11.05s-2.7-2.17-2.44-3.79c0,0-2,5.67-7.55,8.28   c0,0,0.24-2.2-0.7-3.61c0,0-0.72,1.82-2.25,2.94c-1.69,1.24-3.01,1.85-5.27,2.24c0,0,1.13-1.25,0.96-2.39c0,0-1.3,1.14-3.84,1.77   c-2.54,0.63-3.45,1.38-4.24,1.95L64,2.07z"
       id="path61" /><path
       style="fill:#999999;"
       d="M 44.679688 40.400391 C 35.689687 40.400391 29.92 49.209844 30.25 62.589844 C 30.29 64.299844 31.509922 65.770391 33.169922 66.150391 C 37.129922 67.060391 43.999609 69.570469 44.349609 75.980469 C 44.839609 85.010469 38.079453 84.160938 39.939453 96.710938 C 41.799453 109.26094 58.249766 109.44922 64.009766 109.44922 C 69.769766 109.44922 86.220078 109.26094 88.080078 96.710938 C 89.940078 84.160938 83.179922 85.010469 83.669922 75.980469 C 84.019922 69.570469 90.889609 67.060391 94.849609 66.150391 C 96.509609 65.770391 97.729531 64.299844 97.769531 62.589844 C 98.099531 49.209844 92.329844 40.400391 83.339844 40.400391 C 73.679844 40.400391 65.709766 47.690859 64.009766 47.630859 C 62.309766 47.690859 54.339688 40.400391 44.679688 40.400391 z "
       id="path63" /><path
       style="fill:#2F2F2F;"
       d="M59.83,69.97c-0.11-0.9-2.54-2.78-4.31-2.93c-1.6-0.14-3.74,0.9-5.83,2.57   c-2.4,1.92-2.98,4.21-2.98,6.24s0.34,5.77,3.84,7.12c0,0-1.81-2.54-1.81-5.6c0-3.45,1.08-4.58,2.91-6.16   c1.7-1.47,2.79-1.95,3.94-2.06C57.52,68.98,59.83,69.97,59.83,69.97z"
       id="path67" /><path
       style="fill:#2F2F2F;"
       d="M60.87,79.46c-0.26-1.07-0.66-2.04-3.38-3.39c-2.72-1.36-4.59-1.61-4.59,0.68s1.1,3.82,1.87,4.24   c0.76,0.42,4.83,1.95,5.6,1.36S61.12,80.5,60.87,79.46z"
       id="path69" /><path
       style="fill:#2F2F2F;"
       d="M67.78,69.97c0.11-0.9,2.54-2.78,4.31-2.93c1.6-0.14,3.74,0.9,5.83,2.57   c2.4,1.92,2.98,4.21,2.98,6.24s-0.34,5.77-3.84,7.12c0,0,1.81-2.54,1.81-5.6c0-3.45-1.08-4.58-2.91-6.16   c-1.7-1.47-2.79-1.95-3.94-2.06C70.09,68.98,67.78,69.97,67.78,69.97z"
       id="path71" /><path
       style="fill:#2F2F2F;"
       d="M66.74,79.46c0.26-1.07,0.66-2.04,3.38-3.39c2.72-1.36,4.59-1.61,4.59,0.68s-1.1,3.82-1.87,4.24   c-0.76,0.42-4.83,1.95-5.6,1.36C66.48,81.75,66.48,80.5,66.74,79.46z"
       id="path73" /><ellipse
       style="fill:#2F2F2F;"
       cx="80.24"
       cy="55.21"
       rx="4.77"
       ry="5.73"
       id="ellipse75" /><ellipse
       style="fill:#2F2F2F;"
       cx="46.82"
       cy="55.21"
       rx="4.77"
       ry="5.73"
       id="ellipse77" /><path
       style="fill:#2F2F2F;"
       d="M64.01,93.21c-8.95,0-16.11,7.69-17.19,7.69c-2.15,0-3.47-2.82-3.47-2.82s-0.52-0.84,0-1.26   c0.52-0.43,0.89,0.24,1.32,0.55s1.14,0.73,2.04,0.67s7.88-7.4,17.3-7.4s16.64,7.22,17.5,7.28s1.55-0.06,2.19-0.61   c0.49-0.42,1.06-1.04,1.61-0.67c0.55,0.37,0.13,1-0.27,1.45c0,0-1.32,2.82-3.47,2.82c-1.07,0-8.24-7.69-17.19-7.69"
       id="path79" /><path
       style="fill:#2F2F2F;"
       d="M21.19,42.02c0,0-3.93,1.47-3.38,5.69c0.12,0.94,1.44,1.12,1.81,0.25c0.4-0.94,1.04-1.8,2.05-2.05   L21.19,42.02z"
       id="path81" /><g
       id="g83"><path
         style="fill:#999999;"
         d="M52.31,108.31c0,0,1.19,1.2,1.99,1.88c1.59,1.36,3.4,1.88,3.4,1.88s-1.55-1.33-1.25-3.44    L52.31,108.31z"
         id="path85" /><path
         style="fill:#999999;"
         d="M57.7,108.91c0,0,0.43,1.34,1.88,2.44c1.42,1.07,1.45,2.17,1.45,2.17s0.68-1.1,0.14-2.48    c-0.46-1.19-0.05-2.13-0.05-2.13H57.7z"
         id="path87" /><path
         style="fill:#999999;"
         d="M75.59,108.31c0,0-1.19,1.2-1.99,1.88c-1.59,1.36-3.4,1.88-3.4,1.88s1.55-1.33,1.25-3.44    L75.59,108.31z"
         id="path89" /><path
         style="fill:#999999;"
         d="M70.2,108.91c0,0-0.43,1.34-1.88,2.44c-1.42,1.07-1.45,2.17-1.45,2.17s-0.68-1.1-0.14-2.48    c0.46-1.19,0.05-2.13,0.05-2.13H70.2z"
         id="path91" /><path
         style="fill:#999999;"
         d="M62.45,109.17c0,0-0.33,1.48,0.72,3.54c1.05,2.06,0.65,2.78,0.65,2.78s0.72-2.03,1.16-2.82    c0.43-0.8,0.76-2.77,0.51-3.5H62.45z"
         id="path93" /></g></g></svg>