<?xml version="1.0" encoding="UTF-8" standalone="no"?>
<svg
   xmlns:dc="http://purl.org/dc/elements/1.1/"
   xmlns:cc="http://creativecommons.org/ns#"
   xmlns:rdf="http://www.w3.org/1999/02/22-rdf-syntax-ns#"
   xmlns:svg="http://www.w3.org/2000/svg"
   xmlns="http://www.w3.org/2000/svg"
   xmlns:sodipodi="http://sodipodi.sourceforge.net/DTD/sodipodi-0.dtd"
   xmlns:inkscape="http://www.inkscape.org/namespaces/inkscape"
   width="128"
   height="128"
   style="enable-background:new 0 0 128 128;"
   id="svg2"
   version="1.1"
   inkscape:version="0.91 r13725"
   sodipodi:docname="1f989.svg">
  <metadata
     id="metadata90">
    <rdf:RDF>
      <cc:Work
         rdf:about="">
        <dc:format>image/svg+xml</dc:format>
        <dc:type
           rdf:resource="http://purl.org/dc/dcmitype/StillImage" />
        <dc:title></dc:title>
      </cc:Work>
    </rdf:RDF>
  </metadata>
  <defs
     id="defs88" />
  <sodipodi:namedview
     pagecolor="#ffffff"
     bordercolor="#666666"
     borderopacity="1"
     objecttolerance="10"
     gridtolerance="10"
     guidetolerance="10"
     inkscape:pageopacity="0"
     inkscape:pageshadow="2"
     inkscape:window-width="1024"
     inkscape:window-height="718"
     id="namedview86"
     showgrid="false"
     inkscape:zoom="3.6875"
     inkscape:cx="64"
     inkscape:cy="64"
     inkscape:window-x="0"
     inkscape:window-y="0"
     inkscape:window-maximized="1"
     inkscape:current-layer="svg2" />
  <style
     type="text/css"
     id="style4">
.st0{fill:#885C52;}
.st1{fill:#BB917A;}
.st2{fill:#FFFFFF;}
.st3{fill:#2F2F2F;}
.st4{fill:#FEF6E0;}
.st5{fill:#FFC148;}
.st6{fill:none;stroke:#BB917A;stroke-width:3;stroke-linecap:round;stroke-linejoin:round;stroke-miterlimit:10;}
  </style>
  <path
     class="st0"
     d="M100.8,49.5c4.2-10.2,0.9-16-1-21.2c-1.7-4.6,3-6.9,3-6.9c-1.8,0-3.8-0.8-3.8-0.8c3.6-2.5,5.8-9.1,5.8-9.1 c-2.5,2.3-5.9,2.4-5.9,2.4c5.6-5.4,3.9-12.9,3.9-12.9s-5.8,7.8-16.6,12.5c-8.8,3.8-18.5,4.7-22.1,4.7c-3.6,0-13.3-0.9-22.1-4.7 C31.1,8.9,25.3,1,25.3,1s-1.8,7.5,3.9,12.9c0,0-3.4-0.1-5.9-2.4c0,0,2.1,6.6,5.8,9.1c0,0-2,0.8-3.8,0.8c0,0,4.7,2.3,3,6.9 c-1.9,5.2-5.2,10.9-1,21.2c0,0-28.7,47.9,33.6,76.3c1,0.5,2.1,0.7,3.2,0.7v0c0,0,0,0,0,0l0,0c0,0,0,0,0,0c0,0,0,0,0,0v0h0v0 c1.1,0,2.2-0.3,3.2-0.7C129.5,97.4,100.8,49.5,100.8,49.5z"
     id="path6" />
  <g
     id="g8">
    <circle
       class="st1"
       cx="82.4"
       cy="41.6"
       r="14.7"
       id="circle10" />
    <circle
       class="st2"
       cx="82.4"
       cy="41.6"
       r="11.3"
       id="circle12" />
    <circle
       class="st3"
       cx="82.4"
       cy="41.6"
       r="6.5"
       id="circle14" />
  </g>
  <g
     id="g16">
    <circle
       class="st1"
       cx="45.7"
       cy="41.6"
       r="14.7"
       id="circle18" />
    <circle
       class="st2"
       cx="45.7"
       cy="41.6"
       r="11.3"
       id="circle20" />
    <circle
       class="st3"
       cx="45.7"
       cy="41.6"
       r="6.5"
       id="circle22" />
  </g>
  <path
     d="M 64 60 C 45.4 60 38.400391 68.099219 38.400391 81.699219 C 38.400391 92.499219 44.099609 102.59922 49.099609 108.19922 C 55.499609 115.29922 64 115.80078 64 115.80078 C 64 115.80078 72.500391 115.29922 78.900391 108.19922 C 83.900391 102.59922 89.599609 92.499219 89.599609 81.699219 C 89.599609 68.099219 82.6 60 64 60 z "
     id="path24"
     style="fill:#fef6e0;fill-opacity:1" />
  <g
     id="g28">
    <g
       id="g30">
      <path
         class="st5"
         d="M37.1,121c-1.6,0-3-1.3-3-3v-9.5c0-1.6,1.3-3,3-3c1.6,0,3,1.3,3,3v9.5C40,119.7,38.7,121,37.1,121z"
         id="path32" />
      <path
         class="st0"
         d="M37.1,106c1.4,0,2.5,1.1,2.5,2.5v9.5c0,1.4-1.1,2.5-2.5,2.5s-2.5-1.1-2.5-2.5v-9.5 C34.6,107.1,35.7,106,37.1,106 M37.1,105c-1.9,0-3.5,1.6-3.5,3.5v9.5c0,1.9,1.6,3.5,3.5,3.5s3.5-1.6,3.5-3.5v-9.5 C40.5,106.6,39,105,37.1,105L37.1,105z"
         id="path34" />
    </g>
    <g
       id="g36">
      <path
         class="st5"
         d="M43.1,121c-1.6,0-3-1.3-3-3v-9.5c0-1.6,1.3-3,3-3c1.6,0,3,1.3,3,3v9.5C46.1,119.7,44.7,121,43.1,121z"
         id="path38" />
      <path
         class="st0"
         d="M43.1,106c1.4,0,2.5,1.1,2.5,2.5v9.5c0,1.4-1.1,2.5-2.5,2.5c-1.4,0-2.5-1.1-2.5-2.5v-9.5 C40.6,107.1,41.7,106,43.1,106 M43.1,105c-1.9,0-3.5,1.6-3.5,3.5v9.5c0,1.9,1.6,3.5,3.5,3.5c1.9,0,3.5-1.6,3.5-3.5v-9.5 C46.6,106.6,45,105,43.1,105L43.1,105z"
         id="path40" />
    </g>
    <g
       id="g42">
      <path
         class="st5"
         d="M49.3,121c-1.6,0-3-1.3-3-3v-9.5c0-1.6,1.3-3,3-3s3,1.3,3,3v9.5C52.3,119.7,50.9,121,49.3,121z"
         id="path44" />
      <path
         class="st0"
         d="M49.3,106c1.4,0,2.5,1.1,2.5,2.5v9.5c0,1.4-1.1,2.5-2.5,2.5s-2.5-1.1-2.5-2.5v-9.5 C46.8,107.1,47.9,106,49.3,106 M49.3,105c-1.9,0-3.5,1.6-3.5,3.5v9.5c0,1.9,1.6,3.5,3.5,3.5s3.5-1.6,3.5-3.5v-9.5 C52.8,106.6,51.2,105,49.3,105L49.3,105z"
         id="path46" />
    </g>
  </g>
  <g
     id="g48">
    <g
       id="g50">
      <path
         class="st5"
         d="M78.4,121c-1.6,0-3-1.3-3-3v-9.5c0-1.6,1.3-3,3-3c1.6,0,3,1.3,3,3v9.5C81.4,119.7,80,121,78.4,121z"
         id="path52" />
      <path
         class="st0"
         d="M78.4,106c1.4,0,2.5,1.1,2.5,2.5v9.5c0,1.4-1.1,2.5-2.5,2.5c-1.4,0-2.5-1.1-2.5-2.5v-9.5 C75.9,107.1,77,106,78.4,106 M78.4,105c-1.9,0-3.5,1.6-3.5,3.5v9.5c0,1.9,1.6,3.5,3.5,3.5c1.9,0,3.5-1.6,3.5-3.5v-9.5 C81.9,106.6,80.3,105,78.4,105L78.4,105z"
         id="path54" />
    </g>
    <g
       id="g56">
      <path
         class="st5"
         d="M84.4,121c-1.6,0-3-1.3-3-3v-9.5c0-1.6,1.3-3,3-3s3,1.3,3,3v9.5C87.4,119.7,86.1,121,84.4,121z"
         id="path58" />
      <path
         class="st0"
         d="M84.4,106c1.4,0,2.5,1.1,2.5,2.5v9.5c0,1.4-1.1,2.5-2.5,2.5s-2.5-1.1-2.5-2.5v-9.5 C81.9,107.1,83,106,84.4,106 M84.4,105c-1.9,0-3.5,1.6-3.5,3.5v9.5c0,1.9,1.6,3.5,3.5,3.5s3.5-1.6,3.5-3.5v-9.5 C87.9,106.6,86.3,105,84.4,105L84.4,105z"
         id="path60" />
    </g>
    <g
       id="g62">
      <path
         class="st5"
         d="M90.6,121c-1.6,0-3-1.3-3-3v-9.5c0-1.6,1.3-3,3-3c1.6,0,3,1.3,3,3v9.5C93.6,119.7,92.2,121,90.6,121z"
         id="path64" />
      <path
         class="st0"
         d="M90.6,106c1.4,0,2.5,1.1,2.5,2.5v9.5c0,1.4-1.1,2.5-2.5,2.5s-2.5-1.1-2.5-2.5v-9.5 C88.1,107.1,89.2,106,90.6,106 M90.6,105c-1.9,0-3.5,1.6-3.5,3.5v9.5c0,1.9,1.6,3.5,3.5,3.5s3.5-1.6,3.5-3.5v-9.5 C94.1,106.6,92.5,105,90.6,105L90.6,105z"
         id="path66" />
    </g>
  </g>
  <path
     class="st5"
     d="M67.3,49.6c-1.7-2.1-4.8-2.1-6.5,0c-1.3,1.6-2.5,3.8-2.3,6.7c0.2,4.2,2.6,7.2,4.2,8.7c0.8,0.7,1.9,0.7,2.7,0 c1.6-1.5,4-4.5,4.2-8.7C69.7,53.3,68.6,51.1,67.3,49.6z"
     id="path68" />
  <ellipse
     class="st2"
     cx="83.6"
     cy="39.3"
     rx="2.2"
     ry="2.3"
     id="ellipse70" />
  <ellipse
     class="st2"
     cx="47.4"
     cy="39.3"
     rx="2.2"
     ry="2.3"
     id="ellipse72" />
  <g
     id="g74">
    <path
       class="st6"
       d="M46.6,76.7L46.6,76.7c2.5,4.7,9.2,4.7,11.6,0l0,0"
       id="path76" />
    <path
       class="st6"
       d="M58.2,76.7L58.2,76.7c2.5,4.7,9.2,4.7,11.6,0l0,0"
       id="path78" />
    <path
       class="st6"
       d="M69.8,76.7L69.8,76.7c2.5,4.7,9.2,4.7,11.6,0l0,0"
       id="path80" />
    <path
       class="st6"
       d="M52.4,92.6L52.4,92.6c2.5,4.7,9.2,4.7,11.6,0l0,0"
       id="path82" />
    <path
       class="st6"
       d="M64,92.6L64,92.6c2.5,4.7,9.2,4.7,11.6,0v0"
       id="path84" />
  </g>
</svg>
