<?xml version="1.0" encoding="UTF-8" standalone="no"?>
<!-- Generator: Adobe Illustrator 19.2.1, SVG Export Plug-In . SVG Version: 6.00 Build 0)  -->

<svg
   xmlns:dc="http://purl.org/dc/elements/1.1/"
   xmlns:cc="http://creativecommons.org/ns#"
   xmlns:rdf="http://www.w3.org/1999/02/22-rdf-syntax-ns#"
   xmlns:svg="http://www.w3.org/2000/svg"
   xmlns="http://www.w3.org/2000/svg"
   xmlns:sodipodi="http://sodipodi.sourceforge.net/DTD/sodipodi-0.dtd"
   xmlns:inkscape="http://www.inkscape.org/namespaces/inkscape"
   version="1.1"
   id="图层_1"
   x="0px"
   y="0px"
   viewBox="0 0 128 128"
   style="enable-background:new 0 0 128 128;"
   xml:space="preserve"
   inkscape:version="0.91 r13725"
   sodipodi:docname="1f987.svg"><metadata
     id="metadata237"><rdf:RDF><cc:Work
         rdf:about=""><dc:format>image/svg+xml</dc:format><dc:type
           rdf:resource="http://purl.org/dc/dcmitype/StillImage" /><dc:title></dc:title></cc:Work></rdf:RDF></metadata><defs
     id="defs235" /><sodipodi:namedview
     pagecolor="#ffffff"
     bordercolor="#666666"
     borderopacity="1"
     objecttolerance="10"
     gridtolerance="10"
     guidetolerance="10"
     inkscape:pageopacity="0"
     inkscape:pageshadow="2"
     inkscape:window-width="640"
     inkscape:window-height="480"
     id="namedview233"
     showgrid="false"
     inkscape:zoom="1.84375"
     inkscape:cx="61.067872"
     inkscape:cy="43.372331"
     inkscape:window-x="0"
     inkscape:window-y="0"
     inkscape:window-maximized="0"
     inkscape:current-layer="图层_1" /><g
     id="g3"><g
       id="g5"><g
         id="g7"><path
           style="fill:#663333;"
           d="M 29.210938 36.640625 C 20.595835 36.946804 5.00625 42.035313 2 43.960938 C 5.26 44.800938 8.7808594 46.319297 10.630859 49.029297 C 13.090859 52.629297 14.900781 59.940313 13.800781 63.320312 C 21.200781 62.550312 30.26 66.960313 33 74.570312 C 37.23 74.570312 40.940234 75.959844 43.740234 78.839844 C 46.750234 81.919844 47.609766 84.509453 49.009766 90.439453 C 49.009766 90.439453 54.670547 88.999531 58.810547 91.019531 C 60.950547 92.069531 63.09 93.390937 64 95.710938 C 64.91 93.390937 67.049453 92.069531 69.189453 91.019531 C 73.329453 88.999531 78.990234 90.439453 78.990234 90.439453 C 80.390234 84.509453 81.249766 81.919844 84.259766 78.839844 C 87.059766 75.959844 90.77 74.570312 95 74.570312 C 97.74 66.960313 106.79922 62.550312 114.19922 63.320312 C 113.09922 59.940313 114.90914 52.629297 117.36914 49.029297 C 119.21914 46.319297 122.74 44.800938 126 43.960938 C 122.3 41.590938 99.529687 34.429063 94.179688 37.289062 C 81.699688 43.949062 70.140625 59.75 70.140625 59.75 L 64 66.669922 L 57.859375 59.75 C 57.859375 59.75 46.300312 43.949062 33.820312 37.289062 C 32.815312 36.752812 31.199038 36.569968 29.210938 36.640625 z "
           id="path9" /></g><g
         id="g11"><path
           style="fill:#330000;"
           d="M64,67.58c-0.25,0-0.5-0.1-0.68-0.3l-6.14-6.92c-0.17-0.22-11.9-15.94-23.79-22.27     c-3.73-1.99-23.11,2.19-30.94,6.66c-0.43,0.25-0.99,0.1-1.24-0.34c-0.25-0.43-0.1-0.99,0.34-1.24c7.9-4.51,28.1-9.13,32.69-6.69     C46.5,43.01,58.1,58.56,58.58,59.21l6.09,6.86c0.33,0.37,0.3,0.95-0.08,1.28C64.43,67.5,64.21,67.58,64,67.58z"
           id="path13" /></g><g
         id="g15"><path
           style="fill:#330000;"
           d="M59.38,76.8c-2.85-0.35-5.69,3.08-7.25,5.31c-1.22,1.75-2.86,5.9-2.07,6.41     c0.74,0.55,1.54-2.21,3.8-4.39c2.32-2.24,5.45-2.13,5.86-2.87C60.12,80.56,59.38,76.8,59.38,76.8z"
           id="path17" /></g><g
         id="g19"><path
           style="fill:#330000;"
           d="M60.51,65.58c-2.4-0.47-9.52-5.19-14.44-10.86c-4.5-5.19-10.24-16.24-11.85-16.99     c0.48,2.55,7.27,17.13,10.28,21.33c3.53,4.92,12.06,10.34,13.64,10.19C59.6,69.12,60.08,66.76,60.51,65.58z"
           id="path21" /></g><g
         id="g23"><path
           style="fill:#330000;"
           d="M13.8,64.23c-0.09,0-0.18-0.01-0.27-0.04c-0.48-0.15-0.74-0.66-0.59-1.14     c2.79-8.79,12.47-22.09,20.76-26.06c0.45-0.22,0.99-0.03,1.21,0.43c0.22,0.45,0.02,0.99-0.43,1.21     C26.59,42.4,17.35,55.15,14.66,63.6C14.54,63.98,14.18,64.23,13.8,64.23z"
           id="path25" /></g><g
         id="g27"><path
           style="fill:#330000;"
           d="M33,75.48c-0.42,0-0.8-0.29-0.89-0.72c-2.15-10.28-2.07-28.85,1.26-37.36     c0.18-0.47,0.71-0.69,1.17-0.51c0.47,0.18,0.7,0.71,0.51,1.17c-3.22,8.24-3.27,26.29-1.18,36.33c0.1,0.49-0.21,0.97-0.7,1.07     C33.12,75.47,33.06,75.48,33,75.48z"
           id="path29" /></g><g
         id="g31"><path
           style="fill:#330000;"
           d="M33.93,38.2c-0.33,0-0.66-0.19-0.81-0.51c-0.22-0.45-0.04-0.99,0.41-1.21     c0.48-0.23,1.05-1.35,1-1.92c-0.05-0.54-1.02-1.3-1.78-1.75c-0.39-0.24-0.64-0.55-0.61-0.78c0.05-0.45,0.59-0.51,1.07-0.36     c1.32,0.41,2.98,1.2,3.13,2.72c0.13,1.34-0.85,3.15-2,3.72C34.2,38.17,34.06,38.2,33.93,38.2z"
           id="path33" /></g><g
         id="g35"><path
           style="fill:#330000;"
           d="M43.99,93.36c-0.2-1.37,0.18-2.66,1.06-3.52c0.92-0.9,2.25-1.26,3.76-1.01     c0.49,0.08,0.83,0.55,0.75,1.04c-0.08,0.49-0.55,0.83-1.04,0.75c-0.92-0.15-1.7,0.03-2.2,0.52c-0.47,0.46-1.11,1.22-1.17,2.03     c-0.04,0.54-0.1,0.96-0.49,1.02C44.37,94.24,44.06,93.81,43.99,93.36z"
           id="path37" /></g><g
         id="g39"><path
           style="fill:#330000;"
           d="M50.45,94.02c-0.86,0-1.71-0.4-2.32-1.12c-0.88-1.04-0.97-2.44-0.25-3.65     c0.26-0.43,0.81-0.57,1.24-0.31c0.43,0.26,0.57,0.81,0.31,1.24c-0.46,0.76-0.16,1.36-0.02,1.6c0.25,0.44,0.88,0.94,1.38,0.98     c0.52,0.05,1.06,0.07,1.22,0.28c0.22,0.28-0.15,0.62-0.61,0.79C51.1,93.96,50.78,94.02,50.45,94.02z"
           id="path41" /></g></g><g
       id="g43"><g
         id="g45" /><g
         id="g49"><path
           style="fill:#330000;"
           d="M64,67.58c0.25,0,0.5-0.1,0.68-0.3l6.14-6.92c0.17-0.22,11.9-15.94,23.79-22.27     c3.73-1.99,23.11,2.19,30.94,6.66c0.43,0.25,0.99,0.1,1.24-0.34c0.25-0.43,0.1-0.99-0.34-1.24c-7.9-4.51-28.1-9.13-32.69-6.69     C81.5,43.01,69.9,58.56,69.42,59.21l-6.09,6.86c-0.33,0.37-0.3,0.95,0.08,1.28C63.57,67.5,63.79,67.58,64,67.58z"
           id="path51" /></g><g
         id="g53"><path
           style="fill:#330000;"
           d="M68.62,76.8c2.85-0.35,5.69,3.08,7.25,5.31c1.22,1.75,2.86,5.9,2.07,6.41     c-0.74,0.55-1.54-2.21-3.8-4.39c-2.32-2.24-5.45-2.13-5.86-2.87C67.88,80.56,68.62,76.8,68.62,76.8z"
           id="path55" /></g><g
         id="g57"><path
           style="fill:#330000;"
           d="M67.49,65.58c2.4-0.47,9.52-5.19,14.44-10.86c4.5-5.19,10.24-16.24,11.85-16.99     c-0.48,2.55-7.27,17.13-10.28,21.33c-3.53,4.92-12.06,10.34-13.64,10.19C68.4,69.12,67.92,66.76,67.49,65.58z"
           id="path59" /></g><g
         id="g61"><path
           style="fill:#330000;"
           d="M114.2,64.23c0.09,0,0.18-0.01,0.27-0.04c0.48-0.15,0.74-0.66,0.59-1.14     c-2.79-8.79-12.47-22.09-20.76-26.06c-0.45-0.22-0.99-0.03-1.21,0.43c-0.22,0.45-0.02,0.99,0.43,1.21     c7.89,3.77,17.13,16.52,19.82,24.97C113.46,63.98,113.82,64.23,114.2,64.23z"
           id="path63" /></g><g
         id="g65"><path
           style="fill:#330000;"
           d="M95,75.48c0.42,0,0.8-0.29,0.89-0.72c2.15-10.28,2.07-28.85-1.26-37.36     c-0.18-0.47-0.71-0.69-1.17-0.51c-0.47,0.18-0.7,0.71-0.51,1.17c3.22,8.24,3.27,26.29,1.18,36.33c-0.1,0.49,0.21,0.97,0.7,1.07     C94.88,75.47,94.94,75.48,95,75.48z"
           id="path67" /></g><g
         id="g69"><path
           style="fill:#330000;"
           d="M94.07,38.2c0.33,0,0.66-0.19,0.81-0.51c0.22-0.45,0.04-0.99-0.41-1.21     c-0.48-0.23-1.05-1.35-1-1.92c0.05-0.54,1.02-1.3,1.78-1.75c0.39-0.24,0.64-0.55,0.61-0.78c-0.05-0.45-0.59-0.51-1.07-0.36     c-1.32,0.41-2.98,1.2-3.13,2.72c-0.13,1.34,0.85,3.15,2,3.72C93.8,38.17,93.94,38.2,94.07,38.2z"
           id="path71" /></g><g
         id="g73"><path
           style="fill:#330000;"
           d="M84.01,93.36c0.2-1.37-0.18-2.66-1.06-3.52c-0.92-0.9-2.25-1.26-3.76-1.01     c-0.49,0.08-0.83,0.55-0.75,1.04c0.08,0.49,0.55,0.83,1.04,0.75c0.92-0.15,1.7,0.03,2.2,0.52c0.47,0.46,1.11,1.22,1.17,2.03     c0.04,0.54,0.1,0.96,0.49,1.02C83.63,94.24,83.94,93.81,84.01,93.36z"
           id="path75" /></g><g
         id="g77"><path
           style="fill:#330000;"
           d="M77.55,94.02c0.86,0,1.71-0.4,2.32-1.12c0.88-1.04,0.97-2.44,0.25-3.65     c-0.26-0.43-0.81-0.57-1.24-0.31c-0.43,0.26-0.57,0.81-0.31,1.24c0.46,0.76,0.16,1.36,0.02,1.6c-0.25,0.44-0.88,0.94-1.38,0.98     c-0.52,0.05-1.06,0.07-1.22,0.28c-0.22,0.28,0.15,0.62,0.61,0.79C76.9,93.96,77.22,94.02,77.55,94.02z"
           id="path79" /></g></g><g
       id="g81"><g
         id="g83"><path
           style="fill:#330000;"
           d="M64.1,51.13c-4.77,0-6.24,4.45-6.24,8.34c0,2.26,0.88,5.74,6.24,5.74s6.24-3.48,6.24-5.74     C70.35,55.58,68.87,51.13,64.1,51.13z"
           id="path85" /></g><g
         id="g87"><g
           id="g89"><path
             style="fill:#330000;"
             d="M61.48,52.99c-0.3-3.19-4.83-2.95-7.11-2.9c-0.38,2.86,2.35,5.9,4.93,6.71L61.48,52.99z"
             id="path91" /></g><g
           id="g93"><path
             style="fill:#330000;"
             d="M66.73,52.99c0.3-3.19,4.83-2.95,7.11-2.9c0.38,2.86-2.35,5.9-4.93,6.71L66.73,52.99z"
             id="path95" /></g></g><g
         id="g97"><path
           style="fill:#330000;"
           d="M70.3,76.06c0,6.64-4.32,10.35-6.2,10.35c-1.75,0-6.2-3.71-6.2-10.35c0-6.64,0-14.65,6.2-14.65     C70.1,61.41,70.3,69.42,70.3,76.06z"
           id="path99" /></g></g><g
       id="g101"><g
         id="g103"><circle
           style="fill:#FFC148;"
           cx="61.31"
           cy="56.32"
           r="1.3"
           id="circle105" /></g><g
         id="g107"><circle
           style="fill:#FFC148;"
           cx="66.89"
           cy="56.32"
           r="1.3"
           id="circle109" /></g></g></g><line
     style="fill:none;"
     x1="64.1"
     y1="86.41"
     x2="64.1"
     y2="95.71"
     id="line231" /></svg>