<?xml version="1.0" encoding="UTF-8" standalone="no"?>
<!-- Generator: Adobe Illustrator 19.2.1, SVG Export Plug-In . SVG Version: 6.00 Build 0)  -->

<svg
   xmlns:dc="http://purl.org/dc/elements/1.1/"
   xmlns:cc="http://creativecommons.org/ns#"
   xmlns:rdf="http://www.w3.org/1999/02/22-rdf-syntax-ns#"
   xmlns:svg="http://www.w3.org/2000/svg"
   xmlns="http://www.w3.org/2000/svg"
   xmlns:sodipodi="http://sodipodi.sourceforge.net/DTD/sodipodi-0.dtd"
   xmlns:inkscape="http://www.inkscape.org/namespaces/inkscape"
   version="1.1"
   id="レイヤー_1"
   x="0px"
   y="0px"
   viewBox="0 0 128 128"
   style="enable-background:new 0 0 128 128;"
   xml:space="preserve"
   inkscape:version="0.91 r13725"
   sodipodi:docname="269b.svg"><metadata
     id="metadata5610"><rdf:RDF><cc:Work
         rdf:about=""><dc:format>image/svg+xml</dc:format><dc:type
           rdf:resource="http://purl.org/dc/dcmitype/StillImage" /><dc:title></dc:title></cc:Work></rdf:RDF></metadata><defs
     id="defs5608" /><sodipodi:namedview
     pagecolor="#ffffff"
     bordercolor="#666666"
     borderopacity="1"
     objecttolerance="10"
     gridtolerance="10"
     guidetolerance="10"
     inkscape:pageopacity="0"
     inkscape:pageshadow="2"
     inkscape:window-width="1366"
     inkscape:window-height="717"
     id="namedview5606"
     showgrid="false"
     inkscape:zoom="1.84375"
     inkscape:cx="64"
     inkscape:cy="69.922167"
     inkscape:window-x="0"
     inkscape:window-y="0"
     inkscape:window-maximized="1"
     inkscape:current-layer="レイヤー_1" /><g
     id="g5584"><path
       style="fill:#F79229;"
       d="M64,127.55c-16.45,0-25.33-32.74-25.33-63.55S47.55,0.45,64,0.45S89.33,33.19,89.33,64   S80.45,127.55,64,127.55z M64,8.45c-7.24,0-17.33,21.13-17.33,55.55s10.1,55.55,17.33,55.55S81.33,98.42,81.33,64   S71.24,8.45,64,8.45z"
       id="path5586" /></g><g
     id="g5588"><path
       style="fill:#F79229;"
       d="M25.66,103.01c-7.75,0-13.78-2.17-16.7-7.23c-2.66-4.6-3.43-12.92,7.98-26.37   c8.02-9.46,20.23-19.17,34.39-27.34c26.68-15.4,59.48-24.08,67.7-9.84c2.66,4.6,3.43,12.92-7.98,26.37   c-8.02,9.46-20.23,19.17-34.39,27.34C59.47,95.87,39.72,103.01,25.66,103.01z M102.27,32.92c-10.21,0-27.15,4.64-46.93,16.06v0   c-13.39,7.73-24.86,16.82-32.29,25.59c-6.27,7.39-9.01,13.98-7.15,17.2c3.62,6.27,26.97,4.44,56.77-12.76   c13.39-7.73,24.86-16.82,32.29-25.59c6.27-7.39,9.01-13.98,7.15-17.2C110.89,34.12,107.44,32.92,102.27,32.92z"
       id="path5590" /></g><g
     id="g5592"><path
       style="fill:#F79229;"
       d="M102.34,103.01c-14.06,0-33.8-7.14-51-17.07v0C37.17,77.76,24.96,68.05,16.94,58.6   C5.53,45.14,6.31,36.83,8.96,32.22c8.23-14.25,41.02-5.57,67.7,9.84c14.16,8.18,26.38,17.89,34.39,27.34   c11.41,13.46,10.63,21.77,7.98,26.37C116.11,100.84,110.09,103.01,102.34,103.01z M25.73,32.92c-5.18,0-8.62,1.19-9.84,3.3   c-1.86,3.22,0.88,9.81,7.15,17.2c7.44,8.77,18.9,17.86,32.29,25.59v0c29.81,17.21,53.16,19.03,56.77,12.76   c1.86-3.22-0.88-9.81-7.15-17.2c-7.44-8.77-18.9-17.86-32.29-25.59C52.89,37.57,35.95,32.92,25.73,32.92z"
       id="path5594" /></g><circle
     style="fill:#F79229;"
     cx="64"
     cy="64"
     r="7.91"
     id="circle5596" /></svg>