<?xml version="1.0" encoding="UTF-8" standalone="no"?>
<!-- Generator: Adobe Illustrator 19.2.1, SVG Export Plug-In . SVG Version: 6.00 Build 0)  -->

<svg
   xmlns:dc="http://purl.org/dc/elements/1.1/"
   xmlns:cc="http://creativecommons.org/ns#"
   xmlns:rdf="http://www.w3.org/1999/02/22-rdf-syntax-ns#"
   xmlns:svg="http://www.w3.org/2000/svg"
   xmlns="http://www.w3.org/2000/svg"
   xmlns:xlink="http://www.w3.org/1999/xlink"
   xmlns:sodipodi="http://sodipodi.sourceforge.net/DTD/sodipodi-0.dtd"
   xmlns:inkscape="http://www.inkscape.org/namespaces/inkscape"
   version="1.1"
   x="0px"
   y="0px"
   viewBox="0 0 128 128"
   style="enable-background:new 0 0 128 128;"
   xml:space="preserve"
   id="svg5856"
   inkscape:version="0.91 r13725"
   sodipodi:docname="26be.svg"><metadata
     id="metadata6206"><rdf:RDF><cc:Work
         rdf:about=""><dc:format>image/svg+xml</dc:format><dc:type
           rdf:resource="http://purl.org/dc/dcmitype/StillImage" /><dc:title></dc:title></cc:Work></rdf:RDF></metadata><defs
     id="defs6204" /><sodipodi:namedview
     pagecolor="#ffffff"
     bordercolor="#666666"
     borderopacity="1"
     objecttolerance="10"
     gridtolerance="10"
     guidetolerance="10"
     inkscape:pageopacity="0"
     inkscape:pageshadow="2"
     inkscape:window-width="1366"
     inkscape:window-height="717"
     id="namedview6202"
     showgrid="false"
     inkscape:zoom="0.32593203"
     inkscape:cx="64"
     inkscape:cy="64"
     inkscape:window-x="0"
     inkscape:window-y="0"
     inkscape:window-maximized="1"
     inkscape:current-layer="图层_1" /><g
     id="Layer_2" /><g
     id="图层_1"><g
       id="g6054"><g
         id="g6056"><defs
           id="defs6058"><path
             id="SVGID_3_"
             d="M63.99,0.04C28.72,0.04,0.03,28.73,0.03,64c0,35.28,28.69,63.97,63.96,63.97      c35.27,0,63.97-28.69,63.97-63.97C127.97,28.73,99.26,0.04,63.99,0.04z" /></defs><use
           xlink:href="#SVGID_3_"
           style="overflow:visible;fill:#E0E0E0;"
           id="use6061" /><clipPath
           id="SVGID_4_"><use
             xlink:href="#SVGID_3_"
             style="overflow:visible;"
             id="use6064" /></clipPath><g
           style="clip-path:url(#SVGID_4_);"
           id="g6066"
           clip-path="url(#SVGID_4_)"><defs
             id="defs6068"><path
               id="SVGID_5_"
               d="M132.02,64c0,37.57-30.46,68.02-68.03,68.02c-37.56,0-68.02-30.46-68.02-68.02       c0-37.57,30.45-68.02,68.02-68.02C101.57-4.02,132.02,26.43,132.02,64z" /></defs><clipPath
             id="SVGID_6_"><use
               xlink:href="#SVGID_5_"
               style="overflow:visible;"
               id="use6072" /></clipPath><g
             style="clip-path:url(#SVGID_6_);"
             id="g6074"
             clip-path="url(#SVGID_6_)"><g
               id="g6076"><g
                 id="g6078"><g
                   id="g6080"><path
                     style="fill:#ED6C30;"
                     d="M118.46,23.39c-0.36,0-0.73-0.11-1.03-0.33c-2.67-1.86-5.47-0.93-5.6-0.89          c-0.94,0.32-1.99-0.18-2.32-1.12c-0.33-0.95,0.16-1.99,1.1-2.32c0.16-0.06,3.37-1.18,6.93,0.27          c1.82-3.39,5.01-4.58,5.16-4.64c0.95-0.34,2,0.15,2.33,1.1c0.34,0.94-0.13,1.98-1.08,2.33l0,0          c-0.11,0.05-2.87,1.13-3.73,4.26c-0.16,0.57-0.58,1.03-1.14,1.24C118.88,23.36,118.68,23.39,118.46,23.39z"
                     id="path6082" /></g><g
                   id="g6084"><path
                     style="fill:#ED6C30;"
                     d="M121.81,32.64c-0.37,0-0.73-0.11-1.04-0.33c-2.66-1.86-5.47-0.93-5.58-0.89          c-0.94,0.32-1.99-0.17-2.32-1.12c-0.33-0.95,0.14-1.98,1.09-2.32c0.16-0.05,3.37-1.18,6.93,0.27c1.82-3.39,5-4.58,5.16-4.64          c0.95-0.34,2,0.15,2.34,1.1c0.34,0.94-0.14,1.98-1.08,2.33c-0.15,0.06-2.87,1.14-3.72,4.26c-0.16,0.57-0.58,1.03-1.14,1.24          C122.23,32.61,122.02,32.64,121.81,32.64z"
                     id="path6086" /></g><g
                   id="g6088"><path
                     style="fill:#ED6C30;"
                     d="M122.05,41.94c-0.19,0-0.38-0.03-0.57-0.08c-0.56-0.19-1-0.63-1.17-1.21          c-0.96-3.11-3.82-4.12-3.85-4.13c-0.95-0.32-1.48-1.34-1.16-2.3c0.31-0.96,1.34-1.48,2.3-1.17c0.16,0.05,3.38,1.14,5.3,4.47          c3.52-1.55,6.76-0.54,6.92-0.48c0.96,0.31,1.49,1.34,1.17,2.3c-0.31,0.96-1.33,1.49-2.29,1.17          c-0.14-0.04-2.96-0.87-5.56,1.08C122.82,41.82,122.44,41.94,122.05,41.94z"
                     id="path6090" /></g><g
                   id="g6092"><path
                     style="fill:#ED6C30;"
                     d="M119,51.3c-0.19,0-0.38-0.03-0.56-0.09c-0.57-0.19-1-0.63-1.18-1.2          c-0.96-3.11-3.74-4.1-3.86-4.14c-0.94-0.33-1.46-1.35-1.14-2.3c0.32-0.95,1.34-1.47,2.29-1.16c0.16,0.05,3.39,1.14,5.3,4.47          c3.52-1.55,6.76-0.53,6.93-0.48c0.95,0.31,1.48,1.35,1.16,2.3c-0.31,0.96-1.33,1.49-2.28,1.17          c-0.15-0.04-2.97-0.86-5.56,1.08C119.78,51.17,119.39,51.3,119,51.3z"
                     id="path6094" /></g><g
                   id="g6096"><path
                     style="fill:#ED6C30;"
                     d="M119.83,62.62c-0.63,0-1.26-0.33-1.58-0.92c-0.08-0.13-1.6-2.64-4.82-2.98          c-0.59-0.06-1.11-0.4-1.4-0.92c-0.28-0.52-0.31-1.14-0.05-1.68c1.4-2.95-0.01-5.63-0.03-5.65c-0.5-0.88-0.18-2,0.7-2.48          c0.89-0.5,2-0.18,2.48,0.7c0.08,0.15,1.72,3.14,0.89,6.87c3.63,1.24,5.33,4.19,5.41,4.34c0.49,0.88,0.18,1.99-0.7,2.48          C120.44,62.55,120.12,62.62,119.83,62.62z"
                     id="path6098" /></g><g
                   id="g6100"><path
                     style="fill:#ED6C30;"
                     d="M111.24,67.43c-0.63,0-1.25-0.33-1.58-0.92c-0.09-0.13-1.6-2.64-4.82-2.98          c-0.58-0.07-1.11-0.41-1.4-0.93c-0.29-0.51-0.31-1.15-0.05-1.67c1.4-2.95-0.01-5.63-0.02-5.65c-0.5-0.87-0.19-2,0.7-2.48          c0.88-0.5,1.99-0.18,2.48,0.69c0.09,0.15,1.72,3.13,0.88,6.88c3.63,1.24,5.33,4.19,5.41,4.34c0.49,0.88,0.18,1.98-0.7,2.48          C111.86,67.36,111.55,67.43,111.24,67.43z"
                     id="path6102" /></g><g
                   id="g6104"><path
                     style="fill:#ED6C30;"
                     d="M102.67,72.25c-0.63,0-1.26-0.33-1.6-0.92c-0.07-0.13-1.58-2.65-4.8-2.98          c-0.59-0.06-1.12-0.41-1.41-0.92c-0.29-0.52-0.31-1.15-0.05-1.68c1.4-2.95-0.02-5.63-0.03-5.65c-0.5-0.88-0.18-2,0.7-2.48          c0.88-0.49,2-0.18,2.48,0.7c0.08,0.15,1.72,3.13,0.88,6.88c3.64,1.24,5.33,4.19,5.42,4.33c0.49,0.88,0.17,1.99-0.7,2.49          C103.27,72.18,102.96,72.25,102.67,72.25z"
                     id="path6106" /></g><g
                   id="g6108"><path
                     style="fill:#ED6C30;"
                     d="M94.59,76.83c-0.58,0-1.15-0.28-1.51-0.79c-0.07-0.11-1.8-2.5-5.05-2.56          c-0.59-0.01-1.14-0.3-1.48-0.8c-0.33-0.49-0.4-1.11-0.2-1.67c1.15-3.06-0.49-5.6-0.51-5.62c-0.57-0.84-0.35-1.98,0.49-2.53          c0.83-0.57,1.97-0.35,2.54,0.48c0.1,0.14,1.97,2.97,1.46,6.78c3.73,0.92,5.67,3.71,5.77,3.86c0.57,0.83,0.36,1.96-0.47,2.53          C95.29,76.73,94.93,76.83,94.59,76.83z"
                     id="path6110" /></g><g
                   id="g6112"><path
                     style="fill:#ED6C30;"
                     d="M86.44,82.36c-0.58,0-1.15-0.27-1.51-0.79c-0.08-0.13-1.81-2.5-5.04-2.56          c-0.6-0.01-1.15-0.31-1.48-0.8c-0.34-0.49-0.41-1.11-0.2-1.67c1.14-3.05-0.5-5.6-0.52-5.63c-0.56-0.84-0.35-1.96,0.49-2.53          c0.83-0.56,1.98-0.35,2.53,0.49c0.1,0.13,1.99,2.98,1.47,6.78c3.73,0.92,5.67,3.72,5.77,3.85c0.56,0.84,0.35,1.98-0.49,2.53          C87.15,82.26,86.79,82.36,86.44,82.36z"
                     id="path6114" /></g><g
                   id="g6116"><path
                     style="fill:#ED6C30;"
                     d="M78.3,87.89c-0.58,0-1.15-0.27-1.5-0.79c-0.09-0.13-1.82-2.49-5.05-2.55          c-0.59-0.01-1.14-0.31-1.48-0.79c-0.34-0.5-0.41-1.12-0.2-1.67c1.15-3.05-0.5-5.6-0.51-5.63c-0.57-0.84-0.35-1.96,0.49-2.53          c0.82-0.56,1.96-0.35,2.53,0.48c0.1,0.14,1.98,2.98,1.46,6.78c3.73,0.92,5.67,3.72,5.77,3.86c0.57,0.83,0.35,1.96-0.49,2.53          C79.01,87.78,78.66,87.89,78.3,87.89z"
                     id="path6118" /></g><g
                   id="g6120"><path
                     style="fill:#ED6C30;"
                     d="M65.46,91.63c-0.26,0-0.54-0.06-0.79-0.17c-0.53-0.26-0.91-0.76-1-1.34          c-0.55-3.21-3.18-4.55-3.3-4.61c-0.9-0.45-1.28-1.54-0.83-2.43c0.44-0.91,1.52-1.28,2.42-0.86          c0.16,0.07,3.21,1.57,4.68,5.12c3.7-1.09,6.78,0.35,6.93,0.42c0.91,0.43,1.3,1.52,0.86,2.43c-0.43,0.9-1.51,1.29-2.42,0.87          c-0.13-0.06-2.81-1.25-5.65,0.34C66.07,91.55,65.77,91.63,65.46,91.63z"
                     id="path6122" /></g><g
                   id="g6124"><path
                     style="fill:#ED6C30;"
                     d="M61.22,100.51c-0.27,0-0.54-0.05-0.78-0.17c-0.54-0.26-0.92-0.75-1.01-1.33          c-0.55-3.21-3.18-4.56-3.3-4.62c-0.89-0.44-1.27-1.53-0.82-2.44c0.43-0.9,1.51-1.28,2.42-0.84          c0.15,0.07,3.21,1.57,4.68,5.12c3.67-1.09,6.77,0.35,6.92,0.42c0.92,0.43,1.3,1.52,0.87,2.43c-0.43,0.91-1.52,1.3-2.42,0.87          c-0.14-0.05-2.82-1.25-5.65,0.34C61.84,100.44,61.52,100.51,61.22,100.51z"
                     id="path6126" /></g><g
                   id="g6128"><path
                     style="fill:#ED6C30;"
                     d="M56.98,109.39c-0.27,0-0.54-0.06-0.79-0.18c-0.53-0.25-0.91-0.75-1.02-1.34          c-0.54-3.2-3.18-4.55-3.28-4.6c-0.9-0.44-1.28-1.54-0.83-2.44c0.44-0.89,1.52-1.28,2.42-0.84c0.15,0.08,3.21,1.57,4.68,5.12          c3.69-1.08,6.78,0.35,6.93,0.43c0.91,0.43,1.29,1.52,0.86,2.43c-0.43,0.9-1.51,1.29-2.42,0.86          c-0.13-0.06-2.82-1.24-5.65,0.34C57.6,109.32,57.29,109.39,56.98,109.39z"
                     id="path6130" /></g><g
                   id="g6132"><path
                     style="fill:#ED6C30;"
                     d="M56,118.67c-0.46,0-0.91-0.18-1.26-0.5c-2.38-2.24-5.35-1.71-5.39-1.7          c-0.99,0.2-1.95-0.44-2.15-1.42c-0.2-0.99,0.44-1.95,1.43-2.15c0.17-0.03,3.51-0.68,6.82,1.27c2.28-3.08,5.62-3.8,5.78-3.83          c0.99-0.2,1.95,0.44,2.15,1.43c0.2,0.98-0.43,1.94-1.41,2.15c-0.14,0.03-3.01,0.7-4.31,3.67c-0.24,0.55-0.73,0.94-1.31,1.05          C56.24,118.66,56.12,118.67,56,118.67z"
                     id="path6134" /></g><g
                   id="g6136"><path
                     style="fill:#ED6C30;"
                     d="M57.95,128.31c-0.45,0-0.91-0.18-1.25-0.49c-2.38-2.24-5.36-1.71-5.39-1.7          c-0.99,0.2-1.95-0.44-2.15-1.43c-0.2-0.99,0.43-1.96,1.43-2.15c0.16-0.03,3.51-0.68,6.82,1.27          c2.28-3.08,5.61-3.79,5.78-3.83c0.99-0.2,1.95,0.45,2.15,1.43c0.2,0.99-0.43,1.95-1.42,2.16c-0.17,0.03-3.01,0.72-4.3,3.66          c-0.24,0.55-0.73,0.94-1.31,1.06C58.2,128.3,58.08,128.31,57.95,128.31z"
                     id="path6138" /></g><g
                   id="g6140"><path
                     style="fill:#ED6C30;"
                     d="M59.92,137.95c-0.47,0-0.91-0.18-1.26-0.5c-2.38-2.24-5.35-1.71-5.39-1.7          c-0.98,0.19-1.94-0.44-2.14-1.43c-0.2-0.99,0.43-1.95,1.42-2.15c0.17-0.03,3.52-0.68,6.82,1.27          c2.29-3.08,5.62-3.79,5.79-3.83c0.98-0.19,1.95,0.44,2.15,1.43c0.19,0.99-0.43,1.94-1.42,2.16          c-0.15,0.03-3.01,0.7-4.31,3.66c-0.23,0.55-0.73,0.94-1.31,1.06C60.16,137.95,60.03,137.95,59.92,137.95z"
                     id="path6142" /></g></g><g
                 id="g6144"><g
                   id="g6146"><path
                     style="fill:#ED6C30;"
                     d="M9.14,96.68c-0.3,0-0.59-0.06-0.86-0.22c-0.15-0.08-3.13-1.74-4.42-5.35          c-3.74,0.89-6.75-0.7-6.9-0.78c-0.88-0.48-1.21-1.58-0.73-2.47c0.48-0.89,1.57-1.22,2.46-0.74          c0.11,0.06,2.76,1.39,5.66-0.05c0.53-0.27,1.15-0.25,1.68,0.03c0.52,0.29,0.87,0.8,0.94,1.39c0.38,3.23,2.95,4.71,3.05,4.76          c0.87,0.5,1.19,1.61,0.71,2.48C10.39,96.34,9.77,96.68,9.14,96.68z"
                     id="path6148" /></g><g
                   id="g6150"><path
                     style="fill:#ED6C30;"
                     d="M13.82,88.03c-0.3,0-0.59-0.08-0.87-0.22c-0.15-0.08-3.13-1.73-4.41-5.34          c-3.73,0.9-6.75-0.69-6.9-0.78c-0.89-0.48-1.21-1.58-0.73-2.47c0.47-0.89,1.57-1.22,2.46-0.74          c0.13,0.06,2.76,1.39,5.65-0.05c0.54-0.27,1.16-0.25,1.68,0.03c0.53,0.28,0.88,0.8,0.95,1.39c0.38,3.23,2.94,4.71,3.05,4.77          c0.87,0.5,1.19,1.61,0.71,2.48C15.08,87.69,14.46,88.03,13.82,88.03z"
                     id="path6152" /></g><g
                   id="g6154"><path
                     style="fill:#ED6C30;"
                     d="M18.51,79.38c-0.3,0-0.59-0.08-0.87-0.22c-0.15-0.08-3.13-1.73-4.41-5.35          c-3.74,0.89-6.75-0.7-6.9-0.77c-0.89-0.49-1.21-1.59-0.73-2.47c0.47-0.89,1.57-1.21,2.46-0.74          c0.12,0.06,2.76,1.39,5.65-0.05c0.54-0.26,1.16-0.25,1.68,0.03c0.53,0.28,0.88,0.8,0.95,1.38c0.38,3.23,2.94,4.71,3.05,4.77          c0.86,0.49,1.19,1.6,0.71,2.47C19.77,79.04,19.15,79.38,18.51,79.38z"
                     id="path6156" /></g><g
                   id="g6158"><path
                     style="fill:#ED6C30;"
                     d="M23.2,70.73c-0.3,0-0.59-0.08-0.87-0.22c-0.15-0.08-3.13-1.73-4.41-5.35          c-3.74,0.9-6.75-0.69-6.9-0.77c-0.89-0.49-1.21-1.6-0.73-2.48c0.47-0.88,1.57-1.21,2.46-0.74c0.12,0.07,2.76,1.39,5.65-0.04          c0.54-0.27,1.16-0.25,1.68,0.03c0.53,0.27,0.88,0.8,0.95,1.38c0.38,3.23,2.94,4.71,3.05,4.77c0.86,0.49,1.19,1.59,0.71,2.47          C24.46,70.39,23.83,70.73,23.2,70.73z"
                     id="path6160" /></g><g
                   id="g6162"><path
                     style="fill:#ED6C30;"
                     d="M25.78,58.8c-0.06,0-0.13,0-0.19-0.01c-0.17-0.01-3.56-0.4-6.12-3.25          c-3.11,2.25-6.51,1.93-6.66,1.92c-1-0.11-1.73-1-1.62-2.01c0.11-1,1.01-1.71,2-1.63c0.16,0.02,3.07,0.22,5.21-2.21          c0.39-0.45,0.97-0.68,1.56-0.62c0.58,0.06,1.11,0.4,1.39,0.92c1.6,2.84,4.52,3.22,4.65,3.24c0.99,0.12,1.71,1.03,1.61,2.02          C27.48,58.11,26.7,58.8,25.78,58.8z"
                     id="path6164" /></g><g
                   id="g6166"><path
                     style="fill:#ED6C30;"
                     d="M26.8,49.01c-0.06,0-0.13-0.01-0.19-0.01c-0.17-0.02-3.56-0.41-6.12-3.26          c-3.12,2.26-6.51,1.93-6.66,1.92c-1-0.11-1.73-1.01-1.63-2.01c0.11-0.99,0.99-1.7,2-1.63c0.15,0.02,3.07,0.23,5.21-2.21          c0.38-0.44,0.96-0.68,1.56-0.61c0.58,0.07,1.11,0.4,1.39,0.92c1.59,2.84,4.52,3.23,4.65,3.24c0.99,0.12,1.71,1.02,1.61,2.02          C28.5,48.32,27.72,49.01,26.8,49.01z"
                     id="path6168" /></g><g
                   id="g6170"><path
                     style="fill:#ED6C30;"
                     d="M27.83,39.23c-0.06,0-0.13,0-0.19-0.01c-0.17-0.02-3.56-0.41-6.13-3.26          c-3.1,2.26-6.49,1.94-6.66,1.92c-1-0.11-1.73-1-1.63-2.01c0.11-0.99,0.99-1.71,1.99-1.63c0.15,0.02,3.08,0.23,5.22-2.2          c0.39-0.45,0.97-0.68,1.56-0.61c0.58,0.06,1.11,0.41,1.39,0.92c1.59,2.84,4.52,3.23,4.65,3.24          c0.99,0.12,1.71,1.02,1.61,2.02C29.53,38.54,28.74,39.23,27.83,39.23z"
                     id="path6172" /></g><g
                   id="g6174"><path
                     style="fill:#ED6C30;"
                     d="M29.41,31.76c-0.25,0-0.51-0.06-0.75-0.17c-0.16-0.06-3.23-1.52-4.76-5.05          c-3.65,1.15-6.77-0.24-6.93-0.32c-0.92-0.42-1.32-1.5-0.9-2.42c0.42-0.91,1.49-1.31,2.41-0.9c0.14,0.05,2.84,1.19,5.64-0.42          c0.52-0.31,1.14-0.34,1.68-0.08c0.54,0.24,0.93,0.74,1.03,1.32c0.6,3.2,3.25,4.51,3.36,4.56c0.91,0.43,1.3,1.51,0.88,2.42          C30.75,31.37,30.1,31.76,29.41,31.76z"
                     id="path6176" /></g><g
                   id="g6178"><path
                     style="fill:#ED6C30;"
                     d="M33.52,22.82c-0.25,0-0.51-0.05-0.76-0.17c-0.15-0.06-3.23-1.52-4.75-5.04          c-3.67,1.14-6.78-0.25-6.93-0.31c-0.92-0.42-1.32-1.51-0.9-2.42c0.41-0.91,1.49-1.31,2.41-0.9c0.15,0.06,2.84,1.2,5.64-0.42          c0.51-0.3,1.14-0.33,1.68-0.08c0.54,0.24,0.92,0.74,1.03,1.32c0.59,3.2,3.24,4.51,3.36,4.56c0.9,0.43,1.29,1.51,0.87,2.42          C34.86,22.43,34.2,22.82,33.52,22.82z"
                     id="path6180" /></g><g
                   id="g6182"><path
                     style="fill:#ED6C30;"
                     d="M37.63,13.87c-0.25,0-0.52-0.05-0.76-0.16c-0.15-0.07-3.23-1.53-4.75-5.05          c-3.66,1.14-6.78-0.25-6.94-0.32c-0.91-0.42-1.31-1.51-0.9-2.42c0.42-0.92,1.5-1.32,2.41-0.91c0.16,0.07,2.85,1.2,5.65-0.42          c0.51-0.3,1.14-0.33,1.67-0.08c0.55,0.25,0.93,0.74,1.03,1.33c0.6,3.19,3.25,4.5,3.37,4.55c0.9,0.43,1.29,1.52,0.86,2.42          C38.97,13.48,38.31,13.87,37.63,13.87z"
                     id="path6184" /></g><g
                   id="g6186"><path
                     style="fill:#ED6C30;"
                     d="M40.03,8.19c-0.59,0-1.18-0.3-1.53-0.83c-0.1-0.14-1.92-3.01-1.33-6.81          c-3.71-0.99-5.6-3.83-5.69-3.97c-0.55-0.84-0.31-1.97,0.54-2.52c0.83-0.55,1.96-0.32,2.51,0.52          c0.09,0.14,1.77,2.53,4.99,2.65c0.6,0.02,1.14,0.34,1.47,0.83c0.32,0.49,0.38,1.12,0.17,1.67c-1.2,3.03,0.38,5.61,0.4,5.63          c0.55,0.85,0.31,1.98-0.54,2.53C40.72,8.09,40.37,8.19,40.03,8.19z"
                     id="path6188" /></g><g
                   id="g6190"><path
                     style="fill:#ED6C30;"
                     d="M48.28,2.82c-0.6,0-1.18-0.3-1.53-0.83c-0.1-0.14-1.92-3.02-1.33-6.81          c-3.71-0.99-5.6-3.82-5.69-3.97c-0.55-0.85-0.31-1.98,0.53-2.53c0.84-0.55,1.98-0.32,2.52,0.53          c0.09,0.13,1.77,2.52,4.99,2.65c0.59,0.02,1.14,0.33,1.46,0.82c0.33,0.49,0.39,1.12,0.17,1.67C48.2-2.61,49.79-0.03,49.8,0          c0.55,0.84,0.32,1.98-0.53,2.52C48.97,2.72,48.62,2.82,48.28,2.82z"
                     id="path6192" /></g><g
                   id="g6194"><path
                     style="fill:#ED6C30;"
                     d="M55.54-2.25c-0.69,0-1.35-0.4-1.66-1.08c-0.06-0.15-1.43-3.27-0.27-6.93          c-3.51-1.55-4.94-4.64-5.01-4.79c-0.41-0.92,0-2.01,0.92-2.42c0.92-0.41,1.99,0,2.41,0.91c0.06,0.14,1.35,2.78,4.52,3.39          c0.59,0.11,1.08,0.49,1.32,1.04c0.24,0.55,0.21,1.17-0.09,1.67c-1.65,2.81-0.51,5.53-0.47,5.65c0.4,0.92-0.02,2-0.94,2.4          C56.04-2.31,55.79-2.25,55.54-2.25z"
                     id="path6196" /></g><g
                   id="g6198"><path
                     style="fill:#ED6C30;"
                     d="M64-4.78c-0.8,0-1.53-0.53-1.75-1.34c-0.04-0.16-0.92-3.45,0.8-6.88          c-3.23-2.08-4.17-5.35-4.21-5.51c-0.27-0.97,0.31-1.98,1.28-2.25c0.96-0.27,1.97,0.31,2.24,1.27          c0.04,0.13,0.91,2.95,3.95,4.04c0.56,0.2,0.98,0.67,1.14,1.24c0.16,0.57,0.03,1.18-0.35,1.65          c-2.07,2.51-1.34,5.46-1.33,5.48c0.26,0.97-0.31,1.98-1.28,2.25C64.33-4.8,64.17-4.78,64-4.78z"
                     id="path6200" /></g></g></g></g></g></g></g></g></svg>